0
SECTION
2
HEADER
9
$INSUNITS
70
4
0
ENDSEC
0
SECTION
2
TABLES
0
TABLE
2
LTYPE
0
LTYPE
72
65
70
64
2
CONTINUOUS
3
______
73
0
40
0
0
ENDTAB
0
TABLE
2
LAYER
0
ENDTAB
0
ENDSEC
0
SECTION
2
ENTITIES
0
LINE
8
0
10
-9
20
30
11
9
21
30
0
LINE
8
0
10
9
20
30
11
9
21
12
0
LINE
8
0
10
9
20
12
11
-9
21
12
0
LINE
8
0
10
-9
20
12
11
-9
21
30
0
LINE
8
0
10
-9
20
49
11
9
21
49
0
LINE
8
0
10
9
20
49
11
9
21
31
0
LINE
8
0
10
9
20
31
11
-9
21
31
0
LINE
8
0
10
-9
20
31
11
-9
21
49
0
LINE
8
0
10
-9
20
68
11
9
21
68
0
LINE
8
0
10
9
20
68
11
9
21
50
0
LINE
8
0
10
9
20
50
11
-9
21
50
0
LINE
8
0
10
-9
20
50
11
-9
21
68
0
LINE
8
0
10
-9
20
87
11
9
21
87
0
LINE
8
0
10
9
20
87
11
9
21
69
0
LINE
8
0
10
9
20
69
11
-9
21
69
0
LINE
8
0
10
-9
20
69
11
-9
21
87
0
LINE
8
0
10
10
20
9
11
28
21
9
0
LINE
8
0
10
28
20
9
11
28
21
-9
0
LINE
8
0
10
28
20
-9
11
10
21
-9
0
LINE
8
0
10
10
20
-9
11
10
21
9
0
LINE
8
0
10
10
20
30
11
28
21
30
0
LINE
8
0
10
28
20
30
11
28
21
12
0
LINE
8
0
10
28
20
12
11
10
21
12
0
LINE
8
0
10
10
20
12
11
10
21
30
0
LINE
8
0
10
10
20
49
11
28
21
49
0
LINE
8
0
10
28
20
49
11
28
21
31
0
LINE
8
0
10
28
20
31
11
10
21
31
0
LINE
8
0
10
10
20
31
11
10
21
49
0
LINE
8
0
10
10
20
68
11
28
21
68
0
LINE
8
0
10
28
20
68
11
28
21
50
0
LINE
8
0
10
28
20
50
11
10
21
50
0
LINE
8
0
10
10
20
50
11
10
21
68
0
LINE
8
0
10
10
20
87
11
28
21
87
0
LINE
8
0
10
28
20
87
11
28
21
69
0
LINE
8
0
10
28
20
69
11
10
21
69
0
LINE
8
0
10
10
20
69
11
10
21
87
0
LINE
8
0
10
29
20
9
11
47
21
9
0
LINE
8
0
10
47
20
9
11
47
21
-9
0
LINE
8
0
10
47
20
-9
11
29
21
-9
0
LINE
8
0
10
29
20
-9
11
29
21
9
0
LINE
8
0
10
29
20
30
11
47
21
30
0
LINE
8
0
10
47
20
30
11
47
21
12
0
LINE
8
0
10
47
20
12
11
29
21
12
0
LINE
8
0
10
29
20
12
11
29
21
30
0
LINE
8
0
10
29
20
49
11
47
21
49
0
LINE
8
0
10
47
20
49
11
47
21
31
0
LINE
8
0
10
47
20
31
11
29
21
31
0
LINE
8
0
10
29
20
31
11
29
21
49
0
LINE
8
0
10
29
20
68
11
47
21
68
0
LINE
8
0
10
47
20
68
11
47
21
50
0
LINE
8
0
10
47
20
50
11
29
21
50
0
LINE
8
0
10
29
20
50
11
29
21
68
0
LINE
8
0
10
29
20
87
11
47
21
87
0
LINE
8
0
10
47
20
87
11
47
21
69
0
LINE
8
0
10
47
20
69
11
29
21
69
0
LINE
8
0
10
29
20
69
11
29
21
87
0
LINE
8
0
10
48
20
15
11
66
21
15
0
LINE
8
0
10
66
20
15
11
66
21
-3
0
LINE
8
0
10
66
20
-3
11
48
21
-3
0
LINE
8
0
10
48
20
-3
11
48
21
15
0
LINE
8
0
10
48
20
36
11
66
21
36
0
LINE
8
0
10
66
20
36
11
66
21
18
0
LINE
8
0
10
66
20
18
11
48
21
18
0
LINE
8
0
10
48
20
18
11
48
21
36
0
LINE
8
0
10
48
20
55
11
66
21
55
0
LINE
8
0
10
66
20
55
11
66
21
37
0
LINE
8
0
10
66
20
37
11
48
21
37
0
LINE
8
0
10
48
20
37
11
48
21
55
0
LINE
8
0
10
48
20
74
11
66
21
74
0
LINE
8
0
10
66
20
74
11
66
21
56
0
LINE
8
0
10
66
20
56
11
48
21
56
0
LINE
8
0
10
48
20
56
11
48
21
74
0
LINE
8
0
10
48
20
93
11
66
21
93
0
LINE
8
0
10
66
20
93
11
66
21
75
0
LINE
8
0
10
66
20
75
11
48
21
75
0
LINE
8
0
10
48
20
75
11
48
21
93
0
LINE
8
0
10
67
20
18
11
85
21
18
0
LINE
8
0
10
85
20
18
11
85
21
0
0
LINE
8
0
10
85
20
0
11
67
21
0
0
LINE
8
0
10
67
20
0
11
67
21
18
0
LINE
8
0
10
67
20
39
11
85
21
39
0
LINE
8
0
10
85
20
39
11
85
21
21
0
LINE
8
0
10
85
20
21
11
67
21
21
0
LINE
8
0
10
67
20
21
11
67
21
39
0
LINE
8
0
10
67
20
58
11
85
21
58
0
LINE
8
0
10
85
20
58
11
85
21
40
0
LINE
8
0
10
85
20
40
11
67
21
40
0
LINE
8
0
10
67
20
40
11
67
21
58
0
LINE
8
0
10
67
20
77
11
85
21
77
0
LINE
8
0
10
85
20
77
11
85
21
59
0
LINE
8
0
10
85
20
59
11
67
21
59
0
LINE
8
0
10
67
20
59
11
67
21
77
0
LINE
8
0
10
67
20
96
11
85
21
96
0
LINE
8
0
10
85
20
96
11
85
21
78
0
LINE
8
0
10
85
20
78
11
67
21
78
0
LINE
8
0
10
67
20
78
11
67
21
96
0
LINE
8
0
10
86
20
15
11
104
21
15
0
LINE
8
0
10
104
20
15
11
104
21
-3
0
LINE
8
0
10
104
20
-3
11
86
21
-3
0
LINE
8
0
10
86
20
-3
11
86
21
15
0
LINE
8
0
10
86
20
36
11
104
21
36
0
LINE
8
0
10
104
20
36
11
104
21
18
0
LINE
8
0
10
104
20
18
11
86
21
18
0
LINE
8
0
10
86
20
18
11
86
21
36
0
LINE
8
0
10
86
20
55
11
104
21
55
0
LINE
8
0
10
104
20
55
11
104
21
37
0
LINE
8
0
10
104
20
37
11
86
21
37
0
LINE
8
0
10
86
20
37
11
86
21
55
0
LINE
8
0
10
86
20
74
11
104
21
74
0
LINE
8
0
10
104
20
74
11
104
21
56
0
LINE
8
0
10
104
20
56
11
86
21
56
0
LINE
8
0
10
86
20
56
11
86
21
74
0
LINE
8
0
10
86
20
93
11
104
21
93
0
LINE
8
0
10
104
20
93
11
104
21
75
0
LINE
8
0
10
104
20
75
11
86
21
75
0
LINE
8
0
10
86
20
75
11
86
21
93
0
LINE
8
0
10
105
20
33
11
123
21
33
0
LINE
8
0
10
123
20
33
11
123
21
15
0
LINE
8
0
10
123
20
15
11
105
21
15
0
LINE
8
0
10
105
20
15
11
105
21
33
0
LINE
8
0
10
105
20
52
11
123
21
52
0
LINE
8
0
10
123
20
52
11
123
21
34
0
LINE
8
0
10
123
20
34
11
105
21
34
0
LINE
8
0
10
105
20
34
11
105
21
52
0
LINE
8
0
10
105
20
71
11
123
21
71
0
LINE
8
0
10
123
20
71
11
123
21
53
0
LINE
8
0
10
123
20
53
11
105
21
53
0
LINE
8
0
10
105
20
53
11
105
21
71
0
LINE
8
0
10
105
20
90
11
123
21
90
0
LINE
8
0
10
123
20
90
11
123
21
72
0
LINE
8
0
10
123
20
72
11
105
21
72
0
LINE
8
0
10
105
20
72
11
105
21
90
0
LINE
8
0
10
110.3401453
20
9.1649705
11
128.1649705
21
6.6598547
0
LINE
8
0
10
128.1649705
20
6.6598547
11
125.6598547
21
-11.1649705
0
LINE
8
0
10
125.6598547
20
-11.1649705
11
107.8350295
21
-8.6598547
0
LINE
8
0
10
107.8350295
20
-8.6598547
11
110.3401453
21
9.1649705
0
LINE
8
0
10
133.0640037
20
5.1477599
11
150.3667143
21
0.1862875
0
LINE
8
0
10
150.3667143
20
0.1862875
11
145.4052419
21
-17.1164231
0
LINE
8
0
10
145.4052419
20
-17.1164231
11
128.1025313
21
-12.1549507
0
LINE
8
0
10
128.1025313
20
-12.1549507
11
133.0640037
21
5.1477599
0
LINE
8
0
10
154.7454289
20
-1.8974729
11
171.1892471
21
-9.2187325
0
LINE
8
0
10
171.1892471
20
-9.2187325
11
163.8679875
21
-25.6625507
0
LINE
8
0
10
163.8679875
20
-25.6625507
11
147.4241693
21
-18.3412911
0
LINE
8
0
10
147.4241693
20
-18.3412911
11
154.7454289
21
-1.8974729
0
ENDSEC
0
EOF