0
SECTION
2
HEADER
9
$INSUNITS
70
4
0
ENDSEC
0
SECTION
2
TABLES
0
TABLE
2
LTYPE
0
LTYPE
72
65
70
64
2
CONTINUOUS
3
______
73
0
40
0
0
ENDTAB
0
TABLE
2
LAYER
0
ENDTAB
0
ENDSEC
0
SECTION
2
ENTITIES
0
LINE
8
0
10
-9
20
12.5
11
9
21
12.5
0
LINE
8
0
10
9
20
12.5
11
9
21
29.5
0
LINE
8
0
10
9
20
29.5
11
-9
21
29.5
0
LINE
8
0
10
-9
20
29.5
11
-9
21
12.5
0
LINE
8
0
10
-9
20
31.5
11
9
21
31.5
0
LINE
8
0
10
9
20
31.5
11
9
21
48.5
0
LINE
8
0
10
9
20
48.5
11
-9
21
48.5
0
LINE
8
0
10
-9
20
48.5
11
-9
21
31.5
0
LINE
8
0
10
-9
20
50.5
11
9
21
50.5
0
LINE
8
0
10
9
20
50.5
11
9
21
67.5
0
LINE
8
0
10
9
20
67.5
11
-9
21
67.5
0
LINE
8
0
10
-9
20
67.5
11
-9
21
50.5
0
LINE
8
0
10
-9
20
69.5
11
9
21
69.5
0
LINE
8
0
10
9
20
69.5
11
9
21
86.5
0
LINE
8
0
10
9
20
86.5
11
-9
21
86.5
0
LINE
8
0
10
-9
20
86.5
11
-9
21
69.5
0
LINE
8
0
10
10
20
-8.5
11
28
21
-8.5
0
LINE
8
0
10
28
20
-8.5
11
28
21
8.5
0
LINE
8
0
10
28
20
8.5
11
10
21
8.5
0
LINE
8
0
10
10
20
8.5
11
10
21
-8.5
0
LINE
8
0
10
10
20
12.5
11
28
21
12.5
0
LINE
8
0
10
28
20
12.5
11
28
21
29.5
0
LINE
8
0
10
28
20
29.5
11
10
21
29.5
0
LINE
8
0
10
10
20
29.5
11
10
21
12.5
0
LINE
8
0
10
10
20
31.5
11
28
21
31.5
0
LINE
8
0
10
28
20
31.5
11
28
21
48.5
0
LINE
8
0
10
28
20
48.5
11
10
21
48.5
0
LINE
8
0
10
10
20
48.5
11
10
21
31.5
0
LINE
8
0
10
10
20
50.5
11
28
21
50.5
0
LINE
8
0
10
28
20
50.5
11
28
21
67.5
0
LINE
8
0
10
28
20
67.5
11
10
21
67.5
0
LINE
8
0
10
10
20
67.5
11
10
21
50.5
0
LINE
8
0
10
10
20
69.5
11
28
21
69.5
0
LINE
8
0
10
28
20
69.5
11
28
21
86.5
0
LINE
8
0
10
28
20
86.5
11
10
21
86.5
0
LINE
8
0
10
10
20
86.5
11
10
21
69.5
0
LINE
8
0
10
29
20
-8.5
11
47
21
-8.5
0
LINE
8
0
10
47
20
-8.5
11
47
21
8.5
0
LINE
8
0
10
47
20
8.5
11
29
21
8.5
0
LINE
8
0
10
29
20
8.5
11
29
21
-8.5
0
LINE
8
0
10
29
20
12.5
11
47
21
12.5
0
LINE
8
0
10
47
20
12.5
11
47
21
29.5
0
LINE
8
0
10
47
20
29.5
11
29
21
29.5
0
LINE
8
0
10
29
20
29.5
11
29
21
12.5
0
LINE
8
0
10
29
20
31.5
11
47
21
31.5
0
LINE
8
0
10
47
20
31.5
11
47
21
48.5
0
LINE
8
0
10
47
20
48.5
11
29
21
48.5
0
LINE
8
0
10
29
20
48.5
11
29
21
31.5
0
LINE
8
0
10
29
20
50.5
11
47
21
50.5
0
LINE
8
0
10
47
20
50.5
11
47
21
67.5
0
LINE
8
0
10
47
20
67.5
11
29
21
67.5
0
LINE
8
0
10
29
20
67.5
11
29
21
50.5
0
LINE
8
0
10
29
20
69.5
11
47
21
69.5
0
LINE
8
0
10
47
20
69.5
11
47
21
86.5
0
LINE
8
0
10
47
20
86.5
11
29
21
86.5
0
LINE
8
0
10
29
20
86.5
11
29
21
69.5
0
LINE
8
0
10
48
20
-2.5
11
66
21
-2.5
0
LINE
8
0
10
66
20
-2.5
11
66
21
14.5
0
LINE
8
0
10
66
20
14.5
11
48
21
14.5
0
LINE
8
0
10
48
20
14.5
11
48
21
-2.5
0
LINE
8
0
10
48
20
18.5
11
66
21
18.5
0
LINE
8
0
10
66
20
18.5
11
66
21
35.5
0
LINE
8
0
10
66
20
35.5
11
48
21
35.5
0
LINE
8
0
10
48
20
35.5
11
48
21
18.5
0
LINE
8
0
10
48
20
37.5
11
66
21
37.5
0
LINE
8
0
10
66
20
37.5
11
66
21
54.5
0
LINE
8
0
10
66
20
54.5
11
48
21
54.5
0
LINE
8
0
10
48
20
54.5
11
48
21
37.5
0
LINE
8
0
10
48
20
56.5
11
66
21
56.5
0
LINE
8
0
10
66
20
56.5
11
66
21
73.5
0
LINE
8
0
10
66
20
73.5
11
48
21
73.5
0
LINE
8
0
10
48
20
73.5
11
48
21
56.5
0
LINE
8
0
10
48
20
75.5
11
66
21
75.5
0
LINE
8
0
10
66
20
75.5
11
66
21
92.5
0
LINE
8
0
10
66
20
92.5
11
48
21
92.5
0
LINE
8
0
10
48
20
92.5
11
48
21
75.5
0
LINE
8
0
10
67
20
0.5
11
85
21
0.5
0
LINE
8
0
10
85
20
0.5
11
85
21
17.5
0
LINE
8
0
10
85
20
17.5
11
67
21
17.5
0
LINE
8
0
10
67
20
17.5
11
67
21
0.5
0
LINE
8
0
10
67
20
21.5
11
85
21
21.5
0
LINE
8
0
10
85
20
21.5
11
85
21
38.5
0
LINE
8
0
10
85
20
38.5
11
67
21
38.5
0
LINE
8
0
10
67
20
38.5
11
67
21
21.5
0
LINE
8
0
10
67
20
40.5
11
85
21
40.5
0
LINE
8
0
10
85
20
40.5
11
85
21
57.5
0
LINE
8
0
10
85
20
57.5
11
67
21
57.5
0
LINE
8
0
10
67
20
57.5
11
67
21
40.5
0
LINE
8
0
10
67
20
59.5
11
85
21
59.5
0
LINE
8
0
10
85
20
59.5
11
85
21
76.5
0
LINE
8
0
10
85
20
76.5
11
67
21
76.5
0
LINE
8
0
10
67
20
76.5
11
67
21
59.5
0
LINE
8
0
10
67
20
78.5
11
85
21
78.5
0
LINE
8
0
10
85
20
78.5
11
85
21
95.5
0
LINE
8
0
10
85
20
95.5
11
67
21
95.5
0
LINE
8
0
10
67
20
95.5
11
67
21
78.5
0
LINE
8
0
10
86
20
-2.5
11
104
21
-2.5
0
LINE
8
0
10
104
20
-2.5
11
104
21
14.5
0
LINE
8
0
10
104
20
14.5
11
86
21
14.5
0
LINE
8
0
10
86
20
14.5
11
86
21
-2.5
0
LINE
8
0
10
86
20
18.5
11
104
21
18.5
0
LINE
8
0
10
104
20
18.5
11
104
21
35.5
0
LINE
8
0
10
104
20
35.5
11
86
21
35.5
0
LINE
8
0
10
86
20
35.5
11
86
21
18.5
0
LINE
8
0
10
86
20
37.5
11
104
21
37.5
0
LINE
8
0
10
104
20
37.5
11
104
21
54.5
0
LINE
8
0
10
104
20
54.5
11
86
21
54.5
0
LINE
8
0
10
86
20
54.5
11
86
21
37.5
0
LINE
8
0
10
86
20
56.5
11
104
21
56.5
0
LINE
8
0
10
104
20
56.5
11
104
21
73.5
0
LINE
8
0
10
104
20
73.5
11
86
21
73.5
0
LINE
8
0
10
86
20
73.5
11
86
21
56.5
0
LINE
8
0
10
86
20
75.5
11
104
21
75.5
0
LINE
8
0
10
104
20
75.5
11
104
21
92.5
0
LINE
8
0
10
104
20
92.5
11
86
21
92.5
0
LINE
8
0
10
86
20
92.5
11
86
21
75.5
0
LINE
8
0
10
105
20
15.5
11
123
21
15.5
0
LINE
8
0
10
123
20
15.5
11
123
21
32.5
0
LINE
8
0
10
123
20
32.5
11
105
21
32.5
0
LINE
8
0
10
105
20
32.5
11
105
21
15.5
0
LINE
8
0
10
105
20
34.5
11
123
21
34.5
0
LINE
8
0
10
123
20
34.5
11
123
21
51.5
0
LINE
8
0
10
123
20
51.5
11
105
21
51.5
0
LINE
8
0
10
105
20
51.5
11
105
21
34.5
0
LINE
8
0
10
105
20
53.5
11
123
21
53.5
0
LINE
8
0
10
123
20
53.5
11
123
21
70.5
0
LINE
8
0
10
123
20
70.5
11
105
21
70.5
0
LINE
8
0
10
105
20
70.5
11
105
21
53.5
0
LINE
8
0
10
105
20
72.5
11
123
21
72.5
0
LINE
8
0
10
123
20
72.5
11
123
21
89.5
0
LINE
8
0
10
123
20
89.5
11
105
21
89.5
0
LINE
8
0
10
105
20
89.5
11
105
21
72.5
0
LINE
8
0
10
107.904616
20
-8.1647207
11
125.7294413
21
-10.6698365
0
LINE
8
0
10
125.7294413
20
-10.6698365
11
128.095384
21
6.1647207
0
LINE
8
0
10
128.095384
20
6.1647207
11
110.2705587
21
8.6698365
0
LINE
8
0
10
110.2705587
20
8.6698365
11
107.904616
21
-8.1647207
0
LINE
8
0
10
128.24035
20
-11.6743198
11
145.5430605
21
-16.6357922
0
LINE
8
0
10
145.5430605
20
-16.6357922
11
150.2288956
21
-0.2943434
0
LINE
8
0
10
150.2288956
20
-0.2943434
11
132.9261851
21
4.667129
0
LINE
8
0
10
132.9261851
20
4.667129
11
128.24035
21
-11.6743198
0
LINE
8
0
10
147.6275376
20
-17.8845184
11
164.0713559
21
-25.205778
0
LINE
8
0
10
164.0713559
20
-25.205778
11
170.9858788
21
-9.6755052
0
LINE
8
0
10
170.9858788
20
-9.6755052
11
154.5420605
21
-2.3542456
0
LINE
8
0
10
154.5420605
20
-2.3542456
11
147.6275376
21
-17.8845184
0
ENDSEC
0
EOF