0
SECTION
2
HEADER
9
$INSUNITS
70
4
0
ENDSEC
0
SECTION
2
TABLES
0
TABLE
2
LTYPE
0
LTYPE
72
65
70
64
2
CONTINUOUS
3
______
73
0
40
0
0
ENDTAB
0
TABLE
2
LAYER
0
ENDTAB
0
ENDSEC
0
SECTION
2
ENTITIES
0
LINE
8
0
10
-9.5
20
11.5
11
47.5
21
11.5
0
LINE
8
0
10
-9.5
20
11.5
11
-9.5
21
87.5
0
LINE
8
0
10
-9.5
20
87.5
11
47.5
21
87.5
0
LINE
8
0
10
9.5
20
-9.5
11
47.5
21
-9.5
0
LINE
8
0
10
9.5
20
9.5
11
47.5
21
9.5
0
LINE
8
0
10
9.5
20
9.5
11
9.5
21
-9.5
0
LINE
8
0
10
47.5
20
-9.5
11
47.5
21
-3.5
0
LINE
8
0
10
47.5
20
15.5
11
47.5
21
17.5
0
LINE
8
0
10
47.5
20
-3.5
11
66.5
21
-3.5
0
LINE
8
0
10
66.5
20
-3.5
11
66.5
21
-0.5
0
LINE
8
0
10
66.5
20
15.5
11
47.5
21
15.5
0
LINE
8
0
10
47.5
20
11.5
11
47.5
21
9.5
0
LINE
8
0
10
47.5
20
17.5
11
66.5
21
17.5
0
LINE
8
0
10
66.5
20
18.5
11
66.5
21
20.5
0
LINE
8
0
10
66.5
20
93.5
11
47.5
21
93.5
0
LINE
8
0
10
47.5
20
93.5
11
47.5
21
87.5
0
LINE
8
0
10
66.5
20
-0.5
11
85.5
21
-0.5
0
LINE
8
0
10
85.5
20
15.5
11
85.5
21
17.5
0
LINE
8
0
10
85.5
20
18.5
11
66.5
21
18.5
0
LINE
8
0
10
66.5
20
17.5
11
66.5
21
15.5
0
LINE
8
0
10
66.5
20
20.5
11
85.5
21
20.5
0
LINE
8
0
10
85.5
20
93.5
11
85.5
21
96.5
0
LINE
8
0
10
85.5
20
96.5
11
66.5
21
96.5
0
LINE
8
0
10
66.5
20
96.5
11
66.5
21
93.5
0
LINE
8
0
10
85.5
20
-3.5
11
104.5
21
-3.5
0
LINE
8
0
10
104.5
20
-3.5
11
104.5
21
14.5
0
LINE
8
0
10
104.5
20
15.5
11
85.5
21
15.5
0
LINE
8
0
10
85.5
20
-0.5
11
85.5
21
-3.5
0
LINE
8
0
10
85.5
20
17.5
11
104.5
21
17.5
0
LINE
8
0
10
85.5
20
20.5
11
85.5
21
18.5
0
LINE
8
0
10
104.5
20
90.5
11
104.5
21
93.5
0
LINE
8
0
10
104.5
20
93.5
11
85.5
21
93.5
0
LINE
8
0
10
104.5
20
14.5
11
123.5
21
14.5
0
LINE
8
0
10
123.5
20
14.5
11
123.5
21
90.5
0
LINE
8
0
10
104.5
20
17.5
11
104.5
21
15.5
0
LINE
8
0
10
123.5
20
90.5
11
104.5
21
90.5
0
LINE
8
0
10
107.2703089
20
-9.0854022
11
126.0854022
21
-11.7296911
0
LINE
8
0
10
126.0854022
20
-11.7296911
11
128.7296911
21
7.0854022
0
LINE
8
0
10
128.7296911
20
7.0854022
11
109.9145978
21
9.7296911
0
LINE
8
0
10
109.9145978
20
9.7296911
11
107.2703089
21
-9.0854022
0
LINE
8
0
10
127.4840818
20
-12.4977628
11
145.748054
21
-17.7348726
0
LINE
8
0
10
145.748054
20
-17.7348726
11
150.9851638
21
0.5290996
0
LINE
8
0
10
150.9851638
20
0.5290996
11
132.7211916
21
5.7662094
0
LINE
8
0
10
132.7211916
20
5.7662094
11
127.4840818
21
-12.4977628
0
LINE
8
0
10
146.7640282
20
-18.5946955
11
164.1213919
21
-26.3226918
0
LINE
8
0
10
164.1213919
20
-26.3226918
11
171.8493882
21
-8.9653281
0
LINE
8
0
10
171.8493882
20
-8.9653281
11
154.4920245
21
-1.2373318
0
LINE
8
0
10
154.4920245
20
-1.2373318
11
146.7640282
21
-18.5946955
0
ENDSEC
0
EOF