%TF.GenerationSoftware,KiCad,Pcbnew,6.0.2*%
%TF.CreationDate,2022-02-19T14:05:47-05:00*%
%TF.ProjectId,jonkey-v1,6a6f6e6b-6579-42d7-9631-2e6b69636164,v1.0.0*%
%TF.SameCoordinates,Original*%
%TF.FileFunction,Paste,Top*%
%TF.FilePolarity,Positive*%
%FSLAX46Y46*%
G04 Gerber Fmt 4.6, Leading zero omitted, Abs format (unit mm)*
G04 Created by KiCad (PCBNEW 6.0.2) date 2022-02-19 14:05:47*
%MOMM*%
%LPD*%
G01*
G04 APERTURE LIST*
G04 Aperture macros list*
%AMRotRect*
0 Rectangle, with rotation*
0 The origin of the aperture is its center*
0 $1 length*
0 $2 width*
0 $3 Rotation angle, in degrees counterclockwise*
0 Add horizontal line*
21,1,$1,$2,0,0,$3*%
G04 Aperture macros list end*
%ADD10R,0.900000X1.200000*%
%ADD11R,2.600000X2.600000*%
%ADD12RotRect,0.900000X1.200000X330.000000*%
%ADD13RotRect,2.600000X2.600000X150.000000*%
G04 APERTURE END LIST*
D10*
%TO.C,D1*%
X63370000Y-100280000D03*
X66670000Y-100280000D03*
%TD*%
D11*
%TO.C,S1*%
X61745000Y-111230000D03*
X73295000Y-109030000D03*
%TD*%
D10*
%TO.C,D2*%
X63370000Y-81280000D03*
X66670000Y-81280000D03*
%TD*%
D11*
%TO.C,S2*%
X61745000Y-92230000D03*
X73295000Y-90030000D03*
%TD*%
D10*
%TO.C,D3*%
X63370000Y-62280000D03*
X66670000Y-62280000D03*
%TD*%
D11*
%TO.C,S3*%
X61745000Y-73230000D03*
X73295000Y-71030000D03*
%TD*%
D10*
%TO.C,D4*%
X63370000Y-43280000D03*
X66670000Y-43280000D03*
%TD*%
D11*
%TO.C,S4*%
X61745000Y-54230000D03*
X73295000Y-52030000D03*
%TD*%
D10*
%TO.C,D5*%
X82370000Y-100280000D03*
X85670000Y-100280000D03*
%TD*%
D11*
%TO.C,S5*%
X80745000Y-111230000D03*
X92295000Y-109030000D03*
%TD*%
D10*
%TO.C,D6*%
X82370000Y-81280000D03*
X85670000Y-81280000D03*
%TD*%
D11*
%TO.C,S6*%
X80745000Y-92230000D03*
X92295000Y-90030000D03*
%TD*%
D10*
%TO.C,D7*%
X82370000Y-62280000D03*
X85670000Y-62280000D03*
%TD*%
D11*
%TO.C,S7*%
X80745000Y-73230000D03*
X92295000Y-71030000D03*
%TD*%
D10*
%TO.C,D8*%
X82370000Y-43280000D03*
X85670000Y-43280000D03*
%TD*%
D11*
%TO.C,S8*%
X80745000Y-54230000D03*
X92295000Y-52030000D03*
%TD*%
D10*
%TO.C,D9*%
X101370000Y-100280000D03*
X104670000Y-100280000D03*
%TD*%
D11*
%TO.C,S9*%
X99745000Y-111230000D03*
X111295000Y-109030000D03*
%TD*%
D10*
%TO.C,D10*%
X101370000Y-81280000D03*
X104670000Y-81280000D03*
%TD*%
D11*
%TO.C,S10*%
X99745000Y-92230000D03*
X111295000Y-90030000D03*
%TD*%
D10*
%TO.C,D11*%
X101370000Y-62280000D03*
X104670000Y-62280000D03*
%TD*%
D11*
%TO.C,S11*%
X99745000Y-73230000D03*
X111295000Y-71030000D03*
%TD*%
D10*
%TO.C,D12*%
X101370000Y-43280000D03*
X104670000Y-43280000D03*
%TD*%
D11*
%TO.C,S12*%
X99745000Y-54230000D03*
X111295000Y-52030000D03*
%TD*%
D10*
%TO.C,D13*%
X120370000Y-95280000D03*
X123670000Y-95280000D03*
%TD*%
D11*
%TO.C,S13*%
X118745000Y-106230000D03*
X130295000Y-104030000D03*
%TD*%
D10*
%TO.C,D14*%
X120370000Y-76280000D03*
X123670000Y-76280000D03*
%TD*%
D11*
%TO.C,S14*%
X118745000Y-87230000D03*
X130295000Y-85030000D03*
%TD*%
D10*
%TO.C,D15*%
X120370000Y-57280000D03*
X123670000Y-57280000D03*
%TD*%
D11*
%TO.C,S15*%
X118745000Y-68230000D03*
X130295000Y-66030000D03*
%TD*%
D10*
%TO.C,D16*%
X120370000Y-38280000D03*
X123670000Y-38280000D03*
%TD*%
D11*
%TO.C,S16*%
X118745000Y-49230000D03*
X130295000Y-47030000D03*
%TD*%
D10*
%TO.C,D17*%
X139370000Y-92280000D03*
X142670000Y-92280000D03*
%TD*%
D11*
%TO.C,S17*%
X137745000Y-103230000D03*
X149295000Y-101030000D03*
%TD*%
D10*
%TO.C,D18*%
X139370000Y-73280000D03*
X142670000Y-73280000D03*
%TD*%
D11*
%TO.C,S18*%
X137745000Y-84230000D03*
X149295000Y-82030000D03*
%TD*%
D10*
%TO.C,D19*%
X139370000Y-54280000D03*
X142670000Y-54280000D03*
%TD*%
D11*
%TO.C,S19*%
X137745000Y-65230000D03*
X149295000Y-63030000D03*
%TD*%
D10*
%TO.C,D20*%
X139370000Y-35280000D03*
X142670000Y-35280000D03*
%TD*%
D11*
%TO.C,S20*%
X137745000Y-46230000D03*
X149295000Y-44030000D03*
%TD*%
D10*
%TO.C,D21*%
X158370000Y-95280000D03*
X161670000Y-95280000D03*
%TD*%
D11*
%TO.C,S21*%
X156745000Y-106230000D03*
X168295000Y-104030000D03*
%TD*%
D10*
%TO.C,D22*%
X158370000Y-76280000D03*
X161670000Y-76280000D03*
%TD*%
D11*
%TO.C,S22*%
X156745000Y-87230000D03*
X168295000Y-85030000D03*
%TD*%
D10*
%TO.C,D23*%
X158370000Y-57280000D03*
X161670000Y-57280000D03*
%TD*%
D11*
%TO.C,S23*%
X156745000Y-68230000D03*
X168295000Y-66030000D03*
%TD*%
D10*
%TO.C,D24*%
X158370000Y-38280000D03*
X161670000Y-38280000D03*
%TD*%
D11*
%TO.C,S24*%
X156745000Y-49230000D03*
X168295000Y-47030000D03*
%TD*%
D10*
%TO.C,D25*%
X177370000Y-98280000D03*
X180670000Y-98280000D03*
%TD*%
D11*
%TO.C,S25*%
X175745000Y-109230000D03*
X187295000Y-107030000D03*
%TD*%
D10*
%TO.C,D26*%
X177370000Y-79280000D03*
X180670000Y-79280000D03*
%TD*%
D11*
%TO.C,S26*%
X175745000Y-90230000D03*
X187295000Y-88030000D03*
%TD*%
D10*
%TO.C,D27*%
X177370000Y-60280000D03*
X180670000Y-60280000D03*
%TD*%
D11*
%TO.C,S27*%
X175745000Y-71230000D03*
X187295000Y-69030000D03*
%TD*%
D10*
%TO.C,D28*%
X177370000Y-41280000D03*
X180670000Y-41280000D03*
%TD*%
D11*
%TO.C,S28*%
X175745000Y-52230000D03*
X187295000Y-50030000D03*
%TD*%
D10*
%TO.C,D29*%
X158370000Y-116280000D03*
X161670000Y-116280000D03*
%TD*%
D11*
%TO.C,S29*%
X156745000Y-127230000D03*
X168295000Y-125030000D03*
%TD*%
D10*
%TO.C,D30*%
X177370000Y-119280000D03*
X180670000Y-119280000D03*
%TD*%
D11*
%TO.C,S30*%
X175745000Y-130230000D03*
X187295000Y-128030000D03*
%TD*%
D12*
%TO.C,D31*%
X204091058Y-124124873D03*
X206948942Y-125774873D03*
%TD*%
D13*
%TO.C,S31*%
X197208767Y-132795351D03*
X208311360Y-136665095D03*
%TD*%
D12*
%TO.C,D32*%
X193091058Y-143177432D03*
X195948942Y-144827432D03*
%TD*%
D13*
%TO.C,S32*%
X186208767Y-151847910D03*
X197311360Y-155717654D03*
%TD*%
D10*
%TO.C,D33*%
X82370000Y-119280000D03*
X85670000Y-119280000D03*
%TD*%
D11*
%TO.C,S33*%
X80745000Y-130230000D03*
X92295000Y-128030000D03*
%TD*%
D10*
%TO.C,D34*%
X101370000Y-119280000D03*
X104670000Y-119280000D03*
%TD*%
D11*
%TO.C,S34*%
X99745000Y-130230000D03*
X111295000Y-128030000D03*
%TD*%
D10*
%TO.C,D35*%
X120370000Y-116280000D03*
X123670000Y-116280000D03*
%TD*%
D11*
%TO.C,S35*%
X118745000Y-127230000D03*
X130295000Y-125030000D03*
%TD*%
D10*
%TO.C,D36*%
X139370000Y-113280000D03*
X142670000Y-113280000D03*
%TD*%
D11*
%TO.C,S36*%
X137745000Y-124230000D03*
X149295000Y-122030000D03*
%TD*%
M02*
