%TF.GenerationSoftware,KiCad,Pcbnew,6.0.2*%
%TF.CreationDate,2022-02-19T14:05:47-05:00*%
%TF.ProjectId,jonkey-v1,6a6f6e6b-6579-42d7-9631-2e6b69636164,v1.0.0*%
%TF.SameCoordinates,Original*%
%TF.FileFunction,Legend,Bot*%
%TF.FilePolarity,Positive*%
%FSLAX46Y46*%
G04 Gerber Fmt 4.6, Leading zero omitted, Abs format (unit mm)*
G04 Created by KiCad (PCBNEW 6.0.2) date 2022-02-19 14:05:47*
%MOMM*%
%LPD*%
G01*
G04 APERTURE LIST*
%ADD10C,0.150000*%
%ADD11C,0.100000*%
%ADD12R,1.752600X1.752600*%
%ADD13C,1.752600*%
G04 APERTURE END LIST*
D10*
X192492380Y-100616190D02*
X193206666Y-100616190D01*
X193349523Y-100568571D01*
X193444761Y-100473333D01*
X193492380Y-100330476D01*
X193492380Y-100235238D01*
X192492380Y-101282857D02*
X192492380Y-101473333D01*
X192540000Y-101568571D01*
X192635238Y-101663809D01*
X192825714Y-101711428D01*
X193159047Y-101711428D01*
X193349523Y-101663809D01*
X193444761Y-101568571D01*
X193492380Y-101473333D01*
X193492380Y-101282857D01*
X193444761Y-101187619D01*
X193349523Y-101092380D01*
X193159047Y-101044761D01*
X192825714Y-101044761D01*
X192635238Y-101092380D01*
X192540000Y-101187619D01*
X192492380Y-101282857D01*
X193492380Y-102140000D02*
X192492380Y-102140000D01*
X193492380Y-102711428D01*
X192492380Y-102711428D01*
X193492380Y-103187619D02*
X192492380Y-103187619D01*
X193492380Y-103759047D02*
X192920952Y-103330476D01*
X192492380Y-103759047D02*
X193063809Y-103187619D01*
X192968571Y-104187619D02*
X192968571Y-104520952D01*
X193492380Y-104663809D02*
X193492380Y-104187619D01*
X192492380Y-104187619D01*
X192492380Y-104663809D01*
X193016190Y-105282857D02*
X193492380Y-105282857D01*
X192492380Y-104949523D02*
X193016190Y-105282857D01*
X192492380Y-105616190D01*
X192825714Y-106616190D02*
X193492380Y-106854285D01*
X192825714Y-107092380D01*
X193492380Y-107997142D02*
X193492380Y-107425714D01*
X193492380Y-107711428D02*
X192492380Y-107711428D01*
X192635238Y-107616190D01*
X192730476Y-107520952D01*
X192778095Y-107425714D01*
%TO.C,B1*%
X205181904Y-98641904D02*
X205448571Y-98260952D01*
X205639047Y-98641904D02*
X205639047Y-97841904D01*
X205334285Y-97841904D01*
X205258095Y-97880000D01*
X205220000Y-97918095D01*
X205181904Y-97994285D01*
X205181904Y-98108571D01*
X205220000Y-98184761D01*
X205258095Y-98222857D01*
X205334285Y-98260952D01*
X205639047Y-98260952D01*
X204839047Y-98222857D02*
X204572380Y-98222857D01*
X204458095Y-98641904D02*
X204839047Y-98641904D01*
X204839047Y-97841904D01*
X204458095Y-97841904D01*
X204153333Y-98603809D02*
X204039047Y-98641904D01*
X203848571Y-98641904D01*
X203772380Y-98603809D01*
X203734285Y-98565714D01*
X203696190Y-98489523D01*
X203696190Y-98413333D01*
X203734285Y-98337142D01*
X203772380Y-98299047D01*
X203848571Y-98260952D01*
X204000952Y-98222857D01*
X204077142Y-98184761D01*
X204115238Y-98146666D01*
X204153333Y-98070476D01*
X204153333Y-97994285D01*
X204115238Y-97918095D01*
X204077142Y-97880000D01*
X204000952Y-97841904D01*
X203810476Y-97841904D01*
X203696190Y-97880000D01*
X203353333Y-98222857D02*
X203086666Y-98222857D01*
X202972380Y-98641904D02*
X203353333Y-98641904D01*
X203353333Y-97841904D01*
X202972380Y-97841904D01*
X202743809Y-97841904D02*
X202286666Y-97841904D01*
X202515238Y-98641904D02*
X202515238Y-97841904D01*
D11*
%TO.C,D1*%
X65270000Y-100280000D02*
X65770000Y-100280000D01*
X65270000Y-100680000D02*
X64670000Y-100280000D01*
X65270000Y-99880000D02*
X65270000Y-100680000D01*
X64670000Y-100280000D02*
X65270000Y-99880000D01*
X64670000Y-100280000D02*
X64670000Y-100830000D01*
X64670000Y-100280000D02*
X64670000Y-99730000D01*
X64270000Y-100280000D02*
X64670000Y-100280000D01*
%TO.C,D2*%
X65270000Y-81280000D02*
X65770000Y-81280000D01*
X65270000Y-81680000D02*
X64670000Y-81280000D01*
X65270000Y-80880000D02*
X65270000Y-81680000D01*
X64670000Y-81280000D02*
X65270000Y-80880000D01*
X64670000Y-81280000D02*
X64670000Y-81830000D01*
X64670000Y-81280000D02*
X64670000Y-80730000D01*
X64270000Y-81280000D02*
X64670000Y-81280000D01*
%TO.C,D3*%
X65270000Y-62280000D02*
X65770000Y-62280000D01*
X65270000Y-62680000D02*
X64670000Y-62280000D01*
X65270000Y-61880000D02*
X65270000Y-62680000D01*
X64670000Y-62280000D02*
X65270000Y-61880000D01*
X64670000Y-62280000D02*
X64670000Y-62830000D01*
X64670000Y-62280000D02*
X64670000Y-61730000D01*
X64270000Y-62280000D02*
X64670000Y-62280000D01*
%TO.C,D4*%
X65270000Y-43280000D02*
X65770000Y-43280000D01*
X65270000Y-43680000D02*
X64670000Y-43280000D01*
X65270000Y-42880000D02*
X65270000Y-43680000D01*
X64670000Y-43280000D02*
X65270000Y-42880000D01*
X64670000Y-43280000D02*
X64670000Y-43830000D01*
X64670000Y-43280000D02*
X64670000Y-42730000D01*
X64270000Y-43280000D02*
X64670000Y-43280000D01*
%TO.C,D5*%
X84270000Y-100280000D02*
X84770000Y-100280000D01*
X84270000Y-100680000D02*
X83670000Y-100280000D01*
X84270000Y-99880000D02*
X84270000Y-100680000D01*
X83670000Y-100280000D02*
X84270000Y-99880000D01*
X83670000Y-100280000D02*
X83670000Y-100830000D01*
X83670000Y-100280000D02*
X83670000Y-99730000D01*
X83270000Y-100280000D02*
X83670000Y-100280000D01*
%TO.C,D6*%
X84270000Y-81280000D02*
X84770000Y-81280000D01*
X84270000Y-81680000D02*
X83670000Y-81280000D01*
X84270000Y-80880000D02*
X84270000Y-81680000D01*
X83670000Y-81280000D02*
X84270000Y-80880000D01*
X83670000Y-81280000D02*
X83670000Y-81830000D01*
X83670000Y-81280000D02*
X83670000Y-80730000D01*
X83270000Y-81280000D02*
X83670000Y-81280000D01*
%TO.C,D7*%
X84270000Y-62280000D02*
X84770000Y-62280000D01*
X84270000Y-62680000D02*
X83670000Y-62280000D01*
X84270000Y-61880000D02*
X84270000Y-62680000D01*
X83670000Y-62280000D02*
X84270000Y-61880000D01*
X83670000Y-62280000D02*
X83670000Y-62830000D01*
X83670000Y-62280000D02*
X83670000Y-61730000D01*
X83270000Y-62280000D02*
X83670000Y-62280000D01*
%TO.C,D8*%
X84270000Y-43280000D02*
X84770000Y-43280000D01*
X84270000Y-43680000D02*
X83670000Y-43280000D01*
X84270000Y-42880000D02*
X84270000Y-43680000D01*
X83670000Y-43280000D02*
X84270000Y-42880000D01*
X83670000Y-43280000D02*
X83670000Y-43830000D01*
X83670000Y-43280000D02*
X83670000Y-42730000D01*
X83270000Y-43280000D02*
X83670000Y-43280000D01*
%TO.C,D9*%
X103270000Y-100280000D02*
X103770000Y-100280000D01*
X103270000Y-100680000D02*
X102670000Y-100280000D01*
X103270000Y-99880000D02*
X103270000Y-100680000D01*
X102670000Y-100280000D02*
X103270000Y-99880000D01*
X102670000Y-100280000D02*
X102670000Y-100830000D01*
X102670000Y-100280000D02*
X102670000Y-99730000D01*
X102270000Y-100280000D02*
X102670000Y-100280000D01*
%TO.C,D10*%
X103270000Y-81280000D02*
X103770000Y-81280000D01*
X103270000Y-81680000D02*
X102670000Y-81280000D01*
X103270000Y-80880000D02*
X103270000Y-81680000D01*
X102670000Y-81280000D02*
X103270000Y-80880000D01*
X102670000Y-81280000D02*
X102670000Y-81830000D01*
X102670000Y-81280000D02*
X102670000Y-80730000D01*
X102270000Y-81280000D02*
X102670000Y-81280000D01*
%TO.C,D11*%
X103270000Y-62280000D02*
X103770000Y-62280000D01*
X103270000Y-62680000D02*
X102670000Y-62280000D01*
X103270000Y-61880000D02*
X103270000Y-62680000D01*
X102670000Y-62280000D02*
X103270000Y-61880000D01*
X102670000Y-62280000D02*
X102670000Y-62830000D01*
X102670000Y-62280000D02*
X102670000Y-61730000D01*
X102270000Y-62280000D02*
X102670000Y-62280000D01*
%TO.C,D12*%
X103270000Y-43280000D02*
X103770000Y-43280000D01*
X103270000Y-43680000D02*
X102670000Y-43280000D01*
X103270000Y-42880000D02*
X103270000Y-43680000D01*
X102670000Y-43280000D02*
X103270000Y-42880000D01*
X102670000Y-43280000D02*
X102670000Y-43830000D01*
X102670000Y-43280000D02*
X102670000Y-42730000D01*
X102270000Y-43280000D02*
X102670000Y-43280000D01*
%TO.C,D13*%
X122270000Y-95280000D02*
X122770000Y-95280000D01*
X122270000Y-95680000D02*
X121670000Y-95280000D01*
X122270000Y-94880000D02*
X122270000Y-95680000D01*
X121670000Y-95280000D02*
X122270000Y-94880000D01*
X121670000Y-95280000D02*
X121670000Y-95830000D01*
X121670000Y-95280000D02*
X121670000Y-94730000D01*
X121270000Y-95280000D02*
X121670000Y-95280000D01*
%TO.C,D14*%
X122270000Y-76280000D02*
X122770000Y-76280000D01*
X122270000Y-76680000D02*
X121670000Y-76280000D01*
X122270000Y-75880000D02*
X122270000Y-76680000D01*
X121670000Y-76280000D02*
X122270000Y-75880000D01*
X121670000Y-76280000D02*
X121670000Y-76830000D01*
X121670000Y-76280000D02*
X121670000Y-75730000D01*
X121270000Y-76280000D02*
X121670000Y-76280000D01*
%TO.C,D15*%
X122270000Y-57280000D02*
X122770000Y-57280000D01*
X122270000Y-57680000D02*
X121670000Y-57280000D01*
X122270000Y-56880000D02*
X122270000Y-57680000D01*
X121670000Y-57280000D02*
X122270000Y-56880000D01*
X121670000Y-57280000D02*
X121670000Y-57830000D01*
X121670000Y-57280000D02*
X121670000Y-56730000D01*
X121270000Y-57280000D02*
X121670000Y-57280000D01*
%TO.C,D16*%
X122270000Y-38280000D02*
X122770000Y-38280000D01*
X122270000Y-38680000D02*
X121670000Y-38280000D01*
X122270000Y-37880000D02*
X122270000Y-38680000D01*
X121670000Y-38280000D02*
X122270000Y-37880000D01*
X121670000Y-38280000D02*
X121670000Y-38830000D01*
X121670000Y-38280000D02*
X121670000Y-37730000D01*
X121270000Y-38280000D02*
X121670000Y-38280000D01*
%TO.C,D17*%
X141270000Y-92280000D02*
X141770000Y-92280000D01*
X141270000Y-92680000D02*
X140670000Y-92280000D01*
X141270000Y-91880000D02*
X141270000Y-92680000D01*
X140670000Y-92280000D02*
X141270000Y-91880000D01*
X140670000Y-92280000D02*
X140670000Y-92830000D01*
X140670000Y-92280000D02*
X140670000Y-91730000D01*
X140270000Y-92280000D02*
X140670000Y-92280000D01*
%TO.C,D18*%
X141270000Y-73280000D02*
X141770000Y-73280000D01*
X141270000Y-73680000D02*
X140670000Y-73280000D01*
X141270000Y-72880000D02*
X141270000Y-73680000D01*
X140670000Y-73280000D02*
X141270000Y-72880000D01*
X140670000Y-73280000D02*
X140670000Y-73830000D01*
X140670000Y-73280000D02*
X140670000Y-72730000D01*
X140270000Y-73280000D02*
X140670000Y-73280000D01*
%TO.C,D19*%
X141270000Y-54280000D02*
X141770000Y-54280000D01*
X141270000Y-54680000D02*
X140670000Y-54280000D01*
X141270000Y-53880000D02*
X141270000Y-54680000D01*
X140670000Y-54280000D02*
X141270000Y-53880000D01*
X140670000Y-54280000D02*
X140670000Y-54830000D01*
X140670000Y-54280000D02*
X140670000Y-53730000D01*
X140270000Y-54280000D02*
X140670000Y-54280000D01*
%TO.C,D20*%
X141270000Y-35280000D02*
X141770000Y-35280000D01*
X141270000Y-35680000D02*
X140670000Y-35280000D01*
X141270000Y-34880000D02*
X141270000Y-35680000D01*
X140670000Y-35280000D02*
X141270000Y-34880000D01*
X140670000Y-35280000D02*
X140670000Y-35830000D01*
X140670000Y-35280000D02*
X140670000Y-34730000D01*
X140270000Y-35280000D02*
X140670000Y-35280000D01*
%TO.C,D21*%
X160270000Y-95280000D02*
X160770000Y-95280000D01*
X160270000Y-95680000D02*
X159670000Y-95280000D01*
X160270000Y-94880000D02*
X160270000Y-95680000D01*
X159670000Y-95280000D02*
X160270000Y-94880000D01*
X159670000Y-95280000D02*
X159670000Y-95830000D01*
X159670000Y-95280000D02*
X159670000Y-94730000D01*
X159270000Y-95280000D02*
X159670000Y-95280000D01*
%TO.C,D22*%
X160270000Y-76280000D02*
X160770000Y-76280000D01*
X160270000Y-76680000D02*
X159670000Y-76280000D01*
X160270000Y-75880000D02*
X160270000Y-76680000D01*
X159670000Y-76280000D02*
X160270000Y-75880000D01*
X159670000Y-76280000D02*
X159670000Y-76830000D01*
X159670000Y-76280000D02*
X159670000Y-75730000D01*
X159270000Y-76280000D02*
X159670000Y-76280000D01*
%TO.C,D23*%
X160270000Y-57280000D02*
X160770000Y-57280000D01*
X160270000Y-57680000D02*
X159670000Y-57280000D01*
X160270000Y-56880000D02*
X160270000Y-57680000D01*
X159670000Y-57280000D02*
X160270000Y-56880000D01*
X159670000Y-57280000D02*
X159670000Y-57830000D01*
X159670000Y-57280000D02*
X159670000Y-56730000D01*
X159270000Y-57280000D02*
X159670000Y-57280000D01*
%TO.C,D24*%
X160270000Y-38280000D02*
X160770000Y-38280000D01*
X160270000Y-38680000D02*
X159670000Y-38280000D01*
X160270000Y-37880000D02*
X160270000Y-38680000D01*
X159670000Y-38280000D02*
X160270000Y-37880000D01*
X159670000Y-38280000D02*
X159670000Y-38830000D01*
X159670000Y-38280000D02*
X159670000Y-37730000D01*
X159270000Y-38280000D02*
X159670000Y-38280000D01*
%TO.C,D25*%
X179270000Y-98280000D02*
X179770000Y-98280000D01*
X179270000Y-98680000D02*
X178670000Y-98280000D01*
X179270000Y-97880000D02*
X179270000Y-98680000D01*
X178670000Y-98280000D02*
X179270000Y-97880000D01*
X178670000Y-98280000D02*
X178670000Y-98830000D01*
X178670000Y-98280000D02*
X178670000Y-97730000D01*
X178270000Y-98280000D02*
X178670000Y-98280000D01*
%TO.C,D26*%
X179270000Y-79280000D02*
X179770000Y-79280000D01*
X179270000Y-79680000D02*
X178670000Y-79280000D01*
X179270000Y-78880000D02*
X179270000Y-79680000D01*
X178670000Y-79280000D02*
X179270000Y-78880000D01*
X178670000Y-79280000D02*
X178670000Y-79830000D01*
X178670000Y-79280000D02*
X178670000Y-78730000D01*
X178270000Y-79280000D02*
X178670000Y-79280000D01*
%TO.C,D27*%
X179270000Y-60280000D02*
X179770000Y-60280000D01*
X179270000Y-60680000D02*
X178670000Y-60280000D01*
X179270000Y-59880000D02*
X179270000Y-60680000D01*
X178670000Y-60280000D02*
X179270000Y-59880000D01*
X178670000Y-60280000D02*
X178670000Y-60830000D01*
X178670000Y-60280000D02*
X178670000Y-59730000D01*
X178270000Y-60280000D02*
X178670000Y-60280000D01*
%TO.C,D28*%
X179270000Y-41280000D02*
X179770000Y-41280000D01*
X179270000Y-41680000D02*
X178670000Y-41280000D01*
X179270000Y-40880000D02*
X179270000Y-41680000D01*
X178670000Y-41280000D02*
X179270000Y-40880000D01*
X178670000Y-41280000D02*
X178670000Y-41830000D01*
X178670000Y-41280000D02*
X178670000Y-40730000D01*
X178270000Y-41280000D02*
X178670000Y-41280000D01*
%TO.C,D29*%
X160270000Y-116280000D02*
X160770000Y-116280000D01*
X160270000Y-116680000D02*
X159670000Y-116280000D01*
X160270000Y-115880000D02*
X160270000Y-116680000D01*
X159670000Y-116280000D02*
X160270000Y-115880000D01*
X159670000Y-116280000D02*
X159670000Y-116830000D01*
X159670000Y-116280000D02*
X159670000Y-115730000D01*
X159270000Y-116280000D02*
X159670000Y-116280000D01*
%TO.C,D30*%
X179270000Y-119280000D02*
X179770000Y-119280000D01*
X179270000Y-119680000D02*
X178670000Y-119280000D01*
X179270000Y-118880000D02*
X179270000Y-119680000D01*
X178670000Y-119280000D02*
X179270000Y-118880000D01*
X178670000Y-119280000D02*
X178670000Y-119830000D01*
X178670000Y-119280000D02*
X178670000Y-118730000D01*
X178270000Y-119280000D02*
X178670000Y-119280000D01*
%TO.C,D31*%
X205736506Y-125074873D02*
X206169519Y-125324873D01*
X205536506Y-125421283D02*
X205216891Y-124774873D01*
X205936506Y-124728463D02*
X205536506Y-125421283D01*
X205216891Y-124774873D02*
X205936506Y-124728463D01*
X205216891Y-124774873D02*
X204941891Y-125251187D01*
X205216891Y-124774873D02*
X205491891Y-124298559D01*
X204870481Y-124574873D02*
X205216891Y-124774873D01*
%TO.C,D32*%
X194736506Y-144127432D02*
X195169519Y-144377432D01*
X194536506Y-144473842D02*
X194216891Y-143827432D01*
X194936506Y-143781022D02*
X194536506Y-144473842D01*
X194216891Y-143827432D02*
X194936506Y-143781022D01*
X194216891Y-143827432D02*
X193941891Y-144303746D01*
X194216891Y-143827432D02*
X194491891Y-143351118D01*
X193870481Y-143627432D02*
X194216891Y-143827432D01*
%TO.C,D33*%
X84270000Y-119280000D02*
X84770000Y-119280000D01*
X84270000Y-119680000D02*
X83670000Y-119280000D01*
X84270000Y-118880000D02*
X84270000Y-119680000D01*
X83670000Y-119280000D02*
X84270000Y-118880000D01*
X83670000Y-119280000D02*
X83670000Y-119830000D01*
X83670000Y-119280000D02*
X83670000Y-118730000D01*
X83270000Y-119280000D02*
X83670000Y-119280000D01*
%TO.C,D34*%
X103270000Y-119280000D02*
X103770000Y-119280000D01*
X103270000Y-119680000D02*
X102670000Y-119280000D01*
X103270000Y-118880000D02*
X103270000Y-119680000D01*
X102670000Y-119280000D02*
X103270000Y-118880000D01*
X102670000Y-119280000D02*
X102670000Y-119830000D01*
X102670000Y-119280000D02*
X102670000Y-118730000D01*
X102270000Y-119280000D02*
X102670000Y-119280000D01*
%TO.C,D35*%
X122270000Y-116280000D02*
X122770000Y-116280000D01*
X122270000Y-116680000D02*
X121670000Y-116280000D01*
X122270000Y-115880000D02*
X122270000Y-116680000D01*
X121670000Y-116280000D02*
X122270000Y-115880000D01*
X121670000Y-116280000D02*
X121670000Y-116830000D01*
X121670000Y-116280000D02*
X121670000Y-115730000D01*
X121270000Y-116280000D02*
X121670000Y-116280000D01*
%TO.C,D36*%
X141270000Y-113280000D02*
X141770000Y-113280000D01*
X141270000Y-113680000D02*
X140670000Y-113280000D01*
X141270000Y-112880000D02*
X141270000Y-113680000D01*
X140670000Y-113280000D02*
X141270000Y-112880000D01*
X140670000Y-113280000D02*
X140670000Y-113830000D01*
X140670000Y-113280000D02*
X140670000Y-112730000D01*
X140270000Y-113280000D02*
X140670000Y-113280000D01*
D10*
%TO.C,B1*%
X201020000Y-96480000D02*
X206920000Y-96480000D01*
X201020000Y-96480000D02*
X207020000Y-96480000D01*
X207020000Y-99980000D02*
X201020000Y-99980000D01*
X207020000Y-96480000D02*
X207020000Y-97180000D01*
X207020000Y-99980000D02*
X207020000Y-99380000D01*
X201020000Y-99980000D02*
X201020000Y-99380000D01*
X201020000Y-96480000D02*
X201020000Y-97180000D01*
%TD*%
D12*
%TO.C,MCU1*%
X192400000Y-60310000D03*
D13*
X192400000Y-62850000D03*
X192400000Y-65390000D03*
X192400000Y-67930000D03*
X192400000Y-70470000D03*
X192400000Y-73010000D03*
X192400000Y-75550000D03*
X192400000Y-78090000D03*
X192400000Y-80630000D03*
X192400000Y-83170000D03*
X192400000Y-85710000D03*
X192400000Y-88250000D03*
X207640000Y-60310000D03*
X207640000Y-62850000D03*
X207640000Y-65390000D03*
X207640000Y-67930000D03*
X207640000Y-70470000D03*
X207640000Y-73010000D03*
X207640000Y-75550000D03*
X207640000Y-78090000D03*
X207640000Y-80630000D03*
X207640000Y-83170000D03*
X207640000Y-85710000D03*
X207640000Y-88250000D03*
%TD*%
M02*
