M48
; DRILL file {KiCad 6.0.2} date Sat 19 Feb 2022 02:05:44 PM
; FORMAT={-:-/ absolute / inch / decimal}
; #@! TF.CreationDate,2022-02-19T14:05:44-05:00
; #@! TF.GenerationSoftware,Kicad,Pcbnew,6.0.2
; #@! TF.FileFunction,Plated,1,2,PTH
FMAT,2
INCH
; #@! TA.AperFunction,Plated,PTH,ComponentDrill
T1C0.0118
; #@! TA.AperFunction,Plated,PTH,ViaDrill
T2C0.0157
; #@! TA.AperFunction,Plated,PTH,ComponentDrill
T3C0.0354
; #@! TA.AperFunction,Plated,PTH,ComponentDrill
T4C0.0390
; #@! TA.AperFunction,Plated,PTH,ComponentDrill
T5C0.0430
; #@! TA.AperFunction,Plated,PTH,ComponentDrill
T6C0.0512
%
G90
G05
T1
X2.5598Y-2.0386
X2.5598Y-2.2354
X2.5598Y-2.7866
X2.5598Y-2.9835
X2.5598Y-3.5346
X2.5598Y-3.7315
X2.5598Y-4.2827
X2.5598Y-4.4795
X3.3079Y-2.0386
X3.3079Y-2.2354
X3.3079Y-2.7866
X3.3079Y-2.9835
X3.3079Y-3.5346
X3.3079Y-3.7315
X3.3079Y-4.2827
X3.3079Y-4.4795
X3.3079Y-5.0307
X3.3079Y-5.2276
X4.0559Y-2.0386
X4.0559Y-2.2354
X4.0559Y-2.7866
X4.0559Y-2.9835
X4.0559Y-3.5346
X4.0559Y-3.7315
X4.0559Y-4.2827
X4.0559Y-4.4795
X4.0559Y-5.0307
X4.0559Y-5.2276
X4.8039Y-1.8417
X4.8039Y-2.0386
X4.8039Y-2.5898
X4.8039Y-2.7866
X4.8039Y-3.3378
X4.8039Y-3.5346
X4.8039Y-4.0858
X4.8039Y-4.2827
X4.8039Y-4.9126
X4.8039Y-5.1094
X5.552Y-1.7236
X5.552Y-1.9205
X5.552Y-2.4717
X5.552Y-2.6685
X5.552Y-3.2197
X5.552Y-3.4165
X5.552Y-3.9677
X5.552Y-4.1646
X5.552Y-4.7945
X5.552Y-4.9913
X6.3Y-1.8417
X6.3Y-2.0386
X6.3Y-2.5898
X6.3Y-2.7866
X6.3Y-3.3378
X6.3Y-3.5346
X6.3Y-4.0858
X6.3Y-4.2827
X6.3Y-4.9126
X6.3Y-5.1094
X7.048Y-1.9598
X7.048Y-2.1567
X7.048Y-2.7079
X7.048Y-2.9047
X7.048Y-3.4559
X7.048Y-3.6528
X7.048Y-4.2039
X7.048Y-4.4008
X7.048Y-5.0307
X7.048Y-5.2276
X7.3925Y-6.1297
X7.4909Y-5.9592
X7.8256Y-5.3796
X7.924Y-5.2091
T2
X7.8722Y-3.0344
T4
X2.4098Y-1.7039
X2.4098Y-2.452
X2.4098Y-3.2
X2.4098Y-3.948
X2.7098Y-1.7039
X2.7098Y-2.452
X2.7098Y-3.2
X2.7098Y-3.948
X3.1579Y-1.7039
X3.1579Y-2.452
X3.1579Y-3.2
X3.1579Y-3.948
X3.1579Y-4.6961
X3.4579Y-1.7039
X3.4579Y-2.452
X3.4579Y-3.2
X3.4579Y-3.948
X3.4579Y-4.6961
X3.9059Y-1.7039
X3.9059Y-2.452
X3.9059Y-3.2
X3.9059Y-3.948
X3.9059Y-4.6961
X4.2059Y-1.7039
X4.2059Y-2.452
X4.2059Y-3.2
X4.2059Y-3.948
X4.2059Y-4.6961
X4.6539Y-1.5071
X4.6539Y-2.2551
X4.6539Y-3.0031
X4.6539Y-3.7512
X4.6539Y-4.578
X4.9539Y-1.5071
X4.9539Y-2.2551
X4.9539Y-3.0031
X4.9539Y-3.7512
X4.9539Y-4.578
X5.402Y-1.389
X5.402Y-2.137
X5.402Y-2.885
X5.402Y-3.6331
X5.402Y-4.4598
X5.702Y-1.389
X5.702Y-2.137
X5.702Y-2.885
X5.702Y-3.6331
X5.702Y-4.4598
X6.15Y-1.5071
X6.15Y-2.2551
X6.15Y-3.0031
X6.15Y-3.7512
X6.15Y-4.578
X6.45Y-1.5071
X6.45Y-2.2551
X6.45Y-3.0031
X6.45Y-3.7512
X6.45Y-4.578
X6.898Y-1.6252
X6.898Y-2.3732
X6.898Y-3.1213
X6.898Y-3.8693
X6.898Y-4.6961
X7.198Y-1.6252
X7.198Y-2.3732
X7.198Y-3.1213
X7.198Y-3.8693
X7.198Y-4.6961
X7.5284Y-5.5944
X7.7882Y-5.7444
X7.9614Y-4.8443
X8.2212Y-4.9943
T5
X7.5748Y-2.3744
X7.5748Y-2.4744
X7.5748Y-2.5744
X7.5748Y-2.6744
X7.5748Y-2.7744
X7.5748Y-2.8744
X7.5748Y-2.9744
X7.5748Y-3.0744
X7.5748Y-3.1744
X7.5748Y-3.2744
X7.5748Y-3.3744
X7.5748Y-3.4744
X8.1748Y-2.3744
X8.1748Y-2.4744
X8.1748Y-2.5744
X8.1748Y-2.6744
X8.1748Y-2.7744
X8.1748Y-2.8744
X8.1748Y-2.9744
X8.1748Y-3.0744
X8.1748Y-3.1744
X8.1748Y-3.2744
X8.1748Y-3.3744
X8.1748Y-3.4744
T6
X7.9043Y-3.8693
X8.1602Y-3.8693
T3
G00X7.7567Y-4.2
M15
G01X7.7331Y-4.2
M16
G05
G00X7.7567Y-4.2866
M15
G01X7.7331Y-4.2866
M16
G05
G00X7.8Y-4.1055
M15
G01X7.7764Y-4.1055
M16
G05
G00X7.8Y-4.3811
M15
G01X7.7764Y-4.3811
M16
G05
G00X7.9575Y-4.1055
M15
G01X7.9339Y-4.1055
M16
G05
G00X7.9575Y-4.3811
M15
G01X7.9339Y-4.3811
M16
G05
G00X8.0756Y-4.1055
M15
G01X8.052Y-4.1055
M16
G05
G00X8.0756Y-4.3811
M15
G01X8.052Y-4.3811
M16
G05
T0
M30
