0
SECTION
2
HEADER
9
$INSUNITS
70
4
0
ENDSEC
0
SECTION
2
TABLES
0
TABLE
2
LTYPE
0
LTYPE
72
65
70
64
2
CONTINUOUS
3
______
73
0
40
0
0
ENDTAB
0
TABLE
2
LAYER
0
ENDTAB
0
ENDSEC
0
SECTION
2
ENTITIES
0
LINE
8
0
10
-10
20
-9.5
11
9
21
-9.5
0
LINE
8
0
10
-10
20
-9.5
11
-10
21
69.5
0
LINE
8
0
10
-10
20
69.5
11
47
21
69.5
0
LINE
8
0
10
47
20
74.5
11
66
21
74.5
0
LINE
8
0
10
47
20
69.5
11
47
21
74.5
0
LINE
8
0
10
66
20
77.5
11
97
21
77.5
0
LINE
8
0
10
97
20
77.5
11
97
21
74.5
0
LINE
8
0
10
66
20
74.5
11
66
21
77.5
0
LINE
8
0
10
97
20
74.5
11
116
21
74.5
0
LINE
8
0
10
116
20
74.5
11
116
21
71.5
0
LINE
8
0
10
145
20
-7.5
11
145
21
49.5
0
LINE
8
0
10
145
20
-7.5
11
134.4211616
21
-7.5
0
LINE
8
0
10
135
20
49.5
11
145
21
49.5
0
LINE
8
0
10
116
20
71.5
11
135
21
71.5
0
LINE
8
0
10
135
20
49.5
11
135
21
71.5
0
LINE
8
0
10
85
20
-25.5
11
104
21
-25.5
0
LINE
8
0
10
85
20
-25.5
11
85
21
-22.5
0
LINE
8
0
10
104
20
-28.5
11
120.3908169
21
-28.5
0
LINE
8
0
10
104
20
-28.5
11
104
21
-25.5
0
LINE
8
0
10
134.4211616
20
-7.5
11
155.5083302
21
-19.6746825
0
LINE
8
0
10
144.5083302
20
-38.7272413
11
155.5083302
21
-19.6746825
0
LINE
8
0
10
133.5083302
20
-57.7798002
11
144.5083302
21
-38.7272414
0
LINE
8
0
10
110.9916698
20
-44.7798002
11
133.5083302
21
-57.7798002
0
LINE
8
0
10
110.9916698
20
-44.7798002
11
120.3908169
21
-28.5
0
LINE
8
0
10
9
20
-28.5
11
48
21
-28.5
0
LINE
8
0
10
9
20
-28.5
11
9
21
-9.5
0
LINE
8
0
10
48
20
-25.5
11
48
21
-28.5
0
LINE
8
0
10
67
20
-22.5
11
67
21
-25.5
0
LINE
8
0
10
48
20
-25.5
11
67
21
-25.5
0
LINE
8
0
10
67
20
-22.5
11
85
21
-22.5
0
ENDSEC
0
EOF