%TF.GenerationSoftware,KiCad,Pcbnew,6.0.2*%
%TF.CreationDate,2022-02-19T14:05:48-05:00*%
%TF.ProjectId,jonkey-v1,6a6f6e6b-6579-42d7-9631-2e6b69636164,v1.0.0*%
%TF.SameCoordinates,Original*%
%TF.FileFunction,Profile,NP*%
%FSLAX46Y46*%
G04 Gerber Fmt 4.6, Leading zero omitted, Abs format (unit mm)*
G04 Created by KiCad (PCBNEW 6.0.2) date 2022-02-19 14:05:48*
%MOMM*%
%LPD*%
G01*
G04 APERTURE LIST*
%TA.AperFunction,Profile*%
%ADD10C,0.150000*%
%TD*%
G04 APERTURE END LIST*
D10*
X56020000Y-114780000D02*
X73020000Y-114780000D01*
X55020000Y-113780000D02*
X55020000Y-36780000D01*
X56020000Y-35780000D02*
X111020000Y-35780000D01*
X113020000Y-30780000D02*
X130020000Y-30780000D01*
X112020000Y-34780000D02*
X112020000Y-31780000D01*
X132020000Y-27780000D02*
X161020000Y-27780000D01*
X162020000Y-28780000D02*
X162020000Y-29780000D01*
X131020000Y-29780000D02*
X131020000Y-28780000D01*
X163020000Y-30780000D02*
X180020000Y-30780000D01*
X181020000Y-31780000D02*
X181020000Y-32780000D01*
X210020000Y-111780000D02*
X210020000Y-56780000D01*
X209020000Y-112780000D02*
X203173212Y-112780000D01*
X201020000Y-55780000D02*
X209020000Y-55780000D01*
X182020000Y-33780000D02*
X199020000Y-33780000D01*
X200020000Y-54780000D02*
X200020000Y-34780000D01*
X151020000Y-130780000D02*
X168020000Y-130780000D01*
X150020000Y-129780000D02*
X150020000Y-128780000D01*
X170020000Y-133780000D02*
X183678766Y-133780000D01*
X169020000Y-132780000D02*
X169020000Y-131780000D01*
X202673212Y-114646025D02*
X219662305Y-124454683D01*
X209528330Y-144007241D02*
X220028330Y-125820708D01*
X199028330Y-162193775D02*
X209528330Y-144007241D01*
X176877695Y-150559800D02*
X197662305Y-162559800D01*
X176511670Y-149193775D02*
X184544791Y-135280000D01*
X75020000Y-133780000D02*
X112020000Y-133780000D01*
X74020000Y-132780000D02*
X74020000Y-115780000D01*
X113020000Y-131780000D02*
X113020000Y-132780000D01*
X132020000Y-128780000D02*
X132020000Y-129780000D01*
X114020000Y-130780000D02*
X131020000Y-130780000D01*
X133020000Y-127780000D02*
X149020000Y-127780000D01*
X74020000Y-115780000D02*
G75*
G03*
X73020000Y-114780000I-1000000J0D01*
G01*
X74020000Y-132780000D02*
G75*
G03*
X75020000Y-133780000I1000000J0D01*
G01*
X112020000Y-133780000D02*
G75*
G03*
X113020000Y-132780000I0J1000000D01*
G01*
X114020000Y-130780000D02*
G75*
G03*
X113020000Y-131780000I0J-1000000D01*
G01*
X131020000Y-130780000D02*
G75*
G03*
X132020000Y-129780000I0J1000000D01*
G01*
X133020000Y-127780000D02*
G75*
G03*
X132020000Y-128780000I0J-1000000D01*
G01*
X150020000Y-128780000D02*
G75*
G03*
X149020000Y-127780000I-1000000J0D01*
G01*
X150020000Y-129780000D02*
G75*
G03*
X151020000Y-130780000I1000000J0D01*
G01*
X169020000Y-131780000D02*
G75*
G03*
X168020000Y-130780000I-1000000J0D01*
G01*
X169020000Y-132780000D02*
G75*
G03*
X170020000Y-133780000I1000000J0D01*
G01*
X184544791Y-135280000D02*
G75*
G03*
X183678766Y-133780000I-866025J500000D01*
G01*
X176511670Y-149193775D02*
G75*
G03*
X176877695Y-150559800I866025J-500000D01*
G01*
X197662305Y-162559800D02*
G75*
G03*
X199028330Y-162193775I500000J866025D01*
G01*
X220028330Y-125820708D02*
G75*
G03*
X219662305Y-124454683I-866025J500000D01*
G01*
X203173212Y-112780000D02*
G75*
G03*
X202673212Y-114646025I0J-1000000D01*
G01*
X209020000Y-112780000D02*
G75*
G03*
X210020000Y-111780000I0J1000000D01*
G01*
X210020000Y-56780000D02*
G75*
G03*
X209020000Y-55780000I-1000000J0D01*
G01*
X200020000Y-54780000D02*
G75*
G03*
X201020000Y-55780000I1000000J0D01*
G01*
X200020000Y-34780000D02*
G75*
G03*
X199020000Y-33780000I-1000000J0D01*
G01*
X181020000Y-32780000D02*
G75*
G03*
X182020000Y-33780000I1000000J0D01*
G01*
X181020000Y-31780000D02*
G75*
G03*
X180020000Y-30780000I-1000000J0D01*
G01*
X162020000Y-29780000D02*
G75*
G03*
X163020000Y-30780000I1000000J0D01*
G01*
X162020000Y-28780000D02*
G75*
G03*
X161020000Y-27780000I-1000000J0D01*
G01*
X132020000Y-27780000D02*
G75*
G03*
X131020000Y-28780000I0J-1000000D01*
G01*
X130020000Y-30780000D02*
G75*
G03*
X131020000Y-29780000I0J1000000D01*
G01*
X113020000Y-30780000D02*
G75*
G03*
X112020000Y-31780000I0J-1000000D01*
G01*
X111020000Y-35780000D02*
G75*
G03*
X112020000Y-34780000I0J1000000D01*
G01*
X56020000Y-35780000D02*
G75*
G03*
X55020000Y-36780000I0J-1000000D01*
G01*
X55020000Y-113780000D02*
G75*
G03*
X56020000Y-114780000I1000000J0D01*
G01*
M02*
