%TF.GenerationSoftware,KiCad,Pcbnew,6.0.2*%
%TF.CreationDate,2022-02-19T14:05:47-05:00*%
%TF.ProjectId,jonkey-v1,6a6f6e6b-6579-42d7-9631-2e6b69636164,v1.0.0*%
%TF.SameCoordinates,Original*%
%TF.FileFunction,Soldermask,Bot*%
%TF.FilePolarity,Negative*%
%FSLAX46Y46*%
G04 Gerber Fmt 4.6, Leading zero omitted, Abs format (unit mm)*
G04 Created by KiCad (PCBNEW 6.0.2) date 2022-02-19 14:05:47*
%MOMM*%
%LPD*%
G01*
G04 APERTURE LIST*
G04 Aperture macros list*
%AMRoundRect*
0 Rectangle with rounded corners*
0 $1 Rounding radius*
0 $2 $3 $4 $5 $6 $7 $8 $9 X,Y pos of 4 corners*
0 Add a 4 corners polygon primitive as box body*
4,1,4,$2,$3,$4,$5,$6,$7,$8,$9,$2,$3,0*
0 Add four circle primitives for the rounded corners*
1,1,$1+$1,$2,$3*
1,1,$1+$1,$4,$5*
1,1,$1+$1,$6,$7*
1,1,$1+$1,$8,$9*
0 Add four rect primitives between the rounded corners*
20,1,$1+$1,$2,$3,$4,$5,0*
20,1,$1+$1,$4,$5,$6,$7,0*
20,1,$1+$1,$6,$7,$8,$9,0*
20,1,$1+$1,$8,$9,$2,$3,0*%
G04 Aperture macros list end*
%ADD10RoundRect,0.050000X-0.450000X-0.600000X0.450000X-0.600000X0.450000X0.600000X-0.450000X0.600000X0*%
%ADD11C,2.005000*%
%ADD12RoundRect,0.050000X-0.889000X-0.889000X0.889000X-0.889000X0.889000X0.889000X-0.889000X0.889000X0*%
%ADD13C,3.529000*%
%ADD14C,1.801800*%
%ADD15C,3.100000*%
%ADD16RoundRect,0.050000X1.300000X1.300000X-1.300000X1.300000X-1.300000X-1.300000X1.300000X-1.300000X0*%
%ADD17RoundRect,0.050000X-0.689711X-0.294615X0.089711X-0.744615X0.689711X0.294615X-0.089711X0.744615X0*%
%ADD18RoundRect,0.050000X-1.214397X-0.325397X0.325397X-1.214397X1.214397X0.325397X-0.325397X1.214397X0*%
%ADD19RoundRect,0.050000X1.775833X0.475833X-0.475833X1.775833X-1.775833X-0.475833X0.475833X-1.775833X0*%
%ADD20RoundRect,0.050000X-0.876300X0.876300X-0.876300X-0.876300X0.876300X-0.876300X0.876300X0.876300X0*%
%ADD21C,1.852600*%
%ADD22C,2.100000*%
%ADD23C,1.600000*%
%ADD24O,2.300000X1.700000*%
G04 APERTURE END LIST*
D10*
%TO.C,D1*%
X66670000Y-100280000D03*
X63370000Y-100280000D03*
D11*
X68830000Y-100280000D03*
D12*
X61210000Y-100280000D03*
%TD*%
D13*
%TO.C,S1*%
X65020000Y-105280000D03*
D14*
X59520000Y-105280000D03*
X70520000Y-105280000D03*
D15*
X60020000Y-109030000D03*
X65020000Y-111230000D03*
D16*
X68295000Y-111230000D03*
X56745000Y-109030000D03*
D15*
X70020000Y-109030000D03*
X65020000Y-111230000D03*
%TD*%
D10*
%TO.C,D2*%
X66670000Y-81280000D03*
X63370000Y-81280000D03*
D11*
X68830000Y-81280000D03*
D12*
X61210000Y-81280000D03*
%TD*%
D13*
%TO.C,S2*%
X65020000Y-86280000D03*
D14*
X59520000Y-86280000D03*
X70520000Y-86280000D03*
D15*
X60020000Y-90030000D03*
X65020000Y-92230000D03*
D16*
X68295000Y-92230000D03*
X56745000Y-90030000D03*
D15*
X70020000Y-90030000D03*
X65020000Y-92230000D03*
%TD*%
D10*
%TO.C,D3*%
X66670000Y-62280000D03*
X63370000Y-62280000D03*
D11*
X68830000Y-62280000D03*
D12*
X61210000Y-62280000D03*
%TD*%
D13*
%TO.C,S3*%
X65020000Y-67280000D03*
D14*
X59520000Y-67280000D03*
X70520000Y-67280000D03*
D15*
X60020000Y-71030000D03*
X65020000Y-73230000D03*
D16*
X68295000Y-73230000D03*
X56745000Y-71030000D03*
D15*
X70020000Y-71030000D03*
X65020000Y-73230000D03*
%TD*%
D10*
%TO.C,D4*%
X66670000Y-43280000D03*
X63370000Y-43280000D03*
D11*
X68830000Y-43280000D03*
D12*
X61210000Y-43280000D03*
%TD*%
D13*
%TO.C,S4*%
X65020000Y-48280000D03*
D14*
X59520000Y-48280000D03*
X70520000Y-48280000D03*
D15*
X60020000Y-52030000D03*
X65020000Y-54230000D03*
D16*
X68295000Y-54230000D03*
X56745000Y-52030000D03*
D15*
X70020000Y-52030000D03*
X65020000Y-54230000D03*
%TD*%
D10*
%TO.C,D5*%
X85670000Y-100280000D03*
X82370000Y-100280000D03*
D11*
X87830000Y-100280000D03*
D12*
X80210000Y-100280000D03*
%TD*%
D13*
%TO.C,S5*%
X84020000Y-105280000D03*
D14*
X78520000Y-105280000D03*
X89520000Y-105280000D03*
D15*
X79020000Y-109030000D03*
X84020000Y-111230000D03*
D16*
X87295000Y-111230000D03*
X75745000Y-109030000D03*
D15*
X89020000Y-109030000D03*
X84020000Y-111230000D03*
%TD*%
D10*
%TO.C,D6*%
X85670000Y-81280000D03*
X82370000Y-81280000D03*
D11*
X87830000Y-81280000D03*
D12*
X80210000Y-81280000D03*
%TD*%
D13*
%TO.C,S6*%
X84020000Y-86280000D03*
D14*
X78520000Y-86280000D03*
X89520000Y-86280000D03*
D15*
X79020000Y-90030000D03*
X84020000Y-92230000D03*
D16*
X87295000Y-92230000D03*
X75745000Y-90030000D03*
D15*
X89020000Y-90030000D03*
X84020000Y-92230000D03*
%TD*%
D10*
%TO.C,D7*%
X85670000Y-62280000D03*
X82370000Y-62280000D03*
D11*
X87830000Y-62280000D03*
D12*
X80210000Y-62280000D03*
%TD*%
D13*
%TO.C,S7*%
X84020000Y-67280000D03*
D14*
X78520000Y-67280000D03*
X89520000Y-67280000D03*
D15*
X79020000Y-71030000D03*
X84020000Y-73230000D03*
D16*
X87295000Y-73230000D03*
X75745000Y-71030000D03*
D15*
X89020000Y-71030000D03*
X84020000Y-73230000D03*
%TD*%
D10*
%TO.C,D8*%
X85670000Y-43280000D03*
X82370000Y-43280000D03*
D11*
X87830000Y-43280000D03*
D12*
X80210000Y-43280000D03*
%TD*%
D13*
%TO.C,S8*%
X84020000Y-48280000D03*
D14*
X78520000Y-48280000D03*
X89520000Y-48280000D03*
D15*
X79020000Y-52030000D03*
X84020000Y-54230000D03*
D16*
X87295000Y-54230000D03*
X75745000Y-52030000D03*
D15*
X89020000Y-52030000D03*
X84020000Y-54230000D03*
%TD*%
D10*
%TO.C,D9*%
X104670000Y-100280000D03*
X101370000Y-100280000D03*
D11*
X106830000Y-100280000D03*
D12*
X99210000Y-100280000D03*
%TD*%
D13*
%TO.C,S9*%
X103020000Y-105280000D03*
D14*
X97520000Y-105280000D03*
X108520000Y-105280000D03*
D15*
X98020000Y-109030000D03*
X103020000Y-111230000D03*
D16*
X106295000Y-111230000D03*
X94745000Y-109030000D03*
D15*
X108020000Y-109030000D03*
X103020000Y-111230000D03*
%TD*%
D10*
%TO.C,D10*%
X104670000Y-81280000D03*
X101370000Y-81280000D03*
D11*
X106830000Y-81280000D03*
D12*
X99210000Y-81280000D03*
%TD*%
D13*
%TO.C,S10*%
X103020000Y-86280000D03*
D14*
X97520000Y-86280000D03*
X108520000Y-86280000D03*
D15*
X98020000Y-90030000D03*
X103020000Y-92230000D03*
D16*
X106295000Y-92230000D03*
X94745000Y-90030000D03*
D15*
X108020000Y-90030000D03*
X103020000Y-92230000D03*
%TD*%
D10*
%TO.C,D11*%
X104670000Y-62280000D03*
X101370000Y-62280000D03*
D11*
X106830000Y-62280000D03*
D12*
X99210000Y-62280000D03*
%TD*%
D13*
%TO.C,S11*%
X103020000Y-67280000D03*
D14*
X97520000Y-67280000D03*
X108520000Y-67280000D03*
D15*
X98020000Y-71030000D03*
X103020000Y-73230000D03*
D16*
X106295000Y-73230000D03*
X94745000Y-71030000D03*
D15*
X108020000Y-71030000D03*
X103020000Y-73230000D03*
%TD*%
D10*
%TO.C,D12*%
X104670000Y-43280000D03*
X101370000Y-43280000D03*
D11*
X106830000Y-43280000D03*
D12*
X99210000Y-43280000D03*
%TD*%
D13*
%TO.C,S12*%
X103020000Y-48280000D03*
D14*
X97520000Y-48280000D03*
X108520000Y-48280000D03*
D15*
X98020000Y-52030000D03*
X103020000Y-54230000D03*
D16*
X106295000Y-54230000D03*
X94745000Y-52030000D03*
D15*
X108020000Y-52030000D03*
X103020000Y-54230000D03*
%TD*%
D10*
%TO.C,D13*%
X123670000Y-95280000D03*
X120370000Y-95280000D03*
D11*
X125830000Y-95280000D03*
D12*
X118210000Y-95280000D03*
%TD*%
D13*
%TO.C,S13*%
X122020000Y-100280000D03*
D14*
X116520000Y-100280000D03*
X127520000Y-100280000D03*
D15*
X117020000Y-104030000D03*
X122020000Y-106230000D03*
D16*
X125295000Y-106230000D03*
X113745000Y-104030000D03*
D15*
X127020000Y-104030000D03*
X122020000Y-106230000D03*
%TD*%
D10*
%TO.C,D14*%
X123670000Y-76280000D03*
X120370000Y-76280000D03*
D11*
X125830000Y-76280000D03*
D12*
X118210000Y-76280000D03*
%TD*%
D13*
%TO.C,S14*%
X122020000Y-81280000D03*
D14*
X116520000Y-81280000D03*
X127520000Y-81280000D03*
D15*
X117020000Y-85030000D03*
X122020000Y-87230000D03*
D16*
X125295000Y-87230000D03*
X113745000Y-85030000D03*
D15*
X127020000Y-85030000D03*
X122020000Y-87230000D03*
%TD*%
D10*
%TO.C,D15*%
X123670000Y-57280000D03*
X120370000Y-57280000D03*
D11*
X125830000Y-57280000D03*
D12*
X118210000Y-57280000D03*
%TD*%
D13*
%TO.C,S15*%
X122020000Y-62280000D03*
D14*
X116520000Y-62280000D03*
X127520000Y-62280000D03*
D15*
X117020000Y-66030000D03*
X122020000Y-68230000D03*
D16*
X125295000Y-68230000D03*
X113745000Y-66030000D03*
D15*
X127020000Y-66030000D03*
X122020000Y-68230000D03*
%TD*%
D10*
%TO.C,D16*%
X123670000Y-38280000D03*
X120370000Y-38280000D03*
D11*
X125830000Y-38280000D03*
D12*
X118210000Y-38280000D03*
%TD*%
D13*
%TO.C,S16*%
X122020000Y-43280000D03*
D14*
X116520000Y-43280000D03*
X127520000Y-43280000D03*
D15*
X117020000Y-47030000D03*
X122020000Y-49230000D03*
D16*
X125295000Y-49230000D03*
X113745000Y-47030000D03*
D15*
X127020000Y-47030000D03*
X122020000Y-49230000D03*
%TD*%
D10*
%TO.C,D17*%
X142670000Y-92280000D03*
X139370000Y-92280000D03*
D11*
X144830000Y-92280000D03*
D12*
X137210000Y-92280000D03*
%TD*%
D13*
%TO.C,S17*%
X141020000Y-97280000D03*
D14*
X135520000Y-97280000D03*
X146520000Y-97280000D03*
D15*
X136020000Y-101030000D03*
X141020000Y-103230000D03*
D16*
X144295000Y-103230000D03*
X132745000Y-101030000D03*
D15*
X146020000Y-101030000D03*
X141020000Y-103230000D03*
%TD*%
D10*
%TO.C,D18*%
X142670000Y-73280000D03*
X139370000Y-73280000D03*
D11*
X144830000Y-73280000D03*
D12*
X137210000Y-73280000D03*
%TD*%
D13*
%TO.C,S18*%
X141020000Y-78280000D03*
D14*
X135520000Y-78280000D03*
X146520000Y-78280000D03*
D15*
X136020000Y-82030000D03*
X141020000Y-84230000D03*
D16*
X144295000Y-84230000D03*
X132745000Y-82030000D03*
D15*
X146020000Y-82030000D03*
X141020000Y-84230000D03*
%TD*%
D10*
%TO.C,D19*%
X142670000Y-54280000D03*
X139370000Y-54280000D03*
D11*
X144830000Y-54280000D03*
D12*
X137210000Y-54280000D03*
%TD*%
D13*
%TO.C,S19*%
X141020000Y-59280000D03*
D14*
X135520000Y-59280000D03*
X146520000Y-59280000D03*
D15*
X136020000Y-63030000D03*
X141020000Y-65230000D03*
D16*
X144295000Y-65230000D03*
X132745000Y-63030000D03*
D15*
X146020000Y-63030000D03*
X141020000Y-65230000D03*
%TD*%
D10*
%TO.C,D20*%
X142670000Y-35280000D03*
X139370000Y-35280000D03*
D11*
X144830000Y-35280000D03*
D12*
X137210000Y-35280000D03*
%TD*%
D13*
%TO.C,S20*%
X141020000Y-40280000D03*
D14*
X135520000Y-40280000D03*
X146520000Y-40280000D03*
D15*
X136020000Y-44030000D03*
X141020000Y-46230000D03*
D16*
X144295000Y-46230000D03*
X132745000Y-44030000D03*
D15*
X146020000Y-44030000D03*
X141020000Y-46230000D03*
%TD*%
D10*
%TO.C,D21*%
X161670000Y-95280000D03*
X158370000Y-95280000D03*
D11*
X163830000Y-95280000D03*
D12*
X156210000Y-95280000D03*
%TD*%
D13*
%TO.C,S21*%
X160020000Y-100280000D03*
D14*
X154520000Y-100280000D03*
X165520000Y-100280000D03*
D15*
X155020000Y-104030000D03*
X160020000Y-106230000D03*
D16*
X163295000Y-106230000D03*
X151745000Y-104030000D03*
D15*
X165020000Y-104030000D03*
X160020000Y-106230000D03*
%TD*%
D10*
%TO.C,D22*%
X161670000Y-76280000D03*
X158370000Y-76280000D03*
D11*
X163830000Y-76280000D03*
D12*
X156210000Y-76280000D03*
%TD*%
D13*
%TO.C,S22*%
X160020000Y-81280000D03*
D14*
X154520000Y-81280000D03*
X165520000Y-81280000D03*
D15*
X155020000Y-85030000D03*
X160020000Y-87230000D03*
D16*
X163295000Y-87230000D03*
X151745000Y-85030000D03*
D15*
X165020000Y-85030000D03*
X160020000Y-87230000D03*
%TD*%
D10*
%TO.C,D23*%
X161670000Y-57280000D03*
X158370000Y-57280000D03*
D11*
X163830000Y-57280000D03*
D12*
X156210000Y-57280000D03*
%TD*%
D13*
%TO.C,S23*%
X160020000Y-62280000D03*
D14*
X154520000Y-62280000D03*
X165520000Y-62280000D03*
D15*
X155020000Y-66030000D03*
X160020000Y-68230000D03*
D16*
X163295000Y-68230000D03*
X151745000Y-66030000D03*
D15*
X165020000Y-66030000D03*
X160020000Y-68230000D03*
%TD*%
D10*
%TO.C,D24*%
X161670000Y-38280000D03*
X158370000Y-38280000D03*
D11*
X163830000Y-38280000D03*
D12*
X156210000Y-38280000D03*
%TD*%
D13*
%TO.C,S24*%
X160020000Y-43280000D03*
D14*
X154520000Y-43280000D03*
X165520000Y-43280000D03*
D15*
X155020000Y-47030000D03*
X160020000Y-49230000D03*
D16*
X163295000Y-49230000D03*
X151745000Y-47030000D03*
D15*
X165020000Y-47030000D03*
X160020000Y-49230000D03*
%TD*%
D10*
%TO.C,D25*%
X180670000Y-98280000D03*
X177370000Y-98280000D03*
D11*
X182830000Y-98280000D03*
D12*
X175210000Y-98280000D03*
%TD*%
D13*
%TO.C,S25*%
X179020000Y-103280000D03*
D14*
X173520000Y-103280000D03*
X184520000Y-103280000D03*
D15*
X174020000Y-107030000D03*
X179020000Y-109230000D03*
D16*
X182295000Y-109230000D03*
X170745000Y-107030000D03*
D15*
X184020000Y-107030000D03*
X179020000Y-109230000D03*
%TD*%
D10*
%TO.C,D26*%
X180670000Y-79280000D03*
X177370000Y-79280000D03*
D11*
X182830000Y-79280000D03*
D12*
X175210000Y-79280000D03*
%TD*%
D13*
%TO.C,S26*%
X179020000Y-84280000D03*
D14*
X173520000Y-84280000D03*
X184520000Y-84280000D03*
D15*
X174020000Y-88030000D03*
X179020000Y-90230000D03*
D16*
X182295000Y-90230000D03*
X170745000Y-88030000D03*
D15*
X184020000Y-88030000D03*
X179020000Y-90230000D03*
%TD*%
D10*
%TO.C,D27*%
X180670000Y-60280000D03*
X177370000Y-60280000D03*
D11*
X182830000Y-60280000D03*
D12*
X175210000Y-60280000D03*
%TD*%
D13*
%TO.C,S27*%
X179020000Y-65280000D03*
D14*
X173520000Y-65280000D03*
X184520000Y-65280000D03*
D15*
X174020000Y-69030000D03*
X179020000Y-71230000D03*
D16*
X182295000Y-71230000D03*
X170745000Y-69030000D03*
D15*
X184020000Y-69030000D03*
X179020000Y-71230000D03*
%TD*%
D10*
%TO.C,D28*%
X180670000Y-41280000D03*
X177370000Y-41280000D03*
D11*
X182830000Y-41280000D03*
D12*
X175210000Y-41280000D03*
%TD*%
D13*
%TO.C,S28*%
X179020000Y-46280000D03*
D14*
X173520000Y-46280000D03*
X184520000Y-46280000D03*
D15*
X174020000Y-50030000D03*
X179020000Y-52230000D03*
D16*
X182295000Y-52230000D03*
X170745000Y-50030000D03*
D15*
X184020000Y-50030000D03*
X179020000Y-52230000D03*
%TD*%
D10*
%TO.C,D29*%
X161670000Y-116280000D03*
X158370000Y-116280000D03*
D11*
X163830000Y-116280000D03*
D12*
X156210000Y-116280000D03*
%TD*%
D13*
%TO.C,S29*%
X160020000Y-121280000D03*
D14*
X154520000Y-121280000D03*
X165520000Y-121280000D03*
D15*
X155020000Y-125030000D03*
X160020000Y-127230000D03*
D16*
X163295000Y-127230000D03*
X151745000Y-125030000D03*
D15*
X165020000Y-125030000D03*
X160020000Y-127230000D03*
%TD*%
D10*
%TO.C,D30*%
X180670000Y-119280000D03*
X177370000Y-119280000D03*
D11*
X182830000Y-119280000D03*
D12*
X175210000Y-119280000D03*
%TD*%
D13*
%TO.C,S30*%
X179020000Y-124280000D03*
D14*
X173520000Y-124280000D03*
X184520000Y-124280000D03*
D15*
X174020000Y-128030000D03*
X179020000Y-130230000D03*
D16*
X182295000Y-130230000D03*
X170745000Y-128030000D03*
D15*
X184020000Y-128030000D03*
X179020000Y-130230000D03*
%TD*%
D17*
%TO.C,D31*%
X206948942Y-125774873D03*
X204091058Y-124124873D03*
D11*
X208819557Y-126854873D03*
D18*
X202220443Y-123044873D03*
%TD*%
D13*
%TO.C,S31*%
X203020000Y-129280000D03*
D14*
X198256860Y-126530000D03*
X207783140Y-132030000D03*
D15*
X196814873Y-130027595D03*
X200045000Y-134432851D03*
D19*
X202881233Y-136070351D03*
X193978640Y-128390095D03*
D15*
X205475127Y-135027595D03*
X200045000Y-134432851D03*
%TD*%
D17*
%TO.C,D32*%
X195948942Y-144827432D03*
X193091058Y-143177432D03*
D11*
X197819557Y-145907432D03*
D18*
X191220443Y-142097432D03*
%TD*%
D13*
%TO.C,S32*%
X192020000Y-148332559D03*
D14*
X187256860Y-145582559D03*
X196783140Y-151082559D03*
D15*
X185814873Y-149080154D03*
X189045000Y-153485410D03*
D19*
X191881233Y-155122910D03*
X182978640Y-147442654D03*
D15*
X194475127Y-154080154D03*
X189045000Y-153485410D03*
%TD*%
D10*
%TO.C,D33*%
X85670000Y-119280000D03*
X82370000Y-119280000D03*
D11*
X87830000Y-119280000D03*
D12*
X80210000Y-119280000D03*
%TD*%
D13*
%TO.C,S33*%
X84020000Y-124280000D03*
D14*
X78520000Y-124280000D03*
X89520000Y-124280000D03*
D15*
X79020000Y-128030000D03*
X84020000Y-130230000D03*
D16*
X87295000Y-130230000D03*
X75745000Y-128030000D03*
D15*
X89020000Y-128030000D03*
X84020000Y-130230000D03*
%TD*%
D10*
%TO.C,D34*%
X104670000Y-119280000D03*
X101370000Y-119280000D03*
D11*
X106830000Y-119280000D03*
D12*
X99210000Y-119280000D03*
%TD*%
D13*
%TO.C,S34*%
X103020000Y-124280000D03*
D14*
X97520000Y-124280000D03*
X108520000Y-124280000D03*
D15*
X98020000Y-128030000D03*
X103020000Y-130230000D03*
D16*
X106295000Y-130230000D03*
X94745000Y-128030000D03*
D15*
X108020000Y-128030000D03*
X103020000Y-130230000D03*
%TD*%
D10*
%TO.C,D35*%
X123670000Y-116280000D03*
X120370000Y-116280000D03*
D11*
X125830000Y-116280000D03*
D12*
X118210000Y-116280000D03*
%TD*%
D13*
%TO.C,S35*%
X122020000Y-121280000D03*
D14*
X116520000Y-121280000D03*
X127520000Y-121280000D03*
D15*
X117020000Y-125030000D03*
X122020000Y-127230000D03*
D16*
X125295000Y-127230000D03*
X113745000Y-125030000D03*
D15*
X127020000Y-125030000D03*
X122020000Y-127230000D03*
%TD*%
D10*
%TO.C,D36*%
X142670000Y-113280000D03*
X139370000Y-113280000D03*
D11*
X144830000Y-113280000D03*
D12*
X137210000Y-113280000D03*
%TD*%
D13*
%TO.C,S36*%
X141020000Y-118280000D03*
D14*
X135520000Y-118280000D03*
X146520000Y-118280000D03*
D15*
X136020000Y-122030000D03*
X141020000Y-124230000D03*
D16*
X144295000Y-124230000D03*
X132745000Y-122030000D03*
D15*
X146020000Y-122030000D03*
X141020000Y-124230000D03*
%TD*%
D20*
%TO.C,MCU1*%
X192400000Y-60310000D03*
D21*
X192400000Y-62850000D03*
X192400000Y-65390000D03*
X192400000Y-67930000D03*
X192400000Y-70470000D03*
X192400000Y-73010000D03*
X192400000Y-75550000D03*
X192400000Y-78090000D03*
X192400000Y-80630000D03*
X192400000Y-83170000D03*
X192400000Y-85710000D03*
X192400000Y-88250000D03*
X207640000Y-60310000D03*
X207640000Y-62850000D03*
X207640000Y-65390000D03*
X207640000Y-67930000D03*
X207640000Y-70470000D03*
X207640000Y-73010000D03*
X207640000Y-75550000D03*
X207640000Y-78090000D03*
X207640000Y-80630000D03*
X207640000Y-83170000D03*
X207640000Y-85710000D03*
X207640000Y-88250000D03*
%TD*%
D22*
%TO.C,B1*%
X200770000Y-98280000D03*
X207270000Y-98280000D03*
%TD*%
D23*
%TO.C,REF\u002A\u002A*%
X199420000Y-108980000D03*
X206420000Y-108980000D03*
D24*
X196720000Y-106680000D03*
X197820000Y-111280000D03*
X201820000Y-111280000D03*
X204820000Y-111280000D03*
D23*
X199420000Y-106580000D03*
X206420000Y-106580000D03*
D24*
X196720000Y-108880000D03*
X197820000Y-104280000D03*
X201820000Y-104280000D03*
X204820000Y-104280000D03*
%TD*%
M02*
