%TF.GenerationSoftware,KiCad,Pcbnew,6.0.2*%
%TF.CreationDate,2022-02-19T14:05:47-05:00*%
%TF.ProjectId,jonkey-v1,6a6f6e6b-6579-42d7-9631-2e6b69636164,v1.0.0*%
%TF.SameCoordinates,Original*%
%TF.FileFunction,Legend,Top*%
%TF.FilePolarity,Positive*%
%FSLAX46Y46*%
G04 Gerber Fmt 4.6, Leading zero omitted, Abs format (unit mm)*
G04 Created by KiCad (PCBNEW 6.0.2) date 2022-02-19 14:05:47*
%MOMM*%
%LPD*%
G01*
G04 APERTURE LIST*
%ADD10C,0.150000*%
%ADD11C,0.100000*%
%ADD12R,1.752600X1.752600*%
%ADD13C,1.752600*%
G04 APERTURE END LIST*
D10*
X192492380Y-107663809D02*
X193206666Y-107663809D01*
X193349523Y-107711428D01*
X193444761Y-107806666D01*
X193492380Y-107949523D01*
X193492380Y-108044761D01*
X192492380Y-106997142D02*
X192492380Y-106806666D01*
X192540000Y-106711428D01*
X192635238Y-106616190D01*
X192825714Y-106568571D01*
X193159047Y-106568571D01*
X193349523Y-106616190D01*
X193444761Y-106711428D01*
X193492380Y-106806666D01*
X193492380Y-106997142D01*
X193444761Y-107092380D01*
X193349523Y-107187619D01*
X193159047Y-107235238D01*
X192825714Y-107235238D01*
X192635238Y-107187619D01*
X192540000Y-107092380D01*
X192492380Y-106997142D01*
X193492380Y-106140000D02*
X192492380Y-106140000D01*
X193492380Y-105568571D01*
X192492380Y-105568571D01*
X193492380Y-105092380D02*
X192492380Y-105092380D01*
X193492380Y-104520952D02*
X192920952Y-104949523D01*
X192492380Y-104520952D02*
X193063809Y-105092380D01*
X192968571Y-104092380D02*
X192968571Y-103759047D01*
X193492380Y-103616190D02*
X193492380Y-104092380D01*
X192492380Y-104092380D01*
X192492380Y-103616190D01*
X193016190Y-102997142D02*
X193492380Y-102997142D01*
X192492380Y-103330476D02*
X193016190Y-102997142D01*
X192492380Y-102663809D01*
X192825714Y-101663809D02*
X193492380Y-101425714D01*
X192825714Y-101187619D01*
X193492380Y-100282857D02*
X193492380Y-100854285D01*
X193492380Y-100568571D02*
X192492380Y-100568571D01*
X192635238Y-100663809D01*
X192730476Y-100759047D01*
X192778095Y-100854285D01*
%TO.C,MCU1*%
X194667619Y-60671904D02*
X194400952Y-60290952D01*
X194210476Y-60671904D02*
X194210476Y-59871904D01*
X194515238Y-59871904D01*
X194591428Y-59910000D01*
X194629523Y-59948095D01*
X194667619Y-60024285D01*
X194667619Y-60138571D01*
X194629523Y-60214761D01*
X194591428Y-60252857D01*
X194515238Y-60290952D01*
X194210476Y-60290952D01*
X194972380Y-60443333D02*
X195353333Y-60443333D01*
X194896190Y-60671904D02*
X195162857Y-59871904D01*
X195429523Y-60671904D01*
X195620000Y-59871904D02*
X195810476Y-60671904D01*
X195962857Y-60100476D01*
X196115238Y-60671904D01*
X196305714Y-59871904D01*
X194610476Y-62450000D02*
X194534285Y-62411904D01*
X194420000Y-62411904D01*
X194305714Y-62450000D01*
X194229523Y-62526190D01*
X194191428Y-62602380D01*
X194153333Y-62754761D01*
X194153333Y-62869047D01*
X194191428Y-63021428D01*
X194229523Y-63097619D01*
X194305714Y-63173809D01*
X194420000Y-63211904D01*
X194496190Y-63211904D01*
X194610476Y-63173809D01*
X194648571Y-63135714D01*
X194648571Y-62869047D01*
X194496190Y-62869047D01*
X194991428Y-63211904D02*
X194991428Y-62411904D01*
X195448571Y-63211904D01*
X195448571Y-62411904D01*
X195829523Y-63211904D02*
X195829523Y-62411904D01*
X196020000Y-62411904D01*
X196134285Y-62450000D01*
X196210476Y-62526190D01*
X196248571Y-62602380D01*
X196286666Y-62754761D01*
X196286666Y-62869047D01*
X196248571Y-63021428D01*
X196210476Y-63097619D01*
X196134285Y-63173809D01*
X196020000Y-63211904D01*
X195829523Y-63211904D01*
X194781904Y-65751904D02*
X194515238Y-65370952D01*
X194324761Y-65751904D02*
X194324761Y-64951904D01*
X194629523Y-64951904D01*
X194705714Y-64990000D01*
X194743809Y-65028095D01*
X194781904Y-65104285D01*
X194781904Y-65218571D01*
X194743809Y-65294761D01*
X194705714Y-65332857D01*
X194629523Y-65370952D01*
X194324761Y-65370952D01*
X195086666Y-65713809D02*
X195200952Y-65751904D01*
X195391428Y-65751904D01*
X195467619Y-65713809D01*
X195505714Y-65675714D01*
X195543809Y-65599523D01*
X195543809Y-65523333D01*
X195505714Y-65447142D01*
X195467619Y-65409047D01*
X195391428Y-65370952D01*
X195239047Y-65332857D01*
X195162857Y-65294761D01*
X195124761Y-65256666D01*
X195086666Y-65180476D01*
X195086666Y-65104285D01*
X195124761Y-65028095D01*
X195162857Y-64990000D01*
X195239047Y-64951904D01*
X195429523Y-64951904D01*
X195543809Y-64990000D01*
X195772380Y-64951904D02*
X196229523Y-64951904D01*
X196000952Y-65751904D02*
X196000952Y-64951904D01*
X194153333Y-67491904D02*
X194420000Y-68291904D01*
X194686666Y-67491904D01*
X195410476Y-68215714D02*
X195372380Y-68253809D01*
X195258095Y-68291904D01*
X195181904Y-68291904D01*
X195067619Y-68253809D01*
X194991428Y-68177619D01*
X194953333Y-68101428D01*
X194915238Y-67949047D01*
X194915238Y-67834761D01*
X194953333Y-67682380D01*
X194991428Y-67606190D01*
X195067619Y-67530000D01*
X195181904Y-67491904D01*
X195258095Y-67491904D01*
X195372380Y-67530000D01*
X195410476Y-67568095D01*
X196210476Y-68215714D02*
X196172380Y-68253809D01*
X196058095Y-68291904D01*
X195981904Y-68291904D01*
X195867619Y-68253809D01*
X195791428Y-68177619D01*
X195753333Y-68101428D01*
X195715238Y-67949047D01*
X195715238Y-67834761D01*
X195753333Y-67682380D01*
X195791428Y-67606190D01*
X195867619Y-67530000D01*
X195981904Y-67491904D01*
X196058095Y-67491904D01*
X196172380Y-67530000D01*
X196210476Y-67568095D01*
X194248571Y-70831904D02*
X194248571Y-70031904D01*
X194553333Y-70031904D01*
X194629523Y-70070000D01*
X194667619Y-70108095D01*
X194705714Y-70184285D01*
X194705714Y-70298571D01*
X194667619Y-70374761D01*
X194629523Y-70412857D01*
X194553333Y-70450952D01*
X194248571Y-70450952D01*
X195010476Y-70108095D02*
X195048571Y-70070000D01*
X195124761Y-70031904D01*
X195315238Y-70031904D01*
X195391428Y-70070000D01*
X195429523Y-70108095D01*
X195467619Y-70184285D01*
X195467619Y-70260476D01*
X195429523Y-70374761D01*
X194972380Y-70831904D01*
X195467619Y-70831904D01*
X196229523Y-70831904D02*
X195772380Y-70831904D01*
X196000952Y-70831904D02*
X196000952Y-70031904D01*
X195924761Y-70146190D01*
X195848571Y-70222380D01*
X195772380Y-70260476D01*
X194248571Y-73371904D02*
X194248571Y-72571904D01*
X194553333Y-72571904D01*
X194629523Y-72610000D01*
X194667619Y-72648095D01*
X194705714Y-72724285D01*
X194705714Y-72838571D01*
X194667619Y-72914761D01*
X194629523Y-72952857D01*
X194553333Y-72990952D01*
X194248571Y-72990952D01*
X195010476Y-72648095D02*
X195048571Y-72610000D01*
X195124761Y-72571904D01*
X195315238Y-72571904D01*
X195391428Y-72610000D01*
X195429523Y-72648095D01*
X195467619Y-72724285D01*
X195467619Y-72800476D01*
X195429523Y-72914761D01*
X194972380Y-73371904D01*
X195467619Y-73371904D01*
X195962857Y-72571904D02*
X196039047Y-72571904D01*
X196115238Y-72610000D01*
X196153333Y-72648095D01*
X196191428Y-72724285D01*
X196229523Y-72876666D01*
X196229523Y-73067142D01*
X196191428Y-73219523D01*
X196153333Y-73295714D01*
X196115238Y-73333809D01*
X196039047Y-73371904D01*
X195962857Y-73371904D01*
X195886666Y-73333809D01*
X195848571Y-73295714D01*
X195810476Y-73219523D01*
X195772380Y-73067142D01*
X195772380Y-72876666D01*
X195810476Y-72724285D01*
X195848571Y-72648095D01*
X195886666Y-72610000D01*
X195962857Y-72571904D01*
X194248571Y-75911904D02*
X194248571Y-75111904D01*
X194553333Y-75111904D01*
X194629523Y-75150000D01*
X194667619Y-75188095D01*
X194705714Y-75264285D01*
X194705714Y-75378571D01*
X194667619Y-75454761D01*
X194629523Y-75492857D01*
X194553333Y-75530952D01*
X194248571Y-75530952D01*
X195467619Y-75911904D02*
X195010476Y-75911904D01*
X195239047Y-75911904D02*
X195239047Y-75111904D01*
X195162857Y-75226190D01*
X195086666Y-75302380D01*
X195010476Y-75340476D01*
X195848571Y-75911904D02*
X196000952Y-75911904D01*
X196077142Y-75873809D01*
X196115238Y-75835714D01*
X196191428Y-75721428D01*
X196229523Y-75569047D01*
X196229523Y-75264285D01*
X196191428Y-75188095D01*
X196153333Y-75150000D01*
X196077142Y-75111904D01*
X195924761Y-75111904D01*
X195848571Y-75150000D01*
X195810476Y-75188095D01*
X195772380Y-75264285D01*
X195772380Y-75454761D01*
X195810476Y-75530952D01*
X195848571Y-75569047D01*
X195924761Y-75607142D01*
X196077142Y-75607142D01*
X196153333Y-75569047D01*
X196191428Y-75530952D01*
X196229523Y-75454761D01*
X194248571Y-78451904D02*
X194248571Y-77651904D01*
X194553333Y-77651904D01*
X194629523Y-77690000D01*
X194667619Y-77728095D01*
X194705714Y-77804285D01*
X194705714Y-77918571D01*
X194667619Y-77994761D01*
X194629523Y-78032857D01*
X194553333Y-78070952D01*
X194248571Y-78070952D01*
X195467619Y-78451904D02*
X195010476Y-78451904D01*
X195239047Y-78451904D02*
X195239047Y-77651904D01*
X195162857Y-77766190D01*
X195086666Y-77842380D01*
X195010476Y-77880476D01*
X195924761Y-77994761D02*
X195848571Y-77956666D01*
X195810476Y-77918571D01*
X195772380Y-77842380D01*
X195772380Y-77804285D01*
X195810476Y-77728095D01*
X195848571Y-77690000D01*
X195924761Y-77651904D01*
X196077142Y-77651904D01*
X196153333Y-77690000D01*
X196191428Y-77728095D01*
X196229523Y-77804285D01*
X196229523Y-77842380D01*
X196191428Y-77918571D01*
X196153333Y-77956666D01*
X196077142Y-77994761D01*
X195924761Y-77994761D01*
X195848571Y-78032857D01*
X195810476Y-78070952D01*
X195772380Y-78147142D01*
X195772380Y-78299523D01*
X195810476Y-78375714D01*
X195848571Y-78413809D01*
X195924761Y-78451904D01*
X196077142Y-78451904D01*
X196153333Y-78413809D01*
X196191428Y-78375714D01*
X196229523Y-78299523D01*
X196229523Y-78147142D01*
X196191428Y-78070952D01*
X196153333Y-78032857D01*
X196077142Y-77994761D01*
X194248571Y-80991904D02*
X194248571Y-80191904D01*
X194553333Y-80191904D01*
X194629523Y-80230000D01*
X194667619Y-80268095D01*
X194705714Y-80344285D01*
X194705714Y-80458571D01*
X194667619Y-80534761D01*
X194629523Y-80572857D01*
X194553333Y-80610952D01*
X194248571Y-80610952D01*
X195467619Y-80991904D02*
X195010476Y-80991904D01*
X195239047Y-80991904D02*
X195239047Y-80191904D01*
X195162857Y-80306190D01*
X195086666Y-80382380D01*
X195010476Y-80420476D01*
X196191428Y-80191904D02*
X195810476Y-80191904D01*
X195772380Y-80572857D01*
X195810476Y-80534761D01*
X195886666Y-80496666D01*
X196077142Y-80496666D01*
X196153333Y-80534761D01*
X196191428Y-80572857D01*
X196229523Y-80649047D01*
X196229523Y-80839523D01*
X196191428Y-80915714D01*
X196153333Y-80953809D01*
X196077142Y-80991904D01*
X195886666Y-80991904D01*
X195810476Y-80953809D01*
X195772380Y-80915714D01*
X194248571Y-83531904D02*
X194248571Y-82731904D01*
X194553333Y-82731904D01*
X194629523Y-82770000D01*
X194667619Y-82808095D01*
X194705714Y-82884285D01*
X194705714Y-82998571D01*
X194667619Y-83074761D01*
X194629523Y-83112857D01*
X194553333Y-83150952D01*
X194248571Y-83150952D01*
X195467619Y-83531904D02*
X195010476Y-83531904D01*
X195239047Y-83531904D02*
X195239047Y-82731904D01*
X195162857Y-82846190D01*
X195086666Y-82922380D01*
X195010476Y-82960476D01*
X196153333Y-82998571D02*
X196153333Y-83531904D01*
X195962857Y-82693809D02*
X195772380Y-83265238D01*
X196267619Y-83265238D01*
X194248571Y-86071904D02*
X194248571Y-85271904D01*
X194553333Y-85271904D01*
X194629523Y-85310000D01*
X194667619Y-85348095D01*
X194705714Y-85424285D01*
X194705714Y-85538571D01*
X194667619Y-85614761D01*
X194629523Y-85652857D01*
X194553333Y-85690952D01*
X194248571Y-85690952D01*
X195467619Y-86071904D02*
X195010476Y-86071904D01*
X195239047Y-86071904D02*
X195239047Y-85271904D01*
X195162857Y-85386190D01*
X195086666Y-85462380D01*
X195010476Y-85500476D01*
X196153333Y-85271904D02*
X196000952Y-85271904D01*
X195924761Y-85310000D01*
X195886666Y-85348095D01*
X195810476Y-85462380D01*
X195772380Y-85614761D01*
X195772380Y-85919523D01*
X195810476Y-85995714D01*
X195848571Y-86033809D01*
X195924761Y-86071904D01*
X196077142Y-86071904D01*
X196153333Y-86033809D01*
X196191428Y-85995714D01*
X196229523Y-85919523D01*
X196229523Y-85729047D01*
X196191428Y-85652857D01*
X196153333Y-85614761D01*
X196077142Y-85576666D01*
X195924761Y-85576666D01*
X195848571Y-85614761D01*
X195810476Y-85652857D01*
X195772380Y-85729047D01*
X194248571Y-88611904D02*
X194248571Y-87811904D01*
X194553333Y-87811904D01*
X194629523Y-87850000D01*
X194667619Y-87888095D01*
X194705714Y-87964285D01*
X194705714Y-88078571D01*
X194667619Y-88154761D01*
X194629523Y-88192857D01*
X194553333Y-88230952D01*
X194248571Y-88230952D01*
X195467619Y-88611904D02*
X195010476Y-88611904D01*
X195239047Y-88611904D02*
X195239047Y-87811904D01*
X195162857Y-87926190D01*
X195086666Y-88002380D01*
X195010476Y-88040476D01*
X195962857Y-87811904D02*
X196039047Y-87811904D01*
X196115238Y-87850000D01*
X196153333Y-87888095D01*
X196191428Y-87964285D01*
X196229523Y-88116666D01*
X196229523Y-88307142D01*
X196191428Y-88459523D01*
X196153333Y-88535714D01*
X196115238Y-88573809D01*
X196039047Y-88611904D01*
X195962857Y-88611904D01*
X195886666Y-88573809D01*
X195848571Y-88535714D01*
X195810476Y-88459523D01*
X195772380Y-88307142D01*
X195772380Y-88116666D01*
X195810476Y-87964285D01*
X195848571Y-87888095D01*
X195886666Y-87850000D01*
X195962857Y-87811904D01*
X203848571Y-60671904D02*
X203848571Y-59871904D01*
X204153333Y-59871904D01*
X204229523Y-59910000D01*
X204267619Y-59948095D01*
X204305714Y-60024285D01*
X204305714Y-60138571D01*
X204267619Y-60214761D01*
X204229523Y-60252857D01*
X204153333Y-60290952D01*
X203848571Y-60290952D01*
X204800952Y-59871904D02*
X204877142Y-59871904D01*
X204953333Y-59910000D01*
X204991428Y-59948095D01*
X205029523Y-60024285D01*
X205067619Y-60176666D01*
X205067619Y-60367142D01*
X205029523Y-60519523D01*
X204991428Y-60595714D01*
X204953333Y-60633809D01*
X204877142Y-60671904D01*
X204800952Y-60671904D01*
X204724761Y-60633809D01*
X204686666Y-60595714D01*
X204648571Y-60519523D01*
X204610476Y-60367142D01*
X204610476Y-60176666D01*
X204648571Y-60024285D01*
X204686666Y-59948095D01*
X204724761Y-59910000D01*
X204800952Y-59871904D01*
X205829523Y-60671904D02*
X205372380Y-60671904D01*
X205600952Y-60671904D02*
X205600952Y-59871904D01*
X205524761Y-59986190D01*
X205448571Y-60062380D01*
X205372380Y-60100476D01*
X203848571Y-63211904D02*
X203848571Y-62411904D01*
X204153333Y-62411904D01*
X204229523Y-62450000D01*
X204267619Y-62488095D01*
X204305714Y-62564285D01*
X204305714Y-62678571D01*
X204267619Y-62754761D01*
X204229523Y-62792857D01*
X204153333Y-62830952D01*
X203848571Y-62830952D01*
X204800952Y-62411904D02*
X204877142Y-62411904D01*
X204953333Y-62450000D01*
X204991428Y-62488095D01*
X205029523Y-62564285D01*
X205067619Y-62716666D01*
X205067619Y-62907142D01*
X205029523Y-63059523D01*
X204991428Y-63135714D01*
X204953333Y-63173809D01*
X204877142Y-63211904D01*
X204800952Y-63211904D01*
X204724761Y-63173809D01*
X204686666Y-63135714D01*
X204648571Y-63059523D01*
X204610476Y-62907142D01*
X204610476Y-62716666D01*
X204648571Y-62564285D01*
X204686666Y-62488095D01*
X204724761Y-62450000D01*
X204800952Y-62411904D01*
X205562857Y-62411904D02*
X205639047Y-62411904D01*
X205715238Y-62450000D01*
X205753333Y-62488095D01*
X205791428Y-62564285D01*
X205829523Y-62716666D01*
X205829523Y-62907142D01*
X205791428Y-63059523D01*
X205753333Y-63135714D01*
X205715238Y-63173809D01*
X205639047Y-63211904D01*
X205562857Y-63211904D01*
X205486666Y-63173809D01*
X205448571Y-63135714D01*
X205410476Y-63059523D01*
X205372380Y-62907142D01*
X205372380Y-62716666D01*
X205410476Y-62564285D01*
X205448571Y-62488095D01*
X205486666Y-62450000D01*
X205562857Y-62411904D01*
X204210476Y-64990000D02*
X204134285Y-64951904D01*
X204020000Y-64951904D01*
X203905714Y-64990000D01*
X203829523Y-65066190D01*
X203791428Y-65142380D01*
X203753333Y-65294761D01*
X203753333Y-65409047D01*
X203791428Y-65561428D01*
X203829523Y-65637619D01*
X203905714Y-65713809D01*
X204020000Y-65751904D01*
X204096190Y-65751904D01*
X204210476Y-65713809D01*
X204248571Y-65675714D01*
X204248571Y-65409047D01*
X204096190Y-65409047D01*
X204591428Y-65751904D02*
X204591428Y-64951904D01*
X205048571Y-65751904D01*
X205048571Y-64951904D01*
X205429523Y-65751904D02*
X205429523Y-64951904D01*
X205620000Y-64951904D01*
X205734285Y-64990000D01*
X205810476Y-65066190D01*
X205848571Y-65142380D01*
X205886666Y-65294761D01*
X205886666Y-65409047D01*
X205848571Y-65561428D01*
X205810476Y-65637619D01*
X205734285Y-65713809D01*
X205620000Y-65751904D01*
X205429523Y-65751904D01*
X204210476Y-67530000D02*
X204134285Y-67491904D01*
X204020000Y-67491904D01*
X203905714Y-67530000D01*
X203829523Y-67606190D01*
X203791428Y-67682380D01*
X203753333Y-67834761D01*
X203753333Y-67949047D01*
X203791428Y-68101428D01*
X203829523Y-68177619D01*
X203905714Y-68253809D01*
X204020000Y-68291904D01*
X204096190Y-68291904D01*
X204210476Y-68253809D01*
X204248571Y-68215714D01*
X204248571Y-67949047D01*
X204096190Y-67949047D01*
X204591428Y-68291904D02*
X204591428Y-67491904D01*
X205048571Y-68291904D01*
X205048571Y-67491904D01*
X205429523Y-68291904D02*
X205429523Y-67491904D01*
X205620000Y-67491904D01*
X205734285Y-67530000D01*
X205810476Y-67606190D01*
X205848571Y-67682380D01*
X205886666Y-67834761D01*
X205886666Y-67949047D01*
X205848571Y-68101428D01*
X205810476Y-68177619D01*
X205734285Y-68253809D01*
X205620000Y-68291904D01*
X205429523Y-68291904D01*
X203848571Y-70831904D02*
X203848571Y-70031904D01*
X204153333Y-70031904D01*
X204229523Y-70070000D01*
X204267619Y-70108095D01*
X204305714Y-70184285D01*
X204305714Y-70298571D01*
X204267619Y-70374761D01*
X204229523Y-70412857D01*
X204153333Y-70450952D01*
X203848571Y-70450952D01*
X204800952Y-70031904D02*
X204877142Y-70031904D01*
X204953333Y-70070000D01*
X204991428Y-70108095D01*
X205029523Y-70184285D01*
X205067619Y-70336666D01*
X205067619Y-70527142D01*
X205029523Y-70679523D01*
X204991428Y-70755714D01*
X204953333Y-70793809D01*
X204877142Y-70831904D01*
X204800952Y-70831904D01*
X204724761Y-70793809D01*
X204686666Y-70755714D01*
X204648571Y-70679523D01*
X204610476Y-70527142D01*
X204610476Y-70336666D01*
X204648571Y-70184285D01*
X204686666Y-70108095D01*
X204724761Y-70070000D01*
X204800952Y-70031904D01*
X205372380Y-70108095D02*
X205410476Y-70070000D01*
X205486666Y-70031904D01*
X205677142Y-70031904D01*
X205753333Y-70070000D01*
X205791428Y-70108095D01*
X205829523Y-70184285D01*
X205829523Y-70260476D01*
X205791428Y-70374761D01*
X205334285Y-70831904D01*
X205829523Y-70831904D01*
X203848571Y-73371904D02*
X203848571Y-72571904D01*
X204153333Y-72571904D01*
X204229523Y-72610000D01*
X204267619Y-72648095D01*
X204305714Y-72724285D01*
X204305714Y-72838571D01*
X204267619Y-72914761D01*
X204229523Y-72952857D01*
X204153333Y-72990952D01*
X203848571Y-72990952D01*
X204800952Y-72571904D02*
X204877142Y-72571904D01*
X204953333Y-72610000D01*
X204991428Y-72648095D01*
X205029523Y-72724285D01*
X205067619Y-72876666D01*
X205067619Y-73067142D01*
X205029523Y-73219523D01*
X204991428Y-73295714D01*
X204953333Y-73333809D01*
X204877142Y-73371904D01*
X204800952Y-73371904D01*
X204724761Y-73333809D01*
X204686666Y-73295714D01*
X204648571Y-73219523D01*
X204610476Y-73067142D01*
X204610476Y-72876666D01*
X204648571Y-72724285D01*
X204686666Y-72648095D01*
X204724761Y-72610000D01*
X204800952Y-72571904D01*
X205334285Y-72571904D02*
X205829523Y-72571904D01*
X205562857Y-72876666D01*
X205677142Y-72876666D01*
X205753333Y-72914761D01*
X205791428Y-72952857D01*
X205829523Y-73029047D01*
X205829523Y-73219523D01*
X205791428Y-73295714D01*
X205753333Y-73333809D01*
X205677142Y-73371904D01*
X205448571Y-73371904D01*
X205372380Y-73333809D01*
X205334285Y-73295714D01*
X203848571Y-75911904D02*
X203848571Y-75111904D01*
X204153333Y-75111904D01*
X204229523Y-75150000D01*
X204267619Y-75188095D01*
X204305714Y-75264285D01*
X204305714Y-75378571D01*
X204267619Y-75454761D01*
X204229523Y-75492857D01*
X204153333Y-75530952D01*
X203848571Y-75530952D01*
X204800952Y-75111904D02*
X204877142Y-75111904D01*
X204953333Y-75150000D01*
X204991428Y-75188095D01*
X205029523Y-75264285D01*
X205067619Y-75416666D01*
X205067619Y-75607142D01*
X205029523Y-75759523D01*
X204991428Y-75835714D01*
X204953333Y-75873809D01*
X204877142Y-75911904D01*
X204800952Y-75911904D01*
X204724761Y-75873809D01*
X204686666Y-75835714D01*
X204648571Y-75759523D01*
X204610476Y-75607142D01*
X204610476Y-75416666D01*
X204648571Y-75264285D01*
X204686666Y-75188095D01*
X204724761Y-75150000D01*
X204800952Y-75111904D01*
X205753333Y-75378571D02*
X205753333Y-75911904D01*
X205562857Y-75073809D02*
X205372380Y-75645238D01*
X205867619Y-75645238D01*
X203848571Y-78451904D02*
X203848571Y-77651904D01*
X204153333Y-77651904D01*
X204229523Y-77690000D01*
X204267619Y-77728095D01*
X204305714Y-77804285D01*
X204305714Y-77918571D01*
X204267619Y-77994761D01*
X204229523Y-78032857D01*
X204153333Y-78070952D01*
X203848571Y-78070952D01*
X204800952Y-77651904D02*
X204877142Y-77651904D01*
X204953333Y-77690000D01*
X204991428Y-77728095D01*
X205029523Y-77804285D01*
X205067619Y-77956666D01*
X205067619Y-78147142D01*
X205029523Y-78299523D01*
X204991428Y-78375714D01*
X204953333Y-78413809D01*
X204877142Y-78451904D01*
X204800952Y-78451904D01*
X204724761Y-78413809D01*
X204686666Y-78375714D01*
X204648571Y-78299523D01*
X204610476Y-78147142D01*
X204610476Y-77956666D01*
X204648571Y-77804285D01*
X204686666Y-77728095D01*
X204724761Y-77690000D01*
X204800952Y-77651904D01*
X205791428Y-77651904D02*
X205410476Y-77651904D01*
X205372380Y-78032857D01*
X205410476Y-77994761D01*
X205486666Y-77956666D01*
X205677142Y-77956666D01*
X205753333Y-77994761D01*
X205791428Y-78032857D01*
X205829523Y-78109047D01*
X205829523Y-78299523D01*
X205791428Y-78375714D01*
X205753333Y-78413809D01*
X205677142Y-78451904D01*
X205486666Y-78451904D01*
X205410476Y-78413809D01*
X205372380Y-78375714D01*
X203848571Y-80991904D02*
X203848571Y-80191904D01*
X204153333Y-80191904D01*
X204229523Y-80230000D01*
X204267619Y-80268095D01*
X204305714Y-80344285D01*
X204305714Y-80458571D01*
X204267619Y-80534761D01*
X204229523Y-80572857D01*
X204153333Y-80610952D01*
X203848571Y-80610952D01*
X204800952Y-80191904D02*
X204877142Y-80191904D01*
X204953333Y-80230000D01*
X204991428Y-80268095D01*
X205029523Y-80344285D01*
X205067619Y-80496666D01*
X205067619Y-80687142D01*
X205029523Y-80839523D01*
X204991428Y-80915714D01*
X204953333Y-80953809D01*
X204877142Y-80991904D01*
X204800952Y-80991904D01*
X204724761Y-80953809D01*
X204686666Y-80915714D01*
X204648571Y-80839523D01*
X204610476Y-80687142D01*
X204610476Y-80496666D01*
X204648571Y-80344285D01*
X204686666Y-80268095D01*
X204724761Y-80230000D01*
X204800952Y-80191904D01*
X205753333Y-80191904D02*
X205600952Y-80191904D01*
X205524761Y-80230000D01*
X205486666Y-80268095D01*
X205410476Y-80382380D01*
X205372380Y-80534761D01*
X205372380Y-80839523D01*
X205410476Y-80915714D01*
X205448571Y-80953809D01*
X205524761Y-80991904D01*
X205677142Y-80991904D01*
X205753333Y-80953809D01*
X205791428Y-80915714D01*
X205829523Y-80839523D01*
X205829523Y-80649047D01*
X205791428Y-80572857D01*
X205753333Y-80534761D01*
X205677142Y-80496666D01*
X205524761Y-80496666D01*
X205448571Y-80534761D01*
X205410476Y-80572857D01*
X205372380Y-80649047D01*
X203848571Y-83531904D02*
X203848571Y-82731904D01*
X204153333Y-82731904D01*
X204229523Y-82770000D01*
X204267619Y-82808095D01*
X204305714Y-82884285D01*
X204305714Y-82998571D01*
X204267619Y-83074761D01*
X204229523Y-83112857D01*
X204153333Y-83150952D01*
X203848571Y-83150952D01*
X204800952Y-82731904D02*
X204877142Y-82731904D01*
X204953333Y-82770000D01*
X204991428Y-82808095D01*
X205029523Y-82884285D01*
X205067619Y-83036666D01*
X205067619Y-83227142D01*
X205029523Y-83379523D01*
X204991428Y-83455714D01*
X204953333Y-83493809D01*
X204877142Y-83531904D01*
X204800952Y-83531904D01*
X204724761Y-83493809D01*
X204686666Y-83455714D01*
X204648571Y-83379523D01*
X204610476Y-83227142D01*
X204610476Y-83036666D01*
X204648571Y-82884285D01*
X204686666Y-82808095D01*
X204724761Y-82770000D01*
X204800952Y-82731904D01*
X205334285Y-82731904D02*
X205867619Y-82731904D01*
X205524761Y-83531904D01*
X203848571Y-86071904D02*
X203848571Y-85271904D01*
X204153333Y-85271904D01*
X204229523Y-85310000D01*
X204267619Y-85348095D01*
X204305714Y-85424285D01*
X204305714Y-85538571D01*
X204267619Y-85614761D01*
X204229523Y-85652857D01*
X204153333Y-85690952D01*
X203848571Y-85690952D01*
X204800952Y-85271904D02*
X204877142Y-85271904D01*
X204953333Y-85310000D01*
X204991428Y-85348095D01*
X205029523Y-85424285D01*
X205067619Y-85576666D01*
X205067619Y-85767142D01*
X205029523Y-85919523D01*
X204991428Y-85995714D01*
X204953333Y-86033809D01*
X204877142Y-86071904D01*
X204800952Y-86071904D01*
X204724761Y-86033809D01*
X204686666Y-85995714D01*
X204648571Y-85919523D01*
X204610476Y-85767142D01*
X204610476Y-85576666D01*
X204648571Y-85424285D01*
X204686666Y-85348095D01*
X204724761Y-85310000D01*
X204800952Y-85271904D01*
X205524761Y-85614761D02*
X205448571Y-85576666D01*
X205410476Y-85538571D01*
X205372380Y-85462380D01*
X205372380Y-85424285D01*
X205410476Y-85348095D01*
X205448571Y-85310000D01*
X205524761Y-85271904D01*
X205677142Y-85271904D01*
X205753333Y-85310000D01*
X205791428Y-85348095D01*
X205829523Y-85424285D01*
X205829523Y-85462380D01*
X205791428Y-85538571D01*
X205753333Y-85576666D01*
X205677142Y-85614761D01*
X205524761Y-85614761D01*
X205448571Y-85652857D01*
X205410476Y-85690952D01*
X205372380Y-85767142D01*
X205372380Y-85919523D01*
X205410476Y-85995714D01*
X205448571Y-86033809D01*
X205524761Y-86071904D01*
X205677142Y-86071904D01*
X205753333Y-86033809D01*
X205791428Y-85995714D01*
X205829523Y-85919523D01*
X205829523Y-85767142D01*
X205791428Y-85690952D01*
X205753333Y-85652857D01*
X205677142Y-85614761D01*
X203848571Y-88611904D02*
X203848571Y-87811904D01*
X204153333Y-87811904D01*
X204229523Y-87850000D01*
X204267619Y-87888095D01*
X204305714Y-87964285D01*
X204305714Y-88078571D01*
X204267619Y-88154761D01*
X204229523Y-88192857D01*
X204153333Y-88230952D01*
X203848571Y-88230952D01*
X204800952Y-87811904D02*
X204877142Y-87811904D01*
X204953333Y-87850000D01*
X204991428Y-87888095D01*
X205029523Y-87964285D01*
X205067619Y-88116666D01*
X205067619Y-88307142D01*
X205029523Y-88459523D01*
X204991428Y-88535714D01*
X204953333Y-88573809D01*
X204877142Y-88611904D01*
X204800952Y-88611904D01*
X204724761Y-88573809D01*
X204686666Y-88535714D01*
X204648571Y-88459523D01*
X204610476Y-88307142D01*
X204610476Y-88116666D01*
X204648571Y-87964285D01*
X204686666Y-87888095D01*
X204724761Y-87850000D01*
X204800952Y-87811904D01*
X205448571Y-88611904D02*
X205600952Y-88611904D01*
X205677142Y-88573809D01*
X205715238Y-88535714D01*
X205791428Y-88421428D01*
X205829523Y-88269047D01*
X205829523Y-87964285D01*
X205791428Y-87888095D01*
X205753333Y-87850000D01*
X205677142Y-87811904D01*
X205524761Y-87811904D01*
X205448571Y-87850000D01*
X205410476Y-87888095D01*
X205372380Y-87964285D01*
X205372380Y-88154761D01*
X205410476Y-88230952D01*
X205448571Y-88269047D01*
X205524761Y-88307142D01*
X205677142Y-88307142D01*
X205753333Y-88269047D01*
X205791428Y-88230952D01*
X205829523Y-88154761D01*
%TO.C,B1*%
X202858095Y-98641904D02*
X202591428Y-98260952D01*
X202400952Y-98641904D02*
X202400952Y-97841904D01*
X202705714Y-97841904D01*
X202781904Y-97880000D01*
X202820000Y-97918095D01*
X202858095Y-97994285D01*
X202858095Y-98108571D01*
X202820000Y-98184761D01*
X202781904Y-98222857D01*
X202705714Y-98260952D01*
X202400952Y-98260952D01*
X203200952Y-98222857D02*
X203467619Y-98222857D01*
X203581904Y-98641904D02*
X203200952Y-98641904D01*
X203200952Y-97841904D01*
X203581904Y-97841904D01*
X203886666Y-98603809D02*
X204000952Y-98641904D01*
X204191428Y-98641904D01*
X204267619Y-98603809D01*
X204305714Y-98565714D01*
X204343809Y-98489523D01*
X204343809Y-98413333D01*
X204305714Y-98337142D01*
X204267619Y-98299047D01*
X204191428Y-98260952D01*
X204039047Y-98222857D01*
X203962857Y-98184761D01*
X203924761Y-98146666D01*
X203886666Y-98070476D01*
X203886666Y-97994285D01*
X203924761Y-97918095D01*
X203962857Y-97880000D01*
X204039047Y-97841904D01*
X204229523Y-97841904D01*
X204343809Y-97880000D01*
X204686666Y-98222857D02*
X204953333Y-98222857D01*
X205067619Y-98641904D02*
X204686666Y-98641904D01*
X204686666Y-97841904D01*
X205067619Y-97841904D01*
X205296190Y-97841904D02*
X205753333Y-97841904D01*
X205524761Y-98641904D02*
X205524761Y-97841904D01*
D11*
%TO.C,D1*%
X65270000Y-100280000D02*
X65770000Y-100280000D01*
X65270000Y-100680000D02*
X64670000Y-100280000D01*
X65270000Y-99880000D02*
X65270000Y-100680000D01*
X64670000Y-100280000D02*
X65270000Y-99880000D01*
X64670000Y-100280000D02*
X64670000Y-100830000D01*
X64670000Y-100280000D02*
X64670000Y-99730000D01*
X64270000Y-100280000D02*
X64670000Y-100280000D01*
%TO.C,D2*%
X65270000Y-81280000D02*
X65770000Y-81280000D01*
X65270000Y-81680000D02*
X64670000Y-81280000D01*
X65270000Y-80880000D02*
X65270000Y-81680000D01*
X64670000Y-81280000D02*
X65270000Y-80880000D01*
X64670000Y-81280000D02*
X64670000Y-81830000D01*
X64670000Y-81280000D02*
X64670000Y-80730000D01*
X64270000Y-81280000D02*
X64670000Y-81280000D01*
%TO.C,D3*%
X65270000Y-62280000D02*
X65770000Y-62280000D01*
X65270000Y-62680000D02*
X64670000Y-62280000D01*
X65270000Y-61880000D02*
X65270000Y-62680000D01*
X64670000Y-62280000D02*
X65270000Y-61880000D01*
X64670000Y-62280000D02*
X64670000Y-62830000D01*
X64670000Y-62280000D02*
X64670000Y-61730000D01*
X64270000Y-62280000D02*
X64670000Y-62280000D01*
%TO.C,D4*%
X65270000Y-43280000D02*
X65770000Y-43280000D01*
X65270000Y-43680000D02*
X64670000Y-43280000D01*
X65270000Y-42880000D02*
X65270000Y-43680000D01*
X64670000Y-43280000D02*
X65270000Y-42880000D01*
X64670000Y-43280000D02*
X64670000Y-43830000D01*
X64670000Y-43280000D02*
X64670000Y-42730000D01*
X64270000Y-43280000D02*
X64670000Y-43280000D01*
%TO.C,D5*%
X84270000Y-100280000D02*
X84770000Y-100280000D01*
X84270000Y-100680000D02*
X83670000Y-100280000D01*
X84270000Y-99880000D02*
X84270000Y-100680000D01*
X83670000Y-100280000D02*
X84270000Y-99880000D01*
X83670000Y-100280000D02*
X83670000Y-100830000D01*
X83670000Y-100280000D02*
X83670000Y-99730000D01*
X83270000Y-100280000D02*
X83670000Y-100280000D01*
%TO.C,D6*%
X84270000Y-81280000D02*
X84770000Y-81280000D01*
X84270000Y-81680000D02*
X83670000Y-81280000D01*
X84270000Y-80880000D02*
X84270000Y-81680000D01*
X83670000Y-81280000D02*
X84270000Y-80880000D01*
X83670000Y-81280000D02*
X83670000Y-81830000D01*
X83670000Y-81280000D02*
X83670000Y-80730000D01*
X83270000Y-81280000D02*
X83670000Y-81280000D01*
%TO.C,D7*%
X84270000Y-62280000D02*
X84770000Y-62280000D01*
X84270000Y-62680000D02*
X83670000Y-62280000D01*
X84270000Y-61880000D02*
X84270000Y-62680000D01*
X83670000Y-62280000D02*
X84270000Y-61880000D01*
X83670000Y-62280000D02*
X83670000Y-62830000D01*
X83670000Y-62280000D02*
X83670000Y-61730000D01*
X83270000Y-62280000D02*
X83670000Y-62280000D01*
%TO.C,D8*%
X84270000Y-43280000D02*
X84770000Y-43280000D01*
X84270000Y-43680000D02*
X83670000Y-43280000D01*
X84270000Y-42880000D02*
X84270000Y-43680000D01*
X83670000Y-43280000D02*
X84270000Y-42880000D01*
X83670000Y-43280000D02*
X83670000Y-43830000D01*
X83670000Y-43280000D02*
X83670000Y-42730000D01*
X83270000Y-43280000D02*
X83670000Y-43280000D01*
%TO.C,D9*%
X103270000Y-100280000D02*
X103770000Y-100280000D01*
X103270000Y-100680000D02*
X102670000Y-100280000D01*
X103270000Y-99880000D02*
X103270000Y-100680000D01*
X102670000Y-100280000D02*
X103270000Y-99880000D01*
X102670000Y-100280000D02*
X102670000Y-100830000D01*
X102670000Y-100280000D02*
X102670000Y-99730000D01*
X102270000Y-100280000D02*
X102670000Y-100280000D01*
%TO.C,D10*%
X103270000Y-81280000D02*
X103770000Y-81280000D01*
X103270000Y-81680000D02*
X102670000Y-81280000D01*
X103270000Y-80880000D02*
X103270000Y-81680000D01*
X102670000Y-81280000D02*
X103270000Y-80880000D01*
X102670000Y-81280000D02*
X102670000Y-81830000D01*
X102670000Y-81280000D02*
X102670000Y-80730000D01*
X102270000Y-81280000D02*
X102670000Y-81280000D01*
%TO.C,D11*%
X103270000Y-62280000D02*
X103770000Y-62280000D01*
X103270000Y-62680000D02*
X102670000Y-62280000D01*
X103270000Y-61880000D02*
X103270000Y-62680000D01*
X102670000Y-62280000D02*
X103270000Y-61880000D01*
X102670000Y-62280000D02*
X102670000Y-62830000D01*
X102670000Y-62280000D02*
X102670000Y-61730000D01*
X102270000Y-62280000D02*
X102670000Y-62280000D01*
%TO.C,D12*%
X103270000Y-43280000D02*
X103770000Y-43280000D01*
X103270000Y-43680000D02*
X102670000Y-43280000D01*
X103270000Y-42880000D02*
X103270000Y-43680000D01*
X102670000Y-43280000D02*
X103270000Y-42880000D01*
X102670000Y-43280000D02*
X102670000Y-43830000D01*
X102670000Y-43280000D02*
X102670000Y-42730000D01*
X102270000Y-43280000D02*
X102670000Y-43280000D01*
%TO.C,D13*%
X122270000Y-95280000D02*
X122770000Y-95280000D01*
X122270000Y-95680000D02*
X121670000Y-95280000D01*
X122270000Y-94880000D02*
X122270000Y-95680000D01*
X121670000Y-95280000D02*
X122270000Y-94880000D01*
X121670000Y-95280000D02*
X121670000Y-95830000D01*
X121670000Y-95280000D02*
X121670000Y-94730000D01*
X121270000Y-95280000D02*
X121670000Y-95280000D01*
%TO.C,D14*%
X122270000Y-76280000D02*
X122770000Y-76280000D01*
X122270000Y-76680000D02*
X121670000Y-76280000D01*
X122270000Y-75880000D02*
X122270000Y-76680000D01*
X121670000Y-76280000D02*
X122270000Y-75880000D01*
X121670000Y-76280000D02*
X121670000Y-76830000D01*
X121670000Y-76280000D02*
X121670000Y-75730000D01*
X121270000Y-76280000D02*
X121670000Y-76280000D01*
%TO.C,D15*%
X122270000Y-57280000D02*
X122770000Y-57280000D01*
X122270000Y-57680000D02*
X121670000Y-57280000D01*
X122270000Y-56880000D02*
X122270000Y-57680000D01*
X121670000Y-57280000D02*
X122270000Y-56880000D01*
X121670000Y-57280000D02*
X121670000Y-57830000D01*
X121670000Y-57280000D02*
X121670000Y-56730000D01*
X121270000Y-57280000D02*
X121670000Y-57280000D01*
%TO.C,D16*%
X122270000Y-38280000D02*
X122770000Y-38280000D01*
X122270000Y-38680000D02*
X121670000Y-38280000D01*
X122270000Y-37880000D02*
X122270000Y-38680000D01*
X121670000Y-38280000D02*
X122270000Y-37880000D01*
X121670000Y-38280000D02*
X121670000Y-38830000D01*
X121670000Y-38280000D02*
X121670000Y-37730000D01*
X121270000Y-38280000D02*
X121670000Y-38280000D01*
%TO.C,D17*%
X141270000Y-92280000D02*
X141770000Y-92280000D01*
X141270000Y-92680000D02*
X140670000Y-92280000D01*
X141270000Y-91880000D02*
X141270000Y-92680000D01*
X140670000Y-92280000D02*
X141270000Y-91880000D01*
X140670000Y-92280000D02*
X140670000Y-92830000D01*
X140670000Y-92280000D02*
X140670000Y-91730000D01*
X140270000Y-92280000D02*
X140670000Y-92280000D01*
%TO.C,D18*%
X141270000Y-73280000D02*
X141770000Y-73280000D01*
X141270000Y-73680000D02*
X140670000Y-73280000D01*
X141270000Y-72880000D02*
X141270000Y-73680000D01*
X140670000Y-73280000D02*
X141270000Y-72880000D01*
X140670000Y-73280000D02*
X140670000Y-73830000D01*
X140670000Y-73280000D02*
X140670000Y-72730000D01*
X140270000Y-73280000D02*
X140670000Y-73280000D01*
%TO.C,D19*%
X141270000Y-54280000D02*
X141770000Y-54280000D01*
X141270000Y-54680000D02*
X140670000Y-54280000D01*
X141270000Y-53880000D02*
X141270000Y-54680000D01*
X140670000Y-54280000D02*
X141270000Y-53880000D01*
X140670000Y-54280000D02*
X140670000Y-54830000D01*
X140670000Y-54280000D02*
X140670000Y-53730000D01*
X140270000Y-54280000D02*
X140670000Y-54280000D01*
%TO.C,D20*%
X141270000Y-35280000D02*
X141770000Y-35280000D01*
X141270000Y-35680000D02*
X140670000Y-35280000D01*
X141270000Y-34880000D02*
X141270000Y-35680000D01*
X140670000Y-35280000D02*
X141270000Y-34880000D01*
X140670000Y-35280000D02*
X140670000Y-35830000D01*
X140670000Y-35280000D02*
X140670000Y-34730000D01*
X140270000Y-35280000D02*
X140670000Y-35280000D01*
%TO.C,D21*%
X160270000Y-95280000D02*
X160770000Y-95280000D01*
X160270000Y-95680000D02*
X159670000Y-95280000D01*
X160270000Y-94880000D02*
X160270000Y-95680000D01*
X159670000Y-95280000D02*
X160270000Y-94880000D01*
X159670000Y-95280000D02*
X159670000Y-95830000D01*
X159670000Y-95280000D02*
X159670000Y-94730000D01*
X159270000Y-95280000D02*
X159670000Y-95280000D01*
%TO.C,D22*%
X160270000Y-76280000D02*
X160770000Y-76280000D01*
X160270000Y-76680000D02*
X159670000Y-76280000D01*
X160270000Y-75880000D02*
X160270000Y-76680000D01*
X159670000Y-76280000D02*
X160270000Y-75880000D01*
X159670000Y-76280000D02*
X159670000Y-76830000D01*
X159670000Y-76280000D02*
X159670000Y-75730000D01*
X159270000Y-76280000D02*
X159670000Y-76280000D01*
%TO.C,D23*%
X160270000Y-57280000D02*
X160770000Y-57280000D01*
X160270000Y-57680000D02*
X159670000Y-57280000D01*
X160270000Y-56880000D02*
X160270000Y-57680000D01*
X159670000Y-57280000D02*
X160270000Y-56880000D01*
X159670000Y-57280000D02*
X159670000Y-57830000D01*
X159670000Y-57280000D02*
X159670000Y-56730000D01*
X159270000Y-57280000D02*
X159670000Y-57280000D01*
%TO.C,D24*%
X160270000Y-38280000D02*
X160770000Y-38280000D01*
X160270000Y-38680000D02*
X159670000Y-38280000D01*
X160270000Y-37880000D02*
X160270000Y-38680000D01*
X159670000Y-38280000D02*
X160270000Y-37880000D01*
X159670000Y-38280000D02*
X159670000Y-38830000D01*
X159670000Y-38280000D02*
X159670000Y-37730000D01*
X159270000Y-38280000D02*
X159670000Y-38280000D01*
%TO.C,D25*%
X179270000Y-98280000D02*
X179770000Y-98280000D01*
X179270000Y-98680000D02*
X178670000Y-98280000D01*
X179270000Y-97880000D02*
X179270000Y-98680000D01*
X178670000Y-98280000D02*
X179270000Y-97880000D01*
X178670000Y-98280000D02*
X178670000Y-98830000D01*
X178670000Y-98280000D02*
X178670000Y-97730000D01*
X178270000Y-98280000D02*
X178670000Y-98280000D01*
%TO.C,D26*%
X179270000Y-79280000D02*
X179770000Y-79280000D01*
X179270000Y-79680000D02*
X178670000Y-79280000D01*
X179270000Y-78880000D02*
X179270000Y-79680000D01*
X178670000Y-79280000D02*
X179270000Y-78880000D01*
X178670000Y-79280000D02*
X178670000Y-79830000D01*
X178670000Y-79280000D02*
X178670000Y-78730000D01*
X178270000Y-79280000D02*
X178670000Y-79280000D01*
%TO.C,D27*%
X179270000Y-60280000D02*
X179770000Y-60280000D01*
X179270000Y-60680000D02*
X178670000Y-60280000D01*
X179270000Y-59880000D02*
X179270000Y-60680000D01*
X178670000Y-60280000D02*
X179270000Y-59880000D01*
X178670000Y-60280000D02*
X178670000Y-60830000D01*
X178670000Y-60280000D02*
X178670000Y-59730000D01*
X178270000Y-60280000D02*
X178670000Y-60280000D01*
%TO.C,D28*%
X179270000Y-41280000D02*
X179770000Y-41280000D01*
X179270000Y-41680000D02*
X178670000Y-41280000D01*
X179270000Y-40880000D02*
X179270000Y-41680000D01*
X178670000Y-41280000D02*
X179270000Y-40880000D01*
X178670000Y-41280000D02*
X178670000Y-41830000D01*
X178670000Y-41280000D02*
X178670000Y-40730000D01*
X178270000Y-41280000D02*
X178670000Y-41280000D01*
%TO.C,D29*%
X160270000Y-116280000D02*
X160770000Y-116280000D01*
X160270000Y-116680000D02*
X159670000Y-116280000D01*
X160270000Y-115880000D02*
X160270000Y-116680000D01*
X159670000Y-116280000D02*
X160270000Y-115880000D01*
X159670000Y-116280000D02*
X159670000Y-116830000D01*
X159670000Y-116280000D02*
X159670000Y-115730000D01*
X159270000Y-116280000D02*
X159670000Y-116280000D01*
%TO.C,D30*%
X179270000Y-119280000D02*
X179770000Y-119280000D01*
X179270000Y-119680000D02*
X178670000Y-119280000D01*
X179270000Y-118880000D02*
X179270000Y-119680000D01*
X178670000Y-119280000D02*
X179270000Y-118880000D01*
X178670000Y-119280000D02*
X178670000Y-119830000D01*
X178670000Y-119280000D02*
X178670000Y-118730000D01*
X178270000Y-119280000D02*
X178670000Y-119280000D01*
%TO.C,D31*%
X205736506Y-125074873D02*
X206169519Y-125324873D01*
X205536506Y-125421283D02*
X205216891Y-124774873D01*
X205936506Y-124728463D02*
X205536506Y-125421283D01*
X205216891Y-124774873D02*
X205936506Y-124728463D01*
X205216891Y-124774873D02*
X204941891Y-125251187D01*
X205216891Y-124774873D02*
X205491891Y-124298559D01*
X204870481Y-124574873D02*
X205216891Y-124774873D01*
%TO.C,D32*%
X194736506Y-144127432D02*
X195169519Y-144377432D01*
X194536506Y-144473842D02*
X194216891Y-143827432D01*
X194936506Y-143781022D02*
X194536506Y-144473842D01*
X194216891Y-143827432D02*
X194936506Y-143781022D01*
X194216891Y-143827432D02*
X193941891Y-144303746D01*
X194216891Y-143827432D02*
X194491891Y-143351118D01*
X193870481Y-143627432D02*
X194216891Y-143827432D01*
%TO.C,D33*%
X84270000Y-119280000D02*
X84770000Y-119280000D01*
X84270000Y-119680000D02*
X83670000Y-119280000D01*
X84270000Y-118880000D02*
X84270000Y-119680000D01*
X83670000Y-119280000D02*
X84270000Y-118880000D01*
X83670000Y-119280000D02*
X83670000Y-119830000D01*
X83670000Y-119280000D02*
X83670000Y-118730000D01*
X83270000Y-119280000D02*
X83670000Y-119280000D01*
%TO.C,D34*%
X103270000Y-119280000D02*
X103770000Y-119280000D01*
X103270000Y-119680000D02*
X102670000Y-119280000D01*
X103270000Y-118880000D02*
X103270000Y-119680000D01*
X102670000Y-119280000D02*
X103270000Y-118880000D01*
X102670000Y-119280000D02*
X102670000Y-119830000D01*
X102670000Y-119280000D02*
X102670000Y-118730000D01*
X102270000Y-119280000D02*
X102670000Y-119280000D01*
%TO.C,D35*%
X122270000Y-116280000D02*
X122770000Y-116280000D01*
X122270000Y-116680000D02*
X121670000Y-116280000D01*
X122270000Y-115880000D02*
X122270000Y-116680000D01*
X121670000Y-116280000D02*
X122270000Y-115880000D01*
X121670000Y-116280000D02*
X121670000Y-116830000D01*
X121670000Y-116280000D02*
X121670000Y-115730000D01*
X121270000Y-116280000D02*
X121670000Y-116280000D01*
%TO.C,D36*%
X141270000Y-113280000D02*
X141770000Y-113280000D01*
X141270000Y-113680000D02*
X140670000Y-113280000D01*
X141270000Y-112880000D02*
X141270000Y-113680000D01*
X140670000Y-113280000D02*
X141270000Y-112880000D01*
X140670000Y-113280000D02*
X140670000Y-113830000D01*
X140670000Y-113280000D02*
X140670000Y-112730000D01*
X140270000Y-113280000D02*
X140670000Y-113280000D01*
D10*
%TO.C,MCU1*%
X191130000Y-56500000D02*
X191130000Y-89520000D01*
X191130000Y-89520000D02*
X208910000Y-89520000D01*
X208910000Y-89520000D02*
X208910000Y-56500000D01*
X208910000Y-56500000D02*
X191130000Y-56500000D01*
X193670000Y-59040000D02*
X193670000Y-61580000D01*
X193670000Y-59040000D02*
X191130000Y-59040000D01*
X193670000Y-61580000D02*
X191130000Y-61580000D01*
%TO.C,B1*%
X207020000Y-96480000D02*
X201020000Y-96480000D01*
X201020000Y-99980000D02*
X207020000Y-99980000D01*
X207020000Y-96480000D02*
X207020000Y-97180000D01*
X207020000Y-99980000D02*
X207020000Y-99380000D01*
X201020000Y-99980000D02*
X201020000Y-99380000D01*
X201020000Y-96480000D02*
X201020000Y-97180000D01*
%TD*%
D12*
%TO.C,MCU1*%
X192400000Y-60310000D03*
D13*
X192400000Y-62850000D03*
X192400000Y-65390000D03*
X192400000Y-67930000D03*
X192400000Y-70470000D03*
X192400000Y-73010000D03*
X192400000Y-75550000D03*
X192400000Y-78090000D03*
X192400000Y-80630000D03*
X192400000Y-83170000D03*
X192400000Y-85710000D03*
X192400000Y-88250000D03*
X207640000Y-60310000D03*
X207640000Y-62850000D03*
X207640000Y-65390000D03*
X207640000Y-67930000D03*
X207640000Y-70470000D03*
X207640000Y-73010000D03*
X207640000Y-75550000D03*
X207640000Y-78090000D03*
X207640000Y-80630000D03*
X207640000Y-83170000D03*
X207640000Y-85710000D03*
X207640000Y-88250000D03*
%TD*%
M02*
