M48
; DRILL file {KiCad 6.0.2} date Sat 19 Feb 2022 02:05:44 PM
; FORMAT={-:-/ absolute / inch / decimal}
; #@! TF.CreationDate,2022-02-19T14:05:44-05:00
; #@! TF.GenerationSoftware,Kicad,Pcbnew,6.0.2
; #@! TF.FileFunction,NonPlated,1,2,NPTH
FMAT,2
INCH
; #@! TA.AperFunction,NonPlated,NPTH,ComponentDrill
T1C0.0591
; #@! TA.AperFunction,NonPlated,NPTH,ComponentDrill
T2C0.0670
; #@! TA.AperFunction,NonPlated,NPTH,ComponentDrill
T3C0.1181
; #@! TA.AperFunction,NonPlated,NPTH,ComponentDrill
T4C0.1350
%
G90
G05
T1
X7.8512Y-4.1961
X7.8512Y-4.2906
X8.1268Y-4.1961
X8.1268Y-4.2906
T2
X2.3433Y-1.9008
X2.3433Y-2.6488
X2.3433Y-3.3969
X2.3433Y-4.1449
X2.7764Y-1.9008
X2.7764Y-2.6488
X2.7764Y-3.3969
X2.7764Y-4.1449
X3.0913Y-1.9008
X3.0913Y-2.6488
X3.0913Y-3.3969
X3.0913Y-4.1449
X3.0913Y-4.8929
X3.5244Y-1.9008
X3.5244Y-2.6488
X3.5244Y-3.3969
X3.5244Y-4.1449
X3.5244Y-4.8929
X3.8394Y-1.9008
X3.8394Y-2.6488
X3.8394Y-3.3969
X3.8394Y-4.1449
X3.8394Y-4.8929
X4.2724Y-1.9008
X4.2724Y-2.6488
X4.2724Y-3.3969
X4.2724Y-4.1449
X4.2724Y-4.8929
X4.5874Y-1.7039
X4.5874Y-2.452
X4.5874Y-3.2
X4.5874Y-3.948
X4.5874Y-4.7748
X5.0205Y-1.7039
X5.0205Y-2.452
X5.0205Y-3.2
X5.0205Y-3.948
X5.0205Y-4.7748
X5.3354Y-1.5858
X5.3354Y-2.3339
X5.3354Y-3.0819
X5.3354Y-3.8299
X5.3354Y-4.6567
X5.7685Y-1.5858
X5.7685Y-2.3339
X5.7685Y-3.0819
X5.7685Y-3.8299
X5.7685Y-4.6567
X6.0835Y-1.7039
X6.0835Y-2.452
X6.0835Y-3.2
X6.0835Y-3.948
X6.0835Y-4.7748
X6.5165Y-1.7039
X6.5165Y-2.452
X6.5165Y-3.2
X6.5165Y-3.948
X6.5165Y-4.7748
X6.8315Y-1.822
X6.8315Y-2.5701
X6.8315Y-3.3181
X6.8315Y-4.0661
X6.8315Y-4.8929
X7.2646Y-1.822
X7.2646Y-2.5701
X7.2646Y-3.3181
X7.2646Y-4.0661
X7.2646Y-4.8929
X7.3723Y-5.7316
X7.7474Y-5.9481
X7.8054Y-4.9815
X8.1804Y-5.198
T3
X2.363Y-2.0484
X2.363Y-2.7965
X2.363Y-3.5445
X2.363Y-4.2925
X2.5598Y-2.135
X2.5598Y-2.135
X2.5598Y-2.8831
X2.5598Y-2.8831
X2.5598Y-3.6311
X2.5598Y-3.6311
X2.5598Y-4.3791
X2.5598Y-4.3791
X2.7567Y-2.0484
X2.7567Y-2.7965
X2.7567Y-3.5445
X2.7567Y-4.2925
X3.111Y-2.0484
X3.111Y-2.7965
X3.111Y-3.5445
X3.111Y-4.2925
X3.111Y-5.0406
X3.3079Y-2.135
X3.3079Y-2.135
X3.3079Y-2.8831
X3.3079Y-2.8831
X3.3079Y-3.6311
X3.3079Y-3.6311
X3.3079Y-4.3791
X3.3079Y-4.3791
X3.3079Y-5.1272
X3.3079Y-5.1272
X3.5047Y-2.0484
X3.5047Y-2.7965
X3.5047Y-3.5445
X3.5047Y-4.2925
X3.5047Y-5.0406
X3.8591Y-2.0484
X3.8591Y-2.7965
X3.8591Y-3.5445
X3.8591Y-4.2925
X3.8591Y-5.0406
X4.0559Y-2.135
X4.0559Y-2.135
X4.0559Y-2.8831
X4.0559Y-2.8831
X4.0559Y-3.6311
X4.0559Y-3.6311
X4.0559Y-4.3791
X4.0559Y-4.3791
X4.0559Y-5.1272
X4.0559Y-5.1272
X4.2528Y-2.0484
X4.2528Y-2.7965
X4.2528Y-3.5445
X4.2528Y-4.2925
X4.2528Y-5.0406
X4.6071Y-1.8516
X4.6071Y-2.5996
X4.6071Y-3.3476
X4.6071Y-4.0957
X4.6071Y-4.9224
X4.8039Y-1.9382
X4.8039Y-1.9382
X4.8039Y-2.6862
X4.8039Y-2.6862
X4.8039Y-3.4343
X4.8039Y-3.4343
X4.8039Y-4.1823
X4.8039Y-4.1823
X4.8039Y-5.0091
X4.8039Y-5.0091
X5.0008Y-1.8516
X5.0008Y-2.5996
X5.0008Y-3.3476
X5.0008Y-4.0957
X5.0008Y-4.9224
X5.3551Y-1.7335
X5.3551Y-2.4815
X5.3551Y-3.2295
X5.3551Y-3.9776
X5.3551Y-4.8043
X5.552Y-1.8201
X5.552Y-1.8201
X5.552Y-2.5681
X5.552Y-2.5681
X5.552Y-3.3161
X5.552Y-3.3161
X5.552Y-4.0642
X5.552Y-4.0642
X5.552Y-4.8909
X5.552Y-4.8909
X5.7488Y-1.7335
X5.7488Y-2.4815
X5.7488Y-3.2295
X5.7488Y-3.9776
X5.7488Y-4.8043
X6.1031Y-1.8516
X6.1031Y-2.5996
X6.1031Y-3.3476
X6.1031Y-4.0957
X6.1031Y-4.9224
X6.3Y-1.9382
X6.3Y-1.9382
X6.3Y-2.6862
X6.3Y-2.6862
X6.3Y-3.4343
X6.3Y-3.4343
X6.3Y-4.1823
X6.3Y-4.1823
X6.3Y-5.0091
X6.3Y-5.0091
X6.4969Y-1.8516
X6.4969Y-2.5996
X6.4969Y-3.3476
X6.4969Y-4.0957
X6.4969Y-4.9224
X6.8512Y-1.9697
X6.8512Y-2.7177
X6.8512Y-3.4657
X6.8512Y-4.2138
X6.8512Y-5.0406
X7.048Y-2.0563
X7.048Y-2.0563
X7.048Y-2.8043
X7.048Y-2.8043
X7.048Y-3.5524
X7.048Y-3.5524
X7.048Y-4.3004
X7.048Y-4.3004
X7.048Y-5.1272
X7.048Y-5.1272
X7.2449Y-1.9697
X7.2449Y-2.7177
X7.2449Y-3.4657
X7.2449Y-4.2138
X7.2449Y-5.0406
X7.3155Y-5.8693
X7.4427Y-6.0427
X7.4427Y-6.0427
X7.6565Y-6.0661
X7.7486Y-5.1192
X7.8758Y-5.2926
X7.8758Y-5.2926
X8.0896Y-5.316
T4
X2.5598Y-1.9008
X2.5598Y-2.6488
X2.5598Y-3.3969
X2.5598Y-4.1449
X3.3079Y-1.9008
X3.3079Y-2.6488
X3.3079Y-3.3969
X3.3079Y-4.1449
X3.3079Y-4.8929
X4.0559Y-1.9008
X4.0559Y-2.6488
X4.0559Y-3.3969
X4.0559Y-4.1449
X4.0559Y-4.8929
X4.8039Y-1.7039
X4.8039Y-2.452
X4.8039Y-3.2
X4.8039Y-3.948
X4.8039Y-4.7748
X5.552Y-1.5858
X5.552Y-2.3339
X5.552Y-3.0819
X5.552Y-3.8299
X5.552Y-4.6567
X6.3Y-1.7039
X6.3Y-2.452
X6.3Y-3.2
X6.3Y-3.948
X6.3Y-4.7748
X7.048Y-1.822
X7.048Y-2.5701
X7.048Y-3.3181
X7.048Y-4.0661
X7.048Y-4.8929
X7.5598Y-5.8399
X7.9929Y-5.0898
T0
M30
