%TF.GenerationSoftware,KiCad,Pcbnew,6.0.2*%
%TF.CreationDate,2022-02-19T14:05:47-05:00*%
%TF.ProjectId,jonkey-v1,6a6f6e6b-6579-42d7-9631-2e6b69636164,v1.0.0*%
%TF.SameCoordinates,Original*%
%TF.FileFunction,Copper,L1,Top*%
%TF.FilePolarity,Positive*%
%FSLAX46Y46*%
G04 Gerber Fmt 4.6, Leading zero omitted, Abs format (unit mm)*
G04 Created by KiCad (PCBNEW 6.0.2) date 2022-02-19 14:05:47*
%MOMM*%
%LPD*%
G01*
G04 APERTURE LIST*
G04 Aperture macros list*
%AMRotRect*
0 Rectangle, with rotation*
0 The origin of the aperture is its center*
0 $1 length*
0 $2 width*
0 $3 Rotation angle, in degrees counterclockwise*
0 Add horizontal line*
21,1,$1,$2,0,0,$3*%
G04 Aperture macros list end*
%TA.AperFunction,SMDPad,CuDef*%
%ADD10R,0.900000X1.200000*%
%TD*%
%TA.AperFunction,ComponentPad*%
%ADD11C,1.905000*%
%TD*%
%TA.AperFunction,ComponentPad*%
%ADD12R,1.778000X1.778000*%
%TD*%
%TA.AperFunction,ComponentPad*%
%ADD13C,0.600000*%
%TD*%
%TA.AperFunction,SMDPad,CuDef*%
%ADD14R,2.600000X2.600000*%
%TD*%
%TA.AperFunction,SMDPad,CuDef*%
%ADD15RotRect,0.900000X1.200000X330.000000*%
%TD*%
%TA.AperFunction,ComponentPad*%
%ADD16RotRect,1.778000X1.778000X330.000000*%
%TD*%
%TA.AperFunction,SMDPad,CuDef*%
%ADD17RotRect,2.600000X2.600000X150.000000*%
%TD*%
%TA.AperFunction,ComponentPad*%
%ADD18R,1.752600X1.752600*%
%TD*%
%TA.AperFunction,ComponentPad*%
%ADD19C,1.752600*%
%TD*%
%TA.AperFunction,ComponentPad*%
%ADD20C,2.000000*%
%TD*%
%TA.AperFunction,ComponentPad*%
%ADD21O,2.200000X1.600000*%
%TD*%
%TA.AperFunction,ViaPad*%
%ADD22C,0.800000*%
%TD*%
%TA.AperFunction,Conductor*%
%ADD23C,0.250000*%
%TD*%
G04 APERTURE END LIST*
D10*
%TO.P,D1,1*%
%TO.N,P10*%
X63370000Y-100280000D03*
%TO.P,D1,2*%
%TO.N,macro_bottom*%
X66670000Y-100280000D03*
D11*
%TO.P,D1,1*%
X68830000Y-100280000D03*
D12*
%TO.P,D1,2*%
%TO.N,P10*%
X61210000Y-100280000D03*
%TD*%
D13*
%TO.P,REF\u002A\u002A,1*%
%TO.N,macro_bottom*%
X65020000Y-108780000D03*
%TD*%
%TO.P,REF\u002A\u002A,1*%
%TO.N,P16*%
X65020000Y-113780000D03*
%TD*%
D14*
%TO.P,S1,1*%
%TO.N,macro_bottom*%
X61745000Y-111230000D03*
%TO.P,S1,2*%
%TO.N,P16*%
X73295000Y-109030000D03*
%TD*%
D10*
%TO.P,D2,1*%
%TO.N,P6*%
X63370000Y-81280000D03*
%TO.P,D2,2*%
%TO.N,macro_home*%
X66670000Y-81280000D03*
D11*
%TO.P,D2,1*%
X68830000Y-81280000D03*
D12*
%TO.P,D2,2*%
%TO.N,P6*%
X61210000Y-81280000D03*
%TD*%
D13*
%TO.P,REF\u002A\u002A,1*%
%TO.N,macro_home*%
X65020000Y-89780000D03*
%TD*%
%TO.P,REF\u002A\u002A,1*%
%TO.N,P16*%
X65020000Y-94780000D03*
%TD*%
D14*
%TO.P,S2,1*%
%TO.N,macro_home*%
X61745000Y-92230000D03*
%TO.P,S2,2*%
%TO.N,P16*%
X73295000Y-90030000D03*
%TD*%
D10*
%TO.P,D3,1*%
%TO.N,P5*%
X63370000Y-62280000D03*
%TO.P,D3,2*%
%TO.N,macro_top*%
X66670000Y-62280000D03*
D11*
%TO.P,D3,1*%
X68830000Y-62280000D03*
D12*
%TO.P,D3,2*%
%TO.N,P5*%
X61210000Y-62280000D03*
%TD*%
D13*
%TO.P,REF\u002A\u002A,1*%
%TO.N,macro_top*%
X65020000Y-70780000D03*
%TD*%
%TO.P,REF\u002A\u002A,1*%
%TO.N,P16*%
X65020000Y-75780000D03*
%TD*%
D14*
%TO.P,S3,1*%
%TO.N,macro_top*%
X61745000Y-73230000D03*
%TO.P,S3,2*%
%TO.N,P16*%
X73295000Y-71030000D03*
%TD*%
D10*
%TO.P,D4,1*%
%TO.N,P4*%
X63370000Y-43280000D03*
%TO.P,D4,2*%
%TO.N,macro_numbers*%
X66670000Y-43280000D03*
D11*
%TO.P,D4,1*%
X68830000Y-43280000D03*
D12*
%TO.P,D4,2*%
%TO.N,P4*%
X61210000Y-43280000D03*
%TD*%
D13*
%TO.P,REF\u002A\u002A,1*%
%TO.N,macro_numbers*%
X65020000Y-51780000D03*
%TD*%
%TO.P,REF\u002A\u002A,1*%
%TO.N,P16*%
X65020000Y-56780000D03*
%TD*%
D14*
%TO.P,S4,1*%
%TO.N,macro_numbers*%
X61745000Y-54230000D03*
%TO.P,S4,2*%
%TO.N,P16*%
X73295000Y-52030000D03*
%TD*%
D10*
%TO.P,D5,1*%
%TO.N,P10*%
X82370000Y-100280000D03*
%TO.P,D5,2*%
%TO.N,command_bottom*%
X85670000Y-100280000D03*
D11*
%TO.P,D5,1*%
X87830000Y-100280000D03*
D12*
%TO.P,D5,2*%
%TO.N,P10*%
X80210000Y-100280000D03*
%TD*%
D13*
%TO.P,REF\u002A\u002A,1*%
%TO.N,command_bottom*%
X84020000Y-108780000D03*
%TD*%
%TO.P,REF\u002A\u002A,1*%
%TO.N,P14*%
X84020000Y-113780000D03*
%TD*%
D14*
%TO.P,S5,1*%
%TO.N,command_bottom*%
X80745000Y-111230000D03*
%TO.P,S5,2*%
%TO.N,P14*%
X92295000Y-109030000D03*
%TD*%
D10*
%TO.P,D6,1*%
%TO.N,P6*%
X82370000Y-81280000D03*
%TO.P,D6,2*%
%TO.N,command_home*%
X85670000Y-81280000D03*
D11*
%TO.P,D6,1*%
X87830000Y-81280000D03*
D12*
%TO.P,D6,2*%
%TO.N,P6*%
X80210000Y-81280000D03*
%TD*%
D13*
%TO.P,REF\u002A\u002A,1*%
%TO.N,command_home*%
X84020000Y-89780000D03*
%TD*%
%TO.P,REF\u002A\u002A,1*%
%TO.N,P14*%
X84020000Y-94780000D03*
%TD*%
D14*
%TO.P,S6,1*%
%TO.N,command_home*%
X80745000Y-92230000D03*
%TO.P,S6,2*%
%TO.N,P14*%
X92295000Y-90030000D03*
%TD*%
D10*
%TO.P,D7,1*%
%TO.N,P5*%
X82370000Y-62280000D03*
%TO.P,D7,2*%
%TO.N,command_top*%
X85670000Y-62280000D03*
D11*
%TO.P,D7,1*%
X87830000Y-62280000D03*
D12*
%TO.P,D7,2*%
%TO.N,P5*%
X80210000Y-62280000D03*
%TD*%
D13*
%TO.P,REF\u002A\u002A,1*%
%TO.N,command_top*%
X84020000Y-70780000D03*
%TD*%
%TO.P,REF\u002A\u002A,1*%
%TO.N,P14*%
X84020000Y-75780000D03*
%TD*%
D14*
%TO.P,S7,1*%
%TO.N,command_top*%
X80745000Y-73230000D03*
%TO.P,S7,2*%
%TO.N,P14*%
X92295000Y-71030000D03*
%TD*%
D10*
%TO.P,D8,1*%
%TO.N,P4*%
X82370000Y-43280000D03*
%TO.P,D8,2*%
%TO.N,command_numbers*%
X85670000Y-43280000D03*
D11*
%TO.P,D8,1*%
X87830000Y-43280000D03*
D12*
%TO.P,D8,2*%
%TO.N,P4*%
X80210000Y-43280000D03*
%TD*%
D13*
%TO.P,REF\u002A\u002A,1*%
%TO.N,command_numbers*%
X84020000Y-51780000D03*
%TD*%
%TO.P,REF\u002A\u002A,1*%
%TO.N,P14*%
X84020000Y-56780000D03*
%TD*%
D14*
%TO.P,S8,1*%
%TO.N,command_numbers*%
X80745000Y-54230000D03*
%TO.P,S8,2*%
%TO.N,P14*%
X92295000Y-52030000D03*
%TD*%
D10*
%TO.P,D9,1*%
%TO.N,P10*%
X101370000Y-100280000D03*
%TO.P,D9,2*%
%TO.N,pinky_bottom*%
X104670000Y-100280000D03*
D11*
%TO.P,D9,1*%
X106830000Y-100280000D03*
D12*
%TO.P,D9,2*%
%TO.N,P10*%
X99210000Y-100280000D03*
%TD*%
D13*
%TO.P,REF\u002A\u002A,1*%
%TO.N,pinky_bottom*%
X103020000Y-108780000D03*
%TD*%
%TO.P,REF\u002A\u002A,1*%
%TO.N,P15*%
X103020000Y-113780000D03*
%TD*%
D14*
%TO.P,S9,1*%
%TO.N,pinky_bottom*%
X99745000Y-111230000D03*
%TO.P,S9,2*%
%TO.N,P15*%
X111295000Y-109030000D03*
%TD*%
D10*
%TO.P,D10,1*%
%TO.N,P6*%
X101370000Y-81280000D03*
%TO.P,D10,2*%
%TO.N,pinky_home*%
X104670000Y-81280000D03*
D11*
%TO.P,D10,1*%
X106830000Y-81280000D03*
D12*
%TO.P,D10,2*%
%TO.N,P6*%
X99210000Y-81280000D03*
%TD*%
D13*
%TO.P,REF\u002A\u002A,1*%
%TO.N,pinky_home*%
X103020000Y-89780000D03*
%TD*%
%TO.P,REF\u002A\u002A,1*%
%TO.N,P15*%
X103020000Y-94780000D03*
%TD*%
D14*
%TO.P,S10,1*%
%TO.N,pinky_home*%
X99745000Y-92230000D03*
%TO.P,S10,2*%
%TO.N,P15*%
X111295000Y-90030000D03*
%TD*%
D10*
%TO.P,D11,1*%
%TO.N,P5*%
X101370000Y-62280000D03*
%TO.P,D11,2*%
%TO.N,pinky_top*%
X104670000Y-62280000D03*
D11*
%TO.P,D11,1*%
X106830000Y-62280000D03*
D12*
%TO.P,D11,2*%
%TO.N,P5*%
X99210000Y-62280000D03*
%TD*%
D13*
%TO.P,REF\u002A\u002A,1*%
%TO.N,pinky_top*%
X103020000Y-70780000D03*
%TD*%
%TO.P,REF\u002A\u002A,1*%
%TO.N,P15*%
X103020000Y-75780000D03*
%TD*%
D14*
%TO.P,S11,1*%
%TO.N,pinky_top*%
X99745000Y-73230000D03*
%TO.P,S11,2*%
%TO.N,P15*%
X111295000Y-71030000D03*
%TD*%
D10*
%TO.P,D12,1*%
%TO.N,P4*%
X101370000Y-43280000D03*
%TO.P,D12,2*%
%TO.N,pinky_numbers*%
X104670000Y-43280000D03*
D11*
%TO.P,D12,1*%
X106830000Y-43280000D03*
D12*
%TO.P,D12,2*%
%TO.N,P4*%
X99210000Y-43280000D03*
%TD*%
D13*
%TO.P,REF\u002A\u002A,1*%
%TO.N,pinky_numbers*%
X103020000Y-51780000D03*
%TD*%
%TO.P,REF\u002A\u002A,1*%
%TO.N,P15*%
X103020000Y-56780000D03*
%TD*%
D14*
%TO.P,S12,1*%
%TO.N,pinky_numbers*%
X99745000Y-54230000D03*
%TO.P,S12,2*%
%TO.N,P15*%
X111295000Y-52030000D03*
%TD*%
D10*
%TO.P,D13,1*%
%TO.N,P10*%
X120370000Y-95280000D03*
%TO.P,D13,2*%
%TO.N,ring_bottom*%
X123670000Y-95280000D03*
D11*
%TO.P,D13,1*%
X125830000Y-95280000D03*
D12*
%TO.P,D13,2*%
%TO.N,P10*%
X118210000Y-95280000D03*
%TD*%
D13*
%TO.P,REF\u002A\u002A,1*%
%TO.N,ring_bottom*%
X122020000Y-103780000D03*
%TD*%
%TO.P,REF\u002A\u002A,1*%
%TO.N,P18*%
X122020000Y-108780000D03*
%TD*%
D14*
%TO.P,S13,1*%
%TO.N,ring_bottom*%
X118745000Y-106230000D03*
%TO.P,S13,2*%
%TO.N,P18*%
X130295000Y-104030000D03*
%TD*%
D10*
%TO.P,D14,1*%
%TO.N,P6*%
X120370000Y-76280000D03*
%TO.P,D14,2*%
%TO.N,ring_home*%
X123670000Y-76280000D03*
D11*
%TO.P,D14,1*%
X125830000Y-76280000D03*
D12*
%TO.P,D14,2*%
%TO.N,P6*%
X118210000Y-76280000D03*
%TD*%
D13*
%TO.P,REF\u002A\u002A,1*%
%TO.N,ring_home*%
X122020000Y-84780000D03*
%TD*%
%TO.P,REF\u002A\u002A,1*%
%TO.N,P18*%
X122020000Y-89780000D03*
%TD*%
D14*
%TO.P,S14,1*%
%TO.N,ring_home*%
X118745000Y-87230000D03*
%TO.P,S14,2*%
%TO.N,P18*%
X130295000Y-85030000D03*
%TD*%
D10*
%TO.P,D15,1*%
%TO.N,P5*%
X120370000Y-57280000D03*
%TO.P,D15,2*%
%TO.N,ring_top*%
X123670000Y-57280000D03*
D11*
%TO.P,D15,1*%
X125830000Y-57280000D03*
D12*
%TO.P,D15,2*%
%TO.N,P5*%
X118210000Y-57280000D03*
%TD*%
D13*
%TO.P,REF\u002A\u002A,1*%
%TO.N,ring_top*%
X122020000Y-65780000D03*
%TD*%
%TO.P,REF\u002A\u002A,1*%
%TO.N,P18*%
X122020000Y-70780000D03*
%TD*%
D14*
%TO.P,S15,1*%
%TO.N,ring_top*%
X118745000Y-68230000D03*
%TO.P,S15,2*%
%TO.N,P18*%
X130295000Y-66030000D03*
%TD*%
D10*
%TO.P,D16,1*%
%TO.N,P4*%
X120370000Y-38280000D03*
%TO.P,D16,2*%
%TO.N,ring_numbers*%
X123670000Y-38280000D03*
D11*
%TO.P,D16,1*%
X125830000Y-38280000D03*
D12*
%TO.P,D16,2*%
%TO.N,P4*%
X118210000Y-38280000D03*
%TD*%
D13*
%TO.P,REF\u002A\u002A,1*%
%TO.N,ring_numbers*%
X122020000Y-46780000D03*
%TD*%
%TO.P,REF\u002A\u002A,1*%
%TO.N,P18*%
X122020000Y-51780000D03*
%TD*%
D14*
%TO.P,S16,1*%
%TO.N,ring_numbers*%
X118745000Y-49230000D03*
%TO.P,S16,2*%
%TO.N,P18*%
X130295000Y-47030000D03*
%TD*%
D10*
%TO.P,D17,1*%
%TO.N,P10*%
X139370000Y-92280000D03*
%TO.P,D17,2*%
%TO.N,middle_bottom*%
X142670000Y-92280000D03*
D11*
%TO.P,D17,1*%
X144830000Y-92280000D03*
D12*
%TO.P,D17,2*%
%TO.N,P10*%
X137210000Y-92280000D03*
%TD*%
D13*
%TO.P,REF\u002A\u002A,1*%
%TO.N,middle_bottom*%
X141020000Y-100780000D03*
%TD*%
%TO.P,REF\u002A\u002A,1*%
%TO.N,P19*%
X141020000Y-105780000D03*
%TD*%
D14*
%TO.P,S17,1*%
%TO.N,middle_bottom*%
X137745000Y-103230000D03*
%TO.P,S17,2*%
%TO.N,P19*%
X149295000Y-101030000D03*
%TD*%
D10*
%TO.P,D18,1*%
%TO.N,P6*%
X139370000Y-73280000D03*
%TO.P,D18,2*%
%TO.N,middle_home*%
X142670000Y-73280000D03*
D11*
%TO.P,D18,1*%
X144830000Y-73280000D03*
D12*
%TO.P,D18,2*%
%TO.N,P6*%
X137210000Y-73280000D03*
%TD*%
D13*
%TO.P,REF\u002A\u002A,1*%
%TO.N,middle_home*%
X141020000Y-81780000D03*
%TD*%
%TO.P,REF\u002A\u002A,1*%
%TO.N,P19*%
X141020000Y-86780000D03*
%TD*%
D14*
%TO.P,S18,1*%
%TO.N,middle_home*%
X137745000Y-84230000D03*
%TO.P,S18,2*%
%TO.N,P19*%
X149295000Y-82030000D03*
%TD*%
D10*
%TO.P,D19,1*%
%TO.N,P5*%
X139370000Y-54280000D03*
%TO.P,D19,2*%
%TO.N,middle_top*%
X142670000Y-54280000D03*
D11*
%TO.P,D19,1*%
X144830000Y-54280000D03*
D12*
%TO.P,D19,2*%
%TO.N,P5*%
X137210000Y-54280000D03*
%TD*%
D13*
%TO.P,REF\u002A\u002A,1*%
%TO.N,middle_top*%
X141020000Y-62780000D03*
%TD*%
%TO.P,REF\u002A\u002A,1*%
%TO.N,P19*%
X141020000Y-67780000D03*
%TD*%
D14*
%TO.P,S19,1*%
%TO.N,middle_top*%
X137745000Y-65230000D03*
%TO.P,S19,2*%
%TO.N,P19*%
X149295000Y-63030000D03*
%TD*%
D10*
%TO.P,D20,1*%
%TO.N,P4*%
X139370000Y-35280000D03*
%TO.P,D20,2*%
%TO.N,middle_numbers*%
X142670000Y-35280000D03*
D11*
%TO.P,D20,1*%
X144830000Y-35280000D03*
D12*
%TO.P,D20,2*%
%TO.N,P4*%
X137210000Y-35280000D03*
%TD*%
D13*
%TO.P,REF\u002A\u002A,1*%
%TO.N,middle_numbers*%
X141020000Y-43780000D03*
%TD*%
%TO.P,REF\u002A\u002A,1*%
%TO.N,P19*%
X141020000Y-48780000D03*
%TD*%
D14*
%TO.P,S20,1*%
%TO.N,middle_numbers*%
X137745000Y-46230000D03*
%TO.P,S20,2*%
%TO.N,P19*%
X149295000Y-44030000D03*
%TD*%
D10*
%TO.P,D21,1*%
%TO.N,P10*%
X158370000Y-95280000D03*
%TO.P,D21,2*%
%TO.N,index_bottom*%
X161670000Y-95280000D03*
D11*
%TO.P,D21,1*%
X163830000Y-95280000D03*
D12*
%TO.P,D21,2*%
%TO.N,P10*%
X156210000Y-95280000D03*
%TD*%
D13*
%TO.P,REF\u002A\u002A,1*%
%TO.N,index_bottom*%
X160020000Y-103780000D03*
%TD*%
%TO.P,REF\u002A\u002A,1*%
%TO.N,P20*%
X160020000Y-108780000D03*
%TD*%
D14*
%TO.P,S21,1*%
%TO.N,index_bottom*%
X156745000Y-106230000D03*
%TO.P,S21,2*%
%TO.N,P20*%
X168295000Y-104030000D03*
%TD*%
D10*
%TO.P,D22,1*%
%TO.N,P6*%
X158370000Y-76280000D03*
%TO.P,D22,2*%
%TO.N,index_home*%
X161670000Y-76280000D03*
D11*
%TO.P,D22,1*%
X163830000Y-76280000D03*
D12*
%TO.P,D22,2*%
%TO.N,P6*%
X156210000Y-76280000D03*
%TD*%
D13*
%TO.P,REF\u002A\u002A,1*%
%TO.N,index_home*%
X160020000Y-84780000D03*
%TD*%
%TO.P,REF\u002A\u002A,1*%
%TO.N,P20*%
X160020000Y-89780000D03*
%TD*%
D14*
%TO.P,S22,1*%
%TO.N,index_home*%
X156745000Y-87230000D03*
%TO.P,S22,2*%
%TO.N,P20*%
X168295000Y-85030000D03*
%TD*%
D10*
%TO.P,D23,1*%
%TO.N,P5*%
X158370000Y-57280000D03*
%TO.P,D23,2*%
%TO.N,index_top*%
X161670000Y-57280000D03*
D11*
%TO.P,D23,1*%
X163830000Y-57280000D03*
D12*
%TO.P,D23,2*%
%TO.N,P5*%
X156210000Y-57280000D03*
%TD*%
D13*
%TO.P,REF\u002A\u002A,1*%
%TO.N,index_top*%
X160020000Y-65780000D03*
%TD*%
%TO.P,REF\u002A\u002A,1*%
%TO.N,P20*%
X160020000Y-70780000D03*
%TD*%
D14*
%TO.P,S23,1*%
%TO.N,index_top*%
X156745000Y-68230000D03*
%TO.P,S23,2*%
%TO.N,P20*%
X168295000Y-66030000D03*
%TD*%
D10*
%TO.P,D24,1*%
%TO.N,P4*%
X158370000Y-38280000D03*
%TO.P,D24,2*%
%TO.N,index_numbers*%
X161670000Y-38280000D03*
D11*
%TO.P,D24,1*%
X163830000Y-38280000D03*
D12*
%TO.P,D24,2*%
%TO.N,P4*%
X156210000Y-38280000D03*
%TD*%
D13*
%TO.P,REF\u002A\u002A,1*%
%TO.N,index_numbers*%
X160020000Y-46780000D03*
%TD*%
%TO.P,REF\u002A\u002A,1*%
%TO.N,P20*%
X160020000Y-51780000D03*
%TD*%
D14*
%TO.P,S24,1*%
%TO.N,index_numbers*%
X156745000Y-49230000D03*
%TO.P,S24,2*%
%TO.N,P20*%
X168295000Y-47030000D03*
%TD*%
D10*
%TO.P,D25,1*%
%TO.N,P10*%
X177370000Y-98280000D03*
%TO.P,D25,2*%
%TO.N,inner_bottom*%
X180670000Y-98280000D03*
D11*
%TO.P,D25,1*%
X182830000Y-98280000D03*
D12*
%TO.P,D25,2*%
%TO.N,P10*%
X175210000Y-98280000D03*
%TD*%
D13*
%TO.P,REF\u002A\u002A,1*%
%TO.N,inner_bottom*%
X179020000Y-106780000D03*
%TD*%
%TO.P,REF\u002A\u002A,1*%
%TO.N,P21*%
X179020000Y-111780000D03*
%TD*%
D14*
%TO.P,S25,1*%
%TO.N,inner_bottom*%
X175745000Y-109230000D03*
%TO.P,S25,2*%
%TO.N,P21*%
X187295000Y-107030000D03*
%TD*%
D10*
%TO.P,D26,1*%
%TO.N,P6*%
X177370000Y-79280000D03*
%TO.P,D26,2*%
%TO.N,inner_home*%
X180670000Y-79280000D03*
D11*
%TO.P,D26,1*%
X182830000Y-79280000D03*
D12*
%TO.P,D26,2*%
%TO.N,P6*%
X175210000Y-79280000D03*
%TD*%
D13*
%TO.P,REF\u002A\u002A,1*%
%TO.N,inner_home*%
X179020000Y-87780000D03*
%TD*%
%TO.P,REF\u002A\u002A,1*%
%TO.N,P21*%
X179020000Y-92780000D03*
%TD*%
D14*
%TO.P,S26,1*%
%TO.N,inner_home*%
X175745000Y-90230000D03*
%TO.P,S26,2*%
%TO.N,P21*%
X187295000Y-88030000D03*
%TD*%
D10*
%TO.P,D27,1*%
%TO.N,P5*%
X177370000Y-60280000D03*
%TO.P,D27,2*%
%TO.N,inner_top*%
X180670000Y-60280000D03*
D11*
%TO.P,D27,1*%
X182830000Y-60280000D03*
D12*
%TO.P,D27,2*%
%TO.N,P5*%
X175210000Y-60280000D03*
%TD*%
D13*
%TO.P,REF\u002A\u002A,1*%
%TO.N,inner_top*%
X179020000Y-68780000D03*
%TD*%
%TO.P,REF\u002A\u002A,1*%
%TO.N,P21*%
X179020000Y-73780000D03*
%TD*%
D14*
%TO.P,S27,1*%
%TO.N,inner_top*%
X175745000Y-71230000D03*
%TO.P,S27,2*%
%TO.N,P21*%
X187295000Y-69030000D03*
%TD*%
D10*
%TO.P,D28,1*%
%TO.N,P4*%
X177370000Y-41280000D03*
%TO.P,D28,2*%
%TO.N,inner_numbers*%
X180670000Y-41280000D03*
D11*
%TO.P,D28,1*%
X182830000Y-41280000D03*
D12*
%TO.P,D28,2*%
%TO.N,P4*%
X175210000Y-41280000D03*
%TD*%
D13*
%TO.P,REF\u002A\u002A,1*%
%TO.N,inner_numbers*%
X179020000Y-49780000D03*
%TD*%
%TO.P,REF\u002A\u002A,1*%
%TO.N,P21*%
X179020000Y-54780000D03*
%TD*%
D14*
%TO.P,S28,1*%
%TO.N,inner_numbers*%
X175745000Y-52230000D03*
%TO.P,S28,2*%
%TO.N,P21*%
X187295000Y-50030000D03*
%TD*%
D10*
%TO.P,D29,1*%
%TO.N,P7*%
X158370000Y-116280000D03*
%TO.P,D29,2*%
%TO.N,index_thumb*%
X161670000Y-116280000D03*
D11*
%TO.P,D29,1*%
X163830000Y-116280000D03*
D12*
%TO.P,D29,2*%
%TO.N,P7*%
X156210000Y-116280000D03*
%TD*%
D13*
%TO.P,REF\u002A\u002A,1*%
%TO.N,index_thumb*%
X160020000Y-124780000D03*
%TD*%
%TO.P,REF\u002A\u002A,1*%
%TO.N,P20*%
X160020000Y-129780000D03*
%TD*%
D14*
%TO.P,S29,1*%
%TO.N,index_thumb*%
X156745000Y-127230000D03*
%TO.P,S29,2*%
%TO.N,P20*%
X168295000Y-125030000D03*
%TD*%
D10*
%TO.P,D30,1*%
%TO.N,P7*%
X177370000Y-119280000D03*
%TO.P,D30,2*%
%TO.N,inner_thumb*%
X180670000Y-119280000D03*
D11*
%TO.P,D30,1*%
X182830000Y-119280000D03*
D12*
%TO.P,D30,2*%
%TO.N,P7*%
X175210000Y-119280000D03*
%TD*%
D13*
%TO.P,REF\u002A\u002A,1*%
%TO.N,inner_thumb*%
X179020000Y-127780000D03*
%TD*%
%TO.P,REF\u002A\u002A,1*%
%TO.N,P21*%
X179020000Y-132780000D03*
%TD*%
D14*
%TO.P,S30,1*%
%TO.N,inner_thumb*%
X175745000Y-130230000D03*
%TO.P,S30,2*%
%TO.N,P21*%
X187295000Y-128030000D03*
%TD*%
D15*
%TO.P,D31,1*%
%TO.N,P7*%
X204091058Y-124124873D03*
%TO.P,D31,2*%
%TO.N,far_thumb*%
X206948942Y-125774873D03*
D11*
%TO.P,D31,1*%
X208819557Y-126854873D03*
D16*
%TO.P,D31,2*%
%TO.N,P7*%
X202220443Y-123044873D03*
%TD*%
D13*
%TO.P,REF\u002A\u002A,1*%
%TO.N,far_thumb*%
X201270000Y-132311089D03*
%TD*%
%TO.P,REF\u002A\u002A,1*%
%TO.N,P9*%
X198770000Y-136641216D03*
%TD*%
D17*
%TO.P,S31,1*%
%TO.N,far_thumb*%
X197208767Y-132795351D03*
%TO.P,S31,2*%
%TO.N,P9*%
X208311360Y-136665095D03*
%TD*%
D15*
%TO.P,D32,1*%
%TO.N,P8*%
X193091058Y-143177432D03*
%TO.P,D32,2*%
%TO.N,near_thumb*%
X195948942Y-144827432D03*
D11*
%TO.P,D32,1*%
X197819557Y-145907432D03*
D16*
%TO.P,D32,2*%
%TO.N,P8*%
X191220443Y-142097432D03*
%TD*%
D13*
%TO.P,REF\u002A\u002A,1*%
%TO.N,near_thumb*%
X190270000Y-151363648D03*
%TD*%
%TO.P,REF\u002A\u002A,1*%
%TO.N,P9*%
X187770000Y-155693775D03*
%TD*%
D17*
%TO.P,S32,1*%
%TO.N,near_thumb*%
X186208767Y-151847910D03*
%TO.P,S32,2*%
%TO.N,P9*%
X197311360Y-155717654D03*
%TD*%
D10*
%TO.P,D33,1*%
%TO.N,P7*%
X82370000Y-119280000D03*
%TO.P,D33,2*%
%TO.N,ctrl_thumb*%
X85670000Y-119280000D03*
D11*
%TO.P,D33,1*%
X87830000Y-119280000D03*
D12*
%TO.P,D33,2*%
%TO.N,P7*%
X80210000Y-119280000D03*
%TD*%
D13*
%TO.P,REF\u002A\u002A,1*%
%TO.N,ctrl_thumb*%
X84020000Y-127780000D03*
%TD*%
%TO.P,REF\u002A\u002A,1*%
%TO.N,P14*%
X84020000Y-132780000D03*
%TD*%
D14*
%TO.P,S33,1*%
%TO.N,ctrl_thumb*%
X80745000Y-130230000D03*
%TO.P,S33,2*%
%TO.N,P14*%
X92295000Y-128030000D03*
%TD*%
D10*
%TO.P,D34,1*%
%TO.N,P7*%
X101370000Y-119280000D03*
%TO.P,D34,2*%
%TO.N,meta_thumb*%
X104670000Y-119280000D03*
D11*
%TO.P,D34,1*%
X106830000Y-119280000D03*
D12*
%TO.P,D34,2*%
%TO.N,P7*%
X99210000Y-119280000D03*
%TD*%
D13*
%TO.P,REF\u002A\u002A,1*%
%TO.N,meta_thumb*%
X103020000Y-127780000D03*
%TD*%
%TO.P,REF\u002A\u002A,1*%
%TO.N,P15*%
X103020000Y-132780000D03*
%TD*%
D14*
%TO.P,S34,1*%
%TO.N,meta_thumb*%
X99745000Y-130230000D03*
%TO.P,S34,2*%
%TO.N,P15*%
X111295000Y-128030000D03*
%TD*%
D10*
%TO.P,D35,1*%
%TO.N,P7*%
X120370000Y-116280000D03*
%TO.P,D35,2*%
%TO.N,alt_thumb*%
X123670000Y-116280000D03*
D11*
%TO.P,D35,1*%
X125830000Y-116280000D03*
D12*
%TO.P,D35,2*%
%TO.N,P7*%
X118210000Y-116280000D03*
%TD*%
D13*
%TO.P,REF\u002A\u002A,1*%
%TO.N,alt_thumb*%
X122020000Y-124780000D03*
%TD*%
%TO.P,REF\u002A\u002A,1*%
%TO.N,P18*%
X122020000Y-129780000D03*
%TD*%
D14*
%TO.P,S35,1*%
%TO.N,alt_thumb*%
X118745000Y-127230000D03*
%TO.P,S35,2*%
%TO.N,P18*%
X130295000Y-125030000D03*
%TD*%
D10*
%TO.P,D36,1*%
%TO.N,P7*%
X139370000Y-113280000D03*
%TO.P,D36,2*%
%TO.N,fn_thumb*%
X142670000Y-113280000D03*
D11*
%TO.P,D36,1*%
X144830000Y-113280000D03*
D12*
%TO.P,D36,2*%
%TO.N,P7*%
X137210000Y-113280000D03*
%TD*%
D13*
%TO.P,REF\u002A\u002A,1*%
%TO.N,fn_thumb*%
X141020000Y-121780000D03*
%TD*%
%TO.P,REF\u002A\u002A,1*%
%TO.N,P19*%
X141020000Y-126780000D03*
%TD*%
D14*
%TO.P,S36,1*%
%TO.N,fn_thumb*%
X137745000Y-124230000D03*
%TO.P,S36,2*%
%TO.N,P19*%
X149295000Y-122030000D03*
%TD*%
D18*
%TO.P,MCU1,1*%
%TO.N,RAW*%
X192400000Y-60310000D03*
D19*
%TO.P,MCU1,2*%
%TO.N,GND*%
X192400000Y-62850000D03*
%TO.P,MCU1,3*%
%TO.N,RST*%
X192400000Y-65390000D03*
%TO.P,MCU1,4*%
%TO.N,VCC*%
X192400000Y-67930000D03*
%TO.P,MCU1,5*%
%TO.N,P21*%
X192400000Y-70470000D03*
%TO.P,MCU1,6*%
%TO.N,P20*%
X192400000Y-73010000D03*
%TO.P,MCU1,7*%
%TO.N,P19*%
X192400000Y-75550000D03*
%TO.P,MCU1,8*%
%TO.N,P18*%
X192400000Y-78090000D03*
%TO.P,MCU1,9*%
%TO.N,P15*%
X192400000Y-80630000D03*
%TO.P,MCU1,10*%
%TO.N,P14*%
X192400000Y-83170000D03*
%TO.P,MCU1,11*%
%TO.N,P16*%
X192400000Y-85710000D03*
%TO.P,MCU1,12*%
%TO.N,P10*%
X192400000Y-88250000D03*
%TO.P,MCU1,13*%
%TO.N,P1*%
X207640000Y-60310000D03*
%TO.P,MCU1,14*%
%TO.N,P0*%
X207640000Y-62850000D03*
%TO.P,MCU1,15*%
%TO.N,GND*%
X207640000Y-65390000D03*
%TO.P,MCU1,16*%
X207640000Y-67930000D03*
%TO.P,MCU1,17*%
%TO.N,P2*%
X207640000Y-70470000D03*
%TO.P,MCU1,18*%
%TO.N,P3*%
X207640000Y-73010000D03*
%TO.P,MCU1,19*%
%TO.N,P4*%
X207640000Y-75550000D03*
%TO.P,MCU1,20*%
%TO.N,P5*%
X207640000Y-78090000D03*
%TO.P,MCU1,21*%
%TO.N,P6*%
X207640000Y-80630000D03*
%TO.P,MCU1,22*%
%TO.N,P7*%
X207640000Y-83170000D03*
%TO.P,MCU1,23*%
%TO.N,P8*%
X207640000Y-85710000D03*
%TO.P,MCU1,24*%
%TO.N,P9*%
X207640000Y-88250000D03*
%TD*%
D20*
%TO.P,B1,1*%
%TO.N,RST*%
X200770000Y-98280000D03*
%TO.P,B1,2*%
%TO.N,GND*%
X207270000Y-98280000D03*
%TD*%
D21*
%TO.P,REF\u002A\u002A,1*%
%TO.N,VCC*%
X196720000Y-106680000D03*
%TO.P,REF\u002A\u002A,2*%
%TO.N,P2*%
X197820000Y-111280000D03*
%TO.P,REF\u002A\u002A,3*%
%TO.N,P3*%
X201820000Y-111280000D03*
%TO.P,REF\u002A\u002A,4*%
%TO.N,GND*%
X204820000Y-111280000D03*
%TO.P,REF\u002A\u002A,1*%
%TO.N,VCC*%
X196720000Y-108880000D03*
%TO.P,REF\u002A\u002A,2*%
%TO.N,P2*%
X197820000Y-104280000D03*
%TO.P,REF\u002A\u002A,3*%
%TO.N,P3*%
X201820000Y-104280000D03*
%TO.P,REF\u002A\u002A,4*%
%TO.N,GND*%
X204820000Y-104280000D03*
%TD*%
D22*
%TO.N,GND*%
X199954374Y-77074874D03*
%TD*%
D23*
%TO.N,P9*%
X207640000Y-88250000D02*
X203244520Y-92645480D01*
X203244520Y-92645480D02*
X203244520Y-111745791D01*
X203244520Y-111745791D02*
X201120290Y-113870021D01*
X201120290Y-113870021D02*
X201120290Y-118345251D01*
X201120290Y-118345251D02*
X202155039Y-119380000D01*
X202155039Y-119380000D02*
X208063018Y-119380000D01*
X208063018Y-119380000D02*
X215104396Y-126421378D01*
X215104396Y-126421378D02*
X215104396Y-129872059D01*
X215104396Y-129872059D02*
X208311360Y-136665095D01*
%TO.N,GND*%
X207640000Y-67930000D02*
X205874282Y-67930000D01*
X205874282Y-67930000D02*
X201730480Y-72073802D01*
X201730480Y-72073802D02*
X201730480Y-75993112D01*
X201730480Y-75993112D02*
X200648718Y-77074874D01*
X200648718Y-77074874D02*
X199954374Y-77074874D01*
%TO.N,P5*%
X63370000Y-62280000D02*
X61210000Y-62280000D01*
%TO.N,macro_top*%
X68830000Y-62280000D02*
X66670000Y-62280000D01*
X65020000Y-70780000D02*
X68830000Y-66970000D01*
X68830000Y-66970000D02*
X68830000Y-62280000D01*
X61745000Y-73230000D02*
X64195000Y-70780000D01*
X64195000Y-70780000D02*
X65020000Y-70780000D01*
%TO.N,GND*%
X209146303Y-67930000D02*
X209431410Y-68215107D01*
X207640000Y-67930000D02*
X209146303Y-67930000D01*
X209431410Y-68215107D02*
X209431410Y-96118590D01*
X209431410Y-96118590D02*
X207270000Y-98280000D01*
%TO.N,inner_home*%
X179020000Y-87780000D02*
X182830000Y-83970000D01*
X182830000Y-83970000D02*
X182830000Y-79280000D01*
X179020000Y-87780000D02*
X178195000Y-87780000D01*
X178195000Y-87780000D02*
X175745000Y-90230000D01*
X180670000Y-79280000D02*
X182830000Y-79280000D01*
%TO.N,P6*%
X175210000Y-79280000D02*
X177370000Y-79280000D01*
X156210000Y-76280000D02*
X158370000Y-76280000D01*
%TO.N,index_home*%
X161670000Y-76280000D02*
X163830000Y-76280000D01*
X160020000Y-84780000D02*
X163830000Y-80970000D01*
X163830000Y-80970000D02*
X163830000Y-76280000D01*
X160020000Y-84780000D02*
X159195000Y-84780000D01*
X159195000Y-84780000D02*
X156745000Y-87230000D01*
%TO.N,P6*%
X139370000Y-73280000D02*
X137210000Y-73280000D01*
%TO.N,middle_home*%
X144830000Y-73280000D02*
X142670000Y-73280000D01*
X141020000Y-81780000D02*
X144830000Y-77970000D01*
X144830000Y-77970000D02*
X144830000Y-73280000D01*
X141020000Y-81780000D02*
X140195000Y-81780000D01*
X140195000Y-81780000D02*
X137745000Y-84230000D01*
%TO.N,P6*%
X118210000Y-76280000D02*
X120370000Y-76280000D01*
%TO.N,ring_home*%
X125830000Y-76280000D02*
X123670000Y-76280000D01*
X122020000Y-84780000D02*
X125830000Y-80970000D01*
X125830000Y-80970000D02*
X125830000Y-76280000D01*
X118745000Y-87230000D02*
X121195000Y-84780000D01*
X121195000Y-84780000D02*
X122020000Y-84780000D01*
%TO.N,P6*%
X101370000Y-81280000D02*
X99210000Y-81280000D01*
%TO.N,pinky_home*%
X106830000Y-81280000D02*
X104670000Y-81280000D01*
X103020000Y-89780000D02*
X106830000Y-85970000D01*
X106830000Y-85970000D02*
X106830000Y-81280000D01*
X99745000Y-92230000D02*
X102195000Y-89780000D01*
X102195000Y-89780000D02*
X103020000Y-89780000D01*
%TO.N,P6*%
X82370000Y-81280000D02*
X80210000Y-81280000D01*
%TO.N,command_home*%
X87830000Y-81280000D02*
X85670000Y-81280000D01*
X84020000Y-89780000D02*
X87830000Y-85970000D01*
X87830000Y-85970000D02*
X87830000Y-81280000D01*
X84020000Y-89780000D02*
X83195000Y-89780000D01*
X83195000Y-89780000D02*
X80745000Y-92230000D01*
%TO.N,P4*%
X61210000Y-43280000D02*
X63370000Y-43280000D01*
%TO.N,macro_numbers*%
X66670000Y-43280000D02*
X68830000Y-43280000D01*
X65020000Y-51780000D02*
X68830000Y-47970000D01*
X68830000Y-47970000D02*
X68830000Y-43280000D01*
X65020000Y-51780000D02*
X64195000Y-51780000D01*
X64195000Y-51780000D02*
X61745000Y-54230000D01*
%TO.N,P4*%
X80210000Y-43280000D02*
X82370000Y-43280000D01*
%TO.N,command_numbers*%
X85670000Y-43280000D02*
X87830000Y-43280000D01*
X84020000Y-51780000D02*
X87830000Y-47970000D01*
X87830000Y-47970000D02*
X87830000Y-43280000D01*
X84020000Y-51780000D02*
X83195000Y-51780000D01*
X83195000Y-51780000D02*
X80745000Y-54230000D01*
%TO.N,P4*%
X101370000Y-43280000D02*
X99210000Y-43280000D01*
%TO.N,pinky_numbers*%
X106830000Y-43280000D02*
X104670000Y-43280000D01*
X103020000Y-51780000D02*
X106830000Y-47970000D01*
X106830000Y-47970000D02*
X106830000Y-43280000D01*
X99745000Y-54230000D02*
X102195000Y-51780000D01*
X102195000Y-51780000D02*
X103020000Y-51780000D01*
%TO.N,P4*%
X120370000Y-38280000D02*
X118210000Y-38280000D01*
%TO.N,ring_numbers*%
X125830000Y-38280000D02*
X123670000Y-38280000D01*
X122020000Y-46780000D02*
X125830000Y-42970000D01*
X125830000Y-42970000D02*
X125830000Y-38280000D01*
X118745000Y-49230000D02*
X121195000Y-46780000D01*
X121195000Y-46780000D02*
X122020000Y-46780000D01*
%TO.N,P4*%
X139370000Y-35280000D02*
X137210000Y-35280000D01*
%TO.N,middle_numbers*%
X144830000Y-35280000D02*
X142670000Y-35280000D01*
X141020000Y-43780000D02*
X144830000Y-39970000D01*
X144830000Y-39970000D02*
X144830000Y-35280000D01*
X141020000Y-43780000D02*
X140195000Y-43780000D01*
X140195000Y-43780000D02*
X137745000Y-46230000D01*
%TO.N,P4*%
X158370000Y-38280000D02*
X156210000Y-38280000D01*
%TO.N,index_numbers*%
X160020000Y-46780000D02*
X163830000Y-42970000D01*
X163830000Y-42970000D02*
X163830000Y-38280000D01*
X160020000Y-46780000D02*
X159195000Y-46780000D01*
X159195000Y-46780000D02*
X156745000Y-49230000D01*
X163830000Y-38280000D02*
X161670000Y-38280000D01*
%TO.N,P4*%
X177370000Y-41280000D02*
X175210000Y-41280000D01*
%TO.N,inner_numbers*%
X182830000Y-41280000D02*
X180670000Y-41280000D01*
X179020000Y-49780000D02*
X182830000Y-45970000D01*
X182830000Y-45970000D02*
X182830000Y-41280000D01*
X175745000Y-52230000D02*
X178195000Y-49780000D01*
X178195000Y-49780000D02*
X179020000Y-49780000D01*
%TO.N,P5*%
X177370000Y-60280000D02*
X175210000Y-60280000D01*
%TO.N,inner_top*%
X182830000Y-60280000D02*
X180670000Y-60280000D01*
X179020000Y-68780000D02*
X182830000Y-64970000D01*
X182830000Y-64970000D02*
X182830000Y-60280000D01*
X179020000Y-68780000D02*
X178195000Y-68780000D01*
X178195000Y-68780000D02*
X175745000Y-71230000D01*
%TO.N,P5*%
X158370000Y-57280000D02*
X156210000Y-57280000D01*
%TO.N,index_top*%
X163830000Y-57280000D02*
X161670000Y-57280000D01*
X160020000Y-65780000D02*
X163830000Y-61970000D01*
X163830000Y-61970000D02*
X163830000Y-57280000D01*
X160020000Y-65780000D02*
X159195000Y-65780000D01*
X159195000Y-65780000D02*
X156745000Y-68230000D01*
%TO.N,P5*%
X139370000Y-54280000D02*
X137210000Y-54280000D01*
%TO.N,middle_top*%
X144830000Y-54280000D02*
X142670000Y-54280000D01*
X141020000Y-62780000D02*
X144830000Y-58970000D01*
X144830000Y-58970000D02*
X144830000Y-54280000D01*
X141020000Y-62780000D02*
X140195000Y-62780000D01*
X140195000Y-62780000D02*
X137745000Y-65230000D01*
%TO.N,P5*%
X120370000Y-57280000D02*
X118210000Y-57280000D01*
%TO.N,ring_top*%
X125830000Y-57280000D02*
X123670000Y-57280000D01*
X122020000Y-65780000D02*
X125830000Y-61970000D01*
X125830000Y-61970000D02*
X125830000Y-57280000D01*
X122020000Y-65780000D02*
X121195000Y-65780000D01*
X121195000Y-65780000D02*
X118745000Y-68230000D01*
%TO.N,pinky_top*%
X103020000Y-70780000D02*
X106830000Y-66970000D01*
X106830000Y-66970000D02*
X106830000Y-62280000D01*
X103020000Y-70780000D02*
X102195000Y-70780000D01*
X102195000Y-70780000D02*
X99745000Y-73230000D01*
X104670000Y-62280000D02*
X106830000Y-62280000D01*
%TO.N,P5*%
X99210000Y-62280000D02*
X101370000Y-62280000D01*
X82370000Y-62280000D02*
X80210000Y-62280000D01*
%TO.N,command_top*%
X87830000Y-62280000D02*
X85670000Y-62280000D01*
X84020000Y-70780000D02*
X87830000Y-66970000D01*
X87830000Y-66970000D02*
X87830000Y-62280000D01*
X80745000Y-73230000D02*
X83195000Y-70780000D01*
X83195000Y-70780000D02*
X84020000Y-70780000D01*
%TO.N,P6*%
X63370000Y-81280000D02*
X61210000Y-81280000D01*
%TO.N,macro_home*%
X68830000Y-81280000D02*
X66670000Y-81280000D01*
X65020000Y-89780000D02*
X68830000Y-85970000D01*
X68830000Y-85970000D02*
X68830000Y-81280000D01*
X65020000Y-89780000D02*
X64195000Y-89780000D01*
X64195000Y-89780000D02*
X61745000Y-92230000D01*
%TO.N,P10*%
X63370000Y-100280000D02*
X61210000Y-100280000D01*
%TO.N,macro_bottom*%
X68830000Y-100280000D02*
X66670000Y-100280000D01*
X65020000Y-108780000D02*
X68830000Y-104970000D01*
X68830000Y-104970000D02*
X68830000Y-100280000D01*
X65020000Y-108780000D02*
X64195000Y-108780000D01*
X64195000Y-108780000D02*
X61745000Y-111230000D01*
%TO.N,P10*%
X82370000Y-100280000D02*
X80210000Y-100280000D01*
%TO.N,command_bottom*%
X87830000Y-100280000D02*
X85670000Y-100280000D01*
X84020000Y-108780000D02*
X87830000Y-104970000D01*
X87830000Y-104970000D02*
X87830000Y-100280000D01*
X84020000Y-108780000D02*
X83195000Y-108780000D01*
X83195000Y-108780000D02*
X80745000Y-111230000D01*
%TO.N,P10*%
X101370000Y-100280000D02*
X99210000Y-100280000D01*
%TO.N,pinky_bottom*%
X106830000Y-100280000D02*
X104670000Y-100280000D01*
X103020000Y-108780000D02*
X106830000Y-104970000D01*
X106830000Y-104970000D02*
X106830000Y-100280000D01*
X99745000Y-111230000D02*
X102195000Y-108780000D01*
X102195000Y-108780000D02*
X103020000Y-108780000D01*
%TO.N,P10*%
X120370000Y-95280000D02*
X118210000Y-95280000D01*
%TO.N,ring_bottom*%
X123670000Y-95280000D02*
X125830000Y-95280000D01*
X122020000Y-103780000D02*
X125830000Y-99970000D01*
X125830000Y-99970000D02*
X125830000Y-95280000D01*
X122020000Y-103780000D02*
X121195000Y-103780000D01*
X121195000Y-103780000D02*
X118745000Y-106230000D01*
%TO.N,P10*%
X137210000Y-92280000D02*
X139370000Y-92280000D01*
%TO.N,middle_bottom*%
X142670000Y-92280000D02*
X144830000Y-92280000D01*
X141020000Y-100780000D02*
X144830000Y-96970000D01*
X144830000Y-96970000D02*
X144830000Y-92280000D01*
X137745000Y-103230000D02*
X140195000Y-100780000D01*
X140195000Y-100780000D02*
X141020000Y-100780000D01*
%TO.N,P10*%
X158370000Y-95280000D02*
X156210000Y-95280000D01*
%TO.N,index_bottom*%
X163830000Y-95280000D02*
X161670000Y-95280000D01*
X160020000Y-103780000D02*
X163830000Y-99970000D01*
X163830000Y-99970000D02*
X163830000Y-95280000D01*
X156745000Y-106230000D02*
X159195000Y-103780000D01*
X159195000Y-103780000D02*
X160020000Y-103780000D01*
%TO.N,P10*%
X177370000Y-98280000D02*
X175210000Y-98280000D01*
%TO.N,inner_bottom*%
X182830000Y-98280000D02*
X180670000Y-98280000D01*
X179020000Y-106780000D02*
X182830000Y-102970000D01*
X182830000Y-102970000D02*
X182830000Y-98280000D01*
X179020000Y-106780000D02*
X178195000Y-106780000D01*
X178195000Y-106780000D02*
X175745000Y-109230000D01*
%TO.N,P7*%
X202220443Y-123044873D02*
X203011058Y-123044873D01*
X203011058Y-123044873D02*
X204091058Y-124124873D01*
%TO.N,far_thumb*%
X208819557Y-126854873D02*
X208028942Y-126854873D01*
X208028942Y-126854873D02*
X206948942Y-125774873D01*
X201270000Y-132311089D02*
X203363341Y-132311089D01*
X203363341Y-132311089D02*
X208819557Y-126854873D01*
X197208767Y-132795351D02*
X197693029Y-132311089D01*
X197693029Y-132311089D02*
X201270000Y-132311089D01*
%TO.N,P8*%
X193091058Y-143177432D02*
X192300443Y-143177432D01*
X192300443Y-143177432D02*
X191220443Y-142097432D01*
%TO.N,near_thumb*%
X197819557Y-145907432D02*
X197028942Y-145907432D01*
X197028942Y-145907432D02*
X195948942Y-144827432D01*
X190270000Y-151363648D02*
X192363341Y-151363648D01*
X192363341Y-151363648D02*
X197819557Y-145907432D01*
X186208767Y-151847910D02*
X186693029Y-151363648D01*
X186693029Y-151363648D02*
X190270000Y-151363648D01*
%TO.N,P7*%
X82370000Y-119280000D02*
X80210000Y-119280000D01*
%TO.N,ctrl_thumb*%
X87830000Y-119280000D02*
X85670000Y-119280000D01*
X84020000Y-127780000D02*
X87830000Y-123970000D01*
X87830000Y-123970000D02*
X87830000Y-119280000D01*
X84020000Y-127780000D02*
X83195000Y-127780000D01*
X83195000Y-127780000D02*
X80745000Y-130230000D01*
%TO.N,P7*%
X101370000Y-119280000D02*
X99210000Y-119280000D01*
%TO.N,meta_thumb*%
X106830000Y-119280000D02*
X104670000Y-119280000D01*
X103020000Y-127780000D02*
X106830000Y-123970000D01*
X106830000Y-123970000D02*
X106830000Y-119280000D01*
X103020000Y-127780000D02*
X102195000Y-127780000D01*
X102195000Y-127780000D02*
X99745000Y-130230000D01*
%TO.N,P7*%
X120370000Y-116280000D02*
X118210000Y-116280000D01*
%TO.N,alt_thumb*%
X125830000Y-116280000D02*
X123670000Y-116280000D01*
X122020000Y-124780000D02*
X125830000Y-120970000D01*
X125830000Y-120970000D02*
X125830000Y-116280000D01*
X122020000Y-124780000D02*
X121195000Y-124780000D01*
X121195000Y-124780000D02*
X118745000Y-127230000D01*
%TO.N,P7*%
X139370000Y-113280000D02*
X137210000Y-113280000D01*
%TO.N,fn_thumb*%
X144830000Y-113280000D02*
X142670000Y-113280000D01*
X141020000Y-121780000D02*
X144830000Y-117970000D01*
X144830000Y-117970000D02*
X144830000Y-113280000D01*
X137745000Y-124230000D02*
X140195000Y-121780000D01*
X140195000Y-121780000D02*
X141020000Y-121780000D01*
%TO.N,P7*%
X158370000Y-116280000D02*
X156210000Y-116280000D01*
%TO.N,index_thumb*%
X161670000Y-116280000D02*
X163830000Y-116280000D01*
X160020000Y-124780000D02*
X163830000Y-120970000D01*
X163830000Y-120970000D02*
X163830000Y-116280000D01*
X156745000Y-127230000D02*
X159195000Y-124780000D01*
X159195000Y-124780000D02*
X160020000Y-124780000D01*
%TO.N,P7*%
X175210000Y-119280000D02*
X177370000Y-119280000D01*
%TO.N,inner_thumb*%
X180670000Y-119280000D02*
X182830000Y-119280000D01*
X179020000Y-127780000D02*
X182830000Y-123970000D01*
X182830000Y-123970000D02*
X182830000Y-119280000D01*
X175745000Y-130230000D02*
X178195000Y-127780000D01*
X178195000Y-127780000D02*
X179020000Y-127780000D01*
%TO.N,P9*%
X187770000Y-155693775D02*
X188543638Y-156467413D01*
X188543638Y-156467413D02*
X196561601Y-156467413D01*
X196561601Y-156467413D02*
X197311360Y-155717654D01*
X198770000Y-136641216D02*
X202243386Y-140114602D01*
X202243386Y-140114602D02*
X205261795Y-140114602D01*
X197311360Y-155717654D02*
X204911845Y-148117169D01*
X204911845Y-148117169D02*
X204911845Y-140464552D01*
X204911845Y-140464552D02*
X205261795Y-140114602D01*
X205261795Y-139714660D02*
X208311360Y-136665095D01*
X205261795Y-140114602D02*
X205261795Y-139714660D01*
%TO.N,P21*%
X185081406Y-132780000D02*
X185084057Y-132782651D01*
X179020000Y-132780000D02*
X185081406Y-132780000D01*
X187295000Y-130571708D02*
X187295000Y-128030000D01*
X185084057Y-132782651D02*
X187295000Y-130571708D01*
X187295000Y-107030000D02*
X187295000Y-111726574D01*
X187295000Y-111726574D02*
X187295000Y-128030000D01*
X179020000Y-111780000D02*
X187241574Y-111780000D01*
X187241574Y-111780000D02*
X187295000Y-111726574D01*
X187295000Y-88030000D02*
X187295000Y-92770952D01*
X187295000Y-92770952D02*
X187295000Y-107030000D01*
X179020000Y-92780000D02*
X187285952Y-92780000D01*
X187285952Y-92780000D02*
X187295000Y-92770952D01*
X187295000Y-69030000D02*
X187295000Y-73745892D01*
X187295000Y-73745892D02*
X187295000Y-88030000D01*
X179020000Y-73780000D02*
X187260892Y-73780000D01*
X187260892Y-73780000D02*
X187295000Y-73745892D01*
X187295000Y-50030000D02*
X187295000Y-54755550D01*
X179020000Y-54780000D02*
X187270550Y-54780000D01*
X187295000Y-54755550D02*
X187295000Y-69030000D01*
X187270550Y-54780000D02*
X187295000Y-54755550D01*
%TO.N,P20*%
X160020000Y-129780000D02*
X166073370Y-129780000D01*
X166073370Y-129780000D02*
X168295000Y-127558370D01*
X168295000Y-127558370D02*
X168295000Y-125030000D01*
X168295000Y-104030000D02*
X168295000Y-108746517D01*
X168261517Y-108780000D02*
X168295000Y-108746517D01*
X168295000Y-108746517D02*
X168295000Y-125030000D01*
X160020000Y-108780000D02*
X168261517Y-108780000D01*
X168295000Y-85030000D02*
X168295000Y-89767749D01*
X168295000Y-89767749D02*
X168295000Y-104030000D01*
X160020000Y-89780000D02*
X168282749Y-89780000D01*
X168282749Y-89780000D02*
X168295000Y-89767749D01*
X168295000Y-66030000D02*
X168295000Y-70788979D01*
X168295000Y-70788979D02*
X168295000Y-85030000D01*
X160020000Y-70780000D02*
X168286021Y-70780000D01*
X168286021Y-70780000D02*
X168295000Y-70788979D01*
X168295000Y-47030000D02*
X168295000Y-51723417D01*
X168295000Y-51723417D02*
X168295000Y-66030000D01*
X160020000Y-51780000D02*
X168238417Y-51780000D01*
X168238417Y-51780000D02*
X168295000Y-51723417D01*
%TO.N,P19*%
X141020000Y-126780000D02*
X147082678Y-126780000D01*
X147082678Y-126780000D02*
X149295000Y-124567678D01*
X149295000Y-124567678D02*
X149295000Y-122030000D01*
X149295000Y-101030000D02*
X149295000Y-105731158D01*
X141020000Y-105780000D02*
X149246158Y-105780000D01*
X149295000Y-105731158D02*
X149295000Y-122030000D01*
X149246158Y-105780000D02*
X149295000Y-105731158D01*
X149295000Y-82030000D02*
X149295000Y-86775535D01*
X149295000Y-86775535D02*
X149295000Y-101030000D01*
X141020000Y-86780000D02*
X149290535Y-86780000D01*
X149290535Y-86780000D02*
X149295000Y-86775535D01*
X149295000Y-63030000D02*
X149295000Y-67736589D01*
X149295000Y-67736589D02*
X149295000Y-82030000D01*
X141020000Y-67780000D02*
X149251589Y-67780000D01*
X149251589Y-67780000D02*
X149295000Y-67736589D01*
X149295000Y-44030000D02*
X149295000Y-48780964D01*
X149295000Y-48780964D02*
X149295000Y-63030000D01*
X141020000Y-48780000D02*
X149294036Y-48780000D01*
X149294036Y-48780000D02*
X149295000Y-48780964D01*
%TO.N,P18*%
X122020000Y-129780000D02*
X128020484Y-129780000D01*
X128020484Y-129780000D02*
X130295000Y-127505484D01*
X130295000Y-127505484D02*
X130295000Y-125030000D01*
X130295000Y-104030000D02*
X130295000Y-108791552D01*
X130283448Y-108780000D02*
X130295000Y-108791552D01*
X130295000Y-108791552D02*
X130295000Y-125030000D01*
X122020000Y-108780000D02*
X130283448Y-108780000D01*
X130295000Y-85030000D02*
X130295000Y-89769387D01*
X130295000Y-89769387D02*
X130295000Y-104030000D01*
X122020000Y-89780000D02*
X130284387Y-89780000D01*
X130284387Y-89780000D02*
X130295000Y-89769387D01*
X130295000Y-66030000D02*
X130295000Y-70747221D01*
X130295000Y-70747221D02*
X130295000Y-85030000D01*
X122020000Y-70780000D02*
X130262221Y-70780000D01*
X130262221Y-70780000D02*
X130295000Y-70747221D01*
X130295000Y-47030000D02*
X130295000Y-51749165D01*
X130295000Y-51749165D02*
X130295000Y-66030000D01*
X122020000Y-51780000D02*
X130264165Y-51780000D01*
X130264165Y-51780000D02*
X130295000Y-51749165D01*
%TO.N,P15*%
X108980807Y-132780000D02*
X108984804Y-132783997D01*
X103020000Y-132780000D02*
X108980807Y-132780000D01*
X108984804Y-132783997D02*
X111295000Y-130473801D01*
X111295000Y-130473801D02*
X111295000Y-128030000D01*
X111295000Y-109030000D02*
X111295000Y-113748479D01*
X111295000Y-113748479D02*
X111295000Y-128030000D01*
X103020000Y-113780000D02*
X111263479Y-113780000D01*
X111263479Y-113780000D02*
X111295000Y-113748479D01*
X111295000Y-90030000D02*
X111295000Y-94774533D01*
X103020000Y-94780000D02*
X111289533Y-94780000D01*
X111295000Y-94774533D02*
X111295000Y-109030000D01*
X111289533Y-94780000D02*
X111295000Y-94774533D01*
X111295000Y-71030000D02*
X111295000Y-75752367D01*
X111295000Y-75752367D02*
X111295000Y-90030000D01*
X103020000Y-75780000D02*
X111267367Y-75780000D01*
X111267367Y-75780000D02*
X111295000Y-75752367D01*
X111295000Y-52030000D02*
X111295000Y-56778419D01*
X111295000Y-56778419D02*
X111295000Y-71030000D01*
X103020000Y-56780000D02*
X111293419Y-56780000D01*
X111293419Y-56780000D02*
X111295000Y-56778419D01*
%TO.N,P14*%
X92295000Y-52030000D02*
X92295000Y-56774931D01*
X92295000Y-56774931D02*
X92295000Y-71030000D01*
X84020000Y-56780000D02*
X92289931Y-56780000D01*
X92289931Y-56780000D02*
X92295000Y-56774931D01*
X92295000Y-71030000D02*
X92295000Y-75813877D01*
X92295000Y-75813877D02*
X92295000Y-90030000D01*
X84020000Y-75780000D02*
X92261123Y-75780000D01*
X92261123Y-75780000D02*
X92295000Y-75813877D01*
X92295000Y-90030000D02*
X92295000Y-94727840D01*
X92295000Y-94727840D02*
X92295000Y-109030000D01*
X84020000Y-94780000D02*
X92242840Y-94780000D01*
X92242840Y-94780000D02*
X92295000Y-94727840D01*
X90187558Y-132780000D02*
X90190708Y-132783150D01*
X84020000Y-132780000D02*
X90187558Y-132780000D01*
X90190708Y-132783150D02*
X92295000Y-130678858D01*
X92295000Y-130678858D02*
X92295000Y-128030000D01*
X92295000Y-109030000D02*
X92295000Y-113716964D01*
X92295000Y-113716964D02*
X92295000Y-128030000D01*
X84020000Y-113780000D02*
X92231964Y-113780000D01*
X92231964Y-113780000D02*
X92295000Y-113716964D01*
%TO.N,P16*%
X70815288Y-113780000D02*
X70816982Y-113781694D01*
X65020000Y-113780000D02*
X70815288Y-113780000D01*
X70816982Y-113781694D02*
X73295000Y-111303676D01*
X73295000Y-111303676D02*
X73295000Y-109030000D01*
X73295000Y-90030000D02*
X73295000Y-94826037D01*
X73248963Y-94780000D02*
X73295000Y-94826037D01*
X73295000Y-94826037D02*
X73295000Y-109030000D01*
X65020000Y-94780000D02*
X73248963Y-94780000D01*
X73295000Y-71030000D02*
X73295000Y-75748764D01*
X73295000Y-75748764D02*
X73295000Y-90030000D01*
X65020000Y-75780000D02*
X73263764Y-75780000D01*
X73263764Y-75780000D02*
X73295000Y-75748764D01*
X73295000Y-52030000D02*
X73295000Y-56611499D01*
X73295000Y-56611499D02*
X73295000Y-71030000D01*
X65020000Y-56780000D02*
X73126499Y-56780000D01*
X73126499Y-56780000D02*
X73295000Y-56611499D01*
X118258461Y-33666379D02*
X118254863Y-33662781D01*
X192400000Y-85710000D02*
X197257120Y-80852880D01*
X118254863Y-33662781D02*
X116973980Y-33662781D01*
X132286924Y-33666379D02*
X118258461Y-33666379D01*
X150260591Y-30178715D02*
X135774589Y-30178715D01*
X152905525Y-32823647D02*
X150260591Y-30178715D01*
X168746083Y-32823647D02*
X152905525Y-32823647D01*
X135774589Y-30178715D02*
X132286924Y-33666379D01*
X193177959Y-39653799D02*
X188823888Y-35299728D01*
X171222166Y-35299728D02*
X168746083Y-32823647D01*
X188823888Y-35299728D02*
X171222166Y-35299728D01*
X193177959Y-52032864D02*
X193177959Y-39653799D01*
X197257120Y-80852880D02*
X197257120Y-56112026D01*
X197257120Y-56112026D02*
X193177959Y-52032864D01*
X116973980Y-33662781D02*
X111539901Y-39096859D01*
X111539901Y-39096859D02*
X95500000Y-39096859D01*
X95500000Y-39096859D02*
X95495917Y-39092776D01*
X95495917Y-39092776D02*
X75207176Y-39092776D01*
X75207176Y-39092776D02*
X75203253Y-39088853D01*
X75203253Y-39088853D02*
X73295000Y-40997106D01*
X73295000Y-40997106D02*
X73295000Y-52030000D01*
%TO.N,P14*%
X192400000Y-83170000D02*
X196807600Y-78762400D01*
X94119615Y-39546379D02*
X94115532Y-39542296D01*
X196807600Y-78762400D02*
X196807600Y-56298224D01*
X196807600Y-56298224D02*
X192728439Y-52219062D01*
X192728439Y-52219062D02*
X192728439Y-39839996D01*
X192728439Y-39839996D02*
X188637691Y-35749248D01*
X188637691Y-35749248D02*
X171035968Y-35749248D01*
X171035968Y-35749248D02*
X168559886Y-33273167D01*
X168559886Y-33273167D02*
X152719327Y-33273167D01*
X152719327Y-33273167D02*
X150074394Y-30628235D01*
X117869026Y-34112301D02*
X117160177Y-34112301D01*
X150074394Y-30628235D02*
X135960786Y-30628235D01*
X111726099Y-39546379D02*
X94119615Y-39546379D01*
X135960786Y-30628235D02*
X132473122Y-34115899D01*
X132473122Y-34115899D02*
X117872624Y-34115899D01*
X117872624Y-34115899D02*
X117869026Y-34112301D01*
X117160177Y-34112301D02*
X111726099Y-39546379D01*
X94115532Y-39542296D02*
X92295000Y-41362828D01*
X92295000Y-41362828D02*
X92295000Y-52030000D01*
%TO.N,P15*%
X117349973Y-34565419D02*
X117346375Y-34561821D01*
X132659319Y-34565419D02*
X117349973Y-34565419D01*
X196358080Y-76671920D02*
X196358080Y-56484421D01*
X136146983Y-31077755D02*
X132659319Y-34565419D01*
X149888196Y-31077755D02*
X136146983Y-31077755D01*
X168373689Y-33722687D02*
X152533129Y-33722687D01*
X170849770Y-36198768D02*
X168373689Y-33722687D01*
X188451494Y-36198768D02*
X170849770Y-36198768D01*
X152533129Y-33722687D02*
X149888196Y-31077755D01*
X192278919Y-40026193D02*
X188451494Y-36198768D01*
X111295000Y-40613196D02*
X111295000Y-52030000D01*
X192278919Y-52405260D02*
X192278919Y-40026193D01*
X196358080Y-56484421D02*
X192278919Y-52405260D01*
X192400000Y-80630000D02*
X196358080Y-76671920D01*
X117346375Y-34561821D02*
X111295000Y-40613196D01*
%TO.N,P18*%
X138535703Y-31527275D02*
X138534899Y-31528079D01*
X138534899Y-31528079D02*
X136332377Y-31528079D01*
X149701999Y-31527275D02*
X138535703Y-31527275D01*
X136332377Y-31528079D02*
X130295000Y-37565456D01*
X130295000Y-37565456D02*
X130295000Y-47030000D01*
X192400000Y-78090000D02*
X195908560Y-74581440D01*
X195908560Y-74581440D02*
X195908560Y-56670618D01*
X195908560Y-56670618D02*
X191829399Y-52591457D01*
X191829399Y-52591457D02*
X191829399Y-40212390D01*
X191829399Y-40212390D02*
X188265297Y-36648288D01*
X188265297Y-36648288D02*
X170652419Y-36648288D01*
X170652419Y-36648288D02*
X169436673Y-35432542D01*
X152346931Y-34172207D02*
X149701999Y-31527275D01*
X169436673Y-35432542D02*
X169436673Y-35421388D01*
X169436673Y-35421388D02*
X168187492Y-34172207D01*
X168187492Y-34172207D02*
X152346931Y-34172207D01*
%TO.N,P19*%
X192400000Y-75550000D02*
X195459040Y-72490960D01*
X151163424Y-34621727D02*
X149295000Y-36490151D01*
X195459040Y-72490960D02*
X195459040Y-56922605D01*
X195459040Y-56922605D02*
X191379879Y-52843443D01*
X188079100Y-37097808D02*
X170466221Y-37097808D01*
X191379879Y-52843443D02*
X191379879Y-40398587D01*
X168001295Y-34632882D02*
X168001295Y-34621727D01*
X191379879Y-40398587D02*
X188079100Y-37097808D01*
X170466221Y-37097808D02*
X168001295Y-34632882D01*
X168001295Y-34621727D02*
X151163424Y-34621727D01*
X149295000Y-36490151D02*
X149295000Y-44030000D01*
%TO.N,P20*%
X192400000Y-73010000D02*
X195009520Y-70400480D01*
X170141726Y-37547328D02*
X168295000Y-39394054D01*
X195009520Y-70400480D02*
X195009520Y-57108802D01*
X195009520Y-57108802D02*
X190930359Y-53029641D01*
X190930359Y-53029641D02*
X190930359Y-40584784D01*
X190930359Y-40584784D02*
X187892903Y-37547328D01*
X187892903Y-37547328D02*
X170141726Y-37547328D01*
X168295000Y-39394054D02*
X168295000Y-47030000D01*
%TO.N,P21*%
X193810000Y-70470000D02*
X194560000Y-69720000D01*
X194560000Y-57295000D02*
X187295000Y-50030000D01*
X192400000Y-70470000D02*
X193810000Y-70470000D01*
X194560000Y-69720000D02*
X194560000Y-57295000D01*
%TO.N,P3*%
X201820000Y-104280000D02*
X202629520Y-103470480D01*
X202629520Y-103470480D02*
X202629520Y-74800000D01*
X202629520Y-74800000D02*
X204419520Y-73010000D01*
X204419520Y-73010000D02*
X207640000Y-73010000D01*
%TO.N,P2*%
X202180000Y-99920000D02*
X202180000Y-72260000D01*
X197820000Y-104280000D02*
X202180000Y-99920000D01*
X202180000Y-72260000D02*
X203970000Y-70470000D01*
X203970000Y-70470000D02*
X207640000Y-70470000D01*
%TO.N,GND*%
X207270000Y-98280000D02*
X207270000Y-101830000D01*
X207270000Y-101830000D02*
X204820000Y-104280000D01*
X204820000Y-111280000D02*
X204820000Y-104280000D01*
%TO.N,P3*%
X201820000Y-111280000D02*
X201820000Y-104280000D01*
%TO.N,P2*%
X197820000Y-111280000D02*
X198710314Y-111280000D01*
X198710314Y-111280000D02*
X200544521Y-109445793D01*
X200544521Y-109445793D02*
X200544521Y-106114207D01*
X200544521Y-106114207D02*
X198710314Y-104280000D01*
X198710314Y-104280000D02*
X197820000Y-104280000D01*
%TO.N,VCC*%
X196720000Y-108880000D02*
X196720000Y-106680000D01*
X192400000Y-67930000D02*
X193600811Y-66729189D01*
X193600811Y-66729189D02*
X193600811Y-64892607D01*
X193600811Y-64892607D02*
X192889485Y-64181281D01*
X190154015Y-65605964D02*
X190154015Y-92932841D01*
X192889485Y-64181281D02*
X191578698Y-64181281D01*
X191578698Y-64181281D02*
X190154015Y-65605964D01*
X190154015Y-92932841D02*
X195788282Y-98567107D01*
X195788282Y-98567107D02*
X195788282Y-105748282D01*
X195788282Y-105748282D02*
X196720000Y-106680000D01*
%TO.N,RST*%
X190603535Y-92746643D02*
X196136892Y-98280000D01*
X196136892Y-98280000D02*
X200770000Y-98280000D01*
X190603535Y-65792162D02*
X190603535Y-92746643D01*
X192400000Y-65390000D02*
X191005697Y-65390000D01*
X191005697Y-65390000D02*
X190603535Y-65792162D01*
%TO.N,GND*%
X207640000Y-65390000D02*
X207640000Y-67930000D01*
%TD*%
M02*
