0
SECTION
2
HEADER
9
$INSUNITS
70
4
0
ENDSEC
0
SECTION
2
TABLES
0
TABLE
2
LTYPE
0
LTYPE
72
65
70
64
2
CONTINUOUS
3
______
73
0
40
0
0
ENDTAB
0
TABLE
2
LAYER
0
ENDTAB
0
ENDSEC
0
SECTION
2
ENTITIES
0
LINE
8
0
10
-9
20
-9.5
11
8
21
-9.5
0
LINE
8
0
10
-10
20
-8.5
11
-10
21
68.5
0
LINE
8
0
10
-9
20
69.5
11
46
21
69.5
0
LINE
8
0
10
48
20
74.5
11
65
21
74.5
0
LINE
8
0
10
47
20
70.5
11
47
21
73.5
0
LINE
8
0
10
67
20
77.5
11
96
21
77.5
0
LINE
8
0
10
97
20
76.5
11
97
21
75.5
0
LINE
8
0
10
66
20
75.5
11
66
21
76.5
0
LINE
8
0
10
98
20
74.5
11
115
21
74.5
0
LINE
8
0
10
116
20
73.5
11
116
21
72.5
0
LINE
8
0
10
145
20
-6.5
11
145
21
48.5
0
LINE
8
0
10
144
20
-7.5
11
138.1532124
21
-7.5
0
LINE
8
0
10
136
20
49.5
11
144
21
49.5
0
LINE
8
0
10
117
20
71.5
11
134
21
71.5
0
LINE
8
0
10
135
20
50.5
11
135
21
70.5
0
LINE
8
0
10
86
20
-25.5
11
103
21
-25.5
0
LINE
8
0
10
85
20
-24.5
11
85
21
-23.5
0
LINE
8
0
10
105
20
-28.5
11
118.6587661
21
-28.5
0
LINE
8
0
10
104
20
-27.5
11
104
21
-26.5
0
LINE
8
0
10
137.6532124
20
-9.3660254
11
154.6423048
21
-19.1746825
0
LINE
8
0
10
144.5083302
20
-38.7272413
11
155.0083302
21
-20.5407079
0
LINE
8
0
10
134.0083302
20
-56.9137748
11
144.5083302
21
-38.7272414
0
LINE
8
0
10
111.8576952
20
-45.2798002
11
132.6423048
21
-57.2798002
0
LINE
8
0
10
111.4916698
20
-43.9137748
11
119.5247915
21
-30
0
LINE
8
0
10
10
20
-28.5
11
47
21
-28.5
0
LINE
8
0
10
9
20
-27.5
11
9
21
-10.5
0
LINE
8
0
10
48
20
-26.5
11
48
21
-27.5
0
LINE
8
0
10
67
20
-23.5
11
67
21
-24.5
0
LINE
8
0
10
49
20
-25.5
11
66
21
-25.5
0
LINE
8
0
10
68
20
-22.5
11
84
21
-22.5
0
ARC
8
0
10
8
20
-10.5
40
1
50
0
51
90
0
ARC
8
0
10
10
20
-27.5
40
1
50
180
51
270
0
ARC
8
0
10
47
20
-27.5
40
1
50
270
51
0
0
ARC
8
0
10
49
20
-26.5
40
1
50
90
51
180
0
ARC
8
0
10
66
20
-24.5
40
1
50
270
51
0
0
ARC
8
0
10
68
20
-23.5
40
1
50
90
51
180
0
ARC
8
0
10
84
20
-23.5
40
1
50
0
51
90
0
ARC
8
0
10
86
20
-24.5
40
1
50
180
51
270
0
ARC
8
0
10
103
20
-26.5
40
1
50
0
51
90
0
ARC
8
0
10
105
20
-27.5
40
1
50
180
51
270
0
ARC
8
0
10
118.6587661
20
-29.5
40
1
50
329.9999999
51
90
0
ARC
8
0
10
112.3576952
20
-44.4137748
40
1
50
149.9999999
51
239.9999999
0
ARC
8
0
10
133.1423048
20
-56.4137748
40
1
50
239.9999999
51
329.9999999
0
ARC
8
0
10
154.1423048
20
-20.0407079
40
1
50
329.9999999
51
59.9999999
0
ARC
8
0
10
138.1532124
20
-8.5
40
1
50
90
51
239.9999999
0
ARC
8
0
10
144
20
-6.5
40
1
50
270
51
0
0
ARC
8
0
10
144
20
48.5
40
1
50
0
51
90
0
ARC
8
0
10
136
20
50.5
40
1
50
180
51
270
0
ARC
8
0
10
134
20
70.5
40
1
50
0
51
90
0
ARC
8
0
10
117
20
72.5
40
1
50
180
51
270
0
ARC
8
0
10
115
20
73.5
40
1
50
0
51
90
0
ARC
8
0
10
98
20
75.5
40
1
50
180
51
270
0
ARC
8
0
10
96
20
76.5
40
1
50
0
51
90
0
ARC
8
0
10
67
20
76.5
40
1
50
90
51
180
0
ARC
8
0
10
65
20
75.5
40
1
50
270
51
0
0
ARC
8
0
10
48
20
73.5
40
1
50
90
51
180
0
ARC
8
0
10
46
20
70.5
40
1
50
270
51
0
0
ARC
8
0
10
-9
20
68.5
40
1
50
90
51
180
0
ARC
8
0
10
-9
20
-8.5
40
1
50
180
51
270
0
ENDSEC
0
EOF