0
SECTION
2
HEADER
9
$INSUNITS
70
4
0
ENDSEC
0
SECTION
2
TABLES
0
TABLE
2
LTYPE
0
LTYPE
72
65
70
64
2
CONTINUOUS
3
______
73
0
40
0
0
ENDTAB
0
TABLE
2
LAYER
0
ENDTAB
0
ENDSEC
0
SECTION
2
ENTITIES
0
LINE
8
0
10
-8.75
20
-8.25
11
8.75
21
-8.25
0
LINE
8
0
10
8.75
20
-8.25
11
8.75
21
8.25
0
LINE
8
0
10
8.75
20
8.25
11
-8.75
21
8.25
0
LINE
8
0
10
-8.75
20
8.25
11
-8.75
21
-8.25
0
LINE
8
0
10
-8.75
20
10.75
11
8.75
21
10.75
0
LINE
8
0
10
8.75
20
10.75
11
8.75
21
27.25
0
LINE
8
0
10
8.75
20
27.25
11
-8.75
21
27.25
0
LINE
8
0
10
-8.75
20
27.25
11
-8.75
21
10.75
0
LINE
8
0
10
-8.75
20
29.75
11
8.75
21
29.75
0
LINE
8
0
10
8.75
20
29.75
11
8.75
21
46.25
0
LINE
8
0
10
8.75
20
46.25
11
-8.75
21
46.25
0
LINE
8
0
10
-8.75
20
46.25
11
-8.75
21
29.75
0
LINE
8
0
10
-8.75
20
48.75
11
8.75
21
48.75
0
LINE
8
0
10
8.75
20
48.75
11
8.75
21
65.25
0
LINE
8
0
10
8.75
20
65.25
11
-8.75
21
65.25
0
LINE
8
0
10
-8.75
20
65.25
11
-8.75
21
48.75
0
LINE
8
0
10
10.25
20
-8.25
11
27.75
21
-8.25
0
LINE
8
0
10
27.75
20
-8.25
11
27.75
21
8.25
0
LINE
8
0
10
27.75
20
8.25
11
10.25
21
8.25
0
LINE
8
0
10
10.25
20
8.25
11
10.25
21
-8.25
0
LINE
8
0
10
10.25
20
10.75
11
27.75
21
10.75
0
LINE
8
0
10
27.75
20
10.75
11
27.75
21
27.25
0
LINE
8
0
10
27.75
20
27.25
11
10.25
21
27.25
0
LINE
8
0
10
10.25
20
27.25
11
10.25
21
10.75
0
LINE
8
0
10
10.25
20
29.75
11
27.75
21
29.75
0
LINE
8
0
10
27.75
20
29.75
11
27.75
21
46.25
0
LINE
8
0
10
27.75
20
46.25
11
10.25
21
46.25
0
LINE
8
0
10
10.25
20
46.25
11
10.25
21
29.75
0
LINE
8
0
10
10.25
20
48.75
11
27.75
21
48.75
0
LINE
8
0
10
27.75
20
48.75
11
27.75
21
65.25
0
LINE
8
0
10
27.75
20
65.25
11
10.25
21
65.25
0
LINE
8
0
10
10.25
20
65.25
11
10.25
21
48.75
0
LINE
8
0
10
29.25
20
-8.25
11
46.75
21
-8.25
0
LINE
8
0
10
46.75
20
-8.25
11
46.75
21
8.25
0
LINE
8
0
10
46.75
20
8.25
11
29.25
21
8.25
0
LINE
8
0
10
29.25
20
8.25
11
29.25
21
-8.25
0
LINE
8
0
10
29.25
20
10.75
11
46.75
21
10.75
0
LINE
8
0
10
46.75
20
10.75
11
46.75
21
27.25
0
LINE
8
0
10
46.75
20
27.25
11
29.25
21
27.25
0
LINE
8
0
10
29.25
20
27.25
11
29.25
21
10.75
0
LINE
8
0
10
29.25
20
29.75
11
46.75
21
29.75
0
LINE
8
0
10
46.75
20
29.75
11
46.75
21
46.25
0
LINE
8
0
10
46.75
20
46.25
11
29.25
21
46.25
0
LINE
8
0
10
29.25
20
46.25
11
29.25
21
29.75
0
LINE
8
0
10
29.25
20
48.75
11
46.75
21
48.75
0
LINE
8
0
10
46.75
20
48.75
11
46.75
21
65.25
0
LINE
8
0
10
46.75
20
65.25
11
29.25
21
65.25
0
LINE
8
0
10
29.25
20
65.25
11
29.25
21
48.75
0
LINE
8
0
10
48.25
20
-3.25
11
65.75
21
-3.25
0
LINE
8
0
10
65.75
20
-3.25
11
65.75
21
13.25
0
LINE
8
0
10
65.75
20
13.25
11
48.25
21
13.25
0
LINE
8
0
10
48.25
20
13.25
11
48.25
21
-3.25
0
LINE
8
0
10
48.25
20
15.75
11
65.75
21
15.75
0
LINE
8
0
10
65.75
20
15.75
11
65.75
21
32.25
0
LINE
8
0
10
65.75
20
32.25
11
48.25
21
32.25
0
LINE
8
0
10
48.25
20
32.25
11
48.25
21
15.75
0
LINE
8
0
10
48.25
20
34.75
11
65.75
21
34.75
0
LINE
8
0
10
65.75
20
34.75
11
65.75
21
51.25
0
LINE
8
0
10
65.75
20
51.25
11
48.25
21
51.25
0
LINE
8
0
10
48.25
20
51.25
11
48.25
21
34.75
0
LINE
8
0
10
48.25
20
53.75
11
65.75
21
53.75
0
LINE
8
0
10
65.75
20
53.75
11
65.75
21
70.25
0
LINE
8
0
10
65.75
20
70.25
11
48.25
21
70.25
0
LINE
8
0
10
48.25
20
70.25
11
48.25
21
53.75
0
LINE
8
0
10
67.25
20
-0.25
11
84.75
21
-0.25
0
LINE
8
0
10
84.75
20
-0.25
11
84.75
21
16.25
0
LINE
8
0
10
84.75
20
16.25
11
67.25
21
16.25
0
LINE
8
0
10
67.25
20
16.25
11
67.25
21
-0.25
0
LINE
8
0
10
67.25
20
18.75
11
84.75
21
18.75
0
LINE
8
0
10
84.75
20
18.75
11
84.75
21
35.25
0
LINE
8
0
10
84.75
20
35.25
11
67.25
21
35.25
0
LINE
8
0
10
67.25
20
35.25
11
67.25
21
18.75
0
LINE
8
0
10
67.25
20
37.75
11
84.75
21
37.75
0
LINE
8
0
10
84.75
20
37.75
11
84.75
21
54.25
0
LINE
8
0
10
84.75
20
54.25
11
67.25
21
54.25
0
LINE
8
0
10
67.25
20
54.25
11
67.25
21
37.75
0
LINE
8
0
10
67.25
20
56.75
11
84.75
21
56.75
0
LINE
8
0
10
84.75
20
56.75
11
84.75
21
73.25
0
LINE
8
0
10
84.75
20
73.25
11
67.25
21
73.25
0
LINE
8
0
10
67.25
20
73.25
11
67.25
21
56.75
0
LINE
8
0
10
86.25
20
-3.25
11
103.75
21
-3.25
0
LINE
8
0
10
103.75
20
-3.25
11
103.75
21
13.25
0
LINE
8
0
10
103.75
20
13.25
11
86.25
21
13.25
0
LINE
8
0
10
86.25
20
13.25
11
86.25
21
-3.25
0
LINE
8
0
10
86.25
20
15.75
11
103.75
21
15.75
0
LINE
8
0
10
103.75
20
15.75
11
103.75
21
32.25
0
LINE
8
0
10
103.75
20
32.25
11
86.25
21
32.25
0
LINE
8
0
10
86.25
20
32.25
11
86.25
21
15.75
0
LINE
8
0
10
86.25
20
34.75
11
103.75
21
34.75
0
LINE
8
0
10
103.75
20
34.75
11
103.75
21
51.25
0
LINE
8
0
10
103.75
20
51.25
11
86.25
21
51.25
0
LINE
8
0
10
86.25
20
51.25
11
86.25
21
34.75
0
LINE
8
0
10
86.25
20
53.75
11
103.75
21
53.75
0
LINE
8
0
10
103.75
20
53.75
11
103.75
21
70.25
0
LINE
8
0
10
103.75
20
70.25
11
86.25
21
70.25
0
LINE
8
0
10
86.25
20
70.25
11
86.25
21
53.75
0
LINE
8
0
10
105.25
20
-6.25
11
122.75
21
-6.25
0
LINE
8
0
10
122.75
20
-6.25
11
122.75
21
10.25
0
LINE
8
0
10
122.75
20
10.25
11
105.25
21
10.25
0
LINE
8
0
10
105.25
20
10.25
11
105.25
21
-6.25
0
LINE
8
0
10
105.25
20
12.75
11
122.75
21
12.75
0
LINE
8
0
10
122.75
20
12.75
11
122.75
21
29.25
0
LINE
8
0
10
122.75
20
29.25
11
105.25
21
29.25
0
LINE
8
0
10
105.25
20
29.25
11
105.25
21
12.75
0
LINE
8
0
10
105.25
20
31.75
11
122.75
21
31.75
0
LINE
8
0
10
122.75
20
31.75
11
122.75
21
48.25
0
LINE
8
0
10
122.75
20
48.25
11
105.25
21
48.25
0
LINE
8
0
10
105.25
20
48.25
11
105.25
21
31.75
0
LINE
8
0
10
105.25
20
50.75
11
122.75
21
50.75
0
LINE
8
0
10
122.75
20
50.75
11
122.75
21
67.25
0
LINE
8
0
10
122.75
20
67.25
11
105.25
21
67.25
0
LINE
8
0
10
105.25
20
67.25
11
105.25
21
50.75
0
LINE
8
0
10
86.25
20
-24.25
11
103.75
21
-24.25
0
LINE
8
0
10
103.75
20
-24.25
11
103.75
21
-7.75
0
LINE
8
0
10
103.75
20
-7.75
11
86.25
21
-7.75
0
LINE
8
0
10
86.25
20
-7.75
11
86.25
21
-24.25
0
LINE
8
0
10
105.25
20
-27.25
11
122.75
21
-27.25
0
LINE
8
0
10
122.75
20
-27.25
11
122.75
21
-10.75
0
LINE
8
0
10
122.75
20
-10.75
11
105.25
21
-10.75
0
LINE
8
0
10
105.25
20
-10.75
11
105.25
21
-27.25
0
LINE
8
0
10
126.2972777
20
-26.7697096
11
141.4527223
21
-35.5197096
0
LINE
8
0
10
141.4527223
20
-35.5197096
11
149.7027223
21
-21.2302904
0
LINE
8
0
10
149.7027223
20
-21.2302904
11
134.5472777
21
-12.4802904
0
LINE
8
0
10
134.5472777
20
-12.4802904
11
126.2972777
21
-26.7697096
0
LINE
8
0
10
115.2972777
20
-45.8222685
11
130.4527223
21
-54.5722685
0
LINE
8
0
10
130.4527223
20
-54.5722685
11
138.7027223
21
-40.2828493
0
LINE
8
0
10
138.7027223
20
-40.2828493
11
123.5472777
21
-31.5328493
0
LINE
8
0
10
123.5472777
20
-31.5328493
11
115.2972777
21
-45.8222685
0
LINE
8
0
10
10.25
20
-27.25
11
27.75
21
-27.25
0
LINE
8
0
10
27.75
20
-27.25
11
27.75
21
-10.75
0
LINE
8
0
10
27.75
20
-10.75
11
10.25
21
-10.75
0
LINE
8
0
10
10.25
20
-10.75
11
10.25
21
-27.25
0
LINE
8
0
10
29.25
20
-27.25
11
46.75
21
-27.25
0
LINE
8
0
10
46.75
20
-27.25
11
46.75
21
-10.75
0
LINE
8
0
10
46.75
20
-10.75
11
29.25
21
-10.75
0
LINE
8
0
10
29.25
20
-10.75
11
29.25
21
-27.25
0
LINE
8
0
10
48.25
20
-24.25
11
65.75
21
-24.25
0
LINE
8
0
10
65.75
20
-24.25
11
65.75
21
-7.75
0
LINE
8
0
10
65.75
20
-7.75
11
48.25
21
-7.75
0
LINE
8
0
10
48.25
20
-7.75
11
48.25
21
-24.25
0
LINE
8
0
10
67.25
20
-21.25
11
84.75
21
-21.25
0
LINE
8
0
10
84.75
20
-21.25
11
84.75
21
-4.75
0
LINE
8
0
10
84.75
20
-4.75
11
67.25
21
-4.75
0
LINE
8
0
10
67.25
20
-4.75
11
67.25
21
-21.25
0
ENDSEC
0
EOF