M48
; DRILL file {KiCad 8.0.6} date 2024-11-26T01:00:59-0500
; FORMAT={-:-/ absolute / inch / decimal}
; #@! TF.CreationDate,2024-11-26T01:00:59-05:00
; #@! TF.GenerationSoftware,Kicad,Pcbnew,8.0.6
; #@! TF.FileFunction,Plated,1,2,PTH
FMAT,2
INCH
; #@! TA.AperFunction,Plated,PTH,ComponentDrill
T1C0.0118
; #@! TA.AperFunction,Plated,PTH,ViaDrill
T2C0.0157
; #@! TA.AperFunction,Plated,PTH,ComponentDrill
T3C0.0354
; #@! TA.AperFunction,Plated,PTH,ComponentDrill
T4C0.0390
; #@! TA.AperFunction,Plated,PTH,ComponentDrill
T5C0.0394
; #@! TA.AperFunction,Plated,PTH,ComponentDrill
T6C0.0430
; #@! TA.AperFunction,Plated,PTH,ComponentDrill
T7C0.0512
; #@! TA.AperFunction,Plated,PTH,ComponentDrill
T8C0.0591
%
G90
G05
T1
X4.2323Y-3.937
X4.2323Y-4.1339
X4.2323Y-4.685
X4.2323Y-4.8819
X4.2323Y-5.4331
X4.2323Y-5.6299
X4.2323Y-6.1811
X4.2323Y-6.378
X4.9803Y-3.937
X4.9803Y-4.1339
X4.9803Y-4.685
X4.9803Y-4.8819
X4.9803Y-5.4331
X4.9803Y-5.6299
X4.9803Y-6.1811
X4.9803Y-6.378
X4.9803Y-7.0079
X4.9803Y-7.2047
X5.7283Y-3.937
X5.7283Y-4.1339
X5.7283Y-4.685
X5.7283Y-4.8819
X5.7283Y-5.4331
X5.7283Y-5.6299
X5.7283Y-6.1811
X5.7283Y-6.378
X5.7283Y-7.0079
X5.7283Y-7.2047
X6.4764Y-3.7008
X6.4764Y-3.8976
X6.4764Y-4.4488
X6.4764Y-4.6457
X6.4764Y-5.1969
X6.4764Y-5.3937
X6.4764Y-5.9449
X6.4764Y-6.1417
X6.4764Y-6.7717
X6.4764Y-6.9685
X7.2244Y-3.5827
X7.2244Y-3.7795
X7.2244Y-4.3307
X7.2244Y-4.5276
X7.2244Y-5.0787
X7.2244Y-5.2756
X7.2244Y-5.8268
X7.2244Y-6.0236
X7.2244Y-6.6535
X7.2244Y-6.8504
X7.9724Y-3.7008
X7.9724Y-3.8976
X7.9724Y-4.4488
X7.9724Y-4.6457
X7.9724Y-5.1969
X7.9724Y-5.3937
X7.9724Y-5.9449
X7.9724Y-6.1417
X7.9724Y-6.7717
X7.9724Y-6.9685
X8.7205Y-3.8189
X8.7205Y-4.0157
X8.7205Y-4.5669
X8.7205Y-4.7638
X8.7205Y-5.315
X8.7205Y-5.5118
X8.7205Y-6.063
X8.7205Y-6.2598
X8.8314Y-7.2408
X8.8588Y-7.0459
X9.6217Y-7.4274
X9.676Y-7.2381
X10.3681Y-7.7183
X10.4482Y-7.5385
T2
X9.5866Y-3.622
X9.7638Y-6.4173
X9.8819Y-6.4173
T4
X4.0823Y-3.6024
X4.0823Y-4.3504
X4.0823Y-5.0984
X4.0823Y-5.8465
X4.3823Y-3.6024
X4.3823Y-4.3504
X4.3823Y-5.0984
X4.3823Y-5.8465
X4.8303Y-3.6024
X4.8303Y-4.3504
X4.8303Y-5.0984
X4.8303Y-5.8465
X4.8303Y-6.6732
X5.1303Y-3.6024
X5.1303Y-4.3504
X5.1303Y-5.0984
X5.1303Y-5.8465
X5.1303Y-6.6732
X5.5783Y-3.6024
X5.5783Y-4.3504
X5.5783Y-5.0984
X5.5783Y-5.8465
X5.5783Y-6.6732
X5.8783Y-3.6024
X5.8783Y-4.3504
X5.8783Y-5.0984
X5.8783Y-5.8465
X5.8783Y-6.6732
X6.3264Y-3.3661
X6.3264Y-4.1142
X6.3264Y-4.8622
X6.3264Y-5.6102
X6.3264Y-6.437
X6.6264Y-3.3661
X6.6264Y-4.1142
X6.6264Y-4.8622
X6.6264Y-5.6102
X6.6264Y-6.437
X7.0744Y-3.248
X7.0744Y-3.9961
X7.0744Y-4.7441
X7.0744Y-5.4921
X7.0744Y-6.3189
X7.3744Y-3.248
X7.3744Y-3.9961
X7.3744Y-4.7441
X7.3744Y-5.4921
X7.3744Y-6.3189
X7.8224Y-3.3661
X7.8224Y-4.1142
X7.8224Y-4.8622
X7.8224Y-5.6102
X7.8224Y-6.437
X8.1224Y-3.3661
X8.1224Y-4.1142
X8.1224Y-4.8622
X8.1224Y-5.6102
X8.1224Y-6.437
X8.5705Y-3.4843
X8.5705Y-4.2323
X8.5705Y-4.9803
X8.5705Y-5.7283
X8.7568Y-6.6936
X8.8705Y-3.4843
X8.8705Y-4.2323
X8.8705Y-4.9803
X8.8705Y-5.7283
X9.0539Y-6.7354
X9.2126Y-4.9878
X9.2126Y-5.2878
X9.3307Y-4.9878
X9.3307Y-5.2878
X9.624Y-6.8751
X9.9124Y-6.9578
X10.4472Y-7.1718
X10.7213Y-7.2938
T5
X8.8063Y-3.1654
X8.9063Y-3.1654
X9.0063Y-3.1654
X9.1063Y-3.1654
X9.4472Y-5.6543
X9.4472Y-6.2252
X9.5457Y-6.2252
X9.6441Y-5.6543
X9.6441Y-6.2252
X9.9252Y-5.824
X9.9252Y-5.924
X9.9252Y-6.024
X9.9252Y-6.124
T6
X9.2472Y-3.5051
X9.2472Y-3.6051
X9.2472Y-3.7051
X9.2472Y-3.8051
X9.2472Y-3.9051
X9.2472Y-4.0051
X9.2472Y-4.1051
X9.2472Y-4.2051
X9.2472Y-4.3051
X9.2472Y-4.4051
X9.2472Y-4.5051
X9.2472Y-4.6051
X9.8472Y-3.5051
X9.8472Y-3.6051
X9.8472Y-3.7051
X9.8472Y-3.8051
X9.8472Y-3.9051
X9.8472Y-4.0051
X9.8472Y-4.1051
X9.8472Y-4.2051
X9.8472Y-4.3051
X9.8472Y-4.4051
X9.8472Y-4.5051
X9.8472Y-4.6051
T7
X9.4193Y-4.8031
X9.6752Y-4.8031
T3
G00X9.5079Y-5.0866
M15
G01X9.4843Y-5.0866
M16
G05
G00X9.5079Y-5.1772
M15
G01X9.4843Y-5.1772
M16
G05
G00X9.5512Y-4.9961
M15
G01X9.5276Y-4.9961
M16
G05
G00X9.5512Y-5.2677
M15
G01X9.5276Y-5.2677
M16
G05
G00X9.7087Y-4.9961
M15
G01X9.685Y-4.9961
M16
G05
G00X9.7087Y-5.2677
M15
G01X9.685Y-5.2677
M16
G05
G00X9.8268Y-4.9961
M15
G01X9.8031Y-4.9961
M16
G05
G00X9.8268Y-5.2677
M15
G01X9.8031Y-5.2677
M16
G05
T8
G00X9.3252Y-5.9555
M15
G01X9.3252Y-5.9043
M16
G05
G00X9.7661Y-5.9555
M15
G01X9.7661Y-5.9043
M16
G05
M30
