%TF.GenerationSoftware,KiCad,Pcbnew,8.0.6*%
%TF.CreationDate,2024-11-25T22:34:02-05:00*%
%TF.ProjectId,jonkey-v2,6a6f6e6b-6579-42d7-9632-2e6b69636164,v1.0.0*%
%TF.SameCoordinates,Original*%
%TF.FileFunction,Legend,Bot*%
%TF.FilePolarity,Positive*%
%FSLAX46Y46*%
G04 Gerber Fmt 4.6, Leading zero omitted, Abs format (unit mm)*
G04 Created by KiCad (PCBNEW 8.0.6) date 2024-11-25 22:34:02*
%MOMM*%
%LPD*%
G01*
G04 APERTURE LIST*
%ADD10C,0.300000*%
%ADD11C,0.100000*%
%ADD12R,1.752600X1.752600*%
%ADD13C,1.752600*%
G04 APERTURE END LIST*
D10*
X232678328Y-145714286D02*
X233749757Y-145714286D01*
X233749757Y-145714286D02*
X233964042Y-145642857D01*
X233964042Y-145642857D02*
X234106900Y-145500000D01*
X234106900Y-145500000D02*
X234178328Y-145285714D01*
X234178328Y-145285714D02*
X234178328Y-145142857D01*
X232678328Y-146714286D02*
X232678328Y-147000000D01*
X232678328Y-147000000D02*
X232749757Y-147142857D01*
X232749757Y-147142857D02*
X232892614Y-147285714D01*
X232892614Y-147285714D02*
X233178328Y-147357143D01*
X233178328Y-147357143D02*
X233678328Y-147357143D01*
X233678328Y-147357143D02*
X233964042Y-147285714D01*
X233964042Y-147285714D02*
X234106900Y-147142857D01*
X234106900Y-147142857D02*
X234178328Y-147000000D01*
X234178328Y-147000000D02*
X234178328Y-146714286D01*
X234178328Y-146714286D02*
X234106900Y-146571429D01*
X234106900Y-146571429D02*
X233964042Y-146428571D01*
X233964042Y-146428571D02*
X233678328Y-146357143D01*
X233678328Y-146357143D02*
X233178328Y-146357143D01*
X233178328Y-146357143D02*
X232892614Y-146428571D01*
X232892614Y-146428571D02*
X232749757Y-146571429D01*
X232749757Y-146571429D02*
X232678328Y-146714286D01*
X234178328Y-148000000D02*
X232678328Y-148000000D01*
X232678328Y-148000000D02*
X234178328Y-148857143D01*
X234178328Y-148857143D02*
X232678328Y-148857143D01*
X234178328Y-149571429D02*
X232678328Y-149571429D01*
X234178328Y-150428572D02*
X233321185Y-149785715D01*
X232678328Y-150428572D02*
X233535471Y-149571429D01*
X233392614Y-151071429D02*
X233392614Y-151571429D01*
X234178328Y-151785715D02*
X234178328Y-151071429D01*
X234178328Y-151071429D02*
X232678328Y-151071429D01*
X232678328Y-151071429D02*
X232678328Y-151785715D01*
X233464042Y-152714287D02*
X234178328Y-152714287D01*
X232678328Y-152214287D02*
X233464042Y-152714287D01*
X233464042Y-152714287D02*
X232678328Y-153214287D01*
X233178328Y-154714286D02*
X234178328Y-155071429D01*
X234178328Y-155071429D02*
X233178328Y-155428572D01*
X232821185Y-155928572D02*
X232749757Y-156000000D01*
X232749757Y-156000000D02*
X232678328Y-156142858D01*
X232678328Y-156142858D02*
X232678328Y-156500000D01*
X232678328Y-156500000D02*
X232749757Y-156642858D01*
X232749757Y-156642858D02*
X232821185Y-156714286D01*
X232821185Y-156714286D02*
X232964042Y-156785715D01*
X232964042Y-156785715D02*
X233106900Y-156785715D01*
X233106900Y-156785715D02*
X233321185Y-156714286D01*
X233321185Y-156714286D02*
X234178328Y-155857143D01*
X234178328Y-155857143D02*
X234178328Y-156785715D01*
D11*
%TO.C,D8*%
X125750000Y-110500000D02*
X126150000Y-110500000D01*
X126150000Y-110500000D02*
X126150000Y-109950000D01*
X126150000Y-110500000D02*
X126150000Y-111050000D01*
X126150000Y-110500000D02*
X126750000Y-110100000D01*
X126750000Y-110100000D02*
X126750000Y-110900000D01*
X126750000Y-110500000D02*
X127250000Y-110500000D01*
X126750000Y-110900000D02*
X126150000Y-110500000D01*
%TO.C,D5*%
X125750000Y-169500000D02*
X126150000Y-169500000D01*
X126150000Y-169500000D02*
X126150000Y-168950000D01*
X126150000Y-169500000D02*
X126150000Y-170050000D01*
X126150000Y-169500000D02*
X126750000Y-169100000D01*
X126750000Y-169100000D02*
X126750000Y-169900000D01*
X126750000Y-169500000D02*
X127250000Y-169500000D01*
X126750000Y-169900000D02*
X126150000Y-169500000D01*
%TO.C,R11*%
X234400000Y-130250000D02*
X234000000Y-130850000D01*
X234000000Y-131250000D02*
X234000000Y-130850000D01*
X234000000Y-130850000D02*
X234550000Y-130850000D01*
X234000000Y-130850000D02*
X233600000Y-130250000D01*
X234000000Y-130850000D02*
X233450000Y-130850000D01*
X234000000Y-130250000D02*
X234000000Y-129750000D01*
X233600000Y-130250000D02*
X234400000Y-130250000D01*
%TO.C,D17*%
X163750000Y-123500000D02*
X164150000Y-123500000D01*
X164150000Y-123500000D02*
X164150000Y-122950000D01*
X164150000Y-123500000D02*
X164150000Y-124050000D01*
X164150000Y-123500000D02*
X164750000Y-123100000D01*
X164750000Y-123100000D02*
X164750000Y-123900000D01*
X164750000Y-123500000D02*
X165250000Y-123500000D01*
X164750000Y-123900000D02*
X164150000Y-123500000D01*
%TO.C,D34*%
X225453165Y-170444280D02*
X225849272Y-170499949D01*
X225849272Y-170499949D02*
X225772727Y-171044597D01*
X225849272Y-170499949D02*
X225925817Y-169955302D01*
X225849272Y-170499949D02*
X226499102Y-170187346D01*
X226387764Y-170979561D02*
X225849272Y-170499949D01*
X226443433Y-170583453D02*
X226938567Y-170653040D01*
X226499102Y-170187346D02*
X226387764Y-170979561D01*
%TO.C,D6*%
X125750000Y-148500000D02*
X126150000Y-148500000D01*
X126150000Y-148500000D02*
X126150000Y-147950000D01*
X126150000Y-148500000D02*
X126150000Y-149050000D01*
X126150000Y-148500000D02*
X126750000Y-148100000D01*
X126750000Y-148100000D02*
X126750000Y-148900000D01*
X126750000Y-148500000D02*
X127250000Y-148500000D01*
X126750000Y-148900000D02*
X126150000Y-148500000D01*
%TO.C,D1*%
X106750000Y-148500000D02*
X107150000Y-148500000D01*
X107150000Y-148500000D02*
X107150000Y-147950000D01*
X107150000Y-148500000D02*
X107150000Y-149050000D01*
X107150000Y-148500000D02*
X107750000Y-148100000D01*
X107750000Y-148100000D02*
X107750000Y-148900000D01*
X107750000Y-148500000D02*
X108250000Y-148500000D01*
X107750000Y-148900000D02*
X107150000Y-148500000D01*
%TO.C,D7*%
X125750000Y-129500000D02*
X126150000Y-129500000D01*
X126150000Y-129500000D02*
X126150000Y-128950000D01*
X126150000Y-129500000D02*
X126150000Y-130050000D01*
X126150000Y-129500000D02*
X126750000Y-129100000D01*
X126750000Y-129100000D02*
X126750000Y-129900000D01*
X126750000Y-129500000D02*
X127250000Y-129500000D01*
X126750000Y-129900000D02*
X126150000Y-129500000D01*
%TO.C,D18*%
X163750000Y-104500000D02*
X164150000Y-104500000D01*
X164150000Y-104500000D02*
X164150000Y-103950000D01*
X164150000Y-104500000D02*
X164150000Y-105050000D01*
X164150000Y-104500000D02*
X164750000Y-104100000D01*
X164750000Y-104100000D02*
X164750000Y-104900000D01*
X164750000Y-104500000D02*
X165250000Y-104500000D01*
X164750000Y-104900000D02*
X164150000Y-104500000D01*
%TO.C,D4*%
X106750000Y-91500000D02*
X107150000Y-91500000D01*
X107150000Y-91500000D02*
X107150000Y-90950000D01*
X107150000Y-91500000D02*
X107150000Y-92050000D01*
X107150000Y-91500000D02*
X107750000Y-91100000D01*
X107750000Y-91100000D02*
X107750000Y-91900000D01*
X107750000Y-91500000D02*
X108250000Y-91500000D01*
X107750000Y-91900000D02*
X107150000Y-91500000D01*
%TO.C,D32*%
X220750000Y-107500000D02*
X221150000Y-107500000D01*
X221150000Y-107500000D02*
X221150000Y-106950000D01*
X221150000Y-107500000D02*
X221150000Y-108050000D01*
X221150000Y-107500000D02*
X221750000Y-107100000D01*
X221750000Y-107100000D02*
X221750000Y-107900000D01*
X221750000Y-107500000D02*
X222250000Y-107500000D01*
X221750000Y-107900000D02*
X221150000Y-107500000D01*
%TO.C,D33*%
X220750000Y-88500000D02*
X221150000Y-88500000D01*
X221150000Y-88500000D02*
X221150000Y-87950000D01*
X221150000Y-88500000D02*
X221150000Y-89050000D01*
X221150000Y-88500000D02*
X221750000Y-88100000D01*
X221750000Y-88100000D02*
X221750000Y-88900000D01*
X221750000Y-88500000D02*
X222250000Y-88500000D01*
X221750000Y-88900000D02*
X221150000Y-88500000D01*
%TO.C,D2*%
X106750000Y-129500000D02*
X107150000Y-129500000D01*
X107150000Y-129500000D02*
X107150000Y-128950000D01*
X107150000Y-129500000D02*
X107150000Y-130050000D01*
X107150000Y-129500000D02*
X107750000Y-129100000D01*
X107750000Y-129100000D02*
X107750000Y-129900000D01*
X107750000Y-129500000D02*
X108250000Y-129500000D01*
X107750000Y-129900000D02*
X107150000Y-129500000D01*
%TO.C,D3*%
X106750000Y-110500000D02*
X107150000Y-110500000D01*
X107150000Y-110500000D02*
X107150000Y-109950000D01*
X107150000Y-110500000D02*
X107150000Y-111050000D01*
X107150000Y-110500000D02*
X107750000Y-110100000D01*
X107750000Y-110100000D02*
X107750000Y-110900000D01*
X107750000Y-110500000D02*
X108250000Y-110500000D01*
X107750000Y-110900000D02*
X107150000Y-110500000D01*
%TO.C,D25*%
X201750000Y-163500000D02*
X202150000Y-163500000D01*
X202150000Y-163500000D02*
X202150000Y-162950000D01*
X202150000Y-163500000D02*
X202150000Y-164050000D01*
X202150000Y-163500000D02*
X202750000Y-163100000D01*
X202750000Y-163100000D02*
X202750000Y-163900000D01*
X202750000Y-163500000D02*
X203250000Y-163500000D01*
X202750000Y-163900000D02*
X202150000Y-163500000D01*
%TO.C,D28*%
X201750000Y-104500000D02*
X202150000Y-104500000D01*
X202150000Y-104500000D02*
X202150000Y-103950000D01*
X202150000Y-104500000D02*
X202150000Y-105050000D01*
X202150000Y-104500000D02*
X202750000Y-104100000D01*
X202750000Y-104100000D02*
X202750000Y-104900000D01*
X202750000Y-104500000D02*
X203250000Y-104500000D01*
X202750000Y-104900000D02*
X202150000Y-104500000D01*
%TO.C,D12*%
X144750000Y-129500000D02*
X145150000Y-129500000D01*
X145150000Y-129500000D02*
X145150000Y-128950000D01*
X145150000Y-129500000D02*
X145150000Y-130050000D01*
X145150000Y-129500000D02*
X145750000Y-129100000D01*
X145750000Y-129100000D02*
X145750000Y-129900000D01*
X145750000Y-129500000D02*
X146250000Y-129500000D01*
X145750000Y-129900000D02*
X145150000Y-129500000D01*
%TO.C,D24*%
X182750000Y-82500000D02*
X183150000Y-82500000D01*
X183150000Y-82500000D02*
X183150000Y-81950000D01*
X183150000Y-82500000D02*
X183150000Y-83050000D01*
X183150000Y-82500000D02*
X183750000Y-82100000D01*
X183750000Y-82100000D02*
X183750000Y-82900000D01*
X183750000Y-82500000D02*
X184250000Y-82500000D01*
X183750000Y-82900000D02*
X183150000Y-82500000D01*
%TO.C,D31*%
X220750000Y-126500000D02*
X221150000Y-126500000D01*
X221150000Y-126500000D02*
X221150000Y-125950000D01*
X221150000Y-126500000D02*
X221150000Y-127050000D01*
X221150000Y-126500000D02*
X221750000Y-126100000D01*
X221750000Y-126100000D02*
X221750000Y-126900000D01*
X221750000Y-126500000D02*
X222250000Y-126500000D01*
X221750000Y-126900000D02*
X221150000Y-126500000D01*
%TO.C,D35*%
X247391864Y-175471295D02*
X247776368Y-175581550D01*
X247776368Y-175581550D02*
X247624768Y-176110244D01*
X247776368Y-175581550D02*
X247927969Y-175052856D01*
X247776368Y-175581550D02*
X248463380Y-175362428D01*
X248242870Y-176131437D02*
X247776368Y-175581550D01*
X248353124Y-175746932D02*
X248833756Y-175884751D01*
X248463380Y-175362428D02*
X248242870Y-176131437D01*
%TO.C,D10*%
X144750000Y-169500000D02*
X145150000Y-169500000D01*
X145150000Y-169500000D02*
X145150000Y-168950000D01*
X145150000Y-169500000D02*
X145150000Y-170050000D01*
X145150000Y-169500000D02*
X145750000Y-169100000D01*
X145750000Y-169100000D02*
X145750000Y-169900000D01*
X145750000Y-169500000D02*
X146250000Y-169500000D01*
X145750000Y-169900000D02*
X145150000Y-169500000D01*
%TO.C,D27*%
X201750000Y-123500000D02*
X202150000Y-123500000D01*
X202150000Y-123500000D02*
X202150000Y-122950000D01*
X202150000Y-123500000D02*
X202150000Y-124050000D01*
X202150000Y-123500000D02*
X202750000Y-123100000D01*
X202750000Y-123100000D02*
X202750000Y-123900000D01*
X202750000Y-123500000D02*
X203250000Y-123500000D01*
X202750000Y-123900000D02*
X202150000Y-123500000D01*
%TO.C,D11*%
X144750000Y-148500000D02*
X145150000Y-148500000D01*
X145150000Y-148500000D02*
X145150000Y-147950000D01*
X145150000Y-148500000D02*
X145150000Y-149050000D01*
X145150000Y-148500000D02*
X145750000Y-148100000D01*
X145750000Y-148100000D02*
X145750000Y-148900000D01*
X145750000Y-148500000D02*
X146250000Y-148500000D01*
X145750000Y-148900000D02*
X145150000Y-148500000D01*
%TO.C,D14*%
X144750000Y-91500000D02*
X145150000Y-91500000D01*
X145150000Y-91500000D02*
X145150000Y-90950000D01*
X145150000Y-91500000D02*
X145150000Y-92050000D01*
X145150000Y-91500000D02*
X145750000Y-91100000D01*
X145750000Y-91100000D02*
X145750000Y-91900000D01*
X145750000Y-91500000D02*
X146250000Y-91500000D01*
X145750000Y-91900000D02*
X145150000Y-91500000D01*
%TO.C,D9*%
X125750000Y-91500000D02*
X126150000Y-91500000D01*
X126150000Y-91500000D02*
X126150000Y-90950000D01*
X126150000Y-91500000D02*
X126150000Y-92050000D01*
X126150000Y-91500000D02*
X126750000Y-91100000D01*
X126750000Y-91100000D02*
X126750000Y-91900000D01*
X126750000Y-91500000D02*
X127250000Y-91500000D01*
X126750000Y-91900000D02*
X126150000Y-91500000D01*
%TO.C,D13*%
X144750000Y-110500000D02*
X145150000Y-110500000D01*
X145150000Y-110500000D02*
X145150000Y-109950000D01*
X145150000Y-110500000D02*
X145150000Y-111050000D01*
X145150000Y-110500000D02*
X145750000Y-110100000D01*
X145750000Y-110100000D02*
X145750000Y-110900000D01*
X145750000Y-110500000D02*
X146250000Y-110500000D01*
X145750000Y-110900000D02*
X145150000Y-110500000D01*
%TO.C,D36*%
X268155232Y-183407233D02*
X268520650Y-183569927D01*
X268520650Y-183569927D02*
X268296945Y-184072377D01*
X268520650Y-183569927D02*
X268744355Y-183067477D01*
X268520650Y-183569927D02*
X269231472Y-183448551D01*
X268906083Y-184179387D02*
X268520650Y-183569927D01*
X269068777Y-183813969D02*
X269525550Y-184017337D01*
X269231472Y-183448551D02*
X268906083Y-184179387D01*
%TO.C,D16*%
X163750000Y-142500000D02*
X164150000Y-142500000D01*
X164150000Y-142500000D02*
X164150000Y-141950000D01*
X164150000Y-142500000D02*
X164150000Y-143050000D01*
X164150000Y-142500000D02*
X164750000Y-142100000D01*
X164750000Y-142100000D02*
X164750000Y-142900000D01*
X164750000Y-142500000D02*
X165250000Y-142500000D01*
X164750000Y-142900000D02*
X164150000Y-142500000D01*
%TO.C,D30*%
X220750000Y-145500000D02*
X221150000Y-145500000D01*
X221150000Y-145500000D02*
X221150000Y-144950000D01*
X221150000Y-145500000D02*
X221150000Y-146050000D01*
X221150000Y-145500000D02*
X221750000Y-145100000D01*
X221750000Y-145100000D02*
X221750000Y-145900000D01*
X221750000Y-145500000D02*
X222250000Y-145500000D01*
X221750000Y-145900000D02*
X221150000Y-145500000D01*
%TO.C,D21*%
X182750000Y-139500000D02*
X183150000Y-139500000D01*
X183150000Y-139500000D02*
X183150000Y-138950000D01*
X183150000Y-139500000D02*
X183150000Y-140050000D01*
X183150000Y-139500000D02*
X183750000Y-139100000D01*
X183750000Y-139100000D02*
X183750000Y-139900000D01*
X183750000Y-139500000D02*
X184250000Y-139500000D01*
X183750000Y-139900000D02*
X183150000Y-139500000D01*
%TO.C,D26*%
X201750000Y-142500000D02*
X202150000Y-142500000D01*
X202150000Y-142500000D02*
X202150000Y-141950000D01*
X202150000Y-142500000D02*
X202150000Y-143050000D01*
X202150000Y-142500000D02*
X202750000Y-142100000D01*
X202750000Y-142100000D02*
X202750000Y-142900000D01*
X202750000Y-142500000D02*
X203250000Y-142500000D01*
X202750000Y-142900000D02*
X202150000Y-142500000D01*
%TO.C,R21*%
X237400000Y-130250000D02*
X237000000Y-130850000D01*
X237000000Y-131250000D02*
X237000000Y-130850000D01*
X237000000Y-130850000D02*
X237550000Y-130850000D01*
X237000000Y-130850000D02*
X236600000Y-130250000D01*
X237000000Y-130850000D02*
X236450000Y-130850000D01*
X237000000Y-130250000D02*
X237000000Y-129750000D01*
X236600000Y-130250000D02*
X237400000Y-130250000D01*
%TO.C,D22*%
X182750000Y-120500000D02*
X183150000Y-120500000D01*
X183150000Y-120500000D02*
X183150000Y-119950000D01*
X183150000Y-120500000D02*
X183150000Y-121050000D01*
X183150000Y-120500000D02*
X183750000Y-120100000D01*
X183750000Y-120100000D02*
X183750000Y-120900000D01*
X183750000Y-120500000D02*
X184250000Y-120500000D01*
X183750000Y-120900000D02*
X183150000Y-120500000D01*
%TO.C,D23*%
X182750000Y-101500000D02*
X183150000Y-101500000D01*
X183150000Y-101500000D02*
X183150000Y-100950000D01*
X183150000Y-101500000D02*
X183150000Y-102050000D01*
X183150000Y-101500000D02*
X183750000Y-101100000D01*
X183750000Y-101100000D02*
X183750000Y-101900000D01*
X183750000Y-101500000D02*
X184250000Y-101500000D01*
X183750000Y-101900000D02*
X183150000Y-101500000D01*
%TO.C,D20*%
X182750000Y-160500000D02*
X183150000Y-160500000D01*
X183150000Y-160500000D02*
X183150000Y-159950000D01*
X183150000Y-160500000D02*
X183150000Y-161050000D01*
X183150000Y-160500000D02*
X183750000Y-160100000D01*
X183750000Y-160100000D02*
X183750000Y-160900000D01*
X183750000Y-160500000D02*
X184250000Y-160500000D01*
X183750000Y-160900000D02*
X183150000Y-160500000D01*
%TO.C,D29*%
X201750000Y-85500000D02*
X202150000Y-85500000D01*
X202150000Y-85500000D02*
X202150000Y-84950000D01*
X202150000Y-85500000D02*
X202150000Y-86050000D01*
X202150000Y-85500000D02*
X202750000Y-85100000D01*
X202750000Y-85100000D02*
X202750000Y-85900000D01*
X202750000Y-85500000D02*
X203250000Y-85500000D01*
X202750000Y-85900000D02*
X202150000Y-85500000D01*
%TO.C,D15*%
X163750000Y-163500000D02*
X164150000Y-163500000D01*
X164150000Y-163500000D02*
X164150000Y-162950000D01*
X164150000Y-163500000D02*
X164150000Y-164050000D01*
X164150000Y-163500000D02*
X164750000Y-163100000D01*
X164750000Y-163100000D02*
X164750000Y-163900000D01*
X164750000Y-163500000D02*
X165250000Y-163500000D01*
X164750000Y-163900000D02*
X164150000Y-163500000D01*
%TO.C,D19*%
X163750000Y-85500000D02*
X164150000Y-85500000D01*
X164150000Y-85500000D02*
X164150000Y-84950000D01*
X164150000Y-85500000D02*
X164150000Y-86050000D01*
X164150000Y-85500000D02*
X164750000Y-85100000D01*
X164750000Y-85100000D02*
X164750000Y-85900000D01*
X164750000Y-85500000D02*
X165250000Y-85500000D01*
X164750000Y-85900000D02*
X164150000Y-85500000D01*
%TD*%
D12*
%TO.C,MCU1*%
X234880000Y-89030000D03*
D13*
X234880000Y-91570000D03*
X234880000Y-94110000D03*
X234880000Y-96650000D03*
X234880000Y-99190000D03*
X234880000Y-101730000D03*
X234880000Y-104270000D03*
X234880000Y-106810000D03*
X234880000Y-109350000D03*
X234880000Y-111890000D03*
X234880000Y-114430000D03*
X234880000Y-116970000D03*
X250120000Y-89030000D03*
X250120000Y-91570000D03*
X250120000Y-94110000D03*
X250120000Y-96650000D03*
X250120000Y-99190000D03*
X250120000Y-101730000D03*
X250120000Y-104270000D03*
X250120000Y-106810000D03*
X250120000Y-109350000D03*
X250120000Y-111890000D03*
X250120000Y-114430000D03*
X250120000Y-116970000D03*
%TD*%
M02*
