%TF.GenerationSoftware,KiCad,Pcbnew,8.0.6*%
%TF.CreationDate,2024-11-25T22:34:02-05:00*%
%TF.ProjectId,jonkey-v2,6a6f6e6b-6579-42d7-9632-2e6b69636164,v1.0.0*%
%TF.SameCoordinates,Original*%
%TF.FileFunction,Paste,Top*%
%TF.FilePolarity,Positive*%
%FSLAX46Y46*%
G04 Gerber Fmt 4.6, Leading zero omitted, Abs format (unit mm)*
G04 Created by KiCad (PCBNEW 8.0.6) date 2024-11-25 22:34:02*
%MOMM*%
%LPD*%
G01*
G04 APERTURE LIST*
G04 Aperture macros list*
%AMRotRect*
0 Rectangle, with rotation*
0 The origin of the aperture is its center*
0 $1 length*
0 $2 width*
0 $3 Rotation angle, in degrees counterclockwise*
0 Add horizontal line*
21,1,$1,$2,0,0,$3*%
G04 Aperture macros list end*
%ADD10R,2.600000X2.600000*%
%ADD11R,0.900000X1.200000*%
%ADD12R,1.200000X0.900000*%
%ADD13RotRect,0.900000X1.200000X352.000000*%
%ADD14RotRect,2.600000X2.600000X164.000000*%
%ADD15RotRect,0.900000X1.200000X344.000000*%
%ADD16RotRect,2.600000X2.600000X172.000000*%
%ADD17RotRect,0.900000X1.200000X336.000000*%
%ADD18RotRect,2.600000X2.600000X156.000000*%
G04 APERTURE END LIST*
D10*
%TO.C,S26*%
X199225000Y-153450000D03*
X210775000Y-151250000D03*
%TD*%
D11*
%TO.C,D8*%
X124850000Y-110500000D03*
X128150000Y-110500000D03*
%TD*%
D10*
%TO.C,S33*%
X218225000Y-99450000D03*
X229775000Y-97250000D03*
%TD*%
%TO.C,S30*%
X218225000Y-156450000D03*
X229775000Y-154250000D03*
%TD*%
%TO.C,S4*%
X104225000Y-102450000D03*
X115775000Y-100250000D03*
%TD*%
D11*
%TO.C,D5*%
X124850000Y-169500000D03*
X128150000Y-169500000D03*
%TD*%
D10*
%TO.C,S25*%
X199225000Y-174450000D03*
X210775000Y-172250000D03*
%TD*%
D12*
%TO.C,R11*%
X234000000Y-128850000D03*
X234000000Y-132150000D03*
%TD*%
D11*
%TO.C,D17*%
X162850000Y-123500000D03*
X166150000Y-123500000D03*
%TD*%
D10*
%TO.C,S3*%
X104225000Y-121450000D03*
X115775000Y-119250000D03*
%TD*%
D13*
%TO.C,D34*%
X224561924Y-170319024D03*
X227829808Y-170778296D03*
%TD*%
D10*
%TO.C,S23*%
X180225000Y-112450000D03*
X191775000Y-110250000D03*
%TD*%
D11*
%TO.C,D6*%
X124850000Y-148500000D03*
X128150000Y-148500000D03*
%TD*%
D10*
%TO.C,S11*%
X142225000Y-159450000D03*
X153775000Y-157250000D03*
%TD*%
%TO.C,S6*%
X123225000Y-159450000D03*
X134775000Y-157250000D03*
%TD*%
%TO.C,S24*%
X180225000Y-93450000D03*
X191775000Y-91250000D03*
%TD*%
D11*
%TO.C,D1*%
X105850000Y-148500000D03*
X109150000Y-148500000D03*
%TD*%
%TO.C,D7*%
X124850000Y-129500000D03*
X128150000Y-129500000D03*
%TD*%
D10*
%TO.C,S10*%
X142225000Y-180450000D03*
X153775000Y-178250000D03*
%TD*%
D11*
%TO.C,D18*%
X162850000Y-104500000D03*
X166150000Y-104500000D03*
%TD*%
D10*
%TO.C,S1*%
X104225000Y-159450000D03*
X115775000Y-157250000D03*
%TD*%
%TO.C,S20*%
X180225000Y-171450000D03*
X191775000Y-169250000D03*
%TD*%
%TO.C,S12*%
X142225000Y-140450000D03*
X153775000Y-138250000D03*
%TD*%
%TO.C,S29*%
X199225000Y-96450000D03*
X210775000Y-94250000D03*
%TD*%
%TO.C,S17*%
X161225000Y-134450000D03*
X172775000Y-132250000D03*
%TD*%
D11*
%TO.C,D4*%
X105850000Y-91500000D03*
X109150000Y-91500000D03*
%TD*%
D14*
%TO.C,S35*%
X241946449Y-185301127D03*
X253655422Y-186369962D03*
%TD*%
D10*
%TO.C,S2*%
X104225000Y-140450000D03*
X115775000Y-138250000D03*
%TD*%
D11*
%TO.C,D32*%
X219850000Y-107500000D03*
X223150000Y-107500000D03*
%TD*%
%TO.C,D33*%
X219850000Y-88500000D03*
X223150000Y-88500000D03*
%TD*%
D10*
%TO.C,S5*%
X123225000Y-180450000D03*
X134775000Y-178250000D03*
%TD*%
D11*
%TO.C,D2*%
X105850000Y-129500000D03*
X109150000Y-129500000D03*
%TD*%
D10*
%TO.C,S22*%
X180225000Y-131450000D03*
X191775000Y-129250000D03*
%TD*%
%TO.C,S28*%
X199225000Y-115450000D03*
X210775000Y-113250000D03*
%TD*%
%TO.C,S27*%
X199225000Y-134450000D03*
X210775000Y-132250000D03*
%TD*%
D11*
%TO.C,D3*%
X105850000Y-110500000D03*
X109150000Y-110500000D03*
%TD*%
%TO.C,D25*%
X200850000Y-163500000D03*
X204150000Y-163500000D03*
%TD*%
D10*
%TO.C,S19*%
X161225000Y-96450000D03*
X172775000Y-94250000D03*
%TD*%
D11*
%TO.C,D28*%
X200850000Y-104500000D03*
X204150000Y-104500000D03*
%TD*%
%TO.C,D12*%
X143850000Y-129500000D03*
X147150000Y-129500000D03*
%TD*%
%TO.C,D24*%
X181850000Y-82500000D03*
X185150000Y-82500000D03*
%TD*%
%TO.C,D31*%
X219850000Y-126500000D03*
X223150000Y-126500000D03*
%TD*%
D10*
%TO.C,S13*%
X142225000Y-121450000D03*
X153775000Y-119250000D03*
%TD*%
%TO.C,S15*%
X161225000Y-174450000D03*
X172775000Y-172250000D03*
%TD*%
D15*
%TO.C,D35*%
X246526728Y-175223221D03*
X249698892Y-176132825D03*
%TD*%
D11*
%TO.C,D10*%
X143850000Y-169500000D03*
X147150000Y-169500000D03*
%TD*%
D10*
%TO.C,S14*%
X142225000Y-102450000D03*
X153775000Y-100250000D03*
%TD*%
D11*
%TO.C,D27*%
X200850000Y-123500000D03*
X204150000Y-123500000D03*
%TD*%
D16*
%TO.C,S34*%
X221428792Y-180936303D03*
X233172569Y-180365163D03*
%TD*%
D10*
%TO.C,S21*%
X180225000Y-150450000D03*
X191775000Y-148250000D03*
%TD*%
%TO.C,S31*%
X218225000Y-137450000D03*
X229775000Y-135250000D03*
%TD*%
%TO.C,S18*%
X161225000Y-115450000D03*
X172775000Y-113250000D03*
%TD*%
D11*
%TO.C,D11*%
X143850000Y-148500000D03*
X147150000Y-148500000D03*
%TD*%
D10*
%TO.C,S16*%
X161225000Y-153450000D03*
X172775000Y-151250000D03*
%TD*%
D11*
%TO.C,D14*%
X143850000Y-91500000D03*
X147150000Y-91500000D03*
%TD*%
%TO.C,D9*%
X124850000Y-91500000D03*
X128150000Y-91500000D03*
%TD*%
%TO.C,D13*%
X143850000Y-110500000D03*
X147150000Y-110500000D03*
%TD*%
D17*
%TO.C,D36*%
X267333041Y-183041170D03*
X270347741Y-184383400D03*
%TD*%
D11*
%TO.C,D16*%
X162850000Y-142500000D03*
X166150000Y-142500000D03*
%TD*%
D10*
%TO.C,S9*%
X123225000Y-102450000D03*
X134775000Y-100250000D03*
%TD*%
D18*
%TO.C,S36*%
X261394764Y-192383545D03*
X272841034Y-195071553D03*
%TD*%
D11*
%TO.C,D30*%
X219850000Y-145500000D03*
X223150000Y-145500000D03*
%TD*%
%TO.C,D21*%
X181850000Y-139500000D03*
X185150000Y-139500000D03*
%TD*%
%TO.C,D26*%
X200850000Y-142500000D03*
X204150000Y-142500000D03*
%TD*%
D12*
%TO.C,R21*%
X237000000Y-128850000D03*
X237000000Y-132150000D03*
%TD*%
D10*
%TO.C,S32*%
X218225000Y-118450000D03*
X229775000Y-116250000D03*
%TD*%
D11*
%TO.C,D22*%
X181850000Y-120500000D03*
X185150000Y-120500000D03*
%TD*%
%TO.C,D23*%
X181850000Y-101500000D03*
X185150000Y-101500000D03*
%TD*%
D10*
%TO.C,S7*%
X123225000Y-140450000D03*
X134775000Y-138250000D03*
%TD*%
D11*
%TO.C,D20*%
X181850000Y-160500000D03*
X185150000Y-160500000D03*
%TD*%
%TO.C,D29*%
X200850000Y-85500000D03*
X204150000Y-85500000D03*
%TD*%
%TO.C,D15*%
X162850000Y-163500000D03*
X166150000Y-163500000D03*
%TD*%
%TO.C,D19*%
X162850000Y-85500000D03*
X166150000Y-85500000D03*
%TD*%
D10*
%TO.C,S8*%
X123225000Y-121450000D03*
X134775000Y-119250000D03*
%TD*%
M02*
