M48
; DRILL file {KiCad 8.0.6} date 2024-11-26T01:00:59-0500
; FORMAT={-:-/ absolute / inch / decimal}
; #@! TF.CreationDate,2024-11-26T01:00:59-05:00
; #@! TF.GenerationSoftware,Kicad,Pcbnew,8.0.6
; #@! TF.FileFunction,NonPlated,1,2,NPTH
FMAT,2
INCH
; #@! TA.AperFunction,NonPlated,NPTH,ComponentDrill
T1C0.0591
; #@! TA.AperFunction,NonPlated,NPTH,ComponentDrill
T2C0.0670
; #@! TA.AperFunction,NonPlated,NPTH,ComponentDrill
T3C0.0866
; #@! TA.AperFunction,NonPlated,NPTH,ComponentDrill
T4C0.1181
; #@! TA.AperFunction,NonPlated,NPTH,ComponentDrill
T5C0.1350
%
G90
G05
T1
X9.6024Y-5.0866
X9.6024Y-5.1772
X9.878Y-5.0866
X9.878Y-5.1772
T2
X4.0157Y-3.7992
X4.0157Y-4.5472
X4.0157Y-5.2953
X4.0157Y-6.0433
X4.4488Y-3.7992
X4.4488Y-4.5472
X4.4488Y-5.2953
X4.4488Y-6.0433
X4.7638Y-3.7992
X4.7638Y-4.5472
X4.7638Y-5.2953
X4.7638Y-6.0433
X4.7638Y-6.8701
X5.1969Y-3.7992
X5.1969Y-4.5472
X5.1969Y-5.2953
X5.1969Y-6.0433
X5.1969Y-6.8701
X5.5118Y-3.7992
X5.5118Y-4.5472
X5.5118Y-5.2953
X5.5118Y-6.0433
X5.5118Y-6.8701
X5.9449Y-3.7992
X5.9449Y-4.5472
X5.9449Y-5.2953
X5.9449Y-6.0433
X5.9449Y-6.8701
X6.2598Y-3.563
X6.2598Y-4.311
X6.2598Y-5.0591
X6.2598Y-5.8071
X6.2598Y-6.6339
X6.6929Y-3.563
X6.6929Y-4.311
X6.6929Y-5.0591
X6.6929Y-5.8071
X6.6929Y-6.6339
X7.0079Y-3.4449
X7.0079Y-4.1929
X7.0079Y-4.9409
X7.0079Y-5.689
X7.0079Y-6.5157
X7.4409Y-3.4449
X7.4409Y-4.1929
X7.4409Y-4.9409
X7.4409Y-5.689
X7.4409Y-6.5157
X7.7559Y-3.563
X7.7559Y-4.311
X7.7559Y-5.0591
X7.7559Y-5.8071
X7.7559Y-6.6339
X8.189Y-3.563
X8.189Y-4.311
X8.189Y-5.0591
X8.189Y-5.8071
X8.189Y-6.6339
X8.5039Y-3.6811
X8.5039Y-4.4291
X8.5039Y-5.1772
X8.5039Y-5.9252
X8.6635Y-6.8793
X8.937Y-3.6811
X8.937Y-4.4291
X8.937Y-5.1772
X8.937Y-5.9252
X9.0924Y-6.9396
X9.5058Y-7.046
X9.9221Y-7.1654
X10.3064Y-7.3245
X10.702Y-7.5007
T3
X4.6063Y-4.1732
X4.9803Y-6.4961
X7.9724Y-6.2598
X8.3465Y-4.0551
T4
X4.0354Y-3.9469
X4.0354Y-4.6949
X4.0354Y-5.4429
X4.0354Y-6.1909
X4.2323Y-4.0335
X4.2323Y-4.0335
X4.2323Y-4.7815
X4.2323Y-4.7815
X4.2323Y-5.5295
X4.2323Y-5.5295
X4.2323Y-6.2776
X4.2323Y-6.2776
X4.4291Y-3.9469
X4.4291Y-4.6949
X4.4291Y-5.4429
X4.4291Y-6.1909
X4.7835Y-3.9469
X4.7835Y-4.6949
X4.7835Y-5.4429
X4.7835Y-6.1909
X4.7835Y-7.0177
X4.9803Y-4.0335
X4.9803Y-4.0335
X4.9803Y-4.7815
X4.9803Y-4.7815
X4.9803Y-5.5295
X4.9803Y-5.5295
X4.9803Y-6.2776
X4.9803Y-6.2776
X4.9803Y-7.1043
X4.9803Y-7.1043
X5.1772Y-3.9469
X5.1772Y-4.6949
X5.1772Y-5.4429
X5.1772Y-6.1909
X5.1772Y-7.0177
X5.5315Y-3.9469
X5.5315Y-4.6949
X5.5315Y-5.4429
X5.5315Y-6.1909
X5.5315Y-7.0177
X5.7283Y-4.0335
X5.7283Y-4.0335
X5.7283Y-4.7815
X5.7283Y-4.7815
X5.7283Y-5.5295
X5.7283Y-5.5295
X5.7283Y-6.2776
X5.7283Y-6.2776
X5.7283Y-7.1043
X5.7283Y-7.1043
X5.9252Y-3.9469
X5.9252Y-4.6949
X5.9252Y-5.4429
X5.9252Y-6.1909
X5.9252Y-7.0177
X6.2795Y-3.7106
X6.2795Y-4.4587
X6.2795Y-5.2067
X6.2795Y-5.9547
X6.2795Y-6.7815
X6.4764Y-3.7972
X6.4764Y-3.7972
X6.4764Y-4.5453
X6.4764Y-4.5453
X6.4764Y-5.2933
X6.4764Y-5.2933
X6.4764Y-6.0413
X6.4764Y-6.0413
X6.4764Y-6.8681
X6.4764Y-6.8681
X6.6732Y-3.7106
X6.6732Y-4.4587
X6.6732Y-5.2067
X6.6732Y-5.9547
X6.6732Y-6.7815
X7.0276Y-3.5925
X7.0276Y-4.3406
X7.0276Y-5.0886
X7.0276Y-5.8366
X7.0276Y-6.6634
X7.2244Y-3.6791
X7.2244Y-3.6791
X7.2244Y-4.4272
X7.2244Y-4.4272
X7.2244Y-5.1752
X7.2244Y-5.1752
X7.2244Y-5.9232
X7.2244Y-5.9232
X7.2244Y-6.75
X7.2244Y-6.75
X7.4213Y-3.5925
X7.4213Y-4.3406
X7.4213Y-5.0886
X7.4213Y-5.8366
X7.4213Y-6.6634
X7.7756Y-3.7106
X7.7756Y-4.4587
X7.7756Y-5.2067
X7.7756Y-5.9547
X7.7756Y-6.7815
X7.9724Y-3.7972
X7.9724Y-3.7972
X7.9724Y-4.5453
X7.9724Y-4.5453
X7.9724Y-5.2933
X7.9724Y-5.2933
X7.9724Y-6.0413
X7.9724Y-6.0413
X7.9724Y-6.8681
X7.9724Y-6.8681
X8.1693Y-3.7106
X8.1693Y-4.4587
X8.1693Y-5.2067
X8.1693Y-5.9547
X8.1693Y-6.7815
X8.5236Y-3.8287
X8.5236Y-4.5768
X8.5236Y-5.3248
X8.5236Y-6.0728
X8.6625Y-7.0283
X8.7205Y-3.9154
X8.7205Y-3.9154
X8.7205Y-4.6634
X8.7205Y-4.6634
X8.7205Y-5.4114
X8.7205Y-5.4114
X8.7205Y-6.1594
X8.7205Y-6.1594
X8.8454Y-7.1414
X8.8454Y-7.1414
X8.9173Y-3.8287
X8.9173Y-4.5768
X8.9173Y-5.3248
X8.9173Y-6.0728
X9.0523Y-7.083
X9.484Y-7.1933
X9.6494Y-7.3309
X9.6494Y-7.3309
X9.8625Y-7.3019
X10.2643Y-7.4674
X10.4089Y-7.6266
X10.4089Y-7.6266
X10.624Y-7.6275
T5
X4.2323Y-3.7992
X4.2323Y-4.5472
X4.2323Y-5.2953
X4.2323Y-6.0433
X4.9803Y-3.7992
X4.9803Y-4.5472
X4.9803Y-5.2953
X4.9803Y-6.0433
X4.9803Y-6.8701
X5.7283Y-3.7992
X5.7283Y-4.5472
X5.7283Y-5.2953
X5.7283Y-6.0433
X5.7283Y-6.8701
X6.4764Y-3.563
X6.4764Y-4.311
X6.4764Y-5.0591
X6.4764Y-5.8071
X6.4764Y-6.6339
X7.2244Y-3.4449
X7.2244Y-4.1929
X7.2244Y-4.9409
X7.2244Y-5.689
X7.2244Y-6.5157
X7.9724Y-3.563
X7.9724Y-4.311
X7.9724Y-5.0591
X7.9724Y-5.8071
X7.9724Y-6.6339
X8.7205Y-3.6811
X8.7205Y-4.4291
X8.7205Y-5.1772
X8.7205Y-5.9252
X8.878Y-6.9094
X9.714Y-7.1057
X10.5042Y-7.4126
M30
