%TF.GenerationSoftware,KiCad,Pcbnew,8.0.6*%
%TF.CreationDate,2024-11-25T22:34:01-05:00*%
%TF.ProjectId,jonkey-v2,6a6f6e6b-6579-42d7-9632-2e6b69636164,v1.0.0*%
%TF.SameCoordinates,Original*%
%TF.FileFunction,Copper,L2,Bot*%
%TF.FilePolarity,Positive*%
%FSLAX46Y46*%
G04 Gerber Fmt 4.6, Leading zero omitted, Abs format (unit mm)*
G04 Created by KiCad (PCBNEW 8.0.6) date 2024-11-25 22:34:01*
%MOMM*%
%LPD*%
G01*
G04 APERTURE LIST*
G04 Aperture macros list*
%AMRotRect*
0 Rectangle, with rotation*
0 The origin of the aperture is its center*
0 $1 length*
0 $2 width*
0 $3 Rotation angle, in degrees counterclockwise*
0 Add horizontal line*
21,1,$1,$2,0,0,$3*%
G04 Aperture macros list end*
%TA.AperFunction,ComponentPad*%
%ADD10C,0.600000*%
%TD*%
%TA.AperFunction,SMDPad,CuDef*%
%ADD11R,2.600000X2.600000*%
%TD*%
%TA.AperFunction,ComponentPad*%
%ADD12R,1.778000X1.778000*%
%TD*%
%TA.AperFunction,SMDPad,CuDef*%
%ADD13R,0.900000X1.200000*%
%TD*%
%TA.AperFunction,ComponentPad*%
%ADD14C,1.905000*%
%TD*%
%TA.AperFunction,SMDPad,CuDef*%
%ADD15R,1.200000X0.900000*%
%TD*%
%TA.AperFunction,ComponentPad*%
%ADD16RotRect,1.778000X1.778000X352.000000*%
%TD*%
%TA.AperFunction,SMDPad,CuDef*%
%ADD17RotRect,0.900000X1.200000X352.000000*%
%TD*%
%TA.AperFunction,SMDPad,CuDef*%
%ADD18RotRect,2.600000X2.600000X164.000000*%
%TD*%
%TA.AperFunction,ComponentPad*%
%ADD19R,1.700000X1.700000*%
%TD*%
%TA.AperFunction,ComponentPad*%
%ADD20O,1.700000X1.700000*%
%TD*%
%TA.AperFunction,ComponentPad*%
%ADD21RotRect,1.778000X1.778000X344.000000*%
%TD*%
%TA.AperFunction,SMDPad,CuDef*%
%ADD22RotRect,0.900000X1.200000X344.000000*%
%TD*%
%TA.AperFunction,SMDPad,CuDef*%
%ADD23RotRect,2.600000X2.600000X172.000000*%
%TD*%
%TA.AperFunction,ComponentPad*%
%ADD24O,2.200000X1.600000*%
%TD*%
%TA.AperFunction,ComponentPad*%
%ADD25RotRect,1.778000X1.778000X336.000000*%
%TD*%
%TA.AperFunction,SMDPad,CuDef*%
%ADD26RotRect,0.900000X1.200000X336.000000*%
%TD*%
%TA.AperFunction,ComponentPad*%
%ADD27C,2.000000*%
%TD*%
%TA.AperFunction,SMDPad,CuDef*%
%ADD28RotRect,2.600000X2.600000X156.000000*%
%TD*%
%TA.AperFunction,ComponentPad*%
%ADD29R,1.752600X1.752600*%
%TD*%
%TA.AperFunction,ComponentPad*%
%ADD30C,1.752600*%
%TD*%
%TA.AperFunction,ComponentPad*%
%ADD31R,2.000000X3.200000*%
%TD*%
%TA.AperFunction,ComponentPad*%
%ADD32C,1.500000*%
%TD*%
%TA.AperFunction,ComponentPad*%
%ADD33R,2.000000X2.000000*%
%TD*%
%TA.AperFunction,ViaPad*%
%ADD34C,0.800000*%
%TD*%
%TA.AperFunction,Conductor*%
%ADD35C,0.250000*%
%TD*%
%TA.AperFunction,Conductor*%
%ADD36C,0.200000*%
%TD*%
G04 APERTURE END LIST*
D10*
%TO.P,REF\u002A\u002A,1*%
%TO.N,outer1_modifiers*%
X126500000Y-178000000D03*
%TD*%
%TO.P,REF\u002A\u002A,1*%
%TO.N,P19*%
X183500000Y-96000000D03*
%TD*%
%TO.P,REF\u002A\u002A,1*%
%TO.N,outer1_numbers*%
X126500000Y-100000000D03*
%TD*%
D11*
%TO.P,S26,1*%
%TO.N,index_bottom*%
X205775000Y-153450000D03*
%TO.P,S26,2*%
%TO.N,P20*%
X194225000Y-151250000D03*
%TD*%
D10*
%TO.P,REF\u002A\u002A,1*%
%TO.N,ring_modifiers*%
X164500000Y-172000000D03*
%TD*%
D12*
%TO.P,D8,1*%
%TO.N,P5*%
X122690000Y-110500000D03*
D13*
X124850000Y-110500000D03*
%TO.P,D8,2*%
%TO.N,outer1_top*%
X128150000Y-110500000D03*
D14*
X130310000Y-110500000D03*
%TD*%
D11*
%TO.P,S33,1*%
%TO.N,inner1_numbers*%
X224775000Y-99450000D03*
%TO.P,S33,2*%
%TO.N,P21*%
X213225000Y-97250000D03*
%TD*%
%TO.P,S30,1*%
%TO.N,inner1_bottom*%
X224775000Y-156450000D03*
%TO.P,S30,2*%
%TO.N,P21*%
X213225000Y-154250000D03*
%TD*%
%TO.P,S4,1*%
%TO.N,outer2_numbers*%
X110775000Y-102450000D03*
%TO.P,S4,2*%
%TO.N,P16*%
X99225000Y-100250000D03*
%TD*%
D12*
%TO.P,D5,1*%
%TO.N,P7*%
X122690000Y-169500000D03*
D13*
X124850000Y-169500000D03*
%TO.P,D5,2*%
%TO.N,outer1_modifiers*%
X128150000Y-169500000D03*
D14*
X130310000Y-169500000D03*
%TD*%
D10*
%TO.P,REF\u002A\u002A,1*%
%TO.N,P16*%
X107500000Y-143000000D03*
%TD*%
D11*
%TO.P,S25,1*%
%TO.N,index_modifiers*%
X205775000Y-174450000D03*
%TO.P,S25,2*%
%TO.N,P19*%
X194225000Y-172250000D03*
%TD*%
D14*
%TO.P,R11,2*%
%TO.N,P3*%
X234000000Y-126690000D03*
D15*
X234000000Y-128850000D03*
%TO.P,R11,1*%
%TO.N,VCC*%
X234000000Y-132150000D03*
D12*
X234000000Y-134310000D03*
%TD*%
%TO.P,D17,1*%
%TO.N,P6*%
X160690000Y-123500000D03*
D13*
X162850000Y-123500000D03*
%TO.P,D17,2*%
%TO.N,ring_home*%
X166150000Y-123500000D03*
D14*
X168310000Y-123500000D03*
%TD*%
D11*
%TO.P,S3,1*%
%TO.N,outer2_top*%
X110775000Y-121450000D03*
%TO.P,S3,2*%
%TO.N,P16*%
X99225000Y-119250000D03*
%TD*%
D10*
%TO.P,REF\u002A\u002A,1*%
%TO.N,index_top*%
X202500000Y-113000000D03*
%TD*%
%TO.P,REF\u002A\u002A,1*%
%TO.N,P14*%
X126500000Y-162000000D03*
%TD*%
D16*
%TO.P,D34,1*%
%TO.N,P7*%
X222422945Y-170018409D03*
D17*
X224561924Y-170319024D03*
%TO.P,D34,2*%
%TO.N,inner1_thumbrow*%
X227829808Y-170778296D03*
D14*
X229968787Y-171078911D03*
%TD*%
D10*
%TO.P,REF\u002A\u002A,1*%
%TO.N,inner1_top*%
X221500000Y-116000000D03*
%TD*%
D11*
%TO.P,S23,1*%
%TO.N,middle_top*%
X186775000Y-112450000D03*
%TO.P,S23,2*%
%TO.N,P19*%
X175225000Y-110250000D03*
%TD*%
D10*
%TO.P,REF\u002A\u002A,1*%
%TO.N,P14*%
X126500000Y-143000000D03*
%TD*%
D12*
%TO.P,D6,1*%
%TO.N,P10*%
X122690000Y-148500000D03*
D13*
X124850000Y-148500000D03*
%TO.P,D6,2*%
%TO.N,outer1_bottom*%
X128150000Y-148500000D03*
D14*
X130310000Y-148500000D03*
%TD*%
D11*
%TO.P,S11,1*%
%TO.N,pinky_bottom*%
X148775000Y-159450000D03*
%TO.P,S11,2*%
%TO.N,P15*%
X137225000Y-157250000D03*
%TD*%
D10*
%TO.P,REF\u002A\u002A,1*%
%TO.N,thumb1_thumbrow*%
X245769892Y-183848748D03*
%TD*%
D11*
%TO.P,S6,1*%
%TO.N,outer1_bottom*%
X129775000Y-159450000D03*
%TO.P,S6,2*%
%TO.N,P14*%
X118225000Y-157250000D03*
%TD*%
%TO.P,S24,1*%
%TO.N,middle_numbers*%
X186775000Y-93450000D03*
%TO.P,S24,2*%
%TO.N,P19*%
X175225000Y-91250000D03*
%TD*%
D12*
%TO.P,D1,1*%
%TO.N,P10*%
X103690000Y-148500000D03*
D13*
X105850000Y-148500000D03*
%TO.P,D1,2*%
%TO.N,outer2_bottom*%
X109150000Y-148500000D03*
D14*
X111310000Y-148500000D03*
%TD*%
D10*
%TO.P,REF\u002A\u002A,1*%
%TO.N,P16*%
X107500000Y-124000000D03*
%TD*%
%TO.P,REF\u002A\u002A,1*%
%TO.N,pinky_home*%
X145500000Y-138000000D03*
%TD*%
D12*
%TO.P,D7,1*%
%TO.N,P6*%
X122690000Y-129500000D03*
D13*
X124850000Y-129500000D03*
%TO.P,D7,2*%
%TO.N,outer1_home*%
X128150000Y-129500000D03*
D14*
X130310000Y-129500000D03*
%TD*%
D10*
%TO.P,REF\u002A\u002A,1*%
%TO.N,ring_top*%
X164500000Y-113000000D03*
%TD*%
%TO.P,REF\u002A\u002A,1*%
%TO.N,P20*%
X224317029Y-183917279D03*
%TD*%
D11*
%TO.P,S10,1*%
%TO.N,pinky_modifiers*%
X148775000Y-180450000D03*
%TO.P,S10,2*%
%TO.N,P14*%
X137225000Y-178250000D03*
%TD*%
D12*
%TO.P,D18,1*%
%TO.N,P5*%
X160690000Y-104500000D03*
D13*
X162850000Y-104500000D03*
%TO.P,D18,2*%
%TO.N,ring_top*%
X166150000Y-104500000D03*
D14*
X168310000Y-104500000D03*
%TD*%
D10*
%TO.P,REF\u002A\u002A,1*%
%TO.N,P15*%
X145500000Y-105000000D03*
%TD*%
%TO.P,REF\u002A\u002A,1*%
%TO.N,P19*%
X202500000Y-177000000D03*
%TD*%
%TO.P,REF\u002A\u002A,1*%
%TO.N,P20*%
X202500000Y-99000000D03*
%TD*%
%TO.P,REF\u002A\u002A,1*%
%TO.N,P18*%
X183500000Y-174000000D03*
%TD*%
D11*
%TO.P,S1,1*%
%TO.N,outer2_bottom*%
X110775000Y-159450000D03*
%TO.P,S1,2*%
%TO.N,P16*%
X99225000Y-157250000D03*
%TD*%
%TO.P,S20,1*%
%TO.N,middle_modifiers*%
X186775000Y-171450000D03*
%TO.P,S20,2*%
%TO.N,P18*%
X175225000Y-169250000D03*
%TD*%
D10*
%TO.P,REF\u002A\u002A,1*%
%TO.N,P18*%
X164500000Y-118000000D03*
%TD*%
D11*
%TO.P,S12,1*%
%TO.N,pinky_home*%
X148775000Y-140450000D03*
%TO.P,S12,2*%
%TO.N,P15*%
X137225000Y-138250000D03*
%TD*%
D10*
%TO.P,REF\u002A\u002A,1*%
%TO.N,thumb2_thumbrow*%
X265383130Y-191477421D03*
%TD*%
D11*
%TO.P,S29,1*%
%TO.N,index_numbers*%
X205775000Y-96450000D03*
%TO.P,S29,2*%
%TO.N,P20*%
X194225000Y-94250000D03*
%TD*%
D10*
%TO.P,REF\u002A\u002A,1*%
%TO.N,P19*%
X183500000Y-134000000D03*
%TD*%
%TO.P,REF\u002A\u002A,1*%
%TO.N,P21*%
X221500000Y-102000000D03*
%TD*%
%TO.P,REF\u002A\u002A,1*%
%TO.N,P14*%
X126500000Y-105000000D03*
%TD*%
%TO.P,REF\u002A\u002A,1*%
%TO.N,pinky_top*%
X145500000Y-119000000D03*
%TD*%
D11*
%TO.P,S17,1*%
%TO.N,ring_home*%
X167775000Y-134450000D03*
%TO.P,S17,2*%
%TO.N,P18*%
X156225000Y-132250000D03*
%TD*%
D10*
%TO.P,REF\u002A\u002A,1*%
%TO.N,ring_home*%
X164500000Y-132000000D03*
%TD*%
%TO.P,REF\u002A\u002A,1*%
%TO.N,P15*%
X145500000Y-162000000D03*
%TD*%
%TO.P,REF\u002A\u002A,1*%
%TO.N,P18*%
X164500000Y-156000000D03*
%TD*%
%TO.P,REF\u002A\u002A,1*%
%TO.N,P14*%
X126500000Y-124000000D03*
%TD*%
D12*
%TO.P,D4,1*%
%TO.N,P4*%
X103690000Y-91500000D03*
D13*
X105850000Y-91500000D03*
%TO.P,D4,2*%
%TO.N,outer2_numbers*%
X109150000Y-91500000D03*
D14*
X111310000Y-91500000D03*
%TD*%
D18*
%TO.P,S35,1*%
%TO.N,thumb1_thumbrow*%
X248242713Y-187106551D03*
%TO.P,S35,2*%
%TO.N,P21*%
X237746542Y-181808164D03*
%TD*%
D11*
%TO.P,S2,1*%
%TO.N,outer2_home*%
X110775000Y-140450000D03*
%TO.P,S2,2*%
%TO.N,P16*%
X99225000Y-138250000D03*
%TD*%
D10*
%TO.P,REF\u002A\u002A,1*%
%TO.N,P20*%
X202500000Y-137000000D03*
%TD*%
%TO.P,REF\u002A\u002A,1*%
%TO.N,P20*%
X202500000Y-156000000D03*
%TD*%
%TO.P,REF\u002A\u002A,1*%
%TO.N,P8*%
X263349447Y-196045148D03*
%TD*%
%TO.P,REF\u002A\u002A,1*%
%TO.N,P19*%
X183500000Y-115000000D03*
%TD*%
D12*
%TO.P,D32,1*%
%TO.N,P5*%
X217690000Y-107500000D03*
D13*
X219850000Y-107500000D03*
%TO.P,D32,2*%
%TO.N,inner1_top*%
X223150000Y-107500000D03*
D14*
X225310000Y-107500000D03*
%TD*%
D12*
%TO.P,D33,1*%
%TO.N,P4*%
X217690000Y-88500000D03*
D13*
X219850000Y-88500000D03*
%TO.P,D33,2*%
%TO.N,inner1_numbers*%
X223150000Y-88500000D03*
D14*
X225310000Y-88500000D03*
%TD*%
D11*
%TO.P,S5,1*%
%TO.N,outer1_modifiers*%
X129775000Y-180450000D03*
%TO.P,S5,2*%
%TO.N,P16*%
X118225000Y-178250000D03*
%TD*%
D10*
%TO.P,REF\u002A\u002A,1*%
%TO.N,inner1_bottom*%
X221500000Y-154000000D03*
%TD*%
D12*
%TO.P,D2,1*%
%TO.N,P6*%
X103690000Y-129500000D03*
D13*
X105850000Y-129500000D03*
%TO.P,D2,2*%
%TO.N,outer2_home*%
X109150000Y-129500000D03*
D14*
X111310000Y-129500000D03*
%TD*%
D11*
%TO.P,S22,1*%
%TO.N,middle_home*%
X186775000Y-131450000D03*
%TO.P,S22,2*%
%TO.N,P19*%
X175225000Y-129250000D03*
%TD*%
D10*
%TO.P,REF\u002A\u002A,1*%
%TO.N,P16*%
X107500000Y-162000000D03*
%TD*%
%TO.P,REF\u002A\u002A,1*%
%TO.N,P21*%
X221500000Y-159000000D03*
%TD*%
D11*
%TO.P,S28,1*%
%TO.N,index_top*%
X205775000Y-115450000D03*
%TO.P,S28,2*%
%TO.N,P20*%
X194225000Y-113250000D03*
%TD*%
D10*
%TO.P,REF\u002A\u002A,1*%
%TO.N,outer2_numbers*%
X107500000Y-100000000D03*
%TD*%
D11*
%TO.P,S27,1*%
%TO.N,index_home*%
X205775000Y-134450000D03*
%TO.P,S27,2*%
%TO.N,P20*%
X194225000Y-132250000D03*
%TD*%
D12*
%TO.P,D3,1*%
%TO.N,P5*%
X103690000Y-110500000D03*
D13*
X105850000Y-110500000D03*
%TO.P,D3,2*%
%TO.N,outer2_top*%
X109150000Y-110500000D03*
D14*
X111310000Y-110500000D03*
%TD*%
D12*
%TO.P,D25,1*%
%TO.N,P7*%
X198690000Y-163500000D03*
D13*
X200850000Y-163500000D03*
%TO.P,D25,2*%
%TO.N,index_modifiers*%
X204150000Y-163500000D03*
D14*
X206310000Y-163500000D03*
%TD*%
D11*
%TO.P,S19,1*%
%TO.N,ring_numbers*%
X167775000Y-96450000D03*
%TO.P,S19,2*%
%TO.N,P18*%
X156225000Y-94250000D03*
%TD*%
D10*
%TO.P,REF\u002A\u002A,1*%
%TO.N,P16*%
X126500000Y-183000000D03*
%TD*%
%TO.P,REF\u002A\u002A,1*%
%TO.N,inner1_numbers*%
X221500000Y-97000000D03*
%TD*%
%TO.P,REF\u002A\u002A,1*%
%TO.N,P21*%
X221500000Y-121000000D03*
%TD*%
D12*
%TO.P,D28,1*%
%TO.N,P5*%
X198690000Y-104500000D03*
D13*
X200850000Y-104500000D03*
%TO.P,D28,2*%
%TO.N,index_top*%
X204150000Y-104500000D03*
D14*
X206310000Y-104500000D03*
%TD*%
D12*
%TO.P,D12,1*%
%TO.N,P6*%
X141690000Y-129500000D03*
D13*
X143850000Y-129500000D03*
%TO.P,D12,2*%
%TO.N,pinky_home*%
X147150000Y-129500000D03*
D14*
X149310000Y-129500000D03*
%TD*%
D10*
%TO.P,REF\u002A\u002A,1*%
%TO.N,index_modifiers*%
X202500000Y-172000000D03*
%TD*%
D12*
%TO.P,D24,1*%
%TO.N,P4*%
X179690000Y-82500000D03*
D13*
X181850000Y-82500000D03*
%TO.P,D24,2*%
%TO.N,middle_numbers*%
X185150000Y-82500000D03*
D14*
X187310000Y-82500000D03*
%TD*%
D10*
%TO.P,REF\u002A\u002A,1*%
%TO.N,outer1_bottom*%
X126500000Y-157000000D03*
%TD*%
D12*
%TO.P,D31,1*%
%TO.N,P6*%
X217690000Y-126500000D03*
D13*
X219850000Y-126500000D03*
%TO.P,D31,2*%
%TO.N,inner1_home*%
X223150000Y-126500000D03*
D14*
X225310000Y-126500000D03*
%TD*%
D19*
%TO.P,SERIAL1,1*%
%TO.N,GND*%
X231300000Y-80400000D03*
D20*
%TO.P,SERIAL1,2*%
%TO.N,P0*%
X228760000Y-80400000D03*
%TO.P,SERIAL1,3*%
X226220000Y-80400000D03*
%TO.P,SERIAL1,4*%
%TO.N,VCC*%
X223680000Y-80400000D03*
%TD*%
D10*
%TO.P,REF\u002A\u002A,1*%
%TO.N,middle_top*%
X183500000Y-110000000D03*
%TD*%
%TO.P,REF\u002A\u002A,1*%
%TO.N,P15*%
X145500000Y-143000000D03*
%TD*%
%TO.P,REF\u002A\u002A,1*%
%TO.N,index_home*%
X202500000Y-132000000D03*
%TD*%
D11*
%TO.P,S13,1*%
%TO.N,pinky_top*%
X148775000Y-121450000D03*
%TO.P,S13,2*%
%TO.N,P15*%
X137225000Y-119250000D03*
%TD*%
%TO.P,S15,1*%
%TO.N,ring_modifiers*%
X167775000Y-174450000D03*
%TO.P,S15,2*%
%TO.N,P15*%
X156225000Y-172250000D03*
%TD*%
D21*
%TO.P,D35,1*%
%TO.N,P7*%
X244450403Y-174627845D03*
D22*
X246526728Y-175223221D03*
%TO.P,D35,2*%
%TO.N,thumb1_thumbrow*%
X249698892Y-176132825D03*
D14*
X251775217Y-176728201D03*
%TD*%
D12*
%TO.P,D10,1*%
%TO.N,P7*%
X141690000Y-169500000D03*
D13*
X143850000Y-169500000D03*
%TO.P,D10,2*%
%TO.N,pinky_modifiers*%
X147150000Y-169500000D03*
D14*
X149310000Y-169500000D03*
%TD*%
D11*
%TO.P,S14,1*%
%TO.N,pinky_numbers*%
X148775000Y-102450000D03*
%TO.P,S14,2*%
%TO.N,P15*%
X137225000Y-100250000D03*
%TD*%
D10*
%TO.P,REF\u002A\u002A,1*%
%TO.N,P15*%
X164500000Y-177000000D03*
%TD*%
D12*
%TO.P,D27,1*%
%TO.N,P6*%
X198690000Y-123500000D03*
D13*
X200850000Y-123500000D03*
%TO.P,D27,2*%
%TO.N,index_home*%
X204150000Y-123500000D03*
D14*
X206310000Y-123500000D03*
%TD*%
D10*
%TO.P,REF\u002A\u002A,1*%
%TO.N,index_numbers*%
X202500000Y-94000000D03*
%TD*%
%TO.P,REF\u002A\u002A,1*%
%TO.N,outer2_top*%
X107500000Y-119000000D03*
%TD*%
%TO.P,REF\u002A\u002A,1*%
%TO.N,pinky_numbers*%
X145500000Y-100000000D03*
%TD*%
D23*
%TO.P,S34,1*%
%TO.N,inner1_thumbrow*%
X227915048Y-181847887D03*
%TO.P,S34,2*%
%TO.N,P20*%
X216783633Y-178061848D03*
%TD*%
D10*
%TO.P,REF\u002A\u002A,1*%
%TO.N,middle_home*%
X183500000Y-129000000D03*
%TD*%
D11*
%TO.P,S21,1*%
%TO.N,middle_bottom*%
X186775000Y-150450000D03*
%TO.P,S21,2*%
%TO.N,P19*%
X175225000Y-148250000D03*
%TD*%
D10*
%TO.P,REF\u002A\u002A,1*%
%TO.N,outer1_top*%
X126500000Y-119000000D03*
%TD*%
D11*
%TO.P,S31,1*%
%TO.N,inner1_home*%
X224775000Y-137450000D03*
%TO.P,S31,2*%
%TO.N,P21*%
X213225000Y-135250000D03*
%TD*%
D10*
%TO.P,REF\u002A\u002A,1*%
%TO.N,outer1_home*%
X126500000Y-138000000D03*
%TD*%
D11*
%TO.P,S18,1*%
%TO.N,ring_top*%
X167775000Y-115450000D03*
%TO.P,S18,2*%
%TO.N,P18*%
X156225000Y-113250000D03*
%TD*%
D24*
%TO.P,TRRS1,1*%
%TO.N,VCC*%
X241200000Y-129200000D03*
X241200000Y-131500000D03*
%TO.P,TRRS1,2*%
%TO.N,P2*%
X242300000Y-126900000D03*
X242300000Y-133800000D03*
%TO.P,TRRS1,3*%
%TO.N,P3*%
X246300000Y-126900000D03*
X246300000Y-133800000D03*
%TO.P,TRRS1,4*%
%TO.N,GND*%
X249300000Y-126900000D03*
X249300000Y-133800000D03*
%TD*%
D12*
%TO.P,D11,1*%
%TO.N,P10*%
X141690000Y-148500000D03*
D13*
X143850000Y-148500000D03*
%TO.P,D11,2*%
%TO.N,pinky_bottom*%
X147150000Y-148500000D03*
D14*
X149310000Y-148500000D03*
%TD*%
D11*
%TO.P,S16,1*%
%TO.N,ring_bottom*%
X167775000Y-153450000D03*
%TO.P,S16,2*%
%TO.N,P18*%
X156225000Y-151250000D03*
%TD*%
D10*
%TO.P,REF\u002A\u002A,1*%
%TO.N,index_bottom*%
X202500000Y-151000000D03*
%TD*%
%TO.P,REF\u002A\u002A,1*%
%TO.N,P18*%
X164500000Y-137000000D03*
%TD*%
D12*
%TO.P,D14,1*%
%TO.N,P4*%
X141690000Y-91500000D03*
D13*
X143850000Y-91500000D03*
%TO.P,D14,2*%
%TO.N,pinky_numbers*%
X147150000Y-91500000D03*
D14*
X149310000Y-91500000D03*
%TD*%
D12*
%TO.P,D9,1*%
%TO.N,P4*%
X122690000Y-91500000D03*
D13*
X124850000Y-91500000D03*
%TO.P,D9,2*%
%TO.N,outer1_numbers*%
X128150000Y-91500000D03*
D14*
X130310000Y-91500000D03*
%TD*%
D10*
%TO.P,REF\u002A\u002A,1*%
%TO.N,outer2_home*%
X107500000Y-138000000D03*
%TD*%
D12*
%TO.P,D13,1*%
%TO.N,P5*%
X141690000Y-110500000D03*
D13*
X143850000Y-110500000D03*
%TO.P,D13,2*%
%TO.N,pinky_top*%
X147150000Y-110500000D03*
D14*
X149310000Y-110500000D03*
%TD*%
D10*
%TO.P,REF\u002A\u002A,1*%
%TO.N,P21*%
X221500000Y-140000000D03*
%TD*%
D25*
%TO.P,D36,1*%
%TO.N,P7*%
X265359783Y-182162618D03*
D26*
X267333041Y-183041170D03*
%TO.P,D36,2*%
%TO.N,thumb2_thumbrow*%
X270347741Y-184383400D03*
D14*
X272320999Y-185261952D03*
%TD*%
D12*
%TO.P,D16,1*%
%TO.N,P10*%
X160690000Y-142500000D03*
D13*
X162850000Y-142500000D03*
%TO.P,D16,2*%
%TO.N,ring_bottom*%
X166150000Y-142500000D03*
D14*
X168310000Y-142500000D03*
%TD*%
D10*
%TO.P,REF\u002A\u002A,1*%
%TO.N,P18*%
X164500000Y-99000000D03*
%TD*%
D27*
%TO.P,RST1,1*%
%TO.N,GND*%
X245750000Y-122000000D03*
%TO.P,RST1,2*%
%TO.N,RST*%
X239250000Y-122000000D03*
%TD*%
D10*
%TO.P,REF\u002A\u002A,1*%
%TO.N,pinky_modifiers*%
X145500000Y-178000000D03*
%TD*%
%TO.P,REF\u002A\u002A,1*%
%TO.N,P15*%
X145500000Y-124000000D03*
%TD*%
D11*
%TO.P,S9,1*%
%TO.N,outer1_numbers*%
X129775000Y-102450000D03*
%TO.P,S9,2*%
%TO.N,P14*%
X118225000Y-100250000D03*
%TD*%
D28*
%TO.P,S36,1*%
%TO.N,thumb2_thumbrow*%
X267378486Y-195047670D03*
%TO.P,S36,2*%
%TO.N,P8*%
X257721857Y-188340062D03*
%TD*%
D12*
%TO.P,D30,1*%
%TO.N,P10*%
X217690000Y-145500000D03*
D13*
X219850000Y-145500000D03*
%TO.P,D30,2*%
%TO.N,inner1_bottom*%
X223150000Y-145500000D03*
D14*
X225310000Y-145500000D03*
%TD*%
D10*
%TO.P,REF\u002A\u002A,1*%
%TO.N,ring_bottom*%
X164500000Y-151000000D03*
%TD*%
%TO.P,REF\u002A\u002A,1*%
%TO.N,ring_numbers*%
X164500000Y-94000000D03*
%TD*%
D12*
%TO.P,D21,1*%
%TO.N,P10*%
X179690000Y-139500000D03*
D13*
X181850000Y-139500000D03*
%TO.P,D21,2*%
%TO.N,middle_bottom*%
X185150000Y-139500000D03*
D14*
X187310000Y-139500000D03*
%TD*%
D10*
%TO.P,REF\u002A\u002A,1*%
%TO.N,P16*%
X107500000Y-105000000D03*
%TD*%
%TO.P,REF\u002A\u002A,1*%
%TO.N,pinky_bottom*%
X145500000Y-157000000D03*
%TD*%
D12*
%TO.P,D26,1*%
%TO.N,P10*%
X198690000Y-142500000D03*
D13*
X200850000Y-142500000D03*
%TO.P,D26,2*%
%TO.N,index_bottom*%
X204150000Y-142500000D03*
D14*
X206310000Y-142500000D03*
%TD*%
D10*
%TO.P,REF\u002A\u002A,1*%
%TO.N,middle_numbers*%
X183500000Y-91000000D03*
%TD*%
%TO.P,REF\u002A\u002A,1*%
%TO.N,P20*%
X202500000Y-118000000D03*
%TD*%
D29*
%TO.P,MCU1,1*%
%TO.N,RAW*%
X234880000Y-89030000D03*
D30*
%TO.P,MCU1,2*%
%TO.N,GND*%
X234880000Y-91570000D03*
%TO.P,MCU1,3*%
%TO.N,RST*%
X234880000Y-94110000D03*
%TO.P,MCU1,4*%
%TO.N,VCC*%
X234880000Y-96650000D03*
%TO.P,MCU1,5*%
%TO.N,P21*%
X234880000Y-99190000D03*
%TO.P,MCU1,6*%
%TO.N,P20*%
X234880000Y-101730000D03*
%TO.P,MCU1,7*%
%TO.N,P19*%
X234880000Y-104270000D03*
%TO.P,MCU1,8*%
%TO.N,P18*%
X234880000Y-106810000D03*
%TO.P,MCU1,9*%
%TO.N,P15*%
X234880000Y-109350000D03*
%TO.P,MCU1,10*%
%TO.N,P14*%
X234880000Y-111890000D03*
%TO.P,MCU1,11*%
%TO.N,P16*%
X234880000Y-114430000D03*
%TO.P,MCU1,12*%
%TO.N,P10*%
X234880000Y-116970000D03*
%TO.P,MCU1,13*%
%TO.N,P1*%
X250120000Y-89030000D03*
%TO.P,MCU1,14*%
%TO.N,P0*%
X250120000Y-91570000D03*
%TO.P,MCU1,15*%
%TO.N,GND*%
X250120000Y-94110000D03*
%TO.P,MCU1,16*%
X250120000Y-96650000D03*
%TO.P,MCU1,17*%
%TO.N,P2*%
X250120000Y-99190000D03*
%TO.P,MCU1,18*%
%TO.N,P3*%
X250120000Y-101730000D03*
%TO.P,MCU1,19*%
%TO.N,P4*%
X250120000Y-104270000D03*
%TO.P,MCU1,20*%
%TO.N,P5*%
X250120000Y-106810000D03*
%TO.P,MCU1,21*%
%TO.N,P6*%
X250120000Y-109350000D03*
%TO.P,MCU1,22*%
%TO.N,P7*%
X250120000Y-111890000D03*
%TO.P,MCU1,23*%
%TO.N,P8*%
X250120000Y-114430000D03*
%TO.P,MCU1,24*%
%TO.N,P9*%
X250120000Y-116970000D03*
%TD*%
D14*
%TO.P,R21,2*%
%TO.N,P2*%
X237000000Y-126690000D03*
D15*
X237000000Y-128850000D03*
%TO.P,R21,1*%
%TO.N,VCC*%
X237000000Y-132150000D03*
D12*
X237000000Y-134310000D03*
%TD*%
D10*
%TO.P,REF\u002A\u002A,1*%
%TO.N,P14*%
X145500000Y-183000000D03*
%TD*%
D19*
%TO.P,OLED1,1*%
%TO.N,GND*%
X252100000Y-155550000D03*
D20*
%TO.P,OLED1,2*%
%TO.N,VCC*%
X252100000Y-153010000D03*
%TO.P,OLED1,3*%
%TO.N,P3*%
X252100000Y-150470000D03*
%TO.P,OLED1,4*%
%TO.N,P2*%
X252100000Y-147930000D03*
%TD*%
D11*
%TO.P,S32,1*%
%TO.N,inner1_top*%
X224775000Y-118450000D03*
%TO.P,S32,2*%
%TO.N,P21*%
X213225000Y-116250000D03*
%TD*%
D10*
%TO.P,REF\u002A\u002A,1*%
%TO.N,middle_bottom*%
X183500000Y-148000000D03*
%TD*%
D12*
%TO.P,D22,1*%
%TO.N,P6*%
X179690000Y-120500000D03*
D13*
X181850000Y-120500000D03*
%TO.P,D22,2*%
%TO.N,middle_home*%
X185150000Y-120500000D03*
D14*
X187310000Y-120500000D03*
%TD*%
D10*
%TO.P,REF\u002A\u002A,1*%
%TO.N,P21*%
X244391705Y-188655056D03*
%TD*%
%TO.P,REF\u002A\u002A,1*%
%TO.N,middle_modifiers*%
X183500000Y-169000000D03*
%TD*%
%TO.P,REF\u002A\u002A,1*%
%TO.N,outer2_bottom*%
X107500000Y-157000000D03*
%TD*%
%TO.P,REF\u002A\u002A,1*%
%TO.N,inner1_home*%
X221500000Y-135000000D03*
%TD*%
D31*
%TO.P,ROT1,*%
%TO.N,*%
X236860000Y-150620000D03*
X248060000Y-150620000D03*
D32*
%TO.P,ROT1,1*%
%TO.N,P8*%
X239960000Y-143620000D03*
%TO.P,ROT1,2*%
%TO.N,P10*%
X244960000Y-143620000D03*
D33*
%TO.P,ROT1,A*%
%TO.N,P9*%
X239960000Y-158120000D03*
D27*
%TO.P,ROT1,B*%
%TO.N,GND*%
X244960000Y-158120000D03*
%TO.P,ROT1,C*%
%TO.N,P1*%
X242460000Y-158120000D03*
%TD*%
D12*
%TO.P,D23,1*%
%TO.N,P5*%
X179690000Y-101500000D03*
D13*
X181850000Y-101500000D03*
%TO.P,D23,2*%
%TO.N,middle_top*%
X185150000Y-101500000D03*
D14*
X187310000Y-101500000D03*
%TD*%
D11*
%TO.P,S7,1*%
%TO.N,outer1_home*%
X129775000Y-140450000D03*
%TO.P,S7,2*%
%TO.N,P14*%
X118225000Y-138250000D03*
%TD*%
D12*
%TO.P,D20,1*%
%TO.N,P7*%
X179690000Y-160500000D03*
D13*
X181850000Y-160500000D03*
%TO.P,D20,2*%
%TO.N,middle_modifiers*%
X185150000Y-160500000D03*
D14*
X187310000Y-160500000D03*
%TD*%
D10*
%TO.P,REF\u002A\u002A,1*%
%TO.N,P19*%
X183500000Y-153000000D03*
%TD*%
D12*
%TO.P,D29,1*%
%TO.N,P4*%
X198690000Y-85500000D03*
D13*
X200850000Y-85500000D03*
%TO.P,D29,2*%
%TO.N,index_numbers*%
X204150000Y-85500000D03*
D14*
X206310000Y-85500000D03*
%TD*%
D12*
%TO.P,D15,1*%
%TO.N,P7*%
X160690000Y-163500000D03*
D13*
X162850000Y-163500000D03*
%TO.P,D15,2*%
%TO.N,ring_modifiers*%
X166150000Y-163500000D03*
D14*
X168310000Y-163500000D03*
%TD*%
D10*
%TO.P,REF\u002A\u002A,1*%
%TO.N,inner1_thumbrow*%
X225012894Y-178965938D03*
%TD*%
D12*
%TO.P,D19,1*%
%TO.N,P4*%
X160690000Y-85500000D03*
D13*
X162850000Y-85500000D03*
%TO.P,D19,2*%
%TO.N,ring_numbers*%
X166150000Y-85500000D03*
D14*
X168310000Y-85500000D03*
%TD*%
D11*
%TO.P,S8,1*%
%TO.N,outer1_top*%
X129775000Y-121450000D03*
%TO.P,S8,2*%
%TO.N,P14*%
X118225000Y-119250000D03*
%TD*%
D34*
%TO.N,P1*%
X248000000Y-163000000D03*
X251000000Y-163000000D03*
%TO.N,GND*%
X243500000Y-92000000D03*
%TD*%
D35*
%TO.N,P1*%
X250120000Y-89030000D02*
X252925000Y-91835000D01*
X252925000Y-91835000D02*
X252925000Y-139847792D01*
X250000000Y-142772792D02*
X250000000Y-162000000D01*
X252925000Y-139847792D02*
X250000000Y-142772792D01*
X250000000Y-162000000D02*
X251000000Y-163000000D01*
D36*
X244500000Y-163000000D02*
X242500000Y-161000000D01*
X242500000Y-160500000D02*
X242460000Y-160460000D01*
X242460000Y-160460000D02*
X242460000Y-158120000D01*
X248000000Y-163000000D02*
X244500000Y-163000000D01*
X242500000Y-161000000D02*
X242500000Y-160500000D01*
D35*
%TO.N,P7*%
X131500000Y-172000000D02*
X124000000Y-172000000D01*
X141690000Y-169500000D02*
X134000000Y-169500000D01*
X134000000Y-169500000D02*
X131500000Y-172000000D01*
X124000000Y-172000000D02*
X122690000Y-170690000D01*
X122690000Y-170690000D02*
X122690000Y-169500000D01*
X150000000Y-172000000D02*
X143000000Y-172000000D01*
X141690000Y-170690000D02*
X141690000Y-169500000D01*
X160690000Y-163500000D02*
X158500000Y-163500000D01*
X158500000Y-163500000D02*
X150000000Y-172000000D01*
X143000000Y-172000000D02*
X141690000Y-170690000D01*
%TO.N,pinky_modifiers*%
X147150000Y-169500000D02*
X149310000Y-169500000D01*
%TO.N,P7*%
X141690000Y-169500000D02*
X143850000Y-169500000D01*
%TO.N,outer1_modifiers*%
X128150000Y-169500000D02*
X130310000Y-169500000D01*
%TO.N,P7*%
X122690000Y-169500000D02*
X124850000Y-169500000D01*
%TO.N,P16*%
X126500000Y-183000000D02*
X122975000Y-183000000D01*
X122975000Y-183000000D02*
X118225000Y-178250000D01*
%TO.N,outer1_modifiers*%
X129775000Y-180450000D02*
X127325000Y-178000000D01*
X127325000Y-178000000D02*
X126500000Y-178000000D01*
%TO.N,P14*%
X145500000Y-183000000D02*
X141975000Y-183000000D01*
X141975000Y-183000000D02*
X137225000Y-178250000D01*
%TO.N,pinky_modifiers*%
X148775000Y-180450000D02*
X146325000Y-178000000D01*
X146325000Y-178000000D02*
X145500000Y-178000000D01*
%TO.N,P15*%
X164500000Y-177000000D02*
X160975000Y-177000000D01*
X160975000Y-177000000D02*
X156225000Y-172250000D01*
%TO.N,ring_modifiers*%
X167775000Y-174450000D02*
X165325000Y-172000000D01*
X165325000Y-172000000D02*
X164500000Y-172000000D01*
%TO.N,P19*%
X202500000Y-177000000D02*
X198975000Y-177000000D01*
X198975000Y-177000000D02*
X194225000Y-172250000D01*
%TO.N,index_modifiers*%
X205775000Y-174450000D02*
X203325000Y-172000000D01*
X203325000Y-172000000D02*
X202500000Y-172000000D01*
%TO.N,P18*%
X183500000Y-174000000D02*
X179975000Y-174000000D01*
X179975000Y-174000000D02*
X175225000Y-169250000D01*
%TO.N,middle_modifiers*%
X186775000Y-171450000D02*
X184325000Y-169000000D01*
X184325000Y-169000000D02*
X183500000Y-169000000D01*
%TO.N,ring_modifiers*%
X166150000Y-163500000D02*
X168310000Y-163500000D01*
%TO.N,P7*%
X160690000Y-163500000D02*
X162850000Y-163500000D01*
X169500000Y-166000000D02*
X161500000Y-166000000D01*
X179690000Y-160500000D02*
X175000000Y-160500000D01*
X175000000Y-160500000D02*
X169500000Y-166000000D01*
X161500000Y-166000000D02*
X160690000Y-165190000D01*
X160690000Y-165190000D02*
X160690000Y-163500000D01*
%TO.N,middle_modifiers*%
X187310000Y-160500000D02*
X185150000Y-160500000D01*
%TO.N,P7*%
X181850000Y-160500000D02*
X179690000Y-160500000D01*
X187000000Y-163500000D02*
X186500000Y-163000000D01*
X198690000Y-163500000D02*
X187000000Y-163500000D01*
X186500000Y-163000000D02*
X182190000Y-163000000D01*
X182190000Y-163000000D02*
X179690000Y-160500000D01*
%TO.N,index_modifiers*%
X206310000Y-163500000D02*
X204150000Y-163500000D01*
%TO.N,P7*%
X200850000Y-163500000D02*
X198690000Y-163500000D01*
X222422945Y-170018409D02*
X217904536Y-165500000D01*
X217904536Y-165500000D02*
X200690000Y-165500000D01*
X200690000Y-165500000D02*
X198690000Y-163500000D01*
%TO.N,P20*%
X224317029Y-183917279D02*
X222639064Y-183917279D01*
X222639064Y-183917279D02*
X216783633Y-178061848D01*
%TO.N,inner1_thumbrow*%
X227915048Y-181847887D02*
X227894843Y-181847887D01*
X227894843Y-181847887D02*
X225012894Y-178965938D01*
%TO.N,P21*%
X244391705Y-188655056D02*
X243967441Y-188655056D01*
X243967441Y-188655056D02*
X237746542Y-182434157D01*
X237746542Y-182434157D02*
X237746542Y-181808164D01*
%TO.N,P8*%
X263349447Y-196045148D02*
X257721857Y-190417558D01*
X257721857Y-190417558D02*
X257721857Y-188340062D01*
%TO.N,thumb2_thumbrow*%
X267378486Y-195047670D02*
X267378486Y-193472777D01*
X267378486Y-193472777D02*
X265383130Y-191477421D01*
%TO.N,thumb1_thumbrow*%
X248242713Y-187106551D02*
X248242713Y-186321569D01*
X248242713Y-186321569D02*
X245769892Y-183848748D01*
%TO.N,inner1_thumbrow*%
X229968787Y-171078911D02*
X228130423Y-171078911D01*
X228130423Y-171078911D02*
X227829808Y-170778296D01*
%TO.N,P7*%
X224561924Y-170319024D02*
X222723560Y-170319024D01*
X222723560Y-170319024D02*
X222422945Y-170018409D01*
X242822558Y-173000000D02*
X224000000Y-173000000D01*
X244450403Y-174627845D02*
X242822558Y-173000000D01*
X224000000Y-173000000D02*
X222422945Y-171422945D01*
X222422945Y-171422945D02*
X222422945Y-170018409D01*
X246526728Y-175223221D02*
X245045779Y-175223221D01*
X245045779Y-175223221D02*
X244450403Y-174627845D01*
%TO.N,thumb1_thumbrow*%
X251775217Y-176728201D02*
X250294268Y-176728201D01*
X250294268Y-176728201D02*
X249698892Y-176132825D01*
%TO.N,thumb2_thumbrow*%
X272320999Y-185261952D02*
X271226293Y-185261952D01*
X271226293Y-185261952D02*
X270347741Y-184383400D01*
%TO.N,P7*%
X267333041Y-183041170D02*
X266238335Y-183041170D01*
X266238335Y-183041170D02*
X265359783Y-182162618D01*
X249500000Y-142636396D02*
X249500000Y-169500000D01*
X262162618Y-182162618D02*
X249500000Y-169500000D01*
X249500000Y-169500000D02*
X249500000Y-169578248D01*
X265359783Y-182162618D02*
X262162618Y-182162618D01*
%TO.N,P2*%
X242300000Y-126900000D02*
X242300000Y-117873705D01*
X242300000Y-117873705D02*
X249622405Y-110551300D01*
X249622405Y-110551300D02*
X250948700Y-110551300D01*
X250948700Y-110551300D02*
X252000000Y-109500000D01*
X252000000Y-109500000D02*
X252000000Y-101070000D01*
X252000000Y-101070000D02*
X250120000Y-99190000D01*
%TO.N,P7*%
X250120000Y-111890000D02*
X252475000Y-114245000D01*
X252475000Y-114245000D02*
X252475000Y-139661396D01*
X252475000Y-139661396D02*
X249500000Y-142636396D01*
X249500000Y-169578248D02*
X244450403Y-174627845D01*
%TO.N,P8*%
X250120000Y-114430000D02*
X252025000Y-116335000D01*
X252025000Y-139475000D02*
X245500000Y-146000000D01*
X252025000Y-116335000D02*
X252025000Y-139475000D01*
X245500000Y-146000000D02*
X242340000Y-146000000D01*
X242340000Y-146000000D02*
X239960000Y-143620000D01*
%TO.N,P10*%
X244960000Y-143620000D02*
X240840000Y-139500000D01*
X240840000Y-139500000D02*
X229000000Y-139500000D01*
%TO.N,inner1_bottom*%
X224775000Y-156450000D02*
X222325000Y-154000000D01*
X222325000Y-154000000D02*
X221500000Y-154000000D01*
%TO.N,P21*%
X221500000Y-159000000D02*
X217975000Y-159000000D01*
X217975000Y-159000000D02*
X213225000Y-154250000D01*
%TO.N,index_bottom*%
X205775000Y-153450000D02*
X203325000Y-151000000D01*
X203325000Y-151000000D02*
X202500000Y-151000000D01*
%TO.N,P20*%
X202500000Y-156000000D02*
X198975000Y-156000000D01*
X198975000Y-156000000D02*
X194225000Y-151250000D01*
%TO.N,middle_bottom*%
X186775000Y-150450000D02*
X184325000Y-148000000D01*
X184325000Y-148000000D02*
X183500000Y-148000000D01*
%TO.N,P19*%
X183500000Y-153000000D02*
X179975000Y-153000000D01*
X179975000Y-153000000D02*
X175225000Y-148250000D01*
%TO.N,ring_bottom*%
X167775000Y-153450000D02*
X165325000Y-151000000D01*
X165325000Y-151000000D02*
X164500000Y-151000000D01*
%TO.N,P18*%
X164500000Y-156000000D02*
X160975000Y-156000000D01*
X160975000Y-156000000D02*
X156225000Y-151250000D01*
%TO.N,pinky_bottom*%
X148775000Y-159450000D02*
X146325000Y-157000000D01*
X146325000Y-157000000D02*
X145500000Y-157000000D01*
%TO.N,P15*%
X145500000Y-162000000D02*
X141975000Y-162000000D01*
X141975000Y-162000000D02*
X137225000Y-157250000D01*
%TO.N,outer1_bottom*%
X129775000Y-159450000D02*
X127325000Y-157000000D01*
X127325000Y-157000000D02*
X126500000Y-157000000D01*
%TO.N,P14*%
X126500000Y-162000000D02*
X122975000Y-162000000D01*
X122975000Y-162000000D02*
X118225000Y-157250000D01*
%TO.N,outer2_bottom*%
X110775000Y-159450000D02*
X108325000Y-157000000D01*
X108325000Y-157000000D02*
X107500000Y-157000000D01*
%TO.N,P16*%
X107500000Y-162000000D02*
X103975000Y-162000000D01*
X103975000Y-162000000D02*
X99225000Y-157250000D01*
%TO.N,outer2_bottom*%
X109150000Y-148500000D02*
X111310000Y-148500000D01*
%TO.N,P10*%
X103690000Y-148500000D02*
X105850000Y-148500000D01*
X113000000Y-150500000D02*
X104500000Y-150500000D01*
X122690000Y-148500000D02*
X115000000Y-148500000D01*
X115000000Y-148500000D02*
X113000000Y-150500000D01*
X104500000Y-150500000D02*
X103690000Y-149690000D01*
X103690000Y-149690000D02*
X103690000Y-148500000D01*
%TO.N,outer1_bottom*%
X130310000Y-148500000D02*
X128150000Y-148500000D01*
%TO.N,P10*%
X124850000Y-148500000D02*
X122690000Y-148500000D01*
X131500000Y-151000000D02*
X124500000Y-151000000D01*
X141690000Y-148500000D02*
X134000000Y-148500000D01*
X122690000Y-149190000D02*
X122690000Y-148500000D01*
X134000000Y-148500000D02*
X131500000Y-151000000D01*
X124500000Y-151000000D02*
X122690000Y-149190000D01*
%TO.N,pinky_bottom*%
X149310000Y-148500000D02*
X147150000Y-148500000D01*
%TO.N,P10*%
X143850000Y-148500000D02*
X141690000Y-148500000D01*
X150000000Y-151000000D02*
X143000000Y-151000000D01*
X160690000Y-142500000D02*
X158500000Y-142500000D01*
X158500000Y-142500000D02*
X150000000Y-151000000D01*
X143000000Y-151000000D02*
X141690000Y-149690000D01*
X141690000Y-149690000D02*
X141690000Y-148500000D01*
%TO.N,ring_bottom*%
X168310000Y-142500000D02*
X166150000Y-142500000D01*
%TO.N,P10*%
X162850000Y-142500000D02*
X160690000Y-142500000D01*
X169000000Y-145000000D02*
X162000000Y-145000000D01*
X179690000Y-139500000D02*
X174500000Y-139500000D01*
X174500000Y-139500000D02*
X169000000Y-145000000D01*
X162000000Y-145000000D02*
X160690000Y-143690000D01*
X160690000Y-143690000D02*
X160690000Y-142500000D01*
%TO.N,middle_bottom*%
X187310000Y-139500000D02*
X185150000Y-139500000D01*
%TO.N,P10*%
X181850000Y-139500000D02*
X179690000Y-139500000D01*
X185500000Y-141500000D02*
X180500000Y-141500000D01*
X179690000Y-140690000D02*
X179690000Y-139500000D01*
X198690000Y-142500000D02*
X186500000Y-142500000D01*
X186500000Y-142500000D02*
X185500000Y-141500000D01*
X180500000Y-141500000D02*
X179690000Y-140690000D01*
%TO.N,inner1_bottom*%
X225310000Y-145500000D02*
X223150000Y-145500000D01*
%TO.N,P10*%
X219850000Y-145500000D02*
X217690000Y-145500000D01*
%TO.N,index_bottom*%
X206310000Y-142500000D02*
X204150000Y-142500000D01*
%TO.N,P10*%
X200850000Y-142500000D02*
X198690000Y-142500000D01*
X217690000Y-145500000D02*
X205000000Y-145500000D01*
X205000000Y-145500000D02*
X204500000Y-145000000D01*
X204500000Y-145000000D02*
X200000000Y-145000000D01*
X200000000Y-145000000D02*
X198690000Y-143690000D01*
X198690000Y-143690000D02*
X198690000Y-142500000D01*
X234880000Y-116970000D02*
X229000000Y-122850000D01*
X229000000Y-122850000D02*
X229000000Y-139500000D01*
X229000000Y-139500000D02*
X225500000Y-143000000D01*
X225500000Y-143000000D02*
X220190000Y-143000000D01*
X220190000Y-143000000D02*
X217690000Y-145500000D01*
%TO.N,P16*%
X107500000Y-143000000D02*
X103975000Y-143000000D01*
X103975000Y-143000000D02*
X99225000Y-138250000D01*
%TO.N,outer2_home*%
X110775000Y-140450000D02*
X108325000Y-138000000D01*
X108325000Y-138000000D02*
X107500000Y-138000000D01*
%TO.N,P14*%
X126500000Y-143000000D02*
X122975000Y-143000000D01*
X122975000Y-143000000D02*
X118225000Y-138250000D01*
%TO.N,outer1_home*%
X129775000Y-140450000D02*
X127325000Y-138000000D01*
X127325000Y-138000000D02*
X126500000Y-138000000D01*
%TO.N,P15*%
X145500000Y-143000000D02*
X141975000Y-143000000D01*
X141975000Y-143000000D02*
X137225000Y-138250000D01*
%TO.N,pinky_home*%
X148775000Y-140450000D02*
X146325000Y-138000000D01*
X146325000Y-138000000D02*
X145500000Y-138000000D01*
%TO.N,P18*%
X164500000Y-137000000D02*
X160975000Y-137000000D01*
X160975000Y-137000000D02*
X156225000Y-132250000D01*
%TO.N,ring_home*%
X167775000Y-134450000D02*
X165325000Y-132000000D01*
X165325000Y-132000000D02*
X164500000Y-132000000D01*
%TO.N,P19*%
X183500000Y-134000000D02*
X179975000Y-134000000D01*
X179975000Y-134000000D02*
X175225000Y-129250000D01*
%TO.N,middle_home*%
X186775000Y-131450000D02*
X184325000Y-129000000D01*
X184325000Y-129000000D02*
X183500000Y-129000000D01*
%TO.N,P20*%
X202500000Y-137000000D02*
X198975000Y-137000000D01*
X198975000Y-137000000D02*
X194225000Y-132250000D01*
%TO.N,index_home*%
X205775000Y-134450000D02*
X203325000Y-132000000D01*
X203325000Y-132000000D02*
X202500000Y-132000000D01*
%TO.N,P21*%
X221500000Y-140000000D02*
X217975000Y-140000000D01*
X217975000Y-140000000D02*
X213225000Y-135250000D01*
%TO.N,inner1_home*%
X224775000Y-137450000D02*
X222325000Y-135000000D01*
X222325000Y-135000000D02*
X221500000Y-135000000D01*
%TO.N,VCC*%
X234000000Y-132150000D02*
X234000000Y-134310000D01*
X237000000Y-132150000D02*
X237000000Y-134310000D01*
%TO.N,P3*%
X234000000Y-128850000D02*
X234000000Y-126690000D01*
%TO.N,P2*%
X237000000Y-128850000D02*
X237000000Y-126690000D01*
%TO.N,P6*%
X103690000Y-129500000D02*
X105850000Y-129500000D01*
X113500000Y-131500000D02*
X104500000Y-131500000D01*
X122690000Y-129500000D02*
X115500000Y-129500000D01*
X115500000Y-129500000D02*
X113500000Y-131500000D01*
X104500000Y-131500000D02*
X103690000Y-130690000D01*
X103690000Y-130690000D02*
X103690000Y-129500000D01*
%TO.N,outer1_home*%
X128150000Y-129500000D02*
X130310000Y-129500000D01*
%TO.N,P6*%
X122690000Y-129500000D02*
X124850000Y-129500000D01*
X132500000Y-132000000D02*
X124000000Y-132000000D01*
X141690000Y-129500000D02*
X135000000Y-129500000D01*
X135000000Y-129500000D02*
X132500000Y-132000000D01*
X124000000Y-132000000D02*
X122690000Y-130690000D01*
X122690000Y-130690000D02*
X122690000Y-129500000D01*
%TO.N,pinky_home*%
X147150000Y-129500000D02*
X149310000Y-129500000D01*
%TO.N,P6*%
X141690000Y-129500000D02*
X143850000Y-129500000D01*
X150500000Y-131500000D02*
X142500000Y-131500000D01*
X160690000Y-123500000D02*
X158500000Y-123500000D01*
X158500000Y-123500000D02*
X150500000Y-131500000D01*
X142500000Y-131500000D02*
X141690000Y-130690000D01*
X141690000Y-130690000D02*
X141690000Y-129500000D01*
%TO.N,ring_home*%
X168310000Y-123500000D02*
X166150000Y-123500000D01*
%TO.N,P6*%
X162850000Y-123500000D02*
X160690000Y-123500000D01*
X175000000Y-120500000D02*
X170000000Y-125500000D01*
X179690000Y-120500000D02*
X175000000Y-120500000D01*
X170000000Y-125500000D02*
X162690000Y-125500000D01*
X162690000Y-125500000D02*
X160690000Y-123500000D01*
%TO.N,middle_home*%
X187310000Y-120500000D02*
X185150000Y-120500000D01*
%TO.N,P6*%
X181850000Y-120500000D02*
X179690000Y-120500000D01*
X204500000Y-126000000D02*
X200000000Y-126000000D01*
X217690000Y-126500000D02*
X205000000Y-126500000D01*
X205000000Y-126500000D02*
X204500000Y-126000000D01*
X200000000Y-126000000D02*
X198690000Y-124690000D01*
X198690000Y-124690000D02*
X198690000Y-123500000D01*
X198690000Y-123500000D02*
X198600500Y-123410500D01*
X198600500Y-123410500D02*
X182600500Y-123410500D01*
X182600500Y-123410500D02*
X179690000Y-120500000D01*
%TO.N,index_home*%
X206310000Y-123500000D02*
X204150000Y-123500000D01*
%TO.N,P6*%
X200850000Y-123500000D02*
X198690000Y-123500000D01*
X198690000Y-123310000D02*
X198690000Y-123500000D01*
%TO.N,inner1_home*%
X225310000Y-126500000D02*
X223150000Y-126500000D01*
%TO.N,P6*%
X219850000Y-126500000D02*
X217690000Y-126500000D01*
X229000000Y-121500000D02*
X227500000Y-123000000D01*
X248781300Y-108011300D02*
X230488700Y-108011300D01*
X230488700Y-108011300D02*
X229000000Y-109500000D01*
X250120000Y-109350000D02*
X248781300Y-108011300D01*
X227500000Y-123000000D02*
X220500000Y-123000000D01*
X229000000Y-109500000D02*
X229000000Y-121500000D01*
X220500000Y-123000000D02*
X217690000Y-125810000D01*
X217690000Y-125810000D02*
X217690000Y-126500000D01*
%TO.N,P16*%
X107500000Y-124000000D02*
X103975000Y-124000000D01*
X103975000Y-124000000D02*
X99225000Y-119250000D01*
%TO.N,outer2_top*%
X110775000Y-121450000D02*
X108325000Y-119000000D01*
X108325000Y-119000000D02*
X107500000Y-119000000D01*
%TO.N,P14*%
X126500000Y-124000000D02*
X122975000Y-124000000D01*
X122975000Y-124000000D02*
X118225000Y-119250000D01*
%TO.N,outer1_top*%
X129775000Y-121450000D02*
X127325000Y-119000000D01*
X127325000Y-119000000D02*
X126500000Y-119000000D01*
%TO.N,P15*%
X145500000Y-124000000D02*
X141975000Y-124000000D01*
X141975000Y-124000000D02*
X137225000Y-119250000D01*
%TO.N,pinky_top*%
X148775000Y-121450000D02*
X146325000Y-119000000D01*
X146325000Y-119000000D02*
X145500000Y-119000000D01*
%TO.N,P18*%
X164500000Y-118000000D02*
X160975000Y-118000000D01*
X160975000Y-118000000D02*
X156225000Y-113250000D01*
%TO.N,ring_top*%
X167775000Y-115450000D02*
X165325000Y-113000000D01*
X165325000Y-113000000D02*
X164500000Y-113000000D01*
%TO.N,P19*%
X183500000Y-115000000D02*
X179975000Y-115000000D01*
X179975000Y-115000000D02*
X175225000Y-110250000D01*
%TO.N,middle_top*%
X186775000Y-112450000D02*
X184325000Y-110000000D01*
X184325000Y-110000000D02*
X183500000Y-110000000D01*
%TO.N,P20*%
X202500000Y-118000000D02*
X198975000Y-118000000D01*
X198975000Y-118000000D02*
X194225000Y-113250000D01*
%TO.N,index_top*%
X205775000Y-115450000D02*
X203325000Y-113000000D01*
X203325000Y-113000000D02*
X202500000Y-113000000D01*
%TO.N,P21*%
X221500000Y-121000000D02*
X217975000Y-121000000D01*
X217975000Y-121000000D02*
X213225000Y-116250000D01*
%TO.N,inner1_top*%
X224775000Y-118450000D02*
X222325000Y-116000000D01*
X222325000Y-116000000D02*
X221500000Y-116000000D01*
%TO.N,outer2_top*%
X109150000Y-110500000D02*
X111310000Y-110500000D01*
%TO.N,P5*%
X105850000Y-110500000D02*
X103690000Y-110500000D01*
X120690000Y-112500000D02*
X105000000Y-112500000D01*
X122690000Y-110500000D02*
X120690000Y-112500000D01*
X105000000Y-112500000D02*
X103690000Y-111190000D01*
X103690000Y-111190000D02*
X103690000Y-110500000D01*
%TO.N,outer1_top*%
X128150000Y-110500000D02*
X130310000Y-110500000D01*
%TO.N,P5*%
X122690000Y-110500000D02*
X124850000Y-110500000D01*
X139690000Y-112500000D02*
X124500000Y-112500000D01*
X141690000Y-110500000D02*
X139690000Y-112500000D01*
X124500000Y-112500000D02*
X122690000Y-110690000D01*
X122690000Y-110690000D02*
X122690000Y-110500000D01*
%TO.N,pinky_top*%
X147150000Y-110500000D02*
X149310000Y-110500000D01*
%TO.N,P5*%
X141690000Y-110500000D02*
X143850000Y-110500000D01*
X159000000Y-104500000D02*
X150500000Y-113000000D01*
X160690000Y-104500000D02*
X159000000Y-104500000D01*
X150500000Y-113000000D02*
X144190000Y-113000000D01*
X144190000Y-113000000D02*
X141690000Y-110500000D01*
%TO.N,ring_top*%
X166150000Y-104500000D02*
X168310000Y-104500000D01*
%TO.N,P5*%
X160690000Y-104500000D02*
X162850000Y-104500000D01*
X170500000Y-106500000D02*
X162690000Y-106500000D01*
X162690000Y-106500000D02*
X160690000Y-104500000D01*
X179690000Y-101500000D02*
X175500000Y-101500000D01*
X175500000Y-101500000D02*
X170500000Y-106500000D01*
%TO.N,middle_top*%
X187310000Y-101500000D02*
X185150000Y-101500000D01*
%TO.N,P5*%
X179690000Y-101500000D02*
X181850000Y-101500000D01*
X198690000Y-104500000D02*
X198190000Y-104000000D01*
X198190000Y-104000000D02*
X181000000Y-104000000D01*
X181000000Y-104000000D02*
X179690000Y-102690000D01*
X179690000Y-102690000D02*
X179690000Y-101500000D01*
%TO.N,index_top*%
X206310000Y-104500000D02*
X204150000Y-104500000D01*
%TO.N,P5*%
X200850000Y-104500000D02*
X198690000Y-104500000D01*
X206000000Y-107500000D02*
X205500000Y-107000000D01*
X217690000Y-107500000D02*
X206000000Y-107500000D01*
X205500000Y-107000000D02*
X201190000Y-107000000D01*
X201190000Y-107000000D02*
X198690000Y-104500000D01*
%TO.N,inner1_top*%
X225310000Y-107500000D02*
X223150000Y-107500000D01*
%TO.N,P5*%
X217690000Y-107500000D02*
X219850000Y-107500000D01*
X236810000Y-106810000D02*
X235500000Y-105500000D01*
X250120000Y-106810000D02*
X236810000Y-106810000D01*
X235500000Y-105500000D02*
X219690000Y-105500000D01*
X219690000Y-105500000D02*
X217690000Y-107500000D01*
%TO.N,P4*%
X250120000Y-104270000D02*
X243701300Y-97851300D01*
X232500000Y-93000000D02*
X230500000Y-91000000D01*
X243701300Y-97851300D02*
X233851300Y-97851300D01*
X233851300Y-97851300D02*
X232500000Y-96500000D01*
X232500000Y-96500000D02*
X232500000Y-93000000D01*
X230500000Y-91000000D02*
X220190000Y-91000000D01*
X220190000Y-91000000D02*
X217690000Y-88500000D01*
%TO.N,P16*%
X107500000Y-105000000D02*
X103975000Y-105000000D01*
X103975000Y-105000000D02*
X99225000Y-100250000D01*
%TO.N,outer2_numbers*%
X110775000Y-102450000D02*
X108325000Y-100000000D01*
X108325000Y-100000000D02*
X107500000Y-100000000D01*
%TO.N,P14*%
X126500000Y-105000000D02*
X122975000Y-105000000D01*
X122975000Y-105000000D02*
X118225000Y-100250000D01*
%TO.N,outer1_numbers*%
X129775000Y-102450000D02*
X127325000Y-100000000D01*
X127325000Y-100000000D02*
X126500000Y-100000000D01*
%TO.N,P15*%
X145500000Y-105000000D02*
X141975000Y-105000000D01*
X141975000Y-105000000D02*
X137225000Y-100250000D01*
%TO.N,pinky_numbers*%
X148775000Y-102450000D02*
X146325000Y-100000000D01*
X146325000Y-100000000D02*
X145500000Y-100000000D01*
%TO.N,P18*%
X164500000Y-99000000D02*
X160975000Y-99000000D01*
X160975000Y-99000000D02*
X156225000Y-94250000D01*
%TO.N,ring_numbers*%
X167775000Y-96450000D02*
X165325000Y-94000000D01*
X165325000Y-94000000D02*
X164500000Y-94000000D01*
%TO.N,P19*%
X183500000Y-96000000D02*
X179975000Y-96000000D01*
X179975000Y-96000000D02*
X175225000Y-91250000D01*
%TO.N,middle_numbers*%
X186775000Y-93450000D02*
X184325000Y-91000000D01*
X184325000Y-91000000D02*
X183500000Y-91000000D01*
%TO.N,P20*%
X202500000Y-99000000D02*
X198975000Y-99000000D01*
X198975000Y-99000000D02*
X194225000Y-94250000D01*
%TO.N,index_numbers*%
X205775000Y-96450000D02*
X203325000Y-94000000D01*
X203325000Y-94000000D02*
X202500000Y-94000000D01*
%TO.N,P21*%
X221500000Y-102000000D02*
X217975000Y-102000000D01*
X217975000Y-102000000D02*
X213225000Y-97250000D01*
%TO.N,inner1_numbers*%
X224775000Y-99450000D02*
X222325000Y-97000000D01*
X222325000Y-97000000D02*
X221500000Y-97000000D01*
%TO.N,outer2_numbers*%
X111310000Y-91500000D02*
X109150000Y-91500000D01*
%TO.N,P4*%
X105850000Y-91500000D02*
X103690000Y-91500000D01*
X122690000Y-91500000D02*
X114000000Y-91500000D01*
X114000000Y-91500000D02*
X112000000Y-93500000D01*
X112000000Y-93500000D02*
X104500000Y-93500000D01*
X104500000Y-93500000D02*
X103690000Y-92690000D01*
X103690000Y-92690000D02*
X103690000Y-91500000D01*
%TO.N,outer1_numbers*%
X130310000Y-91500000D02*
X128150000Y-91500000D01*
%TO.N,P4*%
X124850000Y-91500000D02*
X122690000Y-91500000D01*
X131500000Y-93500000D02*
X124000000Y-93500000D01*
X141690000Y-91500000D02*
X133500000Y-91500000D01*
X133500000Y-91500000D02*
X131500000Y-93500000D01*
X124000000Y-93500000D02*
X122690000Y-92190000D01*
X122690000Y-92190000D02*
X122690000Y-91500000D01*
%TO.N,pinky_numbers*%
X149310000Y-91500000D02*
X147150000Y-91500000D01*
%TO.N,P4*%
X143850000Y-91500000D02*
X141690000Y-91500000D01*
X151000000Y-93500000D02*
X142500000Y-93500000D01*
X160690000Y-85500000D02*
X159000000Y-85500000D01*
X159000000Y-85500000D02*
X151000000Y-93500000D01*
X142500000Y-93500000D02*
X141690000Y-92690000D01*
X141690000Y-92690000D02*
X141690000Y-91500000D01*
%TO.N,ring_numbers*%
X168310000Y-85500000D02*
X166150000Y-85500000D01*
%TO.N,P4*%
X162850000Y-85500000D02*
X160690000Y-85500000D01*
X170000000Y-87500000D02*
X162000000Y-87500000D01*
X179690000Y-82500000D02*
X175000000Y-82500000D01*
X160690000Y-86190000D02*
X160690000Y-85500000D01*
X175000000Y-82500000D02*
X170000000Y-87500000D01*
X162000000Y-87500000D02*
X160690000Y-86190000D01*
%TO.N,middle_numbers*%
X187310000Y-82500000D02*
X185150000Y-82500000D01*
%TO.N,P4*%
X181850000Y-82500000D02*
X179690000Y-82500000D01*
X185000000Y-84500000D02*
X180000000Y-84500000D01*
X198690000Y-85500000D02*
X186000000Y-85500000D01*
X186000000Y-85500000D02*
X185000000Y-84500000D01*
X180000000Y-84500000D02*
X179690000Y-84190000D01*
X179690000Y-84190000D02*
X179690000Y-82500000D01*
%TO.N,index_numbers*%
X206310000Y-85500000D02*
X204150000Y-85500000D01*
%TO.N,P4*%
X200850000Y-85500000D02*
X198690000Y-85500000D01*
X217690000Y-88500000D02*
X205500000Y-88500000D01*
X205500000Y-88500000D02*
X205000000Y-88000000D01*
X205000000Y-88000000D02*
X200000000Y-88000000D01*
X200000000Y-88000000D02*
X198690000Y-86690000D01*
X198690000Y-86690000D02*
X198690000Y-85500000D01*
%TO.N,inner1_numbers*%
X225310000Y-88500000D02*
X223150000Y-88500000D01*
%TO.N,P4*%
X219850000Y-88500000D02*
X217690000Y-88500000D01*
%TO.N,VCC*%
X234880000Y-96650000D02*
X240350000Y-96650000D01*
X240350000Y-96650000D02*
X244500000Y-92500000D01*
X244500000Y-92500000D02*
X244500000Y-91500000D01*
X225780000Y-82500000D02*
X223680000Y-80400000D01*
X244500000Y-91500000D02*
X235500000Y-82500000D01*
X235500000Y-82500000D02*
X225780000Y-82500000D01*
%TO.N,GND*%
X243500000Y-92000000D02*
X243070000Y-91570000D01*
X243070000Y-91570000D02*
X234880000Y-91570000D01*
%TO.N,outer2_home*%
X109150000Y-129500000D02*
X111310000Y-129500000D01*
%TD*%
M02*
