%TF.GenerationSoftware,KiCad,Pcbnew,8.0.6*%
%TF.CreationDate,2024-11-25T22:34:03-05:00*%
%TF.ProjectId,jonkey-v2,6a6f6e6b-6579-42d7-9632-2e6b69636164,v1.0.0*%
%TF.SameCoordinates,Original*%
%TF.FileFunction,Soldermask,Top*%
%TF.FilePolarity,Negative*%
%FSLAX46Y46*%
G04 Gerber Fmt 4.6, Leading zero omitted, Abs format (unit mm)*
G04 Created by KiCad (PCBNEW 8.0.6) date 2024-11-25 22:34:03*
%MOMM*%
%LPD*%
G01*
G04 APERTURE LIST*
G04 Aperture macros list*
%AMRoundRect*
0 Rectangle with rounded corners*
0 $1 Rounding radius*
0 $2 $3 $4 $5 $6 $7 $8 $9 X,Y pos of 4 corners*
0 Add a 4 corners polygon primitive as box body*
4,1,4,$2,$3,$4,$5,$6,$7,$8,$9,$2,$3,0*
0 Add four circle primitives for the rounded corners*
1,1,$1+$1,$2,$3*
1,1,$1+$1,$4,$5*
1,1,$1+$1,$6,$7*
1,1,$1+$1,$8,$9*
0 Add four rect primitives between the rounded corners*
20,1,$1+$1,$2,$3,$4,$5,0*
20,1,$1+$1,$4,$5,$6,$7,0*
20,1,$1+$1,$6,$7,$8,$9,0*
20,1,$1+$1,$8,$9,$2,$3,0*%
G04 Aperture macros list end*
%ADD10C,2.300000*%
%ADD11C,1.801800*%
%ADD12C,3.100000*%
%ADD13C,3.529000*%
%ADD14RoundRect,0.050000X1.300000X1.300000X-1.300000X1.300000X-1.300000X-1.300000X1.300000X-1.300000X0*%
%ADD15RoundRect,0.050000X-0.889000X-0.889000X0.889000X-0.889000X0.889000X0.889000X-0.889000X0.889000X0*%
%ADD16RoundRect,0.050000X-0.450000X-0.600000X0.450000X-0.600000X0.450000X0.600000X-0.450000X0.600000X0*%
%ADD17C,2.005000*%
%ADD18RoundRect,0.050000X0.600000X-0.450000X0.600000X0.450000X-0.600000X0.450000X-0.600000X-0.450000X0*%
%ADD19RoundRect,0.050000X0.889000X-0.889000X0.889000X0.889000X-0.889000X0.889000X-0.889000X-0.889000X0*%
%ADD20RoundRect,0.050000X-1.004073X-0.756623X0.756623X-1.004073X1.004073X0.756623X-0.756623X1.004073X0*%
%ADD21RoundRect,0.050000X-0.529124X-0.531533X0.362117X-0.656789X0.529124X0.531533X-0.362117X0.656789X0*%
%ADD22RoundRect,0.050000X1.607969X0.891312X-0.891312X1.607969X-1.607969X-0.891312X0.891312X-1.607969X0*%
%ADD23RoundRect,0.050000X-0.850000X-0.850000X0.850000X-0.850000X0.850000X0.850000X-0.850000X0.850000X0*%
%ADD24O,1.800000X1.800000*%
%ADD25RoundRect,0.050000X-1.099603X-0.609520X0.609520X-1.099603X1.099603X0.609520X-0.609520X1.099603X0*%
%ADD26RoundRect,0.050000X-0.597950X-0.452720X0.267185X-0.700794X0.597950X0.452720X-0.267185X0.700794X0*%
%ADD27RoundRect,0.050000X1.468274X1.106423X-1.106423X1.468274X-1.468274X-1.106423X1.106423X-1.468274X0*%
%ADD28C,1.600000*%
%ADD29O,2.300000X1.700000*%
%ADD30RoundRect,0.050000X-1.173731X-0.450553X0.450553X-1.173731X1.173731X0.450553X-0.450553X1.173731X0*%
%ADD31RoundRect,0.050000X-0.655137X-0.365096X0.167053X-0.731159X0.655137X0.365096X-0.167053X0.731159X0*%
%ADD32C,2.100000*%
%ADD33RoundRect,0.050000X1.716367X0.658851X-0.658851X1.716367X-1.716367X-0.658851X0.658851X-1.716367X0*%
%ADD34RoundRect,0.050000X-0.876300X0.876300X-0.876300X-0.876300X0.876300X-0.876300X0.876300X0.876300X0*%
%ADD35C,1.852600*%
%ADD36RoundRect,0.050000X-0.850000X0.850000X-0.850000X-0.850000X0.850000X-0.850000X0.850000X0.850000X0*%
%ADD37RoundRect,0.050000X1.000000X-1.600000X1.000000X1.600000X-1.000000X1.600000X-1.000000X-1.600000X0*%
%ADD38RoundRect,0.050000X1.000000X-1.000000X1.000000X1.000000X-1.000000X1.000000X-1.000000X-1.000000X0*%
G04 APERTURE END LIST*
D10*
%TO.C,MH4*%
X202500000Y-159000000D03*
%TD*%
D11*
%TO.C,S26*%
X208000000Y-147500000D03*
D12*
X207500000Y-151250000D03*
X202500000Y-153450000D03*
X202500000Y-153450000D03*
D13*
X202500000Y-147500000D03*
D12*
X197500000Y-151250000D03*
D11*
X197000000Y-147500000D03*
D14*
X199225000Y-153450000D03*
X210775000Y-151250000D03*
%TD*%
D15*
%TO.C,D8*%
X122690000Y-110500000D03*
D16*
X124850000Y-110500000D03*
X128150000Y-110500000D03*
D17*
X130310000Y-110500000D03*
%TD*%
D11*
%TO.C,S33*%
X227000000Y-93500000D03*
D12*
X226500000Y-97250000D03*
X221500000Y-99450000D03*
X221500000Y-99450000D03*
D13*
X221500000Y-93500000D03*
D12*
X216500000Y-97250000D03*
D11*
X216000000Y-93500000D03*
D14*
X218225000Y-99450000D03*
X229775000Y-97250000D03*
%TD*%
D11*
%TO.C,S30*%
X227000000Y-150500000D03*
D12*
X226500000Y-154250000D03*
X221500000Y-156450000D03*
X221500000Y-156450000D03*
D13*
X221500000Y-150500000D03*
D12*
X216500000Y-154250000D03*
D11*
X216000000Y-150500000D03*
D14*
X218225000Y-156450000D03*
X229775000Y-154250000D03*
%TD*%
D11*
%TO.C,S4*%
X113000000Y-96500000D03*
D12*
X112500000Y-100250000D03*
X107500000Y-102450000D03*
X107500000Y-102450000D03*
D13*
X107500000Y-96500000D03*
D12*
X102500000Y-100250000D03*
D11*
X102000000Y-96500000D03*
D14*
X104225000Y-102450000D03*
X115775000Y-100250000D03*
%TD*%
D15*
%TO.C,D5*%
X122690000Y-169500000D03*
D16*
X124850000Y-169500000D03*
X128150000Y-169500000D03*
D17*
X130310000Y-169500000D03*
%TD*%
D11*
%TO.C,S25*%
X208000000Y-168500000D03*
D12*
X207500000Y-172250000D03*
X202500000Y-174450000D03*
X202500000Y-174450000D03*
D13*
X202500000Y-168500000D03*
D12*
X197500000Y-172250000D03*
D11*
X197000000Y-168500000D03*
D14*
X199225000Y-174450000D03*
X210775000Y-172250000D03*
%TD*%
D17*
%TO.C,R11*%
X234000000Y-126690000D03*
D18*
X234000000Y-128850000D03*
X234000000Y-132150000D03*
D19*
X234000000Y-134310000D03*
%TD*%
D15*
%TO.C,D17*%
X160690000Y-123500000D03*
D16*
X162850000Y-123500000D03*
X166150000Y-123500000D03*
D17*
X168310000Y-123500000D03*
%TD*%
D11*
%TO.C,S3*%
X113000000Y-115500000D03*
D12*
X112500000Y-119250000D03*
X107500000Y-121450000D03*
X107500000Y-121450000D03*
D13*
X107500000Y-115500000D03*
D12*
X102500000Y-119250000D03*
D11*
X102000000Y-115500000D03*
D14*
X104225000Y-121450000D03*
X115775000Y-119250000D03*
%TD*%
D20*
%TO.C,D34*%
X222422945Y-170018409D03*
D21*
X224561924Y-170319024D03*
X227829808Y-170778296D03*
D17*
X229968787Y-171078911D03*
%TD*%
D11*
%TO.C,S23*%
X189000000Y-106500000D03*
D12*
X188500000Y-110250000D03*
X183500000Y-112450000D03*
X183500000Y-112450000D03*
D13*
X183500000Y-106500000D03*
D12*
X178500000Y-110250000D03*
D11*
X178000000Y-106500000D03*
D14*
X180225000Y-112450000D03*
X191775000Y-110250000D03*
%TD*%
D15*
%TO.C,D6*%
X122690000Y-148500000D03*
D16*
X124850000Y-148500000D03*
X128150000Y-148500000D03*
D17*
X130310000Y-148500000D03*
%TD*%
D11*
%TO.C,S11*%
X151000000Y-153500000D03*
D12*
X150500000Y-157250000D03*
X145500000Y-159450000D03*
X145500000Y-159450000D03*
D13*
X145500000Y-153500000D03*
D12*
X140500000Y-157250000D03*
D11*
X140000000Y-153500000D03*
D14*
X142225000Y-159450000D03*
X153775000Y-157250000D03*
%TD*%
D11*
%TO.C,S6*%
X132000000Y-153500000D03*
D12*
X131500000Y-157250000D03*
X126500000Y-159450000D03*
X126500000Y-159450000D03*
D13*
X126500000Y-153500000D03*
D12*
X121500000Y-157250000D03*
D11*
X121000000Y-153500000D03*
D14*
X123225000Y-159450000D03*
X134775000Y-157250000D03*
%TD*%
D11*
%TO.C,S24*%
X189000000Y-87500000D03*
D12*
X188500000Y-91250000D03*
X183500000Y-93450000D03*
X183500000Y-93450000D03*
D13*
X183500000Y-87500000D03*
D12*
X178500000Y-91250000D03*
D11*
X178000000Y-87500000D03*
D14*
X180225000Y-93450000D03*
X191775000Y-91250000D03*
%TD*%
D15*
%TO.C,D1*%
X103690000Y-148500000D03*
D16*
X105850000Y-148500000D03*
X109150000Y-148500000D03*
D17*
X111310000Y-148500000D03*
%TD*%
D15*
%TO.C,D7*%
X122690000Y-129500000D03*
D16*
X124850000Y-129500000D03*
X128150000Y-129500000D03*
D17*
X130310000Y-129500000D03*
%TD*%
D11*
%TO.C,S10*%
X151000000Y-174500000D03*
D12*
X150500000Y-178250000D03*
X145500000Y-180450000D03*
X145500000Y-180450000D03*
D13*
X145500000Y-174500000D03*
D12*
X140500000Y-178250000D03*
D11*
X140000000Y-174500000D03*
D14*
X142225000Y-180450000D03*
X153775000Y-178250000D03*
%TD*%
D15*
%TO.C,D18*%
X160690000Y-104500000D03*
D16*
X162850000Y-104500000D03*
X166150000Y-104500000D03*
D17*
X168310000Y-104500000D03*
%TD*%
D10*
%TO.C,MH2*%
X212000000Y-103000000D03*
%TD*%
D11*
%TO.C,S1*%
X113000000Y-153500000D03*
D12*
X112500000Y-157250000D03*
X107500000Y-159450000D03*
X107500000Y-159450000D03*
D13*
X107500000Y-153500000D03*
D12*
X102500000Y-157250000D03*
D11*
X102000000Y-153500000D03*
D14*
X104225000Y-159450000D03*
X115775000Y-157250000D03*
%TD*%
D11*
%TO.C,S20*%
X189000000Y-165500000D03*
D12*
X188500000Y-169250000D03*
X183500000Y-171450000D03*
X183500000Y-171450000D03*
D13*
X183500000Y-165500000D03*
D12*
X178500000Y-169250000D03*
D11*
X178000000Y-165500000D03*
D14*
X180225000Y-171450000D03*
X191775000Y-169250000D03*
%TD*%
D11*
%TO.C,S12*%
X151000000Y-134500000D03*
D12*
X150500000Y-138250000D03*
X145500000Y-140450000D03*
X145500000Y-140450000D03*
D13*
X145500000Y-134500000D03*
D12*
X140500000Y-138250000D03*
D11*
X140000000Y-134500000D03*
D14*
X142225000Y-140450000D03*
X153775000Y-138250000D03*
%TD*%
D11*
%TO.C,S29*%
X208000000Y-90500000D03*
D12*
X207500000Y-94250000D03*
X202500000Y-96450000D03*
X202500000Y-96450000D03*
D13*
X202500000Y-90500000D03*
D12*
X197500000Y-94250000D03*
D11*
X197000000Y-90500000D03*
D14*
X199225000Y-96450000D03*
X210775000Y-94250000D03*
%TD*%
D11*
%TO.C,S17*%
X170000000Y-128500000D03*
D12*
X169500000Y-132250000D03*
X164500000Y-134450000D03*
X164500000Y-134450000D03*
D13*
X164500000Y-128500000D03*
D12*
X159500000Y-132250000D03*
D11*
X159000000Y-128500000D03*
D14*
X161225000Y-134450000D03*
X172775000Y-132250000D03*
%TD*%
D15*
%TO.C,D4*%
X103690000Y-91500000D03*
D16*
X105850000Y-91500000D03*
X109150000Y-91500000D03*
D17*
X111310000Y-91500000D03*
%TD*%
D11*
%TO.C,S35*%
X252021562Y-182000337D03*
D12*
X250507291Y-185467250D03*
X245094581Y-186203839D03*
X245094581Y-186203839D03*
D13*
X246734623Y-180484332D03*
D12*
X240894674Y-182710878D03*
D11*
X241447684Y-178968327D03*
D22*
X241946449Y-185301127D03*
X253655422Y-186369962D03*
%TD*%
D11*
%TO.C,S2*%
X113000000Y-134500000D03*
D12*
X112500000Y-138250000D03*
X107500000Y-140450000D03*
X107500000Y-140450000D03*
D13*
X107500000Y-134500000D03*
D12*
X102500000Y-138250000D03*
D11*
X102000000Y-134500000D03*
D14*
X104225000Y-140450000D03*
X115775000Y-138250000D03*
%TD*%
D15*
%TO.C,D32*%
X217690000Y-107500000D03*
D16*
X219850000Y-107500000D03*
X223150000Y-107500000D03*
D17*
X225310000Y-107500000D03*
%TD*%
D15*
%TO.C,D33*%
X217690000Y-88500000D03*
D16*
X219850000Y-88500000D03*
X223150000Y-88500000D03*
D17*
X225310000Y-88500000D03*
%TD*%
D11*
%TO.C,S5*%
X132000000Y-174500000D03*
D12*
X131500000Y-178250000D03*
X126500000Y-180450000D03*
X126500000Y-180450000D03*
D13*
X126500000Y-174500000D03*
D12*
X121500000Y-178250000D03*
D11*
X121000000Y-174500000D03*
D14*
X123225000Y-180450000D03*
X134775000Y-178250000D03*
%TD*%
D15*
%TO.C,D2*%
X103690000Y-129500000D03*
D16*
X105850000Y-129500000D03*
X109150000Y-129500000D03*
D17*
X111310000Y-129500000D03*
%TD*%
D11*
%TO.C,S22*%
X189000000Y-125500000D03*
D12*
X188500000Y-129250000D03*
X183500000Y-131450000D03*
X183500000Y-131450000D03*
D13*
X183500000Y-125500000D03*
D12*
X178500000Y-129250000D03*
D11*
X178000000Y-125500000D03*
D14*
X180225000Y-131450000D03*
X191775000Y-129250000D03*
%TD*%
D11*
%TO.C,S28*%
X208000000Y-109500000D03*
D12*
X207500000Y-113250000D03*
X202500000Y-115450000D03*
X202500000Y-115450000D03*
D13*
X202500000Y-109500000D03*
D12*
X197500000Y-113250000D03*
D11*
X197000000Y-109500000D03*
D14*
X199225000Y-115450000D03*
X210775000Y-113250000D03*
%TD*%
D11*
%TO.C,S27*%
X208000000Y-128500000D03*
D12*
X207500000Y-132250000D03*
X202500000Y-134450000D03*
X202500000Y-134450000D03*
D13*
X202500000Y-128500000D03*
D12*
X197500000Y-132250000D03*
D11*
X197000000Y-128500000D03*
D14*
X199225000Y-134450000D03*
X210775000Y-132250000D03*
%TD*%
D15*
%TO.C,D3*%
X103690000Y-110500000D03*
D16*
X105850000Y-110500000D03*
X109150000Y-110500000D03*
D17*
X111310000Y-110500000D03*
%TD*%
D15*
%TO.C,D25*%
X198690000Y-163500000D03*
D16*
X200850000Y-163500000D03*
X204150000Y-163500000D03*
D17*
X206310000Y-163500000D03*
%TD*%
D11*
%TO.C,S19*%
X170000000Y-90500000D03*
D12*
X169500000Y-94250000D03*
X164500000Y-96450000D03*
X164500000Y-96450000D03*
D13*
X164500000Y-90500000D03*
D12*
X159500000Y-94250000D03*
D11*
X159000000Y-90500000D03*
D14*
X161225000Y-96450000D03*
X172775000Y-94250000D03*
%TD*%
D10*
%TO.C,MH1*%
X117000000Y-106000000D03*
%TD*%
D15*
%TO.C,D28*%
X198690000Y-104500000D03*
D16*
X200850000Y-104500000D03*
X204150000Y-104500000D03*
D17*
X206310000Y-104500000D03*
%TD*%
D15*
%TO.C,D12*%
X141690000Y-129500000D03*
D16*
X143850000Y-129500000D03*
X147150000Y-129500000D03*
D17*
X149310000Y-129500000D03*
%TD*%
D15*
%TO.C,D24*%
X179690000Y-82500000D03*
D16*
X181850000Y-82500000D03*
X185150000Y-82500000D03*
D17*
X187310000Y-82500000D03*
%TD*%
D15*
%TO.C,D31*%
X217690000Y-126500000D03*
D16*
X219850000Y-126500000D03*
X223150000Y-126500000D03*
D17*
X225310000Y-126500000D03*
%TD*%
D23*
%TO.C,SERIAL1*%
X231300000Y-80400000D03*
D24*
X228760000Y-80400000D03*
X226220000Y-80400000D03*
X223680000Y-80400000D03*
%TD*%
D11*
%TO.C,S13*%
X151000000Y-115500000D03*
D12*
X150500000Y-119250000D03*
X145500000Y-121450000D03*
X145500000Y-121450000D03*
D13*
X145500000Y-115500000D03*
D12*
X140500000Y-119250000D03*
D11*
X140000000Y-115500000D03*
D14*
X142225000Y-121450000D03*
X153775000Y-119250000D03*
%TD*%
D11*
%TO.C,S15*%
X170000000Y-168500000D03*
D12*
X169500000Y-172250000D03*
X164500000Y-174450000D03*
X164500000Y-174450000D03*
D13*
X164500000Y-168500000D03*
D12*
X159500000Y-172250000D03*
D11*
X159000000Y-168500000D03*
D14*
X161225000Y-174450000D03*
X172775000Y-172250000D03*
%TD*%
D25*
%TO.C,D35*%
X244450403Y-174627845D03*
D26*
X246526728Y-175223221D03*
X249698892Y-176132825D03*
D17*
X251775217Y-176728201D03*
%TD*%
D15*
%TO.C,D10*%
X141690000Y-169500000D03*
D16*
X143850000Y-169500000D03*
X147150000Y-169500000D03*
D17*
X149310000Y-169500000D03*
%TD*%
D11*
%TO.C,S14*%
X151000000Y-96500000D03*
D12*
X150500000Y-100250000D03*
X145500000Y-102450000D03*
X145500000Y-102450000D03*
D13*
X145500000Y-96500000D03*
D12*
X140500000Y-100250000D03*
D11*
X140000000Y-96500000D03*
D14*
X142225000Y-102450000D03*
X153775000Y-100250000D03*
%TD*%
D15*
%TO.C,D27*%
X198690000Y-123500000D03*
D16*
X200850000Y-123500000D03*
X204150000Y-123500000D03*
D17*
X206310000Y-123500000D03*
%TD*%
D11*
%TO.C,S34*%
X230946474Y-176265452D03*
D12*
X229929441Y-179909371D03*
X224671920Y-181392095D03*
X224671920Y-181392095D03*
D13*
X225500000Y-175500000D03*
D12*
X220026762Y-178517640D03*
D11*
X220053526Y-174734548D03*
D27*
X221428792Y-180936303D03*
X233172569Y-180365163D03*
%TD*%
D11*
%TO.C,S21*%
X189000000Y-144500000D03*
D12*
X188500000Y-148250000D03*
X183500000Y-150450000D03*
X183500000Y-150450000D03*
D13*
X183500000Y-144500000D03*
D12*
X178500000Y-148250000D03*
D11*
X178000000Y-144500000D03*
D14*
X180225000Y-150450000D03*
X191775000Y-148250000D03*
%TD*%
D11*
%TO.C,S31*%
X227000000Y-131500000D03*
D12*
X226500000Y-135250000D03*
X221500000Y-137450000D03*
X221500000Y-137450000D03*
D13*
X221500000Y-131500000D03*
D12*
X216500000Y-135250000D03*
D11*
X216000000Y-131500000D03*
D14*
X218225000Y-137450000D03*
X229775000Y-135250000D03*
%TD*%
D11*
%TO.C,S18*%
X170000000Y-109500000D03*
D12*
X169500000Y-113250000D03*
X164500000Y-115450000D03*
X164500000Y-115450000D03*
D13*
X164500000Y-109500000D03*
D12*
X159500000Y-113250000D03*
D11*
X159000000Y-109500000D03*
D14*
X161225000Y-115450000D03*
X172775000Y-113250000D03*
%TD*%
D28*
%TO.C,TRRS1*%
X250900000Y-129200000D03*
X243900000Y-129200000D03*
X250900000Y-131500000D03*
X243900000Y-131500000D03*
D29*
X241200000Y-129200000D03*
X241200000Y-131500000D03*
X242300000Y-126900000D03*
X242300000Y-133800000D03*
X246300000Y-126900000D03*
X246300000Y-133800000D03*
X249300000Y-126900000D03*
X249300000Y-133800000D03*
%TD*%
D15*
%TO.C,D11*%
X141690000Y-148500000D03*
D16*
X143850000Y-148500000D03*
X147150000Y-148500000D03*
D17*
X149310000Y-148500000D03*
%TD*%
D11*
%TO.C,S16*%
X170000000Y-147500000D03*
D12*
X169500000Y-151250000D03*
X164500000Y-153450000D03*
X164500000Y-153450000D03*
D13*
X164500000Y-147500000D03*
D12*
X159500000Y-151250000D03*
D11*
X159000000Y-147500000D03*
D14*
X161225000Y-153450000D03*
X172775000Y-151250000D03*
%TD*%
D15*
%TO.C,D14*%
X141690000Y-91500000D03*
D16*
X143850000Y-91500000D03*
X147150000Y-91500000D03*
D17*
X149310000Y-91500000D03*
%TD*%
D15*
%TO.C,D9*%
X122690000Y-91500000D03*
D16*
X124850000Y-91500000D03*
X128150000Y-91500000D03*
D17*
X130310000Y-91500000D03*
%TD*%
D15*
%TO.C,D13*%
X141690000Y-110500000D03*
D16*
X143850000Y-110500000D03*
X147150000Y-110500000D03*
D17*
X149310000Y-110500000D03*
%TD*%
D30*
%TO.C,D36*%
X265359783Y-182162618D03*
D31*
X267333041Y-183041170D03*
X270347741Y-184383400D03*
D17*
X272320999Y-185261952D03*
%TD*%
D15*
%TO.C,D16*%
X160690000Y-142500000D03*
D16*
X162850000Y-142500000D03*
X166150000Y-142500000D03*
D17*
X168310000Y-142500000D03*
%TD*%
D32*
%TO.C,RST1*%
X245750000Y-122000000D03*
X239250000Y-122000000D03*
%TD*%
D11*
%TO.C,S9*%
X132000000Y-96500000D03*
D12*
X131500000Y-100250000D03*
X126500000Y-102450000D03*
X126500000Y-102450000D03*
D13*
X126500000Y-96500000D03*
D12*
X121500000Y-100250000D03*
D11*
X121000000Y-96500000D03*
D14*
X123225000Y-102450000D03*
X134775000Y-100250000D03*
%TD*%
D11*
%TO.C,S36*%
X271831208Y-190517064D03*
D12*
X269849173Y-193739491D03*
X264386625Y-193715607D03*
X264386625Y-193715607D03*
D13*
X266806708Y-188280012D03*
D12*
X260713718Y-189672124D03*
D11*
X261782208Y-186042960D03*
D33*
X261394764Y-192383545D03*
X272841034Y-195071553D03*
%TD*%
D15*
%TO.C,D30*%
X217690000Y-145500000D03*
D16*
X219850000Y-145500000D03*
X223150000Y-145500000D03*
D17*
X225310000Y-145500000D03*
%TD*%
D15*
%TO.C,D21*%
X179690000Y-139500000D03*
D16*
X181850000Y-139500000D03*
X185150000Y-139500000D03*
D17*
X187310000Y-139500000D03*
%TD*%
D15*
%TO.C,D26*%
X198690000Y-142500000D03*
D16*
X200850000Y-142500000D03*
X204150000Y-142500000D03*
D17*
X206310000Y-142500000D03*
%TD*%
D34*
%TO.C,MCU1*%
X234880000Y-89030000D03*
D35*
X234880000Y-91570000D03*
X234880000Y-94110000D03*
X234880000Y-96650000D03*
X234880000Y-99190000D03*
X234880000Y-101730000D03*
X234880000Y-104270000D03*
X234880000Y-106810000D03*
X234880000Y-109350000D03*
X234880000Y-111890000D03*
X234880000Y-114430000D03*
X234880000Y-116970000D03*
X250120000Y-89030000D03*
X250120000Y-91570000D03*
X250120000Y-94110000D03*
X250120000Y-96650000D03*
X250120000Y-99190000D03*
X250120000Y-101730000D03*
X250120000Y-104270000D03*
X250120000Y-106810000D03*
X250120000Y-109350000D03*
X250120000Y-111890000D03*
X250120000Y-114430000D03*
X250120000Y-116970000D03*
%TD*%
D17*
%TO.C,R21*%
X237000000Y-126690000D03*
D18*
X237000000Y-128850000D03*
X237000000Y-132150000D03*
D19*
X237000000Y-134310000D03*
%TD*%
D36*
%TO.C,OLED1*%
X252100000Y-155550000D03*
D24*
X252100000Y-153010000D03*
X252100000Y-150470000D03*
X252100000Y-147930000D03*
%TD*%
D11*
%TO.C,S32*%
X227000000Y-112500000D03*
D12*
X226500000Y-116250000D03*
X221500000Y-118450000D03*
X221500000Y-118450000D03*
D13*
X221500000Y-112500000D03*
D12*
X216500000Y-116250000D03*
D11*
X216000000Y-112500000D03*
D14*
X218225000Y-118450000D03*
X229775000Y-116250000D03*
%TD*%
D15*
%TO.C,D22*%
X179690000Y-120500000D03*
D16*
X181850000Y-120500000D03*
X185150000Y-120500000D03*
D17*
X187310000Y-120500000D03*
%TD*%
D10*
%TO.C,MH3*%
X126500000Y-165000000D03*
%TD*%
D37*
%TO.C,ROT1*%
X236860000Y-150620000D03*
X248060000Y-150620000D03*
D28*
X239960000Y-143620000D03*
X244960000Y-143620000D03*
D38*
X239960000Y-158120000D03*
D32*
X244960000Y-158120000D03*
X242460000Y-158120000D03*
%TD*%
D15*
%TO.C,D23*%
X179690000Y-101500000D03*
D16*
X181850000Y-101500000D03*
X185150000Y-101500000D03*
D17*
X187310000Y-101500000D03*
%TD*%
D11*
%TO.C,S7*%
X132000000Y-134500000D03*
D12*
X131500000Y-138250000D03*
X126500000Y-140450000D03*
X126500000Y-140450000D03*
D13*
X126500000Y-134500000D03*
D12*
X121500000Y-138250000D03*
D11*
X121000000Y-134500000D03*
D14*
X123225000Y-140450000D03*
X134775000Y-138250000D03*
%TD*%
D15*
%TO.C,D20*%
X179690000Y-160500000D03*
D16*
X181850000Y-160500000D03*
X185150000Y-160500000D03*
D17*
X187310000Y-160500000D03*
%TD*%
D15*
%TO.C,D29*%
X198690000Y-85500000D03*
D16*
X200850000Y-85500000D03*
X204150000Y-85500000D03*
D17*
X206310000Y-85500000D03*
%TD*%
D15*
%TO.C,D15*%
X160690000Y-163500000D03*
D16*
X162850000Y-163500000D03*
X166150000Y-163500000D03*
D17*
X168310000Y-163500000D03*
%TD*%
D15*
%TO.C,D19*%
X160690000Y-85500000D03*
D16*
X162850000Y-85500000D03*
X166150000Y-85500000D03*
D17*
X168310000Y-85500000D03*
%TD*%
D11*
%TO.C,S8*%
X132000000Y-115500000D03*
D12*
X131500000Y-119250000D03*
X126500000Y-121450000D03*
X126500000Y-121450000D03*
D13*
X126500000Y-115500000D03*
D12*
X121500000Y-119250000D03*
D11*
X121000000Y-115500000D03*
D14*
X123225000Y-121450000D03*
X134775000Y-119250000D03*
%TD*%
M02*
